<?xml version="1.0" encoding="utf-8" standalone="no"?>
<!DOCTYPE svg PUBLIC "-//W3C//DTD SVG 1.1//EN"
  "http://www.w3.org/Graphics/SVG/1.1/DTD/svg11.dtd">
<!-- Created with matplotlib (https://matplotlib.org/) -->
<svg height="457.600038pt" version="1.1" viewBox="0 0 817.152594 457.600038" width="817.152594pt" xmlns="http://www.w3.org/2000/svg" xmlns:xlink="http://www.w3.org/1999/xlink">
 <defs>
  <style type="text/css">
*{stroke-linecap:butt;stroke-linejoin:round;}
  </style>
 </defs>
 <g id="figure_1">
  <g id="patch_1">
   <path d="M 0 457.600038 
L 817.152594 457.600038 
L 817.152594 0 
L 0 0 
z
" style="fill:#ffffff;"/>
  </g>
  <g id="axes_1">
   <g id="patch_2">
    <path d="M 50.104688 433.721913 
L 390.797427 433.721913 
L 390.797427 45.040113 
L 50.104688 45.040113 
z
" style="fill:#ffffff;"/>
   </g>
   <g id="matplotlib.axis_1">
    <g id="xtick_1">
     <g id="line2d_1">
      <path clip-path="url(#p992720420b)" d="M 85.255526 433.721913 
L 85.255526 45.040113 
" style="fill:none;stroke:#cccccc;stroke-dasharray:2.96,1.28;stroke-dashoffset:0;stroke-opacity:0.2;stroke-width:0.8;"/>
     </g>
     <g id="line2d_2">
      <defs>
       <path d="M 0 0 
L 0 3.5 
" id="mc04961ae1a" style="stroke:#262626;stroke-width:0.8;"/>
      </defs>
      <g>
       <use style="fill:#262626;stroke:#262626;stroke-width:0.8;" x="85.255526" xlink:href="#mc04961ae1a" y="433.721913"/>
      </g>
     </g>
     <g id="text_1">
      <!-- 1960 -->
      <defs>
       <path d="M 12.40625 8.296875 
L 28.515625 8.296875 
L 28.515625 63.921875 
L 10.984375 60.40625 
L 10.984375 69.390625 
L 28.421875 72.90625 
L 38.28125 72.90625 
L 38.28125 8.296875 
L 54.390625 8.296875 
L 54.390625 0 
L 12.40625 0 
z
" id="DejaVuSans-49"/>
       <path d="M 10.984375 1.515625 
L 10.984375 10.5 
Q 14.703125 8.734375 18.5 7.8125 
Q 22.3125 6.890625 25.984375 6.890625 
Q 35.75 6.890625 40.890625 13.453125 
Q 46.046875 20.015625 46.78125 33.40625 
Q 43.953125 29.203125 39.59375 26.953125 
Q 35.25 24.703125 29.984375 24.703125 
Q 19.046875 24.703125 12.671875 31.3125 
Q 6.296875 37.9375 6.296875 49.421875 
Q 6.296875 60.640625 12.9375 67.421875 
Q 19.578125 74.21875 30.609375 74.21875 
Q 43.265625 74.21875 49.921875 64.515625 
Q 56.59375 54.828125 56.59375 36.375 
Q 56.59375 19.140625 48.40625 8.859375 
Q 40.234375 -1.421875 26.421875 -1.421875 
Q 22.703125 -1.421875 18.890625 -0.6875 
Q 15.09375 0.046875 10.984375 1.515625 
z
M 30.609375 32.421875 
Q 37.25 32.421875 41.125 36.953125 
Q 45.015625 41.5 45.015625 49.421875 
Q 45.015625 57.28125 41.125 61.84375 
Q 37.25 66.40625 30.609375 66.40625 
Q 23.96875 66.40625 20.09375 61.84375 
Q 16.21875 57.28125 16.21875 49.421875 
Q 16.21875 41.5 20.09375 36.953125 
Q 23.96875 32.421875 30.609375 32.421875 
z
" id="DejaVuSans-57"/>
       <path d="M 33.015625 40.375 
Q 26.375 40.375 22.484375 35.828125 
Q 18.609375 31.296875 18.609375 23.390625 
Q 18.609375 15.53125 22.484375 10.953125 
Q 26.375 6.390625 33.015625 6.390625 
Q 39.65625 6.390625 43.53125 10.953125 
Q 47.40625 15.53125 47.40625 23.390625 
Q 47.40625 31.296875 43.53125 35.828125 
Q 39.65625 40.375 33.015625 40.375 
z
M 52.59375 71.296875 
L 52.59375 62.3125 
Q 48.875 64.0625 45.09375 64.984375 
Q 41.3125 65.921875 37.59375 65.921875 
Q 27.828125 65.921875 22.671875 59.328125 
Q 17.53125 52.734375 16.796875 39.40625 
Q 19.671875 43.65625 24.015625 45.921875 
Q 28.375 48.1875 33.59375 48.1875 
Q 44.578125 48.1875 50.953125 41.515625 
Q 57.328125 34.859375 57.328125 23.390625 
Q 57.328125 12.15625 50.6875 5.359375 
Q 44.046875 -1.421875 33.015625 -1.421875 
Q 20.359375 -1.421875 13.671875 8.265625 
Q 6.984375 17.96875 6.984375 36.375 
Q 6.984375 53.65625 15.1875 63.9375 
Q 23.390625 74.21875 37.203125 74.21875 
Q 40.921875 74.21875 44.703125 73.484375 
Q 48.484375 72.75 52.59375 71.296875 
z
" id="DejaVuSans-54"/>
       <path d="M 31.78125 66.40625 
Q 24.171875 66.40625 20.328125 58.90625 
Q 16.5 51.421875 16.5 36.375 
Q 16.5 21.390625 20.328125 13.890625 
Q 24.171875 6.390625 31.78125 6.390625 
Q 39.453125 6.390625 43.28125 13.890625 
Q 47.125 21.390625 47.125 36.375 
Q 47.125 51.421875 43.28125 58.90625 
Q 39.453125 66.40625 31.78125 66.40625 
z
M 31.78125 74.21875 
Q 44.046875 74.21875 50.515625 64.515625 
Q 56.984375 54.828125 56.984375 36.375 
Q 56.984375 17.96875 50.515625 8.265625 
Q 44.046875 -1.421875 31.78125 -1.421875 
Q 19.53125 -1.421875 13.0625 8.265625 
Q 6.59375 17.96875 6.59375 36.375 
Q 6.59375 54.828125 13.0625 64.515625 
Q 19.53125 74.21875 31.78125 74.21875 
z
" id="DejaVuSans-48"/>
      </defs>
      <g style="fill:#262626;" transform="translate(72.530526 448.32035)scale(0.1 -0.1)">
       <use xlink:href="#DejaVuSans-49"/>
       <use x="63.623047" xlink:href="#DejaVuSans-57"/>
       <use x="127.246094" xlink:href="#DejaVuSans-54"/>
       <use x="190.869141" xlink:href="#DejaVuSans-48"/>
      </g>
     </g>
    </g>
    <g id="xtick_2">
     <g id="line2d_3">
      <path clip-path="url(#p992720420b)" d="M 134.417537 433.721913 
L 134.417537 45.040113 
" style="fill:none;stroke:#cccccc;stroke-dasharray:2.96,1.28;stroke-dashoffset:0;stroke-opacity:0.2;stroke-width:0.8;"/>
     </g>
     <g id="line2d_4">
      <g>
       <use style="fill:#262626;stroke:#262626;stroke-width:0.8;" x="134.417537" xlink:href="#mc04961ae1a" y="433.721913"/>
      </g>
     </g>
     <g id="text_2">
      <!-- 1970 -->
      <defs>
       <path d="M 8.203125 72.90625 
L 55.078125 72.90625 
L 55.078125 68.703125 
L 28.609375 0 
L 18.3125 0 
L 43.21875 64.59375 
L 8.203125 64.59375 
z
" id="DejaVuSans-55"/>
      </defs>
      <g style="fill:#262626;" transform="translate(121.692537 448.32035)scale(0.1 -0.1)">
       <use xlink:href="#DejaVuSans-49"/>
       <use x="63.623047" xlink:href="#DejaVuSans-57"/>
       <use x="127.246094" xlink:href="#DejaVuSans-55"/>
       <use x="190.869141" xlink:href="#DejaVuSans-48"/>
      </g>
     </g>
    </g>
    <g id="xtick_3">
     <g id="line2d_5">
      <path clip-path="url(#p992720420b)" d="M 183.579548 433.721913 
L 183.579548 45.040113 
" style="fill:none;stroke:#cccccc;stroke-dasharray:2.96,1.28;stroke-dashoffset:0;stroke-opacity:0.2;stroke-width:0.8;"/>
     </g>
     <g id="line2d_6">
      <g>
       <use style="fill:#262626;stroke:#262626;stroke-width:0.8;" x="183.579548" xlink:href="#mc04961ae1a" y="433.721913"/>
      </g>
     </g>
     <g id="text_3">
      <!-- 1980 -->
      <defs>
       <path d="M 31.78125 34.625 
Q 24.75 34.625 20.71875 30.859375 
Q 16.703125 27.09375 16.703125 20.515625 
Q 16.703125 13.921875 20.71875 10.15625 
Q 24.75 6.390625 31.78125 6.390625 
Q 38.8125 6.390625 42.859375 10.171875 
Q 46.921875 13.96875 46.921875 20.515625 
Q 46.921875 27.09375 42.890625 30.859375 
Q 38.875 34.625 31.78125 34.625 
z
M 21.921875 38.8125 
Q 15.578125 40.375 12.03125 44.71875 
Q 8.5 49.078125 8.5 55.328125 
Q 8.5 64.0625 14.71875 69.140625 
Q 20.953125 74.21875 31.78125 74.21875 
Q 42.671875 74.21875 48.875 69.140625 
Q 55.078125 64.0625 55.078125 55.328125 
Q 55.078125 49.078125 51.53125 44.71875 
Q 48 40.375 41.703125 38.8125 
Q 48.828125 37.15625 52.796875 32.3125 
Q 56.78125 27.484375 56.78125 20.515625 
Q 56.78125 9.90625 50.3125 4.234375 
Q 43.84375 -1.421875 31.78125 -1.421875 
Q 19.734375 -1.421875 13.25 4.234375 
Q 6.78125 9.90625 6.78125 20.515625 
Q 6.78125 27.484375 10.78125 32.3125 
Q 14.796875 37.15625 21.921875 38.8125 
z
M 18.3125 54.390625 
Q 18.3125 48.734375 21.84375 45.5625 
Q 25.390625 42.390625 31.78125 42.390625 
Q 38.140625 42.390625 41.71875 45.5625 
Q 45.3125 48.734375 45.3125 54.390625 
Q 45.3125 60.0625 41.71875 63.234375 
Q 38.140625 66.40625 31.78125 66.40625 
Q 25.390625 66.40625 21.84375 63.234375 
Q 18.3125 60.0625 18.3125 54.390625 
z
" id="DejaVuSans-56"/>
      </defs>
      <g style="fill:#262626;" transform="translate(170.854548 448.32035)scale(0.1 -0.1)">
       <use xlink:href="#DejaVuSans-49"/>
       <use x="63.623047" xlink:href="#DejaVuSans-57"/>
       <use x="127.246094" xlink:href="#DejaVuSans-56"/>
       <use x="190.869141" xlink:href="#DejaVuSans-48"/>
      </g>
     </g>
    </g>
    <g id="xtick_4">
     <g id="line2d_7">
      <path clip-path="url(#p992720420b)" d="M 232.74156 433.721913 
L 232.74156 45.040113 
" style="fill:none;stroke:#cccccc;stroke-dasharray:2.96,1.28;stroke-dashoffset:0;stroke-opacity:0.2;stroke-width:0.8;"/>
     </g>
     <g id="line2d_8">
      <g>
       <use style="fill:#262626;stroke:#262626;stroke-width:0.8;" x="232.74156" xlink:href="#mc04961ae1a" y="433.721913"/>
      </g>
     </g>
     <g id="text_4">
      <!-- 1990 -->
      <g style="fill:#262626;" transform="translate(220.01656 448.32035)scale(0.1 -0.1)">
       <use xlink:href="#DejaVuSans-49"/>
       <use x="63.623047" xlink:href="#DejaVuSans-57"/>
       <use x="127.246094" xlink:href="#DejaVuSans-57"/>
       <use x="190.869141" xlink:href="#DejaVuSans-48"/>
      </g>
     </g>
    </g>
    <g id="xtick_5">
     <g id="line2d_9">
      <path clip-path="url(#p992720420b)" d="M 281.903571 433.721913 
L 281.903571 45.040113 
" style="fill:none;stroke:#cccccc;stroke-dasharray:2.96,1.28;stroke-dashoffset:0;stroke-opacity:0.2;stroke-width:0.8;"/>
     </g>
     <g id="line2d_10">
      <g>
       <use style="fill:#262626;stroke:#262626;stroke-width:0.8;" x="281.903571" xlink:href="#mc04961ae1a" y="433.721913"/>
      </g>
     </g>
     <g id="text_5">
      <!-- 2000 -->
      <defs>
       <path d="M 19.1875 8.296875 
L 53.609375 8.296875 
L 53.609375 0 
L 7.328125 0 
L 7.328125 8.296875 
Q 12.9375 14.109375 22.625 23.890625 
Q 32.328125 33.6875 34.8125 36.53125 
Q 39.546875 41.84375 41.421875 45.53125 
Q 43.3125 49.21875 43.3125 52.78125 
Q 43.3125 58.59375 39.234375 62.25 
Q 35.15625 65.921875 28.609375 65.921875 
Q 23.96875 65.921875 18.8125 64.3125 
Q 13.671875 62.703125 7.8125 59.421875 
L 7.8125 69.390625 
Q 13.765625 71.78125 18.9375 73 
Q 24.125 74.21875 28.421875 74.21875 
Q 39.75 74.21875 46.484375 68.546875 
Q 53.21875 62.890625 53.21875 53.421875 
Q 53.21875 48.921875 51.53125 44.890625 
Q 49.859375 40.875 45.40625 35.40625 
Q 44.1875 33.984375 37.640625 27.21875 
Q 31.109375 20.453125 19.1875 8.296875 
z
" id="DejaVuSans-50"/>
      </defs>
      <g style="fill:#262626;" transform="translate(269.178571 448.32035)scale(0.1 -0.1)">
       <use xlink:href="#DejaVuSans-50"/>
       <use x="63.623047" xlink:href="#DejaVuSans-48"/>
       <use x="127.246094" xlink:href="#DejaVuSans-48"/>
       <use x="190.869141" xlink:href="#DejaVuSans-48"/>
      </g>
     </g>
    </g>
    <g id="xtick_6">
     <g id="line2d_11">
      <path clip-path="url(#p992720420b)" d="M 331.065583 433.721913 
L 331.065583 45.040113 
" style="fill:none;stroke:#cccccc;stroke-dasharray:2.96,1.28;stroke-dashoffset:0;stroke-opacity:0.2;stroke-width:0.8;"/>
     </g>
     <g id="line2d_12">
      <g>
       <use style="fill:#262626;stroke:#262626;stroke-width:0.8;" x="331.065583" xlink:href="#mc04961ae1a" y="433.721913"/>
      </g>
     </g>
     <g id="text_6">
      <!-- 2010 -->
      <g style="fill:#262626;" transform="translate(318.340583 448.32035)scale(0.1 -0.1)">
       <use xlink:href="#DejaVuSans-50"/>
       <use x="63.623047" xlink:href="#DejaVuSans-48"/>
       <use x="127.246094" xlink:href="#DejaVuSans-49"/>
       <use x="190.869141" xlink:href="#DejaVuSans-48"/>
      </g>
     </g>
    </g>
    <g id="xtick_7">
     <g id="line2d_13">
      <path clip-path="url(#p992720420b)" d="M 380.227594 433.721913 
L 380.227594 45.040113 
" style="fill:none;stroke:#cccccc;stroke-dasharray:2.96,1.28;stroke-dashoffset:0;stroke-opacity:0.2;stroke-width:0.8;"/>
     </g>
     <g id="line2d_14">
      <g>
       <use style="fill:#262626;stroke:#262626;stroke-width:0.8;" x="380.227594" xlink:href="#mc04961ae1a" y="433.721913"/>
      </g>
     </g>
     <g id="text_7">
      <!-- 2020 -->
      <g style="fill:#262626;" transform="translate(367.502594 448.32035)scale(0.1 -0.1)">
       <use xlink:href="#DejaVuSans-50"/>
       <use x="63.623047" xlink:href="#DejaVuSans-48"/>
       <use x="127.246094" xlink:href="#DejaVuSans-50"/>
       <use x="190.869141" xlink:href="#DejaVuSans-48"/>
      </g>
     </g>
    </g>
   </g>
   <g id="matplotlib.axis_2">
    <g id="ytick_1">
     <g id="line2d_15">
      <path clip-path="url(#p992720420b)" d="M 50.104688 433.721913 
L 390.797427 433.721913 
" style="fill:none;stroke:#cccccc;stroke-dasharray:2.96,1.28;stroke-dashoffset:0;stroke-opacity:0.2;stroke-width:0.8;"/>
     </g>
     <g id="line2d_16">
      <defs>
       <path d="M 0 0 
L -3.5 0 
" id="m5d630f0982" style="stroke:#262626;stroke-width:0.8;"/>
      </defs>
      <g>
       <use style="fill:#262626;stroke:#262626;stroke-width:0.8;" x="50.104688" xlink:href="#m5d630f0982" y="433.721913"/>
      </g>
     </g>
     <g id="text_8">
      <!-- 10% -->
      <defs>
       <path d="M 72.703125 32.078125 
Q 68.453125 32.078125 66.03125 28.46875 
Q 63.625 24.859375 63.625 18.40625 
Q 63.625 12.0625 66.03125 8.421875 
Q 68.453125 4.78125 72.703125 4.78125 
Q 76.859375 4.78125 79.265625 8.421875 
Q 81.6875 12.0625 81.6875 18.40625 
Q 81.6875 24.8125 79.265625 28.4375 
Q 76.859375 32.078125 72.703125 32.078125 
z
M 72.703125 38.28125 
Q 80.421875 38.28125 84.953125 32.90625 
Q 89.5 27.546875 89.5 18.40625 
Q 89.5 9.28125 84.9375 3.921875 
Q 80.375 -1.421875 72.703125 -1.421875 
Q 64.890625 -1.421875 60.34375 3.921875 
Q 55.8125 9.28125 55.8125 18.40625 
Q 55.8125 27.59375 60.375 32.9375 
Q 64.9375 38.28125 72.703125 38.28125 
z
M 22.3125 68.015625 
Q 18.109375 68.015625 15.6875 64.375 
Q 13.28125 60.75 13.28125 54.390625 
Q 13.28125 47.953125 15.671875 44.328125 
Q 18.0625 40.71875 22.3125 40.71875 
Q 26.5625 40.71875 28.96875 44.328125 
Q 31.390625 47.953125 31.390625 54.390625 
Q 31.390625 60.6875 28.953125 64.34375 
Q 26.515625 68.015625 22.3125 68.015625 
z
M 66.40625 74.21875 
L 74.21875 74.21875 
L 28.609375 -1.421875 
L 20.796875 -1.421875 
z
M 22.3125 74.21875 
Q 30.03125 74.21875 34.609375 68.875 
Q 39.203125 63.53125 39.203125 54.390625 
Q 39.203125 45.171875 34.640625 39.84375 
Q 30.078125 34.515625 22.3125 34.515625 
Q 14.546875 34.515625 10.03125 39.859375 
Q 5.515625 45.21875 5.515625 54.390625 
Q 5.515625 63.484375 10.046875 68.84375 
Q 14.59375 74.21875 22.3125 74.21875 
z
" id="DejaVuSans-37"/>
      </defs>
      <g style="fill:#262626;" transform="translate(20.878125 437.521132)scale(0.1 -0.1)">
       <use xlink:href="#DejaVuSans-49"/>
       <use x="63.623047" xlink:href="#DejaVuSans-48"/>
       <use x="127.246094" xlink:href="#DejaVuSans-37"/>
      </g>
     </g>
    </g>
    <g id="ytick_2">
     <g id="line2d_17">
      <path clip-path="url(#p992720420b)" d="M 50.104688 390.535046 
L 390.797427 390.535046 
" style="fill:none;stroke:#cccccc;stroke-dasharray:2.96,1.28;stroke-dashoffset:0;stroke-opacity:0.2;stroke-width:0.8;"/>
     </g>
     <g id="line2d_18">
      <g>
       <use style="fill:#262626;stroke:#262626;stroke-width:0.8;" x="50.104688" xlink:href="#m5d630f0982" y="390.535046"/>
      </g>
     </g>
     <g id="text_9">
      <!-- 15% -->
      <defs>
       <path d="M 10.796875 72.90625 
L 49.515625 72.90625 
L 49.515625 64.59375 
L 19.828125 64.59375 
L 19.828125 46.734375 
Q 21.96875 47.46875 24.109375 47.828125 
Q 26.265625 48.1875 28.421875 48.1875 
Q 40.625 48.1875 47.75 41.5 
Q 54.890625 34.8125 54.890625 23.390625 
Q 54.890625 11.625 47.5625 5.09375 
Q 40.234375 -1.421875 26.90625 -1.421875 
Q 22.3125 -1.421875 17.546875 -0.640625 
Q 12.796875 0.140625 7.71875 1.703125 
L 7.71875 11.625 
Q 12.109375 9.234375 16.796875 8.0625 
Q 21.484375 6.890625 26.703125 6.890625 
Q 35.15625 6.890625 40.078125 11.328125 
Q 45.015625 15.765625 45.015625 23.390625 
Q 45.015625 31 40.078125 35.4375 
Q 35.15625 39.890625 26.703125 39.890625 
Q 22.75 39.890625 18.8125 39.015625 
Q 14.890625 38.140625 10.796875 36.28125 
z
" id="DejaVuSans-53"/>
      </defs>
      <g style="fill:#262626;" transform="translate(20.878125 394.334265)scale(0.1 -0.1)">
       <use xlink:href="#DejaVuSans-49"/>
       <use x="63.623047" xlink:href="#DejaVuSans-53"/>
       <use x="127.246094" xlink:href="#DejaVuSans-37"/>
      </g>
     </g>
    </g>
    <g id="ytick_3">
     <g id="line2d_19">
      <path clip-path="url(#p992720420b)" d="M 50.104688 347.34818 
L 390.797427 347.34818 
" style="fill:none;stroke:#cccccc;stroke-dasharray:2.96,1.28;stroke-dashoffset:0;stroke-opacity:0.2;stroke-width:0.8;"/>
     </g>
     <g id="line2d_20">
      <g>
       <use style="fill:#262626;stroke:#262626;stroke-width:0.8;" x="50.104688" xlink:href="#m5d630f0982" y="347.34818"/>
      </g>
     </g>
     <g id="text_10">
      <!-- 20% -->
      <g style="fill:#262626;" transform="translate(20.878125 351.147398)scale(0.1 -0.1)">
       <use xlink:href="#DejaVuSans-50"/>
       <use x="63.623047" xlink:href="#DejaVuSans-48"/>
       <use x="127.246094" xlink:href="#DejaVuSans-37"/>
      </g>
     </g>
    </g>
    <g id="ytick_4">
     <g id="line2d_21">
      <path clip-path="url(#p992720420b)" d="M 50.104688 304.161313 
L 390.797427 304.161313 
" style="fill:none;stroke:#cccccc;stroke-dasharray:2.96,1.28;stroke-dashoffset:0;stroke-opacity:0.2;stroke-width:0.8;"/>
     </g>
     <g id="line2d_22">
      <g>
       <use style="fill:#262626;stroke:#262626;stroke-width:0.8;" x="50.104688" xlink:href="#m5d630f0982" y="304.161313"/>
      </g>
     </g>
     <g id="text_11">
      <!-- 25% -->
      <g style="fill:#262626;" transform="translate(20.878125 307.960532)scale(0.1 -0.1)">
       <use xlink:href="#DejaVuSans-50"/>
       <use x="63.623047" xlink:href="#DejaVuSans-53"/>
       <use x="127.246094" xlink:href="#DejaVuSans-37"/>
      </g>
     </g>
    </g>
    <g id="ytick_5">
     <g id="line2d_23">
      <path clip-path="url(#p992720420b)" d="M 50.104688 260.974446 
L 390.797427 260.974446 
" style="fill:none;stroke:#cccccc;stroke-dasharray:2.96,1.28;stroke-dashoffset:0;stroke-opacity:0.2;stroke-width:0.8;"/>
     </g>
     <g id="line2d_24">
      <g>
       <use style="fill:#262626;stroke:#262626;stroke-width:0.8;" x="50.104688" xlink:href="#m5d630f0982" y="260.974446"/>
      </g>
     </g>
     <g id="text_12">
      <!-- 30% -->
      <defs>
       <path d="M 40.578125 39.3125 
Q 47.65625 37.796875 51.625 33 
Q 55.609375 28.21875 55.609375 21.1875 
Q 55.609375 10.40625 48.1875 4.484375 
Q 40.765625 -1.421875 27.09375 -1.421875 
Q 22.515625 -1.421875 17.65625 -0.515625 
Q 12.796875 0.390625 7.625 2.203125 
L 7.625 11.71875 
Q 11.71875 9.328125 16.59375 8.109375 
Q 21.484375 6.890625 26.8125 6.890625 
Q 36.078125 6.890625 40.9375 10.546875 
Q 45.796875 14.203125 45.796875 21.1875 
Q 45.796875 27.640625 41.28125 31.265625 
Q 36.765625 34.90625 28.71875 34.90625 
L 20.21875 34.90625 
L 20.21875 43.015625 
L 29.109375 43.015625 
Q 36.375 43.015625 40.234375 45.921875 
Q 44.09375 48.828125 44.09375 54.296875 
Q 44.09375 59.90625 40.109375 62.90625 
Q 36.140625 65.921875 28.71875 65.921875 
Q 24.65625 65.921875 20.015625 65.03125 
Q 15.375 64.15625 9.8125 62.3125 
L 9.8125 71.09375 
Q 15.4375 72.65625 20.34375 73.4375 
Q 25.25 74.21875 29.59375 74.21875 
Q 40.828125 74.21875 47.359375 69.109375 
Q 53.90625 64.015625 53.90625 55.328125 
Q 53.90625 49.265625 50.4375 45.09375 
Q 46.96875 40.921875 40.578125 39.3125 
z
" id="DejaVuSans-51"/>
      </defs>
      <g style="fill:#262626;" transform="translate(20.878125 264.773665)scale(0.1 -0.1)">
       <use xlink:href="#DejaVuSans-51"/>
       <use x="63.623047" xlink:href="#DejaVuSans-48"/>
       <use x="127.246094" xlink:href="#DejaVuSans-37"/>
      </g>
     </g>
    </g>
    <g id="ytick_6">
     <g id="line2d_25">
      <path clip-path="url(#p992720420b)" d="M 50.104688 217.78758 
L 390.797427 217.78758 
" style="fill:none;stroke:#cccccc;stroke-dasharray:2.96,1.28;stroke-dashoffset:0;stroke-opacity:0.2;stroke-width:0.8;"/>
     </g>
     <g id="line2d_26">
      <g>
       <use style="fill:#262626;stroke:#262626;stroke-width:0.8;" x="50.104688" xlink:href="#m5d630f0982" y="217.78758"/>
      </g>
     </g>
     <g id="text_13">
      <!-- 35% -->
      <g style="fill:#262626;" transform="translate(20.878125 221.586798)scale(0.1 -0.1)">
       <use xlink:href="#DejaVuSans-51"/>
       <use x="63.623047" xlink:href="#DejaVuSans-53"/>
       <use x="127.246094" xlink:href="#DejaVuSans-37"/>
      </g>
     </g>
    </g>
    <g id="ytick_7">
     <g id="line2d_27">
      <path clip-path="url(#p992720420b)" d="M 50.104688 174.600713 
L 390.797427 174.600713 
" style="fill:none;stroke:#cccccc;stroke-dasharray:2.96,1.28;stroke-dashoffset:0;stroke-opacity:0.2;stroke-width:0.8;"/>
     </g>
     <g id="line2d_28">
      <g>
       <use style="fill:#262626;stroke:#262626;stroke-width:0.8;" x="50.104688" xlink:href="#m5d630f0982" y="174.600713"/>
      </g>
     </g>
     <g id="text_14">
      <!-- 40% -->
      <defs>
       <path d="M 37.796875 64.3125 
L 12.890625 25.390625 
L 37.796875 25.390625 
z
M 35.203125 72.90625 
L 47.609375 72.90625 
L 47.609375 25.390625 
L 58.015625 25.390625 
L 58.015625 17.1875 
L 47.609375 17.1875 
L 47.609375 0 
L 37.796875 0 
L 37.796875 17.1875 
L 4.890625 17.1875 
L 4.890625 26.703125 
z
" id="DejaVuSans-52"/>
      </defs>
      <g style="fill:#262626;" transform="translate(20.878125 178.399932)scale(0.1 -0.1)">
       <use xlink:href="#DejaVuSans-52"/>
       <use x="63.623047" xlink:href="#DejaVuSans-48"/>
       <use x="127.246094" xlink:href="#DejaVuSans-37"/>
      </g>
     </g>
    </g>
    <g id="ytick_8">
     <g id="line2d_29">
      <path clip-path="url(#p992720420b)" d="M 50.104688 131.413846 
L 390.797427 131.413846 
" style="fill:none;stroke:#cccccc;stroke-dasharray:2.96,1.28;stroke-dashoffset:0;stroke-opacity:0.2;stroke-width:0.8;"/>
     </g>
     <g id="line2d_30">
      <g>
       <use style="fill:#262626;stroke:#262626;stroke-width:0.8;" x="50.104688" xlink:href="#m5d630f0982" y="131.413846"/>
      </g>
     </g>
     <g id="text_15">
      <!-- 45% -->
      <g style="fill:#262626;" transform="translate(20.878125 135.213065)scale(0.1 -0.1)">
       <use xlink:href="#DejaVuSans-52"/>
       <use x="63.623047" xlink:href="#DejaVuSans-53"/>
       <use x="127.246094" xlink:href="#DejaVuSans-37"/>
      </g>
     </g>
    </g>
    <g id="ytick_9">
     <g id="line2d_31">
      <path clip-path="url(#p992720420b)" d="M 50.104688 88.22698 
L 390.797427 88.22698 
" style="fill:none;stroke:#cccccc;stroke-dasharray:2.96,1.28;stroke-dashoffset:0;stroke-opacity:0.2;stroke-width:0.8;"/>
     </g>
     <g id="line2d_32">
      <g>
       <use style="fill:#262626;stroke:#262626;stroke-width:0.8;" x="50.104688" xlink:href="#m5d630f0982" y="88.22698"/>
      </g>
     </g>
     <g id="text_16">
      <!-- 50% -->
      <g style="fill:#262626;" transform="translate(20.878125 92.026198)scale(0.1 -0.1)">
       <use xlink:href="#DejaVuSans-53"/>
       <use x="63.623047" xlink:href="#DejaVuSans-48"/>
       <use x="127.246094" xlink:href="#DejaVuSans-37"/>
      </g>
     </g>
    </g>
    <g id="ytick_10">
     <g id="line2d_33">
      <path clip-path="url(#p992720420b)" d="M 50.104688 45.040113 
L 390.797427 45.040113 
" style="fill:none;stroke:#cccccc;stroke-dasharray:2.96,1.28;stroke-dashoffset:0;stroke-opacity:0.2;stroke-width:0.8;"/>
     </g>
     <g id="line2d_34">
      <g>
       <use style="fill:#262626;stroke:#262626;stroke-width:0.8;" x="50.104688" xlink:href="#m5d630f0982" y="45.040113"/>
      </g>
     </g>
     <g id="text_17">
      <!-- 55% -->
      <g style="fill:#262626;" transform="translate(20.878125 48.839332)scale(0.1 -0.1)">
       <use xlink:href="#DejaVuSans-53"/>
       <use x="63.623047" xlink:href="#DejaVuSans-53"/>
       <use x="127.246094" xlink:href="#DejaVuSans-37"/>
      </g>
     </g>
    </g>
    <g id="text_18">
     <!-- Female Authorship: Ten Year Rolling Interval -->
     <defs>
      <path d="M 9.8125 72.90625 
L 51.703125 72.90625 
L 51.703125 64.59375 
L 19.671875 64.59375 
L 19.671875 43.109375 
L 48.578125 43.109375 
L 48.578125 34.8125 
L 19.671875 34.8125 
L 19.671875 0 
L 9.8125 0 
z
" id="DejaVuSans-70"/>
      <path d="M 56.203125 29.59375 
L 56.203125 25.203125 
L 14.890625 25.203125 
Q 15.484375 15.921875 20.484375 11.0625 
Q 25.484375 6.203125 34.421875 6.203125 
Q 39.59375 6.203125 44.453125 7.46875 
Q 49.3125 8.734375 54.109375 11.28125 
L 54.109375 2.78125 
Q 49.265625 0.734375 44.1875 -0.34375 
Q 39.109375 -1.421875 33.890625 -1.421875 
Q 20.796875 -1.421875 13.15625 6.1875 
Q 5.515625 13.8125 5.515625 26.8125 
Q 5.515625 40.234375 12.765625 48.109375 
Q 20.015625 56 32.328125 56 
Q 43.359375 56 49.78125 48.890625 
Q 56.203125 41.796875 56.203125 29.59375 
z
M 47.21875 32.234375 
Q 47.125 39.59375 43.09375 43.984375 
Q 39.0625 48.390625 32.421875 48.390625 
Q 24.90625 48.390625 20.390625 44.140625 
Q 15.875 39.890625 15.1875 32.171875 
z
" id="DejaVuSans-101"/>
      <path d="M 52 44.1875 
Q 55.375 50.25 60.0625 53.125 
Q 64.75 56 71.09375 56 
Q 79.640625 56 84.28125 50.015625 
Q 88.921875 44.046875 88.921875 33.015625 
L 88.921875 0 
L 79.890625 0 
L 79.890625 32.71875 
Q 79.890625 40.578125 77.09375 44.375 
Q 74.3125 48.1875 68.609375 48.1875 
Q 61.625 48.1875 57.5625 43.546875 
Q 53.515625 38.921875 53.515625 30.90625 
L 53.515625 0 
L 44.484375 0 
L 44.484375 32.71875 
Q 44.484375 40.625 41.703125 44.40625 
Q 38.921875 48.1875 33.109375 48.1875 
Q 26.21875 48.1875 22.15625 43.53125 
Q 18.109375 38.875 18.109375 30.90625 
L 18.109375 0 
L 9.078125 0 
L 9.078125 54.6875 
L 18.109375 54.6875 
L 18.109375 46.1875 
Q 21.1875 51.21875 25.484375 53.609375 
Q 29.78125 56 35.6875 56 
Q 41.65625 56 45.828125 52.96875 
Q 50 49.953125 52 44.1875 
z
" id="DejaVuSans-109"/>
      <path d="M 34.28125 27.484375 
Q 23.390625 27.484375 19.1875 25 
Q 14.984375 22.515625 14.984375 16.5 
Q 14.984375 11.71875 18.140625 8.90625 
Q 21.296875 6.109375 26.703125 6.109375 
Q 34.1875 6.109375 38.703125 11.40625 
Q 43.21875 16.703125 43.21875 25.484375 
L 43.21875 27.484375 
z
M 52.203125 31.203125 
L 52.203125 0 
L 43.21875 0 
L 43.21875 8.296875 
Q 40.140625 3.328125 35.546875 0.953125 
Q 30.953125 -1.421875 24.3125 -1.421875 
Q 15.921875 -1.421875 10.953125 3.296875 
Q 6 8.015625 6 15.921875 
Q 6 25.140625 12.171875 29.828125 
Q 18.359375 34.515625 30.609375 34.515625 
L 43.21875 34.515625 
L 43.21875 35.40625 
Q 43.21875 41.609375 39.140625 45 
Q 35.0625 48.390625 27.6875 48.390625 
Q 23 48.390625 18.546875 47.265625 
Q 14.109375 46.140625 10.015625 43.890625 
L 10.015625 52.203125 
Q 14.9375 54.109375 19.578125 55.046875 
Q 24.21875 56 28.609375 56 
Q 40.484375 56 46.34375 49.84375 
Q 52.203125 43.703125 52.203125 31.203125 
z
" id="DejaVuSans-97"/>
      <path d="M 9.421875 75.984375 
L 18.40625 75.984375 
L 18.40625 0 
L 9.421875 0 
z
" id="DejaVuSans-108"/>
      <path id="DejaVuSans-32"/>
      <path d="M 34.1875 63.1875 
L 20.796875 26.90625 
L 47.609375 26.90625 
z
M 28.609375 72.90625 
L 39.796875 72.90625 
L 67.578125 0 
L 57.328125 0 
L 50.6875 18.703125 
L 17.828125 18.703125 
L 11.1875 0 
L 0.78125 0 
z
" id="DejaVuSans-65"/>
      <path d="M 8.5 21.578125 
L 8.5 54.6875 
L 17.484375 54.6875 
L 17.484375 21.921875 
Q 17.484375 14.15625 20.5 10.265625 
Q 23.53125 6.390625 29.59375 6.390625 
Q 36.859375 6.390625 41.078125 11.03125 
Q 45.3125 15.671875 45.3125 23.6875 
L 45.3125 54.6875 
L 54.296875 54.6875 
L 54.296875 0 
L 45.3125 0 
L 45.3125 8.40625 
Q 42.046875 3.421875 37.71875 1 
Q 33.40625 -1.421875 27.6875 -1.421875 
Q 18.265625 -1.421875 13.375 4.4375 
Q 8.5 10.296875 8.5 21.578125 
z
M 31.109375 56 
z
" id="DejaVuSans-117"/>
      <path d="M 18.3125 70.21875 
L 18.3125 54.6875 
L 36.8125 54.6875 
L 36.8125 47.703125 
L 18.3125 47.703125 
L 18.3125 18.015625 
Q 18.3125 11.328125 20.140625 9.421875 
Q 21.96875 7.515625 27.59375 7.515625 
L 36.8125 7.515625 
L 36.8125 0 
L 27.59375 0 
Q 17.1875 0 13.234375 3.875 
Q 9.28125 7.765625 9.28125 18.015625 
L 9.28125 47.703125 
L 2.6875 47.703125 
L 2.6875 54.6875 
L 9.28125 54.6875 
L 9.28125 70.21875 
z
" id="DejaVuSans-116"/>
      <path d="M 54.890625 33.015625 
L 54.890625 0 
L 45.90625 0 
L 45.90625 32.71875 
Q 45.90625 40.484375 42.875 44.328125 
Q 39.84375 48.1875 33.796875 48.1875 
Q 26.515625 48.1875 22.3125 43.546875 
Q 18.109375 38.921875 18.109375 30.90625 
L 18.109375 0 
L 9.078125 0 
L 9.078125 75.984375 
L 18.109375 75.984375 
L 18.109375 46.1875 
Q 21.34375 51.125 25.703125 53.5625 
Q 30.078125 56 35.796875 56 
Q 45.21875 56 50.046875 50.171875 
Q 54.890625 44.34375 54.890625 33.015625 
z
" id="DejaVuSans-104"/>
      <path d="M 30.609375 48.390625 
Q 23.390625 48.390625 19.1875 42.75 
Q 14.984375 37.109375 14.984375 27.296875 
Q 14.984375 17.484375 19.15625 11.84375 
Q 23.34375 6.203125 30.609375 6.203125 
Q 37.796875 6.203125 41.984375 11.859375 
Q 46.1875 17.53125 46.1875 27.296875 
Q 46.1875 37.015625 41.984375 42.703125 
Q 37.796875 48.390625 30.609375 48.390625 
z
M 30.609375 56 
Q 42.328125 56 49.015625 48.375 
Q 55.71875 40.765625 55.71875 27.296875 
Q 55.71875 13.875 49.015625 6.21875 
Q 42.328125 -1.421875 30.609375 -1.421875 
Q 18.84375 -1.421875 12.171875 6.21875 
Q 5.515625 13.875 5.515625 27.296875 
Q 5.515625 40.765625 12.171875 48.375 
Q 18.84375 56 30.609375 56 
z
" id="DejaVuSans-111"/>
      <path d="M 41.109375 46.296875 
Q 39.59375 47.171875 37.8125 47.578125 
Q 36.03125 48 33.890625 48 
Q 26.265625 48 22.1875 43.046875 
Q 18.109375 38.09375 18.109375 28.8125 
L 18.109375 0 
L 9.078125 0 
L 9.078125 54.6875 
L 18.109375 54.6875 
L 18.109375 46.1875 
Q 20.953125 51.171875 25.484375 53.578125 
Q 30.03125 56 36.53125 56 
Q 37.453125 56 38.578125 55.875 
Q 39.703125 55.765625 41.0625 55.515625 
z
" id="DejaVuSans-114"/>
      <path d="M 44.28125 53.078125 
L 44.28125 44.578125 
Q 40.484375 46.53125 36.375 47.5 
Q 32.28125 48.484375 27.875 48.484375 
Q 21.1875 48.484375 17.84375 46.4375 
Q 14.5 44.390625 14.5 40.28125 
Q 14.5 37.15625 16.890625 35.375 
Q 19.28125 33.59375 26.515625 31.984375 
L 29.59375 31.296875 
Q 39.15625 29.25 43.1875 25.515625 
Q 47.21875 21.78125 47.21875 15.09375 
Q 47.21875 7.46875 41.1875 3.015625 
Q 35.15625 -1.421875 24.609375 -1.421875 
Q 20.21875 -1.421875 15.453125 -0.5625 
Q 10.6875 0.296875 5.421875 2 
L 5.421875 11.28125 
Q 10.40625 8.6875 15.234375 7.390625 
Q 20.0625 6.109375 24.8125 6.109375 
Q 31.15625 6.109375 34.5625 8.28125 
Q 37.984375 10.453125 37.984375 14.40625 
Q 37.984375 18.0625 35.515625 20.015625 
Q 33.0625 21.96875 24.703125 23.78125 
L 21.578125 24.515625 
Q 13.234375 26.265625 9.515625 29.90625 
Q 5.8125 33.546875 5.8125 39.890625 
Q 5.8125 47.609375 11.28125 51.796875 
Q 16.75 56 26.8125 56 
Q 31.78125 56 36.171875 55.265625 
Q 40.578125 54.546875 44.28125 53.078125 
z
" id="DejaVuSans-115"/>
      <path d="M 9.421875 54.6875 
L 18.40625 54.6875 
L 18.40625 0 
L 9.421875 0 
z
M 9.421875 75.984375 
L 18.40625 75.984375 
L 18.40625 64.59375 
L 9.421875 64.59375 
z
" id="DejaVuSans-105"/>
      <path d="M 18.109375 8.203125 
L 18.109375 -20.796875 
L 9.078125 -20.796875 
L 9.078125 54.6875 
L 18.109375 54.6875 
L 18.109375 46.390625 
Q 20.953125 51.265625 25.265625 53.625 
Q 29.59375 56 35.59375 56 
Q 45.5625 56 51.78125 48.09375 
Q 58.015625 40.1875 58.015625 27.296875 
Q 58.015625 14.40625 51.78125 6.484375 
Q 45.5625 -1.421875 35.59375 -1.421875 
Q 29.59375 -1.421875 25.265625 0.953125 
Q 20.953125 3.328125 18.109375 8.203125 
z
M 48.6875 27.296875 
Q 48.6875 37.203125 44.609375 42.84375 
Q 40.53125 48.484375 33.40625 48.484375 
Q 26.265625 48.484375 22.1875 42.84375 
Q 18.109375 37.203125 18.109375 27.296875 
Q 18.109375 17.390625 22.1875 11.75 
Q 26.265625 6.109375 33.40625 6.109375 
Q 40.53125 6.109375 44.609375 11.75 
Q 48.6875 17.390625 48.6875 27.296875 
z
" id="DejaVuSans-112"/>
      <path d="M 11.71875 12.40625 
L 22.015625 12.40625 
L 22.015625 0 
L 11.71875 0 
z
M 11.71875 51.703125 
L 22.015625 51.703125 
L 22.015625 39.3125 
L 11.71875 39.3125 
z
" id="DejaVuSans-58"/>
      <path d="M -0.296875 72.90625 
L 61.375 72.90625 
L 61.375 64.59375 
L 35.5 64.59375 
L 35.5 0 
L 25.59375 0 
L 25.59375 64.59375 
L -0.296875 64.59375 
z
" id="DejaVuSans-84"/>
      <path d="M 54.890625 33.015625 
L 54.890625 0 
L 45.90625 0 
L 45.90625 32.71875 
Q 45.90625 40.484375 42.875 44.328125 
Q 39.84375 48.1875 33.796875 48.1875 
Q 26.515625 48.1875 22.3125 43.546875 
Q 18.109375 38.921875 18.109375 30.90625 
L 18.109375 0 
L 9.078125 0 
L 9.078125 54.6875 
L 18.109375 54.6875 
L 18.109375 46.1875 
Q 21.34375 51.125 25.703125 53.5625 
Q 30.078125 56 35.796875 56 
Q 45.21875 56 50.046875 50.171875 
Q 54.890625 44.34375 54.890625 33.015625 
z
" id="DejaVuSans-110"/>
      <path d="M -0.203125 72.90625 
L 10.40625 72.90625 
L 30.609375 42.921875 
L 50.6875 72.90625 
L 61.28125 72.90625 
L 35.5 34.71875 
L 35.5 0 
L 25.59375 0 
L 25.59375 34.71875 
z
" id="DejaVuSans-89"/>
      <path d="M 44.390625 34.1875 
Q 47.5625 33.109375 50.5625 29.59375 
Q 53.5625 26.078125 56.59375 19.921875 
L 66.609375 0 
L 56 0 
L 46.6875 18.703125 
Q 43.0625 26.03125 39.671875 28.421875 
Q 36.28125 30.8125 30.421875 30.8125 
L 19.671875 30.8125 
L 19.671875 0 
L 9.8125 0 
L 9.8125 72.90625 
L 32.078125 72.90625 
Q 44.578125 72.90625 50.734375 67.671875 
Q 56.890625 62.453125 56.890625 51.90625 
Q 56.890625 45.015625 53.6875 40.46875 
Q 50.484375 35.9375 44.390625 34.1875 
z
M 19.671875 64.796875 
L 19.671875 38.921875 
L 32.078125 38.921875 
Q 39.203125 38.921875 42.84375 42.21875 
Q 46.484375 45.515625 46.484375 51.90625 
Q 46.484375 58.296875 42.84375 61.546875 
Q 39.203125 64.796875 32.078125 64.796875 
z
" id="DejaVuSans-82"/>
      <path d="M 45.40625 27.984375 
Q 45.40625 37.75 41.375 43.109375 
Q 37.359375 48.484375 30.078125 48.484375 
Q 22.859375 48.484375 18.828125 43.109375 
Q 14.796875 37.75 14.796875 27.984375 
Q 14.796875 18.265625 18.828125 12.890625 
Q 22.859375 7.515625 30.078125 7.515625 
Q 37.359375 7.515625 41.375 12.890625 
Q 45.40625 18.265625 45.40625 27.984375 
z
M 54.390625 6.78125 
Q 54.390625 -7.171875 48.1875 -13.984375 
Q 42 -20.796875 29.203125 -20.796875 
Q 24.46875 -20.796875 20.265625 -20.09375 
Q 16.0625 -19.390625 12.109375 -17.921875 
L 12.109375 -9.1875 
Q 16.0625 -11.328125 19.921875 -12.34375 
Q 23.78125 -13.375 27.78125 -13.375 
Q 36.625 -13.375 41.015625 -8.765625 
Q 45.40625 -4.15625 45.40625 5.171875 
L 45.40625 9.625 
Q 42.625 4.78125 38.28125 2.390625 
Q 33.9375 0 27.875 0 
Q 17.828125 0 11.671875 7.65625 
Q 5.515625 15.328125 5.515625 27.984375 
Q 5.515625 40.671875 11.671875 48.328125 
Q 17.828125 56 27.875 56 
Q 33.9375 56 38.28125 53.609375 
Q 42.625 51.21875 45.40625 46.390625 
L 45.40625 54.6875 
L 54.390625 54.6875 
z
" id="DejaVuSans-103"/>
      <path d="M 9.8125 72.90625 
L 19.671875 72.90625 
L 19.671875 0 
L 9.8125 0 
z
" id="DejaVuSans-73"/>
      <path d="M 2.984375 54.6875 
L 12.5 54.6875 
L 29.59375 8.796875 
L 46.6875 54.6875 
L 56.203125 54.6875 
L 35.6875 0 
L 23.484375 0 
z
" id="DejaVuSans-118"/>
     </defs>
     <g style="fill:#262626;" transform="translate(14.798438 351.243513)rotate(-90)scale(0.1 -0.1)">
      <use xlink:href="#DejaVuSans-70"/>
      <use x="57.441406" xlink:href="#DejaVuSans-101"/>
      <use x="118.964844" xlink:href="#DejaVuSans-109"/>
      <use x="216.376953" xlink:href="#DejaVuSans-97"/>
      <use x="277.65625" xlink:href="#DejaVuSans-108"/>
      <use x="305.439453" xlink:href="#DejaVuSans-101"/>
      <use x="366.962891" xlink:href="#DejaVuSans-32"/>
      <use x="398.75" xlink:href="#DejaVuSans-65"/>
      <use x="467.158203" xlink:href="#DejaVuSans-117"/>
      <use x="530.537109" xlink:href="#DejaVuSans-116"/>
      <use x="569.746094" xlink:href="#DejaVuSans-104"/>
      <use x="633.125" xlink:href="#DejaVuSans-111"/>
      <use x="694.306641" xlink:href="#DejaVuSans-114"/>
      <use x="735.419922" xlink:href="#DejaVuSans-115"/>
      <use x="787.519531" xlink:href="#DejaVuSans-104"/>
      <use x="850.898438" xlink:href="#DejaVuSans-105"/>
      <use x="878.681641" xlink:href="#DejaVuSans-112"/>
      <use x="942.158203" xlink:href="#DejaVuSans-58"/>
      <use x="975.849609" xlink:href="#DejaVuSans-32"/>
      <use x="1007.636719" xlink:href="#DejaVuSans-84"/>
      <use x="1068.455078" xlink:href="#DejaVuSans-101"/>
      <use x="1129.978516" xlink:href="#DejaVuSans-110"/>
      <use x="1193.357422" xlink:href="#DejaVuSans-32"/>
      <use x="1225.144531" xlink:href="#DejaVuSans-89"/>
      <use x="1286.025391" xlink:href="#DejaVuSans-101"/>
      <use x="1347.548828" xlink:href="#DejaVuSans-97"/>
      <use x="1408.828125" xlink:href="#DejaVuSans-114"/>
      <use x="1449.941406" xlink:href="#DejaVuSans-32"/>
      <use x="1481.728516" xlink:href="#DejaVuSans-82"/>
      <use x="1551.148438" xlink:href="#DejaVuSans-111"/>
      <use x="1612.330078" xlink:href="#DejaVuSans-108"/>
      <use x="1640.113281" xlink:href="#DejaVuSans-108"/>
      <use x="1667.896484" xlink:href="#DejaVuSans-105"/>
      <use x="1695.679688" xlink:href="#DejaVuSans-110"/>
      <use x="1759.058594" xlink:href="#DejaVuSans-103"/>
      <use x="1822.535156" xlink:href="#DejaVuSans-32"/>
      <use x="1854.322266" xlink:href="#DejaVuSans-73"/>
      <use x="1883.814453" xlink:href="#DejaVuSans-110"/>
      <use x="1947.193359" xlink:href="#DejaVuSans-116"/>
      <use x="1986.402344" xlink:href="#DejaVuSans-101"/>
      <use x="2047.925781" xlink:href="#DejaVuSans-114"/>
      <use x="2089.039062" xlink:href="#DejaVuSans-118"/>
      <use x="2148.21875" xlink:href="#DejaVuSans-97"/>
      <use x="2209.498047" xlink:href="#DejaVuSans-108"/>
     </g>
    </g>
   </g>
   <g id="PolyCollection_1">
    <defs>
     <path d="M 375.311393 -365.466284 
L 375.311393 -254.143648 
L 370.395192 -247.250616 
L 365.478991 -268.239433 
L 360.56279 -264.747939 
L 355.646588 -263.82494 
L 350.730387 -258.274758 
L 345.814186 -243.267639 
L 340.897985 -244.904869 
L 335.981784 -230.237296 
L 331.065583 -212.520032 
L 326.149382 -192.997494 
L 321.23318 -177.143153 
L 316.316979 -154.63326 
L 311.400778 -154.483305 
L 306.484577 -136.893035 
L 301.568376 -155.26038 
L 296.652175 -169.830506 
L 291.735974 -163.781659 
L 286.819772 -156.959739 
L 281.903571 -161.83551 
L 276.98737 -158.725615 
L 272.071169 -152.506893 
L 267.154968 -136.923583 
L 262.238767 -138.664271 
L 257.322566 -139.598764 
L 252.406364 -157.671241 
L 247.490163 -165.848489 
L 242.573962 -192.198519 
L 237.657761 -216.885752 
L 232.74156 -246.94106 
L 227.825359 -271.8385 
L 222.909158 -268.942061 
L 217.992956 -281.12759 
L 213.076755 -275.473827 
L 208.160554 -279.847488 
L 203.244353 -228.271803 
L 198.328152 -197.004424 
L 193.411951 -154.535007 
L 188.49575 -134.577436 
L 183.579548 -104.638779 
L 178.663347 -81.438784 
L 173.747146 -76.891577 
L 168.830945 -76.265814 
L 163.914744 -74.189817 
L 158.998543 -62.484785 
L 154.082342 -58.292253 
L 149.16614 -44.700125 
L 144.249939 -48.897782 
L 139.333738 -26.318827 
L 134.417537 -38.735639 
L 129.501336 -45.209634 
L 124.585135 -57.354737 
L 119.668934 -64.407844 
L 114.752733 -39.853986 
L 109.836531 -28.94768 
L 104.92033 -40.416673 
L 100.004129 -74.489321 
L 95.087928 -98.97956 
L 90.171727 -146.479077 
L 85.255526 -127.697214 
L 80.339325 -117.03399 
L 75.423123 -124.070298 
L 70.506922 -117.03399 
L 65.590721 -144.76676 
L 65.590721 -196.077889 
L 65.590721 -196.077889 
L 70.506922 -162.277375 
L 75.423123 -164.812625 
L 80.339325 -162.277375 
L 85.255526 -184.646928 
L 90.171727 -195.964028 
L 95.087928 -150.018584 
L 100.004129 -138.890789 
L 104.92033 -116.628791 
L 109.836531 -109.295339 
L 114.752733 -125.61514 
L 119.668934 -150.189976 
L 124.585135 -141.555546 
L 129.501336 -128.068157 
L 134.417537 -124.185589 
L 139.333738 -114.45529 
L 144.249939 -147.244112 
L 149.16614 -138.077134 
L 154.082342 -145.759324 
L 158.998543 -147.442556 
L 163.914744 -152.863567 
L 168.830945 -155.865136 
L 173.747146 -162.630209 
L 178.663347 -164.306572 
L 183.579548 -181.311115 
L 188.49575 -210.1134 
L 193.411951 -227.088943 
L 198.328152 -268.982535 
L 203.244353 -303.379397 
L 208.160554 -356.966893 
L 213.076755 -363.61029 
L 217.992956 -359.466557 
L 222.909158 -336.921389 
L 227.825359 -350.186355 
L 232.74156 -327.916435 
L 237.657761 -302.940764 
L 242.573962 -277.990611 
L 247.490163 -246.165528 
L 252.406364 -239.178848 
L 257.322566 -227.339891 
L 262.238767 -225.038004 
L 267.154968 -234.150561 
L 272.071169 -253.125509 
L 276.98737 -261.499425 
L 281.903571 -267.599265 
L 286.819772 -262.235203 
L 291.735974 -274.396522 
L 296.652175 -287.401221 
L 301.568376 -274.78539 
L 306.484577 -254.577247 
L 311.400778 -272.84731 
L 316.316979 -275.226658 
L 321.23318 -298.477683 
L 326.149382 -315.024267 
L 331.065583 -335.911079 
L 335.981784 -350.736366 
L 340.897985 -366.665198 
L 345.814186 -363.811201 
L 350.730387 -381.529311 
L 355.646588 -381.262911 
L 360.56279 -379.725961 
L 365.478991 -381.798525 
L 370.395192 -363.617506 
L 375.311393 -365.466284 
z
" id="mb4497d4614" style="stroke:#ffb94e;stroke-opacity:0.1;"/>
    </defs>
    <g clip-path="url(#p992720420b)">
     <use style="fill:#ffb94e;fill-opacity:0.1;stroke:#ffb94e;stroke-opacity:0.1;" x="0" xlink:href="#mb4497d4614" y="457.600038"/>
    </g>
   </g>
   <g id="line2d_35">
    <path clip-path="url(#p992720420b)" d="M 375.311393 203.45639 
L 370.395192 210.349422 
L 365.478991 189.360605 
L 360.56279 192.852099 
L 355.646588 193.775098 
L 350.730387 199.32528 
L 345.814186 214.332399 
L 340.897985 212.695169 
L 335.981784 227.362742 
L 331.065583 245.080006 
L 326.149382 264.602544 
L 321.23318 280.456885 
L 316.316979 302.966778 
L 311.400778 303.116733 
L 306.484577 320.707003 
L 301.568376 302.339658 
L 296.652175 287.769532 
L 291.735974 293.818379 
L 286.819772 300.640299 
L 281.903571 295.764528 
L 276.98737 298.874423 
L 272.071169 305.093145 
L 267.154968 320.676455 
L 262.238767 318.935767 
L 257.322566 318.001274 
L 252.406364 299.928797 
L 247.490163 291.751549 
L 242.573962 265.401519 
L 237.657761 240.714286 
L 232.74156 210.658978 
L 227.825359 185.761538 
L 222.909158 188.657977 
L 217.992956 176.472448 
L 213.076755 182.126211 
L 208.160554 177.75255 
L 203.244353 229.328235 
L 198.328152 260.595614 
L 193.411951 303.065031 
L 188.49575 323.022602 
L 183.579548 352.961259 
L 178.663347 376.161254 
L 173.747146 380.708461 
L 168.830945 381.334224 
L 163.914744 383.410221 
L 158.998543 395.115253 
L 154.082342 399.307785 
L 149.16614 412.899913 
L 144.249939 408.702256 
L 139.333738 431.281211 
L 134.417537 418.864399 
L 129.501336 412.390404 
L 124.585135 400.245301 
L 119.668934 393.192194 
L 114.752733 417.746052 
L 109.836531 428.652358 
L 104.92033 417.183365 
L 100.004129 383.110717 
L 95.087928 358.620478 
L 90.171727 311.120961 
L 85.255526 329.902824 
L 80.339325 340.566048 
L 75.423123 333.52974 
L 70.506922 340.566048 
L 65.590721 312.833278 
" style="fill:none;stroke:#ffb94e;stroke-dasharray:3.6,1.8;stroke-dashoffset:0;stroke-width:0.3;"/>
   </g>
   <g id="line2d_36">
    <path clip-path="url(#p992720420b)" d="M 375.311393 92.133754 
L 370.395192 93.982532 
L 365.478991 75.801513 
L 360.56279 77.874077 
L 355.646588 76.337127 
L 350.730387 76.070727 
L 345.814186 93.788837 
L 340.897985 90.93484 
L 335.981784 106.863672 
L 331.065583 121.688959 
L 326.149382 142.575771 
L 321.23318 159.122355 
L 316.316979 182.37338 
L 311.400778 184.752728 
L 306.484577 203.022791 
L 301.568376 182.814648 
L 296.652175 170.198817 
L 291.735974 183.203516 
L 286.819772 195.364835 
L 281.903571 190.000773 
L 276.98737 196.100613 
L 272.071169 204.474529 
L 267.154968 223.449477 
L 262.238767 232.562034 
L 257.322566 230.260147 
L 252.406364 218.42119 
L 247.490163 211.43451 
L 242.573962 179.609427 
L 237.657761 154.659274 
L 232.74156 129.683603 
L 227.825359 107.413683 
L 222.909158 120.678649 
L 217.992956 98.133481 
L 213.076755 93.989748 
L 208.160554 100.633145 
L 203.244353 154.220641 
L 198.328152 188.617503 
L 193.411951 230.511095 
L 188.49575 247.486638 
L 183.579548 276.288923 
L 178.663347 293.293466 
L 173.747146 294.969829 
L 168.830945 301.734902 
L 163.914744 304.736471 
L 158.998543 310.157482 
L 154.082342 311.840714 
L 149.16614 319.522904 
L 144.249939 310.355926 
L 139.333738 343.144748 
L 134.417537 333.414449 
L 129.501336 329.531881 
L 124.585135 316.044492 
L 119.668934 307.410062 
L 114.752733 331.984898 
L 109.836531 348.304699 
L 104.92033 340.971247 
L 100.004129 318.709249 
L 95.087928 307.581454 
L 90.171727 261.63601 
L 85.255526 272.95311 
L 80.339325 295.322663 
L 75.423123 292.787413 
L 70.506922 295.322663 
L 65.590721 261.522149 
" style="fill:none;stroke:#ffb94e;stroke-dasharray:3.6,1.8;stroke-dashoffset:0;stroke-width:0.3;"/>
   </g>
   <g id="line2d_37">
    <path clip-path="url(#p992720420b)" d="M 375.311393 147.795072 
L 370.395192 152.165977 
L 365.478991 132.581059 
L 360.56279 135.363088 
L 355.646588 135.056112 
L 350.730387 137.698003 
L 345.814186 154.060618 
L 340.897985 151.815004 
L 335.981784 167.113207 
L 331.065583 183.384482 
L 326.149382 203.589158 
L 321.23318 219.78962 
L 316.316979 242.670079 
L 311.400778 243.93473 
L 306.484577 261.864897 
L 301.568376 242.577153 
L 296.652175 228.984175 
L 291.735974 238.510948 
L 286.819772 248.002567 
L 281.903571 242.882651 
L 276.98737 247.487518 
L 272.071169 254.783837 
L 267.154968 272.062966 
L 262.238767 275.748901 
L 257.322566 274.13071 
L 252.406364 259.174994 
L 247.490163 251.59303 
L 242.573962 222.505473 
L 237.657761 197.68678 
L 232.74156 170.171291 
L 227.825359 146.58761 
L 222.909158 154.668313 
L 217.992956 137.302965 
L 213.076755 138.05798 
L 208.160554 139.192847 
L 203.244353 191.774438 
L 198.328152 224.606559 
L 193.411951 266.788063 
L 188.49575 285.25462 
L 183.579548 314.625091 
L 178.663347 334.72736 
L 173.747146 337.839145 
L 168.830945 341.534563 
L 163.914744 344.073346 
L 158.998543 352.636367 
L 154.082342 355.57425 
L 149.16614 366.211409 
L 144.249939 359.529091 
L 139.333738 387.21298 
L 134.417537 376.139424 
L 129.501336 370.961143 
L 124.585135 358.144896 
L 119.668934 350.301128 
L 114.752733 374.865475 
L 109.836531 388.478529 
L 104.92033 379.077306 
L 100.004129 350.909983 
L 95.087928 333.100966 
L 90.171727 286.378486 
L 85.255526 301.427967 
L 80.339325 317.944356 
L 75.423123 313.158577 
L 70.506922 317.944356 
L 65.590721 287.177714 
" style="fill:none;stroke:#377eb8;stroke-linecap:round;stroke-width:1.5;"/>
   </g>
   <g id="line2d_38">
    <path clip-path="url(#p992720420b)" d="M 50.104688 296.827694 
L 200.009493 296.827694 
" style="fill:none;stroke:#000000;stroke-dasharray:2.775,1.2;stroke-dashoffset:0;stroke-opacity:0.75;stroke-width:0.75;"/>
   </g>
   <g id="line2d_39">
    <path clip-path="url(#p992720420b)" d="M 200.009493 196.543555 
L 390.797427 196.543555 
" style="fill:none;stroke:#000000;stroke-dasharray:2.775,1.2;stroke-dashoffset:0;stroke-opacity:0.75;stroke-width:0.75;"/>
   </g>
   <g id="patch_3">
    <path d="M 50.104688 433.721913 
L 50.104688 45.040113 
" style="fill:none;stroke:#262626;stroke-linecap:square;stroke-linejoin:miter;stroke-width:0.8;"/>
   </g>
   <g id="patch_4">
    <path d="M 50.104687 433.721913 
L 390.797427 433.721913 
" style="fill:none;stroke:#262626;stroke-linecap:square;stroke-linejoin:miter;stroke-width:0.8;"/>
   </g>
   <g id="patch_5">
    <path d="M 252.936591 372.411055 
Q 211.212064 357.281517 203.567922 299.364716 
" style="fill:none;stroke:#ffffff;stroke-linecap:round;stroke-width:0.5;"/>
    <path d="M 202.400398 302.746563 
L 203.567922 299.364716 
L 205.572885 302.327842 
" style="fill:none;stroke:#ffffff;stroke-linecap:round;stroke-width:0.5;"/>
   </g>
   <g id="text_19">
    <!-- 1947-1984 backward -->
    <defs>
     <path d="M 4.890625 31.390625 
L 31.203125 31.390625 
L 31.203125 23.390625 
L 4.890625 23.390625 
z
" id="DejaVuSans-45"/>
     <path d="M 48.6875 27.296875 
Q 48.6875 37.203125 44.609375 42.84375 
Q 40.53125 48.484375 33.40625 48.484375 
Q 26.265625 48.484375 22.1875 42.84375 
Q 18.109375 37.203125 18.109375 27.296875 
Q 18.109375 17.390625 22.1875 11.75 
Q 26.265625 6.109375 33.40625 6.109375 
Q 40.53125 6.109375 44.609375 11.75 
Q 48.6875 17.390625 48.6875 27.296875 
z
M 18.109375 46.390625 
Q 20.953125 51.265625 25.265625 53.625 
Q 29.59375 56 35.59375 56 
Q 45.5625 56 51.78125 48.09375 
Q 58.015625 40.1875 58.015625 27.296875 
Q 58.015625 14.40625 51.78125 6.484375 
Q 45.5625 -1.421875 35.59375 -1.421875 
Q 29.59375 -1.421875 25.265625 0.953125 
Q 20.953125 3.328125 18.109375 8.203125 
L 18.109375 0 
L 9.078125 0 
L 9.078125 75.984375 
L 18.109375 75.984375 
z
" id="DejaVuSans-98"/>
     <path d="M 48.78125 52.59375 
L 48.78125 44.1875 
Q 44.96875 46.296875 41.140625 47.34375 
Q 37.3125 48.390625 33.40625 48.390625 
Q 24.65625 48.390625 19.8125 42.84375 
Q 14.984375 37.3125 14.984375 27.296875 
Q 14.984375 17.28125 19.8125 11.734375 
Q 24.65625 6.203125 33.40625 6.203125 
Q 37.3125 6.203125 41.140625 7.25 
Q 44.96875 8.296875 48.78125 10.40625 
L 48.78125 2.09375 
Q 45.015625 0.34375 40.984375 -0.53125 
Q 36.96875 -1.421875 32.421875 -1.421875 
Q 20.0625 -1.421875 12.78125 6.34375 
Q 5.515625 14.109375 5.515625 27.296875 
Q 5.515625 40.671875 12.859375 48.328125 
Q 20.21875 56 33.015625 56 
Q 37.15625 56 41.109375 55.140625 
Q 45.0625 54.296875 48.78125 52.59375 
z
" id="DejaVuSans-99"/>
     <path d="M 9.078125 75.984375 
L 18.109375 75.984375 
L 18.109375 31.109375 
L 44.921875 54.6875 
L 56.390625 54.6875 
L 27.390625 29.109375 
L 57.625 0 
L 45.90625 0 
L 18.109375 26.703125 
L 18.109375 0 
L 9.078125 0 
z
" id="DejaVuSans-107"/>
     <path d="M 4.203125 54.6875 
L 13.1875 54.6875 
L 24.421875 12.015625 
L 35.59375 54.6875 
L 46.1875 54.6875 
L 57.421875 12.015625 
L 68.609375 54.6875 
L 77.59375 54.6875 
L 63.28125 0 
L 52.6875 0 
L 40.921875 44.828125 
L 29.109375 0 
L 18.5 0 
z
" id="DejaVuSans-119"/>
     <path d="M 45.40625 46.390625 
L 45.40625 75.984375 
L 54.390625 75.984375 
L 54.390625 0 
L 45.40625 0 
L 45.40625 8.203125 
Q 42.578125 3.328125 38.25 0.953125 
Q 33.9375 -1.421875 27.875 -1.421875 
Q 17.96875 -1.421875 11.734375 6.484375 
Q 5.515625 14.40625 5.515625 27.296875 
Q 5.515625 40.1875 11.734375 48.09375 
Q 17.96875 56 27.875 56 
Q 33.9375 56 38.25 53.625 
Q 42.578125 51.265625 45.40625 46.390625 
z
M 14.796875 27.296875 
Q 14.796875 17.390625 18.875 11.75 
Q 22.953125 6.109375 30.078125 6.109375 
Q 37.203125 6.109375 41.296875 11.75 
Q 45.40625 17.390625 45.40625 27.296875 
Q 45.40625 37.203125 41.296875 42.84375 
Q 37.203125 48.484375 30.078125 48.484375 
Q 22.953125 48.484375 18.875 42.84375 
Q 14.796875 37.203125 14.796875 27.296875 
z
" id="DejaVuSans-100"/>
    </defs>
    <g style="fill:#262626;" transform="translate(257.322566 374.243177)scale(0.08 -0.08)">
     <use xlink:href="#DejaVuSans-49"/>
     <use x="63.623047" xlink:href="#DejaVuSans-57"/>
     <use x="127.246094" xlink:href="#DejaVuSans-52"/>
     <use x="190.869141" xlink:href="#DejaVuSans-55"/>
     <use x="254.492188" xlink:href="#DejaVuSans-45"/>
     <use x="290.576172" xlink:href="#DejaVuSans-49"/>
     <use x="354.199219" xlink:href="#DejaVuSans-57"/>
     <use x="417.822266" xlink:href="#DejaVuSans-56"/>
     <use x="481.445312" xlink:href="#DejaVuSans-52"/>
     <use x="545.068359" xlink:href="#DejaVuSans-32"/>
     <use x="576.855469" xlink:href="#DejaVuSans-98"/>
     <use x="640.332031" xlink:href="#DejaVuSans-97"/>
     <use x="701.611328" xlink:href="#DejaVuSans-99"/>
     <use x="756.591797" xlink:href="#DejaVuSans-107"/>
     <use x="814.501953" xlink:href="#DejaVuSans-119"/>
     <use x="896.289062" xlink:href="#DejaVuSans-97"/>
     <use x="957.568359" xlink:href="#DejaVuSans-114"/>
     <use x="998.666016" xlink:href="#DejaVuSans-100"/>
    </g>
    <!-- looking average: 25.8% -->
    <defs>
     <path d="M 10.6875 12.40625 
L 21 12.40625 
L 21 0 
L 10.6875 0 
z
" id="DejaVuSans-46"/>
    </defs>
    <g style="fill:#262626;" transform="translate(257.322566 383.201427)scale(0.08 -0.08)">
     <use xlink:href="#DejaVuSans-108"/>
     <use x="27.783203" xlink:href="#DejaVuSans-111"/>
     <use x="88.964844" xlink:href="#DejaVuSans-111"/>
     <use x="150.146484" xlink:href="#DejaVuSans-107"/>
     <use x="208.056641" xlink:href="#DejaVuSans-105"/>
     <use x="235.839844" xlink:href="#DejaVuSans-110"/>
     <use x="299.21875" xlink:href="#DejaVuSans-103"/>
     <use x="362.695312" xlink:href="#DejaVuSans-32"/>
     <use x="394.482422" xlink:href="#DejaVuSans-97"/>
     <use x="455.761719" xlink:href="#DejaVuSans-118"/>
     <use x="514.941406" xlink:href="#DejaVuSans-101"/>
     <use x="576.464844" xlink:href="#DejaVuSans-114"/>
     <use x="617.578125" xlink:href="#DejaVuSans-97"/>
     <use x="678.857422" xlink:href="#DejaVuSans-103"/>
     <use x="742.333984" xlink:href="#DejaVuSans-101"/>
     <use x="803.857422" xlink:href="#DejaVuSans-58"/>
     <use x="837.548828" xlink:href="#DejaVuSans-32"/>
     <use x="869.335938" xlink:href="#DejaVuSans-50"/>
     <use x="932.958984" xlink:href="#DejaVuSans-53"/>
     <use x="996.582031" xlink:href="#DejaVuSans-46"/>
     <use x="1028.369141" xlink:href="#DejaVuSans-56"/>
     <use x="1091.992188" xlink:href="#DejaVuSans-37"/>
    </g>
   </g>
   <g id="patch_6">
    <path d="M 121.418314 233.248367 
Q 137.507988 185.83516 190.903085 196.047269 
" style="fill:none;stroke:#ffffff;stroke-linecap:round;stroke-width:0.5;"/>
    <path d="M 188.060614 193.87463 
L 190.903085 196.047269 
L 187.459491 197.017663 
" style="fill:none;stroke:#ffffff;stroke-linecap:round;stroke-width:0.5;"/>
   </g>
   <g id="text_20">
    <!-- 1984-2020 backward -->
    <g style="fill:#262626;" transform="translate(70.506922 243.728231)scale(0.08 -0.08)">
     <use xlink:href="#DejaVuSans-49"/>
     <use x="63.623047" xlink:href="#DejaVuSans-57"/>
     <use x="127.246094" xlink:href="#DejaVuSans-56"/>
     <use x="190.869141" xlink:href="#DejaVuSans-52"/>
     <use x="254.492188" xlink:href="#DejaVuSans-45"/>
     <use x="290.576172" xlink:href="#DejaVuSans-50"/>
     <use x="354.199219" xlink:href="#DejaVuSans-48"/>
     <use x="417.822266" xlink:href="#DejaVuSans-50"/>
     <use x="481.445312" xlink:href="#DejaVuSans-48"/>
     <use x="545.068359" xlink:href="#DejaVuSans-32"/>
     <use x="576.855469" xlink:href="#DejaVuSans-98"/>
     <use x="640.332031" xlink:href="#DejaVuSans-97"/>
     <use x="701.611328" xlink:href="#DejaVuSans-99"/>
     <use x="756.591797" xlink:href="#DejaVuSans-107"/>
     <use x="814.501953" xlink:href="#DejaVuSans-119"/>
     <use x="896.289062" xlink:href="#DejaVuSans-97"/>
     <use x="957.568359" xlink:href="#DejaVuSans-114"/>
     <use x="998.666016" xlink:href="#DejaVuSans-100"/>
    </g>
    <!-- looking average: 37.5% -->
    <g style="fill:#262626;" transform="translate(70.506922 252.686481)scale(0.08 -0.08)">
     <use xlink:href="#DejaVuSans-108"/>
     <use x="27.783203" xlink:href="#DejaVuSans-111"/>
     <use x="88.964844" xlink:href="#DejaVuSans-111"/>
     <use x="150.146484" xlink:href="#DejaVuSans-107"/>
     <use x="208.056641" xlink:href="#DejaVuSans-105"/>
     <use x="235.839844" xlink:href="#DejaVuSans-110"/>
     <use x="299.21875" xlink:href="#DejaVuSans-103"/>
     <use x="362.695312" xlink:href="#DejaVuSans-32"/>
     <use x="394.482422" xlink:href="#DejaVuSans-97"/>
     <use x="455.761719" xlink:href="#DejaVuSans-118"/>
     <use x="514.941406" xlink:href="#DejaVuSans-101"/>
     <use x="576.464844" xlink:href="#DejaVuSans-114"/>
     <use x="617.578125" xlink:href="#DejaVuSans-97"/>
     <use x="678.857422" xlink:href="#DejaVuSans-103"/>
     <use x="742.333984" xlink:href="#DejaVuSans-101"/>
     <use x="803.857422" xlink:href="#DejaVuSans-58"/>
     <use x="837.548828" xlink:href="#DejaVuSans-32"/>
     <use x="869.335938" xlink:href="#DejaVuSans-51"/>
     <use x="932.958984" xlink:href="#DejaVuSans-55"/>
     <use x="996.582031" xlink:href="#DejaVuSans-46"/>
     <use x="1028.369141" xlink:href="#DejaVuSans-53"/>
     <use x="1091.992188" xlink:href="#DejaVuSans-37"/>
    </g>
   </g>
   <g id="text_21">
    <!-- A. -->
    <g style="fill:#262626;" transform="translate(50.104688 25.43625)scale(0.24 -0.24)">
     <use xlink:href="#DejaVuSans-65"/>
     <use x="68.392578" xlink:href="#DejaVuSans-46"/>
    </g>
   </g>
   <g id="legend_1">
    <g id="line2d_40">
     <path d="M 60.004688 59.448394 
L 82.004688 59.448394 
" style="fill:none;stroke:#377eb8;stroke-linecap:round;"/>
    </g>
    <g id="line2d_41"/>
    <g id="text_22">
     <!-- Detector: F/(M+F) -->
     <defs>
      <path d="M 19.671875 64.796875 
L 19.671875 8.109375 
L 31.59375 8.109375 
Q 46.6875 8.109375 53.6875 14.9375 
Q 60.6875 21.78125 60.6875 36.53125 
Q 60.6875 51.171875 53.6875 57.984375 
Q 46.6875 64.796875 31.59375 64.796875 
z
M 9.8125 72.90625 
L 30.078125 72.90625 
Q 51.265625 72.90625 61.171875 64.09375 
Q 71.09375 55.28125 71.09375 36.53125 
Q 71.09375 17.671875 61.125 8.828125 
Q 51.171875 0 30.078125 0 
L 9.8125 0 
z
" id="DejaVuSans-68"/>
      <path d="M 25.390625 72.90625 
L 33.6875 72.90625 
L 8.296875 -9.28125 
L 0 -9.28125 
z
" id="DejaVuSans-47"/>
      <path d="M 31 75.875 
Q 24.46875 64.65625 21.28125 53.65625 
Q 18.109375 42.671875 18.109375 31.390625 
Q 18.109375 20.125 21.3125 9.0625 
Q 24.515625 -2 31 -13.1875 
L 23.1875 -13.1875 
Q 15.875 -1.703125 12.234375 9.375 
Q 8.59375 20.453125 8.59375 31.390625 
Q 8.59375 42.28125 12.203125 53.3125 
Q 15.828125 64.359375 23.1875 75.875 
z
" id="DejaVuSans-40"/>
      <path d="M 9.8125 72.90625 
L 24.515625 72.90625 
L 43.109375 23.296875 
L 61.8125 72.90625 
L 76.515625 72.90625 
L 76.515625 0 
L 66.890625 0 
L 66.890625 64.015625 
L 48.09375 14.015625 
L 38.1875 14.015625 
L 19.390625 64.015625 
L 19.390625 0 
L 9.8125 0 
z
" id="DejaVuSans-77"/>
      <path d="M 46 62.703125 
L 46 35.5 
L 73.1875 35.5 
L 73.1875 27.203125 
L 46 27.203125 
L 46 0 
L 37.796875 0 
L 37.796875 27.203125 
L 10.59375 27.203125 
L 10.59375 35.5 
L 37.796875 35.5 
L 37.796875 62.703125 
z
" id="DejaVuSans-43"/>
      <path d="M 8.015625 75.875 
L 15.828125 75.875 
Q 23.140625 64.359375 26.78125 53.3125 
Q 30.421875 42.28125 30.421875 31.390625 
Q 30.421875 20.453125 26.78125 9.375 
Q 23.140625 -1.703125 15.828125 -13.1875 
L 8.015625 -13.1875 
Q 14.5 -2 17.703125 9.0625 
Q 20.90625 20.125 20.90625 31.390625 
Q 20.90625 42.671875 17.703125 53.65625 
Q 14.5 64.65625 8.015625 75.875 
z
" id="DejaVuSans-41"/>
     </defs>
     <g style="fill:#262626;" transform="translate(90.804688 63.298394)scale(0.11 -0.11)">
      <use xlink:href="#DejaVuSans-68"/>
      <use x="77.001953" xlink:href="#DejaVuSans-101"/>
      <use x="138.525391" xlink:href="#DejaVuSans-116"/>
      <use x="177.734375" xlink:href="#DejaVuSans-101"/>
      <use x="239.257812" xlink:href="#DejaVuSans-99"/>
      <use x="294.238281" xlink:href="#DejaVuSans-116"/>
      <use x="333.447266" xlink:href="#DejaVuSans-111"/>
      <use x="394.628906" xlink:href="#DejaVuSans-114"/>
      <use x="435.726562" xlink:href="#DejaVuSans-58"/>
      <use x="469.417969" xlink:href="#DejaVuSans-32"/>
      <use x="501.205078" xlink:href="#DejaVuSans-70"/>
      <use x="558.724609" xlink:href="#DejaVuSans-47"/>
      <use x="592.416016" xlink:href="#DejaVuSans-40"/>
      <use x="631.429688" xlink:href="#DejaVuSans-77"/>
      <use x="717.708984" xlink:href="#DejaVuSans-43"/>
      <use x="801.498047" xlink:href="#DejaVuSans-70"/>
      <use x="859.017578" xlink:href="#DejaVuSans-41"/>
     </g>
    </g>
    <g id="patch_7">
     <path d="M 60.004688 79.444332 
L 82.004688 79.444332 
L 82.004688 71.744332 
L 60.004688 71.744332 
z
" style="fill:#ffb94e;fill-opacity:0.3;stroke:#000000;stroke-linejoin:miter;stroke-width:0.5;"/>
    </g>
    <g id="text_23">
     <!-- Detector: CI's -->
     <defs>
      <path d="M 64.40625 67.28125 
L 64.40625 56.890625 
Q 59.421875 61.53125 53.78125 63.8125 
Q 48.140625 66.109375 41.796875 66.109375 
Q 29.296875 66.109375 22.65625 58.46875 
Q 16.015625 50.828125 16.015625 36.375 
Q 16.015625 21.96875 22.65625 14.328125 
Q 29.296875 6.6875 41.796875 6.6875 
Q 48.140625 6.6875 53.78125 8.984375 
Q 59.421875 11.28125 64.40625 15.921875 
L 64.40625 5.609375 
Q 59.234375 2.09375 53.4375 0.328125 
Q 47.65625 -1.421875 41.21875 -1.421875 
Q 24.65625 -1.421875 15.125 8.703125 
Q 5.609375 18.84375 5.609375 36.375 
Q 5.609375 53.953125 15.125 64.078125 
Q 24.65625 74.21875 41.21875 74.21875 
Q 47.75 74.21875 53.53125 72.484375 
Q 59.328125 70.75 64.40625 67.28125 
z
" id="DejaVuSans-67"/>
      <path d="M 17.921875 72.90625 
L 17.921875 45.796875 
L 9.625 45.796875 
L 9.625 72.90625 
z
" id="DejaVuSans-39"/>
     </defs>
     <g style="fill:#262626;" transform="translate(90.804688 79.444332)scale(0.11 -0.11)">
      <use xlink:href="#DejaVuSans-68"/>
      <use x="77.001953" xlink:href="#DejaVuSans-101"/>
      <use x="138.525391" xlink:href="#DejaVuSans-116"/>
      <use x="177.734375" xlink:href="#DejaVuSans-101"/>
      <use x="239.257812" xlink:href="#DejaVuSans-99"/>
      <use x="294.238281" xlink:href="#DejaVuSans-116"/>
      <use x="333.447266" xlink:href="#DejaVuSans-111"/>
      <use x="394.628906" xlink:href="#DejaVuSans-114"/>
      <use x="435.726562" xlink:href="#DejaVuSans-58"/>
      <use x="469.417969" xlink:href="#DejaVuSans-32"/>
      <use x="501.205078" xlink:href="#DejaVuSans-67"/>
      <use x="571.029297" xlink:href="#DejaVuSans-73"/>
      <use x="600.521484" xlink:href="#DejaVuSans-39"/>
      <use x="628.011719" xlink:href="#DejaVuSans-115"/>
     </g>
    </g>
   </g>
  </g>
  <g id="axes_2">
   <g id="patch_8">
    <path d="M 467.104688 433.721913 
L 807.797427 433.721913 
L 807.797427 45.040113 
L 467.104688 45.040113 
z
" style="fill:#ffffff;"/>
   </g>
   <g id="matplotlib.axis_3">
    <g id="xtick_8">
     <g id="line2d_42">
      <path clip-path="url(#p93e90e0b96)" d="M 502.255526 433.721913 
L 502.255526 45.040113 
" style="fill:none;stroke:#cccccc;stroke-dasharray:2.96,1.28;stroke-dashoffset:0;stroke-opacity:0.2;stroke-width:0.8;"/>
     </g>
     <g id="line2d_43">
      <g>
       <use style="fill:#262626;stroke:#262626;stroke-width:0.8;" x="502.255526" xlink:href="#mc04961ae1a" y="433.721913"/>
      </g>
     </g>
     <g id="text_24">
      <!-- 1960 -->
      <g style="fill:#262626;" transform="translate(489.530526 448.32035)scale(0.1 -0.1)">
       <use xlink:href="#DejaVuSans-49"/>
       <use x="63.623047" xlink:href="#DejaVuSans-57"/>
       <use x="127.246094" xlink:href="#DejaVuSans-54"/>
       <use x="190.869141" xlink:href="#DejaVuSans-48"/>
      </g>
     </g>
    </g>
    <g id="xtick_9">
     <g id="line2d_44">
      <path clip-path="url(#p93e90e0b96)" d="M 551.417537 433.721913 
L 551.417537 45.040113 
" style="fill:none;stroke:#cccccc;stroke-dasharray:2.96,1.28;stroke-dashoffset:0;stroke-opacity:0.2;stroke-width:0.8;"/>
     </g>
     <g id="line2d_45">
      <g>
       <use style="fill:#262626;stroke:#262626;stroke-width:0.8;" x="551.417537" xlink:href="#mc04961ae1a" y="433.721913"/>
      </g>
     </g>
     <g id="text_25">
      <!-- 1970 -->
      <g style="fill:#262626;" transform="translate(538.692537 448.32035)scale(0.1 -0.1)">
       <use xlink:href="#DejaVuSans-49"/>
       <use x="63.623047" xlink:href="#DejaVuSans-57"/>
       <use x="127.246094" xlink:href="#DejaVuSans-55"/>
       <use x="190.869141" xlink:href="#DejaVuSans-48"/>
      </g>
     </g>
    </g>
    <g id="xtick_10">
     <g id="line2d_46">
      <path clip-path="url(#p93e90e0b96)" d="M 600.579548 433.721913 
L 600.579548 45.040113 
" style="fill:none;stroke:#cccccc;stroke-dasharray:2.96,1.28;stroke-dashoffset:0;stroke-opacity:0.2;stroke-width:0.8;"/>
     </g>
     <g id="line2d_47">
      <g>
       <use style="fill:#262626;stroke:#262626;stroke-width:0.8;" x="600.579548" xlink:href="#mc04961ae1a" y="433.721913"/>
      </g>
     </g>
     <g id="text_26">
      <!-- 1980 -->
      <g style="fill:#262626;" transform="translate(587.854548 448.32035)scale(0.1 -0.1)">
       <use xlink:href="#DejaVuSans-49"/>
       <use x="63.623047" xlink:href="#DejaVuSans-57"/>
       <use x="127.246094" xlink:href="#DejaVuSans-56"/>
       <use x="190.869141" xlink:href="#DejaVuSans-48"/>
      </g>
     </g>
    </g>
    <g id="xtick_11">
     <g id="line2d_48">
      <path clip-path="url(#p93e90e0b96)" d="M 649.74156 433.721913 
L 649.74156 45.040113 
" style="fill:none;stroke:#cccccc;stroke-dasharray:2.96,1.28;stroke-dashoffset:0;stroke-opacity:0.2;stroke-width:0.8;"/>
     </g>
     <g id="line2d_49">
      <g>
       <use style="fill:#262626;stroke:#262626;stroke-width:0.8;" x="649.74156" xlink:href="#mc04961ae1a" y="433.721913"/>
      </g>
     </g>
     <g id="text_27">
      <!-- 1990 -->
      <g style="fill:#262626;" transform="translate(637.01656 448.32035)scale(0.1 -0.1)">
       <use xlink:href="#DejaVuSans-49"/>
       <use x="63.623047" xlink:href="#DejaVuSans-57"/>
       <use x="127.246094" xlink:href="#DejaVuSans-57"/>
       <use x="190.869141" xlink:href="#DejaVuSans-48"/>
      </g>
     </g>
    </g>
    <g id="xtick_12">
     <g id="line2d_50">
      <path clip-path="url(#p93e90e0b96)" d="M 698.903571 433.721913 
L 698.903571 45.040113 
" style="fill:none;stroke:#cccccc;stroke-dasharray:2.96,1.28;stroke-dashoffset:0;stroke-opacity:0.2;stroke-width:0.8;"/>
     </g>
     <g id="line2d_51">
      <g>
       <use style="fill:#262626;stroke:#262626;stroke-width:0.8;" x="698.903571" xlink:href="#mc04961ae1a" y="433.721913"/>
      </g>
     </g>
     <g id="text_28">
      <!-- 2000 -->
      <g style="fill:#262626;" transform="translate(686.178571 448.32035)scale(0.1 -0.1)">
       <use xlink:href="#DejaVuSans-50"/>
       <use x="63.623047" xlink:href="#DejaVuSans-48"/>
       <use x="127.246094" xlink:href="#DejaVuSans-48"/>
       <use x="190.869141" xlink:href="#DejaVuSans-48"/>
      </g>
     </g>
    </g>
    <g id="xtick_13">
     <g id="line2d_52">
      <path clip-path="url(#p93e90e0b96)" d="M 748.065583 433.721913 
L 748.065583 45.040113 
" style="fill:none;stroke:#cccccc;stroke-dasharray:2.96,1.28;stroke-dashoffset:0;stroke-opacity:0.2;stroke-width:0.8;"/>
     </g>
     <g id="line2d_53">
      <g>
       <use style="fill:#262626;stroke:#262626;stroke-width:0.8;" x="748.065583" xlink:href="#mc04961ae1a" y="433.721913"/>
      </g>
     </g>
     <g id="text_29">
      <!-- 2010 -->
      <g style="fill:#262626;" transform="translate(735.340583 448.32035)scale(0.1 -0.1)">
       <use xlink:href="#DejaVuSans-50"/>
       <use x="63.623047" xlink:href="#DejaVuSans-48"/>
       <use x="127.246094" xlink:href="#DejaVuSans-49"/>
       <use x="190.869141" xlink:href="#DejaVuSans-48"/>
      </g>
     </g>
    </g>
    <g id="xtick_14">
     <g id="line2d_54">
      <path clip-path="url(#p93e90e0b96)" d="M 797.227594 433.721913 
L 797.227594 45.040113 
" style="fill:none;stroke:#cccccc;stroke-dasharray:2.96,1.28;stroke-dashoffset:0;stroke-opacity:0.2;stroke-width:0.8;"/>
     </g>
     <g id="line2d_55">
      <g>
       <use style="fill:#262626;stroke:#262626;stroke-width:0.8;" x="797.227594" xlink:href="#mc04961ae1a" y="433.721913"/>
      </g>
     </g>
     <g id="text_30">
      <!-- 2020 -->
      <g style="fill:#262626;" transform="translate(784.502594 448.32035)scale(0.1 -0.1)">
       <use xlink:href="#DejaVuSans-50"/>
       <use x="63.623047" xlink:href="#DejaVuSans-48"/>
       <use x="127.246094" xlink:href="#DejaVuSans-50"/>
       <use x="190.869141" xlink:href="#DejaVuSans-48"/>
      </g>
     </g>
    </g>
   </g>
   <g id="matplotlib.axis_4">
    <g id="ytick_11">
     <g id="line2d_56">
      <path clip-path="url(#p93e90e0b96)" d="M 467.104688 433.721913 
L 807.797427 433.721913 
" style="fill:none;stroke:#cccccc;stroke-dasharray:2.96,1.28;stroke-dashoffset:0;stroke-opacity:0.2;stroke-width:0.8;"/>
     </g>
     <g id="line2d_57">
      <g>
       <use style="fill:#262626;stroke:#262626;stroke-width:0.8;" x="467.104688" xlink:href="#m5d630f0982" y="433.721913"/>
      </g>
     </g>
     <g id="text_31">
      <!-- 10% -->
      <g style="fill:#262626;" transform="translate(437.878125 437.521132)scale(0.1 -0.1)">
       <use xlink:href="#DejaVuSans-49"/>
       <use x="63.623047" xlink:href="#DejaVuSans-48"/>
       <use x="127.246094" xlink:href="#DejaVuSans-37"/>
      </g>
     </g>
    </g>
    <g id="ytick_12">
     <g id="line2d_58">
      <path clip-path="url(#p93e90e0b96)" d="M 467.104688 390.535046 
L 807.797427 390.535046 
" style="fill:none;stroke:#cccccc;stroke-dasharray:2.96,1.28;stroke-dashoffset:0;stroke-opacity:0.2;stroke-width:0.8;"/>
     </g>
     <g id="line2d_59">
      <g>
       <use style="fill:#262626;stroke:#262626;stroke-width:0.8;" x="467.104688" xlink:href="#m5d630f0982" y="390.535046"/>
      </g>
     </g>
     <g id="text_32">
      <!-- 15% -->
      <g style="fill:#262626;" transform="translate(437.878125 394.334265)scale(0.1 -0.1)">
       <use xlink:href="#DejaVuSans-49"/>
       <use x="63.623047" xlink:href="#DejaVuSans-53"/>
       <use x="127.246094" xlink:href="#DejaVuSans-37"/>
      </g>
     </g>
    </g>
    <g id="ytick_13">
     <g id="line2d_60">
      <path clip-path="url(#p93e90e0b96)" d="M 467.104688 347.34818 
L 807.797427 347.34818 
" style="fill:none;stroke:#cccccc;stroke-dasharray:2.96,1.28;stroke-dashoffset:0;stroke-opacity:0.2;stroke-width:0.8;"/>
     </g>
     <g id="line2d_61">
      <g>
       <use style="fill:#262626;stroke:#262626;stroke-width:0.8;" x="467.104688" xlink:href="#m5d630f0982" y="347.34818"/>
      </g>
     </g>
     <g id="text_33">
      <!-- 20% -->
      <g style="fill:#262626;" transform="translate(437.878125 351.147398)scale(0.1 -0.1)">
       <use xlink:href="#DejaVuSans-50"/>
       <use x="63.623047" xlink:href="#DejaVuSans-48"/>
       <use x="127.246094" xlink:href="#DejaVuSans-37"/>
      </g>
     </g>
    </g>
    <g id="ytick_14">
     <g id="line2d_62">
      <path clip-path="url(#p93e90e0b96)" d="M 467.104688 304.161313 
L 807.797427 304.161313 
" style="fill:none;stroke:#cccccc;stroke-dasharray:2.96,1.28;stroke-dashoffset:0;stroke-opacity:0.2;stroke-width:0.8;"/>
     </g>
     <g id="line2d_63">
      <g>
       <use style="fill:#262626;stroke:#262626;stroke-width:0.8;" x="467.104688" xlink:href="#m5d630f0982" y="304.161313"/>
      </g>
     </g>
     <g id="text_34">
      <!-- 25% -->
      <g style="fill:#262626;" transform="translate(437.878125 307.960532)scale(0.1 -0.1)">
       <use xlink:href="#DejaVuSans-50"/>
       <use x="63.623047" xlink:href="#DejaVuSans-53"/>
       <use x="127.246094" xlink:href="#DejaVuSans-37"/>
      </g>
     </g>
    </g>
    <g id="ytick_15">
     <g id="line2d_64">
      <path clip-path="url(#p93e90e0b96)" d="M 467.104688 260.974446 
L 807.797427 260.974446 
" style="fill:none;stroke:#cccccc;stroke-dasharray:2.96,1.28;stroke-dashoffset:0;stroke-opacity:0.2;stroke-width:0.8;"/>
     </g>
     <g id="line2d_65">
      <g>
       <use style="fill:#262626;stroke:#262626;stroke-width:0.8;" x="467.104688" xlink:href="#m5d630f0982" y="260.974446"/>
      </g>
     </g>
     <g id="text_35">
      <!-- 30% -->
      <g style="fill:#262626;" transform="translate(437.878125 264.773665)scale(0.1 -0.1)">
       <use xlink:href="#DejaVuSans-51"/>
       <use x="63.623047" xlink:href="#DejaVuSans-48"/>
       <use x="127.246094" xlink:href="#DejaVuSans-37"/>
      </g>
     </g>
    </g>
    <g id="ytick_16">
     <g id="line2d_66">
      <path clip-path="url(#p93e90e0b96)" d="M 467.104688 217.78758 
L 807.797427 217.78758 
" style="fill:none;stroke:#cccccc;stroke-dasharray:2.96,1.28;stroke-dashoffset:0;stroke-opacity:0.2;stroke-width:0.8;"/>
     </g>
     <g id="line2d_67">
      <g>
       <use style="fill:#262626;stroke:#262626;stroke-width:0.8;" x="467.104688" xlink:href="#m5d630f0982" y="217.78758"/>
      </g>
     </g>
     <g id="text_36">
      <!-- 35% -->
      <g style="fill:#262626;" transform="translate(437.878125 221.586798)scale(0.1 -0.1)">
       <use xlink:href="#DejaVuSans-51"/>
       <use x="63.623047" xlink:href="#DejaVuSans-53"/>
       <use x="127.246094" xlink:href="#DejaVuSans-37"/>
      </g>
     </g>
    </g>
    <g id="ytick_17">
     <g id="line2d_68">
      <path clip-path="url(#p93e90e0b96)" d="M 467.104688 174.600713 
L 807.797427 174.600713 
" style="fill:none;stroke:#cccccc;stroke-dasharray:2.96,1.28;stroke-dashoffset:0;stroke-opacity:0.2;stroke-width:0.8;"/>
     </g>
     <g id="line2d_69">
      <g>
       <use style="fill:#262626;stroke:#262626;stroke-width:0.8;" x="467.104688" xlink:href="#m5d630f0982" y="174.600713"/>
      </g>
     </g>
     <g id="text_37">
      <!-- 40% -->
      <g style="fill:#262626;" transform="translate(437.878125 178.399932)scale(0.1 -0.1)">
       <use xlink:href="#DejaVuSans-52"/>
       <use x="63.623047" xlink:href="#DejaVuSans-48"/>
       <use x="127.246094" xlink:href="#DejaVuSans-37"/>
      </g>
     </g>
    </g>
    <g id="ytick_18">
     <g id="line2d_70">
      <path clip-path="url(#p93e90e0b96)" d="M 467.104688 131.413846 
L 807.797427 131.413846 
" style="fill:none;stroke:#cccccc;stroke-dasharray:2.96,1.28;stroke-dashoffset:0;stroke-opacity:0.2;stroke-width:0.8;"/>
     </g>
     <g id="line2d_71">
      <g>
       <use style="fill:#262626;stroke:#262626;stroke-width:0.8;" x="467.104688" xlink:href="#m5d630f0982" y="131.413846"/>
      </g>
     </g>
     <g id="text_38">
      <!-- 45% -->
      <g style="fill:#262626;" transform="translate(437.878125 135.213065)scale(0.1 -0.1)">
       <use xlink:href="#DejaVuSans-52"/>
       <use x="63.623047" xlink:href="#DejaVuSans-53"/>
       <use x="127.246094" xlink:href="#DejaVuSans-37"/>
      </g>
     </g>
    </g>
    <g id="ytick_19">
     <g id="line2d_72">
      <path clip-path="url(#p93e90e0b96)" d="M 467.104688 88.22698 
L 807.797427 88.22698 
" style="fill:none;stroke:#cccccc;stroke-dasharray:2.96,1.28;stroke-dashoffset:0;stroke-opacity:0.2;stroke-width:0.8;"/>
     </g>
     <g id="line2d_73">
      <g>
       <use style="fill:#262626;stroke:#262626;stroke-width:0.8;" x="467.104688" xlink:href="#m5d630f0982" y="88.22698"/>
      </g>
     </g>
     <g id="text_39">
      <!-- 50% -->
      <g style="fill:#262626;" transform="translate(437.878125 92.026198)scale(0.1 -0.1)">
       <use xlink:href="#DejaVuSans-53"/>
       <use x="63.623047" xlink:href="#DejaVuSans-48"/>
       <use x="127.246094" xlink:href="#DejaVuSans-37"/>
      </g>
     </g>
    </g>
    <g id="ytick_20">
     <g id="line2d_74">
      <path clip-path="url(#p93e90e0b96)" d="M 467.104688 45.040113 
L 807.797427 45.040113 
" style="fill:none;stroke:#cccccc;stroke-dasharray:2.96,1.28;stroke-dashoffset:0;stroke-opacity:0.2;stroke-width:0.8;"/>
     </g>
     <g id="line2d_75">
      <g>
       <use style="fill:#262626;stroke:#262626;stroke-width:0.8;" x="467.104688" xlink:href="#m5d630f0982" y="45.040113"/>
      </g>
     </g>
     <g id="text_40">
      <!-- 55% -->
      <g style="fill:#262626;" transform="translate(437.878125 48.839332)scale(0.1 -0.1)">
       <use xlink:href="#DejaVuSans-53"/>
       <use x="63.623047" xlink:href="#DejaVuSans-53"/>
       <use x="127.246094" xlink:href="#DejaVuSans-37"/>
      </g>
     </g>
    </g>
    <g id="text_41">
     <!-- Female Authorship: Ten Year Rolling Interval -->
     <g style="fill:#262626;" transform="translate(431.798438 351.243513)rotate(-90)scale(0.1 -0.1)">
      <use xlink:href="#DejaVuSans-70"/>
      <use x="57.441406" xlink:href="#DejaVuSans-101"/>
      <use x="118.964844" xlink:href="#DejaVuSans-109"/>
      <use x="216.376953" xlink:href="#DejaVuSans-97"/>
      <use x="277.65625" xlink:href="#DejaVuSans-108"/>
      <use x="305.439453" xlink:href="#DejaVuSans-101"/>
      <use x="366.962891" xlink:href="#DejaVuSans-32"/>
      <use x="398.75" xlink:href="#DejaVuSans-65"/>
      <use x="467.158203" xlink:href="#DejaVuSans-117"/>
      <use x="530.537109" xlink:href="#DejaVuSans-116"/>
      <use x="569.746094" xlink:href="#DejaVuSans-104"/>
      <use x="633.125" xlink:href="#DejaVuSans-111"/>
      <use x="694.306641" xlink:href="#DejaVuSans-114"/>
      <use x="735.419922" xlink:href="#DejaVuSans-115"/>
      <use x="787.519531" xlink:href="#DejaVuSans-104"/>
      <use x="850.898438" xlink:href="#DejaVuSans-105"/>
      <use x="878.681641" xlink:href="#DejaVuSans-112"/>
      <use x="942.158203" xlink:href="#DejaVuSans-58"/>
      <use x="975.849609" xlink:href="#DejaVuSans-32"/>
      <use x="1007.636719" xlink:href="#DejaVuSans-84"/>
      <use x="1068.455078" xlink:href="#DejaVuSans-101"/>
      <use x="1129.978516" xlink:href="#DejaVuSans-110"/>
      <use x="1193.357422" xlink:href="#DejaVuSans-32"/>
      <use x="1225.144531" xlink:href="#DejaVuSans-89"/>
      <use x="1286.025391" xlink:href="#DejaVuSans-101"/>
      <use x="1347.548828" xlink:href="#DejaVuSans-97"/>
      <use x="1408.828125" xlink:href="#DejaVuSans-114"/>
      <use x="1449.941406" xlink:href="#DejaVuSans-32"/>
      <use x="1481.728516" xlink:href="#DejaVuSans-82"/>
      <use x="1551.148438" xlink:href="#DejaVuSans-111"/>
      <use x="1612.330078" xlink:href="#DejaVuSans-108"/>
      <use x="1640.113281" xlink:href="#DejaVuSans-108"/>
      <use x="1667.896484" xlink:href="#DejaVuSans-105"/>
      <use x="1695.679688" xlink:href="#DejaVuSans-110"/>
      <use x="1759.058594" xlink:href="#DejaVuSans-103"/>
      <use x="1822.535156" xlink:href="#DejaVuSans-32"/>
      <use x="1854.322266" xlink:href="#DejaVuSans-73"/>
      <use x="1883.814453" xlink:href="#DejaVuSans-110"/>
      <use x="1947.193359" xlink:href="#DejaVuSans-116"/>
      <use x="1986.402344" xlink:href="#DejaVuSans-101"/>
      <use x="2047.925781" xlink:href="#DejaVuSans-114"/>
      <use x="2089.039062" xlink:href="#DejaVuSans-118"/>
      <use x="2148.21875" xlink:href="#DejaVuSans-97"/>
      <use x="2209.498047" xlink:href="#DejaVuSans-108"/>
     </g>
    </g>
   </g>
   <g id="PolyCollection_2">
    <defs>
     <path d="M 792.311393 -338.307074 
L 792.311393 -287.777651 
L 787.395192 -289.437438 
L 782.478991 -310.88742 
L 777.56279 -302.654832 
L 772.646588 -302.684027 
L 767.730387 -301.494544 
L 762.814186 -286.37521 
L 757.897985 -279.346268 
L 752.981784 -258.507687 
L 748.065583 -238.076029 
L 743.149382 -218.934354 
L 738.23318 -208.218847 
L 733.316979 -187.038798 
L 728.400778 -181.448089 
L 723.484577 -171.376428 
L 718.568376 -178.266556 
L 713.652175 -193.320655 
L 708.735974 -187.86613 
L 703.819772 -181.715885 
L 698.903571 -185.502886 
L 693.98737 -185.81934 
L 689.071169 -178.179012 
L 684.154968 -164.922695 
L 679.238767 -163.11216 
L 674.322566 -161.550527 
L 669.406364 -183.433829 
L 664.490163 -185.670245 
L 659.573962 -214.511062 
L 654.657761 -230.03542 
L 649.74156 -257.895692 
L 644.825359 -272.937325 
L 639.909158 -259.906348 
L 634.992956 -266.875504 
L 630.076755 -258.273331 
L 625.160554 -257.256353 
L 620.244353 -199.622309 
L 615.328152 -172.016071 
L 610.411951 -143.424894 
L 605.49575 -127.880675 
L 600.579548 -96.543696 
L 595.663347 -74.634979 
L 590.747146 -73.719483 
L 585.830945 -77.286558 
L 580.914744 -79.190968 
L 575.998543 -76.80463 
L 571.082342 -85.952027 
L 566.16614 -88.85296 
L 561.249939 -96.242191 
L 556.333738 -77.244753 
L 551.417537 -95.432605 
L 546.501336 -111.210552 
L 541.585135 -132.825712 
L 536.668934 -139.082395 
L 531.752733 -126.691787 
L 526.836531 -109.406392 
L 521.92033 -101.488137 
L 517.004129 -117.88262 
L 512.087928 -116.744989 
L 507.171727 -163.935533 
L 502.255526 -146.822508 
L 497.339325 -125.881391 
L 492.423123 -123.94128 
L 487.506922 -117.244018 
L 482.590721 -133.791964 
L 482.590721 -159.447528 
L 482.590721 -159.447528 
L 487.506922 -137.809192 
L 492.423123 -148.386676 
L 497.339325 -146.446566 
L 502.255526 -175.297365 
L 507.171727 -190.927325 
L 512.087928 -140.301461 
L 517.004129 -151.977515 
L 521.92033 -141.40877 
L 526.836531 -146.232402 
L 531.752733 -163.446567 
L 536.668934 -177.536454 
L 541.585135 -168.135729 
L 546.501336 -156.40611 
L 551.417537 -141.621767 
L 556.333738 -123.516396 
L 561.249939 -147.553319 
L 566.16614 -131.650756 
L 571.082342 -129.685563 
L 575.998543 -124.593376 
L 580.914744 -127.734345 
L 585.830945 -126.401034 
L 590.747146 -129.290819 
L 595.663347 -125.630541 
L 600.579548 -146.615426 
L 605.49575 -177.143261 
L 610.411951 -196.976608 
L 615.328152 -234.523379 
L 620.244353 -264.298293 
L 625.160554 -321.155288 
L 630.076755 -324.375678 
L 634.992956 -327.136248 
L 639.909158 -307.891755 
L 644.825359 -316.888561 
L 649.74156 -306.480917 
L 654.657761 -281.030982 
L 659.573962 -262.496469 
L 664.490163 -231.753792 
L 669.406364 -226.01243 
L 674.322566 -204.851343 
L 679.238767 -204.026034 
L 684.154968 -210.144545 
L 689.071169 -226.792501 
L 693.98737 -241.579598 
L 698.903571 -241.689881 
L 703.819772 -237.942554 
L 708.735974 -243.173562 
L 713.652175 -250.359913 
L 718.568376 -242.539438 
L 723.484577 -233.997385 
L 728.400778 -247.561317 
L 733.316979 -254.03513 
L 738.23318 -275.055664 
L 743.149382 -281.539394 
L 748.065583 -298.725866 
L 752.981784 -317.311233 
L 757.897985 -344.982695 
L 762.814186 -349.969058 
L 767.730387 -363.599552 
L 772.646588 -365.191334 
L 777.56279 -358.741672 
L 782.478991 -359.9243 
L 787.395192 -336.967576 
L 792.311393 -338.307074 
z
" id="m936f295a42" style="stroke:#ffb94e;stroke-opacity:0.1;"/>
    </defs>
    <g clip-path="url(#p93e90e0b96)">
     <use style="fill:#ffb94e;fill-opacity:0.1;stroke:#ffb94e;stroke-opacity:0.1;" x="0" xlink:href="#m936f295a42" y="457.600038"/>
    </g>
   </g>
   <g id="line2d_76">
    <path clip-path="url(#p93e90e0b96)" d="M 792.311393 169.822387 
L 787.395192 168.1626 
L 782.478991 146.712618 
L 777.56279 154.945206 
L 772.646588 154.916011 
L 767.730387 156.105494 
L 762.814186 171.224828 
L 757.897985 178.25377 
L 752.981784 199.092351 
L 748.065583 219.524009 
L 743.149382 238.665684 
L 738.23318 249.381191 
L 733.316979 270.56124 
L 728.400778 276.151949 
L 723.484577 286.22361 
L 718.568376 279.333482 
L 713.652175 264.279383 
L 708.735974 269.733908 
L 703.819772 275.884153 
L 698.903571 272.097152 
L 693.98737 271.780698 
L 689.071169 279.421026 
L 684.154968 292.677343 
L 679.238767 294.487878 
L 674.322566 296.049511 
L 669.406364 274.166209 
L 664.490163 271.929793 
L 659.573962 243.088976 
L 654.657761 227.564618 
L 649.74156 199.704346 
L 644.825359 184.662713 
L 639.909158 197.69369 
L 634.992956 190.724534 
L 630.076755 199.326707 
L 625.160554 200.343685 
L 620.244353 257.977729 
L 615.328152 285.583967 
L 610.411951 314.175144 
L 605.49575 329.719363 
L 600.579548 361.056342 
L 595.663347 382.965059 
L 590.747146 383.880555 
L 585.830945 380.31348 
L 580.914744 378.40907 
L 575.998543 380.795408 
L 571.082342 371.648011 
L 566.16614 368.747078 
L 561.249939 361.357847 
L 556.333738 380.355285 
L 551.417537 362.167433 
L 546.501336 346.389486 
L 541.585135 324.774326 
L 536.668934 318.517643 
L 531.752733 330.908251 
L 526.836531 348.193646 
L 521.92033 356.111901 
L 517.004129 339.717418 
L 512.087928 340.855049 
L 507.171727 293.664505 
L 502.255526 310.77753 
L 497.339325 331.718647 
L 492.423123 333.658758 
L 487.506922 340.35602 
L 482.590721 323.808074 
" style="fill:none;stroke:#ffb94e;stroke-dasharray:3.6,1.8;stroke-dashoffset:0;stroke-width:0.3;"/>
   </g>
   <g id="line2d_77">
    <path clip-path="url(#p93e90e0b96)" d="M 792.311393 119.292964 
L 787.395192 120.632462 
L 782.478991 97.675738 
L 777.56279 98.858366 
L 772.646588 92.408704 
L 767.730387 94.000486 
L 762.814186 107.63098 
L 757.897985 112.617343 
L 752.981784 140.288805 
L 748.065583 158.874172 
L 743.149382 176.060644 
L 738.23318 182.544374 
L 733.316979 203.564908 
L 728.400778 210.038721 
L 723.484577 223.602653 
L 718.568376 215.0606 
L 713.652175 207.240125 
L 708.735974 214.426476 
L 703.819772 219.657484 
L 698.903571 215.910157 
L 693.98737 216.02044 
L 689.071169 230.807537 
L 684.154968 247.455493 
L 679.238767 253.574004 
L 674.322566 252.748695 
L 669.406364 231.587608 
L 664.490163 225.846246 
L 659.573962 195.103569 
L 654.657761 176.569056 
L 649.74156 151.119121 
L 644.825359 140.711477 
L 639.909158 149.708283 
L 634.992956 130.46379 
L 630.076755 133.22436 
L 625.160554 136.44475 
L 620.244353 193.301745 
L 615.328152 223.076659 
L 610.411951 260.62343 
L 605.49575 280.456777 
L 600.579548 310.984612 
L 595.663347 331.969497 
L 590.747146 328.309219 
L 585.830945 331.199004 
L 580.914744 329.865693 
L 575.998543 333.006662 
L 571.082342 327.914475 
L 566.16614 325.949282 
L 561.249939 310.046719 
L 556.333738 334.083642 
L 551.417537 315.978271 
L 546.501336 301.193928 
L 541.585135 289.464309 
L 536.668934 280.063584 
L 531.752733 294.153471 
L 526.836531 311.367636 
L 521.92033 316.191268 
L 517.004129 305.622523 
L 512.087928 317.298577 
L 507.171727 266.672713 
L 502.255526 282.302673 
L 497.339325 311.153472 
L 492.423123 309.213362 
L 487.506922 319.790846 
L 482.590721 298.15251 
" style="fill:none;stroke:#ffb94e;stroke-dasharray:3.6,1.8;stroke-dashoffset:0;stroke-width:0.3;"/>
   </g>
   <g id="line2d_78">
    <path clip-path="url(#p93e90e0b96)" d="M 792.311393 144.557675 
L 787.395192 144.397531 
L 782.478991 122.194178 
L 777.56279 126.901786 
L 772.646588 123.662357 
L 767.730387 125.05299 
L 762.814186 139.427904 
L 757.897985 145.435556 
L 752.981784 169.690578 
L 748.065583 189.19909 
L 743.149382 207.363164 
L 738.23318 215.962782 
L 733.316979 237.063074 
L 728.400778 243.095335 
L 723.484577 254.913132 
L 718.568376 247.197041 
L 713.652175 235.759754 
L 708.735974 242.080192 
L 703.819772 247.770818 
L 698.903571 244.003654 
L 693.98737 243.900569 
L 689.071169 255.114282 
L 684.154968 270.066418 
L 679.238767 274.030941 
L 674.322566 274.399103 
L 669.406364 252.876909 
L 664.490163 248.888019 
L 659.573962 219.096273 
L 654.657761 202.066837 
L 649.74156 175.411734 
L 644.825359 162.687095 
L 639.909158 173.700987 
L 634.992956 160.594162 
L 630.076755 166.275534 
L 625.160554 168.394217 
L 620.244353 225.639737 
L 615.328152 254.330313 
L 610.411951 287.399287 
L 605.49575 305.08807 
L 600.579548 336.020477 
L 595.663347 357.467278 
L 590.747146 356.094887 
L 585.830945 355.756242 
L 580.914744 354.137381 
L 575.998543 356.901035 
L 571.082342 349.781243 
L 566.16614 347.34818 
L 561.249939 335.702283 
L 556.333738 357.219463 
L 551.417537 339.072852 
L 546.501336 323.791707 
L 541.585135 307.119318 
L 536.668934 299.290614 
L 531.752733 312.530861 
L 526.836531 329.780641 
L 521.92033 336.151585 
L 517.004129 322.66997 
L 512.087928 329.076813 
L 507.171727 280.168609 
L 502.255526 296.540101 
L 497.339325 321.43606 
L 492.423123 321.43606 
L 487.506922 330.073433 
L 482.590721 310.980292 
" style="fill:none;stroke:#377eb8;stroke-linecap:round;stroke-width:1.5;"/>
   </g>
   <g id="line2d_79">
    <path clip-path="url(#p93e90e0b96)" d="M 467.104688 302.283623 
L 617.009493 302.283623 
" style="fill:none;stroke:#000000;stroke-dasharray:2.775,1.2;stroke-dashoffset:0;stroke-opacity:0.75;stroke-width:0.75;"/>
   </g>
   <g id="line2d_80">
    <path clip-path="url(#p93e90e0b96)" d="M 617.009493 190.709384 
L 807.797427 190.709384 
" style="fill:none;stroke:#000000;stroke-dasharray:2.775,1.2;stroke-dashoffset:0;stroke-opacity:0.75;stroke-width:0.75;"/>
   </g>
   <g id="patch_9">
    <path d="M 467.104688 433.721913 
L 467.104688 45.040113 
" style="fill:none;stroke:#262626;stroke-linecap:square;stroke-linejoin:miter;stroke-width:0.8;"/>
   </g>
   <g id="patch_10">
    <path d="M 467.104687 433.721913 
L 807.797427 433.721913 
" style="fill:none;stroke:#262626;stroke-linecap:square;stroke-linejoin:miter;stroke-width:0.8;"/>
   </g>
   <g id="patch_11">
    <path d="M 669.936591 377.866984 
Q 628.212064 362.737446 620.567922 304.820645 
" style="fill:none;stroke:#ffffff;stroke-linecap:round;stroke-width:0.5;"/>
    <path d="M 619.400398 308.202492 
L 620.567922 304.820645 
L 622.572885 307.783771 
" style="fill:none;stroke:#ffffff;stroke-linecap:round;stroke-width:0.5;"/>
   </g>
   <g id="text_42">
    <!-- 1947-1984 backward -->
    <g style="fill:#262626;" transform="translate(674.322566 379.699106)scale(0.08 -0.08)">
     <use xlink:href="#DejaVuSans-49"/>
     <use x="63.623047" xlink:href="#DejaVuSans-57"/>
     <use x="127.246094" xlink:href="#DejaVuSans-52"/>
     <use x="190.869141" xlink:href="#DejaVuSans-55"/>
     <use x="254.492188" xlink:href="#DejaVuSans-45"/>
     <use x="290.576172" xlink:href="#DejaVuSans-49"/>
     <use x="354.199219" xlink:href="#DejaVuSans-57"/>
     <use x="417.822266" xlink:href="#DejaVuSans-56"/>
     <use x="481.445312" xlink:href="#DejaVuSans-52"/>
     <use x="545.068359" xlink:href="#DejaVuSans-32"/>
     <use x="576.855469" xlink:href="#DejaVuSans-98"/>
     <use x="640.332031" xlink:href="#DejaVuSans-97"/>
     <use x="701.611328" xlink:href="#DejaVuSans-99"/>
     <use x="756.591797" xlink:href="#DejaVuSans-107"/>
     <use x="814.501953" xlink:href="#DejaVuSans-119"/>
     <use x="896.289062" xlink:href="#DejaVuSans-97"/>
     <use x="957.568359" xlink:href="#DejaVuSans-114"/>
     <use x="998.666016" xlink:href="#DejaVuSans-100"/>
    </g>
    <!-- looking average: 25.2% -->
    <g style="fill:#262626;" transform="translate(674.322566 388.657356)scale(0.08 -0.08)">
     <use xlink:href="#DejaVuSans-108"/>
     <use x="27.783203" xlink:href="#DejaVuSans-111"/>
     <use x="88.964844" xlink:href="#DejaVuSans-111"/>
     <use x="150.146484" xlink:href="#DejaVuSans-107"/>
     <use x="208.056641" xlink:href="#DejaVuSans-105"/>
     <use x="235.839844" xlink:href="#DejaVuSans-110"/>
     <use x="299.21875" xlink:href="#DejaVuSans-103"/>
     <use x="362.695312" xlink:href="#DejaVuSans-32"/>
     <use x="394.482422" xlink:href="#DejaVuSans-97"/>
     <use x="455.761719" xlink:href="#DejaVuSans-118"/>
     <use x="514.941406" xlink:href="#DejaVuSans-101"/>
     <use x="576.464844" xlink:href="#DejaVuSans-114"/>
     <use x="617.578125" xlink:href="#DejaVuSans-97"/>
     <use x="678.857422" xlink:href="#DejaVuSans-103"/>
     <use x="742.333984" xlink:href="#DejaVuSans-101"/>
     <use x="803.857422" xlink:href="#DejaVuSans-58"/>
     <use x="837.548828" xlink:href="#DejaVuSans-32"/>
     <use x="869.335938" xlink:href="#DejaVuSans-50"/>
     <use x="932.958984" xlink:href="#DejaVuSans-53"/>
     <use x="996.582031" xlink:href="#DejaVuSans-46"/>
     <use x="1028.369141" xlink:href="#DejaVuSans-50"/>
     <use x="1091.992188" xlink:href="#DejaVuSans-37"/>
    </g>
   </g>
   <g id="patch_12">
    <path d="M 538.418314 227.414197 
Q 554.507988 180.00099 607.903085 190.213098 
" style="fill:none;stroke:#ffffff;stroke-linecap:round;stroke-width:0.5;"/>
    <path d="M 605.060614 188.04046 
L 607.903085 190.213098 
L 604.459491 191.183492 
" style="fill:none;stroke:#ffffff;stroke-linecap:round;stroke-width:0.5;"/>
   </g>
   <g id="text_43">
    <!-- 1984-2020 backward -->
    <g style="fill:#262626;" transform="translate(487.506922 237.894061)scale(0.08 -0.08)">
     <use xlink:href="#DejaVuSans-49"/>
     <use x="63.623047" xlink:href="#DejaVuSans-57"/>
     <use x="127.246094" xlink:href="#DejaVuSans-56"/>
     <use x="190.869141" xlink:href="#DejaVuSans-52"/>
     <use x="254.492188" xlink:href="#DejaVuSans-45"/>
     <use x="290.576172" xlink:href="#DejaVuSans-50"/>
     <use x="354.199219" xlink:href="#DejaVuSans-48"/>
     <use x="417.822266" xlink:href="#DejaVuSans-50"/>
     <use x="481.445312" xlink:href="#DejaVuSans-48"/>
     <use x="545.068359" xlink:href="#DejaVuSans-32"/>
     <use x="576.855469" xlink:href="#DejaVuSans-98"/>
     <use x="640.332031" xlink:href="#DejaVuSans-97"/>
     <use x="701.611328" xlink:href="#DejaVuSans-99"/>
     <use x="756.591797" xlink:href="#DejaVuSans-107"/>
     <use x="814.501953" xlink:href="#DejaVuSans-119"/>
     <use x="896.289062" xlink:href="#DejaVuSans-97"/>
     <use x="957.568359" xlink:href="#DejaVuSans-114"/>
     <use x="998.666016" xlink:href="#DejaVuSans-100"/>
    </g>
    <!-- looking average: 38.1% -->
    <g style="fill:#262626;" transform="translate(487.506922 246.852311)scale(0.08 -0.08)">
     <use xlink:href="#DejaVuSans-108"/>
     <use x="27.783203" xlink:href="#DejaVuSans-111"/>
     <use x="88.964844" xlink:href="#DejaVuSans-111"/>
     <use x="150.146484" xlink:href="#DejaVuSans-107"/>
     <use x="208.056641" xlink:href="#DejaVuSans-105"/>
     <use x="235.839844" xlink:href="#DejaVuSans-110"/>
     <use x="299.21875" xlink:href="#DejaVuSans-103"/>
     <use x="362.695312" xlink:href="#DejaVuSans-32"/>
     <use x="394.482422" xlink:href="#DejaVuSans-97"/>
     <use x="455.761719" xlink:href="#DejaVuSans-118"/>
     <use x="514.941406" xlink:href="#DejaVuSans-101"/>
     <use x="576.464844" xlink:href="#DejaVuSans-114"/>
     <use x="617.578125" xlink:href="#DejaVuSans-97"/>
     <use x="678.857422" xlink:href="#DejaVuSans-103"/>
     <use x="742.333984" xlink:href="#DejaVuSans-101"/>
     <use x="803.857422" xlink:href="#DejaVuSans-58"/>
     <use x="837.548828" xlink:href="#DejaVuSans-32"/>
     <use x="869.335938" xlink:href="#DejaVuSans-51"/>
     <use x="932.958984" xlink:href="#DejaVuSans-56"/>
     <use x="996.582031" xlink:href="#DejaVuSans-46"/>
     <use x="1028.369141" xlink:href="#DejaVuSans-49"/>
     <use x="1091.992188" xlink:href="#DejaVuSans-37"/>
    </g>
   </g>
   <g id="text_44">
    <!-- B. -->
    <defs>
     <path d="M 19.671875 34.8125 
L 19.671875 8.109375 
L 35.5 8.109375 
Q 43.453125 8.109375 47.28125 11.40625 
Q 51.125 14.703125 51.125 21.484375 
Q 51.125 28.328125 47.28125 31.5625 
Q 43.453125 34.8125 35.5 34.8125 
z
M 19.671875 64.796875 
L 19.671875 42.828125 
L 34.28125 42.828125 
Q 41.5 42.828125 45.03125 45.53125 
Q 48.578125 48.25 48.578125 53.8125 
Q 48.578125 59.328125 45.03125 62.0625 
Q 41.5 64.796875 34.28125 64.796875 
z
M 9.8125 72.90625 
L 35.015625 72.90625 
Q 46.296875 72.90625 52.390625 68.21875 
Q 58.5 63.53125 58.5 54.890625 
Q 58.5 48.1875 55.375 44.234375 
Q 52.25 40.28125 46.1875 39.3125 
Q 53.46875 37.75 57.5 32.78125 
Q 61.53125 27.828125 61.53125 20.40625 
Q 61.53125 10.640625 54.890625 5.3125 
Q 48.25 0 35.984375 0 
L 9.8125 0 
z
" id="DejaVuSans-66"/>
    </defs>
    <g style="fill:#262626;" transform="translate(467.104688 25.43625)scale(0.24 -0.24)">
     <use xlink:href="#DejaVuSans-66"/>
     <use x="68.603516" xlink:href="#DejaVuSans-46"/>
    </g>
   </g>
   <g id="legend_2">
    <g id="line2d_81">
     <path d="M 477.004688 59.448394 
L 499.004688 59.448394 
" style="fill:none;stroke:#377eb8;stroke-linecap:round;"/>
    </g>
    <g id="line2d_82"/>
    <g id="text_45">
     <!-- Guesser: F/(M+F) -->
     <defs>
      <path d="M 59.515625 10.40625 
L 59.515625 29.984375 
L 43.40625 29.984375 
L 43.40625 38.09375 
L 69.28125 38.09375 
L 69.28125 6.78125 
Q 63.578125 2.734375 56.6875 0.65625 
Q 49.8125 -1.421875 42 -1.421875 
Q 24.90625 -1.421875 15.25 8.5625 
Q 5.609375 18.5625 5.609375 36.375 
Q 5.609375 54.25 15.25 64.234375 
Q 24.90625 74.21875 42 74.21875 
Q 49.125 74.21875 55.546875 72.453125 
Q 61.96875 70.703125 67.390625 67.28125 
L 67.390625 56.78125 
Q 61.921875 61.421875 55.765625 63.765625 
Q 49.609375 66.109375 42.828125 66.109375 
Q 29.4375 66.109375 22.71875 58.640625 
Q 16.015625 51.171875 16.015625 36.375 
Q 16.015625 21.625 22.71875 14.15625 
Q 29.4375 6.6875 42.828125 6.6875 
Q 48.046875 6.6875 52.140625 7.59375 
Q 56.25 8.5 59.515625 10.40625 
z
" id="DejaVuSans-71"/>
     </defs>
     <g style="fill:#262626;" transform="translate(507.804688 63.298394)scale(0.11 -0.11)">
      <use xlink:href="#DejaVuSans-71"/>
      <use x="77.490234" xlink:href="#DejaVuSans-117"/>
      <use x="140.869141" xlink:href="#DejaVuSans-101"/>
      <use x="202.392578" xlink:href="#DejaVuSans-115"/>
      <use x="254.492188" xlink:href="#DejaVuSans-115"/>
      <use x="306.591797" xlink:href="#DejaVuSans-101"/>
      <use x="368.115234" xlink:href="#DejaVuSans-114"/>
      <use x="409.212891" xlink:href="#DejaVuSans-58"/>
      <use x="442.904297" xlink:href="#DejaVuSans-32"/>
      <use x="474.691406" xlink:href="#DejaVuSans-70"/>
      <use x="532.210938" xlink:href="#DejaVuSans-47"/>
      <use x="565.902344" xlink:href="#DejaVuSans-40"/>
      <use x="604.916016" xlink:href="#DejaVuSans-77"/>
      <use x="691.195312" xlink:href="#DejaVuSans-43"/>
      <use x="774.984375" xlink:href="#DejaVuSans-70"/>
      <use x="832.503906" xlink:href="#DejaVuSans-41"/>
     </g>
    </g>
    <g id="patch_13">
     <path d="M 477.004688 79.444332 
L 499.004688 79.444332 
L 499.004688 71.744332 
L 477.004688 71.744332 
z
" style="fill:#ffb94e;fill-opacity:0.3;stroke:#000000;stroke-linejoin:miter;stroke-width:0.5;"/>
    </g>
    <g id="text_46">
     <!-- Guesser: CI's -->
     <g style="fill:#262626;" transform="translate(507.804688 79.444332)scale(0.11 -0.11)">
      <use xlink:href="#DejaVuSans-71"/>
      <use x="77.490234" xlink:href="#DejaVuSans-117"/>
      <use x="140.869141" xlink:href="#DejaVuSans-101"/>
      <use x="202.392578" xlink:href="#DejaVuSans-115"/>
      <use x="254.492188" xlink:href="#DejaVuSans-115"/>
      <use x="306.591797" xlink:href="#DejaVuSans-101"/>
      <use x="368.115234" xlink:href="#DejaVuSans-114"/>
      <use x="409.212891" xlink:href="#DejaVuSans-58"/>
      <use x="442.904297" xlink:href="#DejaVuSans-32"/>
      <use x="474.691406" xlink:href="#DejaVuSans-67"/>
      <use x="544.515625" xlink:href="#DejaVuSans-73"/>
      <use x="574.007812" xlink:href="#DejaVuSans-39"/>
      <use x="601.498047" xlink:href="#DejaVuSans-115"/>
     </g>
    </g>
   </g>
  </g>
 </g>
 <defs>
  <clipPath id="p992720420b">
   <rect height="388.6818" width="340.692739" x="50.104688" y="45.040113"/>
  </clipPath>
  <clipPath id="p93e90e0b96">
   <rect height="388.6818" width="340.692739" x="467.104688" y="45.040113"/>
  </clipPath>
 </defs>
</svg>
