<?xml version="1.0" encoding="utf-8" standalone="no"?>
<!DOCTYPE svg PUBLIC "-//W3C//DTD SVG 1.1//EN"
  "http://www.w3.org/Graphics/SVG/1.1/DTD/svg11.dtd">
<svg height="458.102225pt" version="1.1" viewBox="0 0 817.7425 458.102225" width="817.7425pt" xmlns="http://www.w3.org/2000/svg" xmlns:xlink="http://www.w3.org/1999/xlink">
 <metadata>
  <rdf:RDF xmlns:cc="http://creativecommons.org/ns#" xmlns:dc="http://purl.org/dc/elements/1.1/" xmlns:rdf="http://www.w3.org/1999/02/22-rdf-syntax-ns#">
   <cc:Work>
    <dc:type rdf:resource="http://purl.org/dc/dcmitype/StillImage"/>
    <dc:date>2021-09-03T19:07:36.216618</dc:date>
    <dc:format>image/svg+xml</dc:format>
    <dc:creator>
     <cc:Agent>
      <dc:title>Matplotlib v3.4.3, https://matplotlib.org/</dc:title>
     </cc:Agent>
    </dc:creator>
   </cc:Work>
  </rdf:RDF>
 </metadata>
 <defs>
  <style type="text/css">*{stroke-linecap:butt;stroke-linejoin:round;}</style>
 </defs>
 <g id="figure_1">
  <g id="patch_1">
   <path d="M 0 458.102225 
L 817.7425 458.102225 
L 817.7425 0 
L 0 0 
z
" style="fill:#ffffff;"/>
  </g>
  <g id="axes_1">
   <g id="patch_2">
    <path d="M 50.795625 434.756913 
L 380.808965 434.756913 
L 380.808965 45.075113 
L 50.795625 45.075113 
z
" style="fill:#ffffff;"/>
   </g>
   <g id="matplotlib.axis_1">
    <g id="xtick_1">
     <g id="line2d_1">
      <path clip-path="url(#p3f2b8c980d)" d="M 93.840843 434.756913 
L 93.840843 45.075113 
" style="fill:none;stroke:#cccccc;stroke-dasharray:2.96,1.28;stroke-dashoffset:0;stroke-opacity:0.2;stroke-width:0.8;"/>
     </g>
     <g id="line2d_2">
      <defs>
       <path d="M 0 0 
L 0 3.5 
" id="m45c4aadc0d" style="stroke:#262626;stroke-width:0.8;"/>
      </defs>
      <g>
       <use style="fill:#262626;stroke:#262626;stroke-width:0.8;" x="93.840843" xlink:href="#m45c4aadc0d" y="434.756913"/>
      </g>
     </g>
     <g id="text_1">
      <!-- 1960 -->
      <g style="fill:#262626;" transform="translate(82.718968 448.914725)scale(0.1 -0.1)">
       <defs>
        <path d="M 2384 0 
L 1822 0 
L 1822 3584 
Q 1619 3391 1289 3197 
Q 959 3003 697 2906 
L 697 3450 
Q 1169 3672 1522 3987 
Q 1875 4303 2022 4600 
L 2384 4600 
L 2384 0 
z
" id="ArialMT-31" transform="scale(0.015625)"/>
        <path d="M 350 1059 
L 891 1109 
Q 959 728 1153 556 
Q 1347 384 1650 384 
Q 1909 384 2104 503 
Q 2300 622 2425 820 
Q 2550 1019 2634 1356 
Q 2719 1694 2719 2044 
Q 2719 2081 2716 2156 
Q 2547 1888 2255 1720 
Q 1963 1553 1622 1553 
Q 1053 1553 659 1965 
Q 266 2378 266 3053 
Q 266 3750 677 4175 
Q 1088 4600 1706 4600 
Q 2153 4600 2523 4359 
Q 2894 4119 3086 3673 
Q 3278 3228 3278 2384 
Q 3278 1506 3087 986 
Q 2897 466 2520 194 
Q 2144 -78 1638 -78 
Q 1100 -78 759 220 
Q 419 519 350 1059 
z
M 2653 3081 
Q 2653 3566 2395 3850 
Q 2138 4134 1775 4134 
Q 1400 4134 1122 3828 
Q 844 3522 844 3034 
Q 844 2597 1108 2323 
Q 1372 2050 1759 2050 
Q 2150 2050 2401 2323 
Q 2653 2597 2653 3081 
z
" id="ArialMT-39" transform="scale(0.015625)"/>
        <path d="M 3184 3459 
L 2625 3416 
Q 2550 3747 2413 3897 
Q 2184 4138 1850 4138 
Q 1581 4138 1378 3988 
Q 1113 3794 959 3422 
Q 806 3050 800 2363 
Q 1003 2672 1297 2822 
Q 1591 2972 1913 2972 
Q 2475 2972 2870 2558 
Q 3266 2144 3266 1488 
Q 3266 1056 3080 686 
Q 2894 316 2569 119 
Q 2244 -78 1831 -78 
Q 1128 -78 684 439 
Q 241 956 241 2144 
Q 241 3472 731 4075 
Q 1159 4600 1884 4600 
Q 2425 4600 2770 4297 
Q 3116 3994 3184 3459 
z
M 888 1484 
Q 888 1194 1011 928 
Q 1134 663 1356 523 
Q 1578 384 1822 384 
Q 2178 384 2434 671 
Q 2691 959 2691 1453 
Q 2691 1928 2437 2201 
Q 2184 2475 1800 2475 
Q 1419 2475 1153 2201 
Q 888 1928 888 1484 
z
" id="ArialMT-36" transform="scale(0.015625)"/>
        <path d="M 266 2259 
Q 266 3072 433 3567 
Q 600 4063 929 4331 
Q 1259 4600 1759 4600 
Q 2128 4600 2406 4451 
Q 2684 4303 2865 4023 
Q 3047 3744 3150 3342 
Q 3253 2941 3253 2259 
Q 3253 1453 3087 958 
Q 2922 463 2592 192 
Q 2263 -78 1759 -78 
Q 1097 -78 719 397 
Q 266 969 266 2259 
z
M 844 2259 
Q 844 1131 1108 757 
Q 1372 384 1759 384 
Q 2147 384 2411 759 
Q 2675 1134 2675 2259 
Q 2675 3391 2411 3762 
Q 2147 4134 1753 4134 
Q 1366 4134 1134 3806 
Q 844 3388 844 2259 
z
" id="ArialMT-30" transform="scale(0.015625)"/>
       </defs>
       <use xlink:href="#ArialMT-31"/>
       <use x="55.615234" xlink:href="#ArialMT-39"/>
       <use x="111.230469" xlink:href="#ArialMT-36"/>
       <use x="166.845703" xlink:href="#ArialMT-30"/>
      </g>
     </g>
    </g>
    <g id="xtick_2">
     <g id="line2d_3">
      <path clip-path="url(#p3f2b8c980d)" d="M 141.668864 434.756913 
L 141.668864 45.075113 
" style="fill:none;stroke:#cccccc;stroke-dasharray:2.96,1.28;stroke-dashoffset:0;stroke-opacity:0.2;stroke-width:0.8;"/>
     </g>
     <g id="line2d_4">
      <g>
       <use style="fill:#262626;stroke:#262626;stroke-width:0.8;" x="141.668864" xlink:href="#m45c4aadc0d" y="434.756913"/>
      </g>
     </g>
     <g id="text_2">
      <!-- 1970 -->
      <g style="fill:#262626;" transform="translate(130.546989 448.914725)scale(0.1 -0.1)">
       <defs>
        <path d="M 303 3981 
L 303 4522 
L 3269 4522 
L 3269 4084 
Q 2831 3619 2401 2847 
Q 1972 2075 1738 1259 
Q 1569 684 1522 0 
L 944 0 
Q 953 541 1156 1306 
Q 1359 2072 1739 2783 
Q 2119 3494 2547 3981 
L 303 3981 
z
" id="ArialMT-37" transform="scale(0.015625)"/>
       </defs>
       <use xlink:href="#ArialMT-31"/>
       <use x="55.615234" xlink:href="#ArialMT-39"/>
       <use x="111.230469" xlink:href="#ArialMT-37"/>
       <use x="166.845703" xlink:href="#ArialMT-30"/>
      </g>
     </g>
    </g>
    <g id="xtick_3">
     <g id="line2d_5">
      <path clip-path="url(#p3f2b8c980d)" d="M 189.496884 434.756913 
L 189.496884 45.075113 
" style="fill:none;stroke:#cccccc;stroke-dasharray:2.96,1.28;stroke-dashoffset:0;stroke-opacity:0.2;stroke-width:0.8;"/>
     </g>
     <g id="line2d_6">
      <g>
       <use style="fill:#262626;stroke:#262626;stroke-width:0.8;" x="189.496884" xlink:href="#m45c4aadc0d" y="434.756913"/>
      </g>
     </g>
     <g id="text_3">
      <!-- 1980 -->
      <g style="fill:#262626;" transform="translate(178.375009 448.914725)scale(0.1 -0.1)">
       <defs>
        <path d="M 1131 2484 
Q 781 2613 612 2850 
Q 444 3088 444 3419 
Q 444 3919 803 4259 
Q 1163 4600 1759 4600 
Q 2359 4600 2725 4251 
Q 3091 3903 3091 3403 
Q 3091 3084 2923 2848 
Q 2756 2613 2416 2484 
Q 2838 2347 3058 2040 
Q 3278 1734 3278 1309 
Q 3278 722 2862 322 
Q 2447 -78 1769 -78 
Q 1091 -78 675 323 
Q 259 725 259 1325 
Q 259 1772 486 2073 
Q 713 2375 1131 2484 
z
M 1019 3438 
Q 1019 3113 1228 2906 
Q 1438 2700 1772 2700 
Q 2097 2700 2305 2904 
Q 2513 3109 2513 3406 
Q 2513 3716 2298 3927 
Q 2084 4138 1766 4138 
Q 1444 4138 1231 3931 
Q 1019 3725 1019 3438 
z
M 838 1322 
Q 838 1081 952 856 
Q 1066 631 1291 507 
Q 1516 384 1775 384 
Q 2178 384 2440 643 
Q 2703 903 2703 1303 
Q 2703 1709 2433 1975 
Q 2163 2241 1756 2241 
Q 1359 2241 1098 1978 
Q 838 1716 838 1322 
z
" id="ArialMT-38" transform="scale(0.015625)"/>
       </defs>
       <use xlink:href="#ArialMT-31"/>
       <use x="55.615234" xlink:href="#ArialMT-39"/>
       <use x="111.230469" xlink:href="#ArialMT-38"/>
       <use x="166.845703" xlink:href="#ArialMT-30"/>
      </g>
     </g>
    </g>
    <g id="xtick_4">
     <g id="line2d_7">
      <path clip-path="url(#p3f2b8c980d)" d="M 237.324904 434.756913 
L 237.324904 45.075113 
" style="fill:none;stroke:#cccccc;stroke-dasharray:2.96,1.28;stroke-dashoffset:0;stroke-opacity:0.2;stroke-width:0.8;"/>
     </g>
     <g id="line2d_8">
      <g>
       <use style="fill:#262626;stroke:#262626;stroke-width:0.8;" x="237.324904" xlink:href="#m45c4aadc0d" y="434.756913"/>
      </g>
     </g>
     <g id="text_4">
      <!-- 1990 -->
      <g style="fill:#262626;" transform="translate(226.203029 448.914725)scale(0.1 -0.1)">
       <use xlink:href="#ArialMT-31"/>
       <use x="55.615234" xlink:href="#ArialMT-39"/>
       <use x="111.230469" xlink:href="#ArialMT-39"/>
       <use x="166.845703" xlink:href="#ArialMT-30"/>
      </g>
     </g>
    </g>
    <g id="xtick_5">
     <g id="line2d_9">
      <path clip-path="url(#p3f2b8c980d)" d="M 285.152924 434.756913 
L 285.152924 45.075113 
" style="fill:none;stroke:#cccccc;stroke-dasharray:2.96,1.28;stroke-dashoffset:0;stroke-opacity:0.2;stroke-width:0.8;"/>
     </g>
     <g id="line2d_10">
      <g>
       <use style="fill:#262626;stroke:#262626;stroke-width:0.8;" x="285.152924" xlink:href="#m45c4aadc0d" y="434.756913"/>
      </g>
     </g>
     <g id="text_5">
      <!-- 2000 -->
      <g style="fill:#262626;" transform="translate(274.031049 448.914725)scale(0.1 -0.1)">
       <defs>
        <path d="M 3222 541 
L 3222 0 
L 194 0 
Q 188 203 259 391 
Q 375 700 629 1000 
Q 884 1300 1366 1694 
Q 2113 2306 2375 2664 
Q 2638 3022 2638 3341 
Q 2638 3675 2398 3904 
Q 2159 4134 1775 4134 
Q 1369 4134 1125 3890 
Q 881 3647 878 3216 
L 300 3275 
Q 359 3922 746 4261 
Q 1134 4600 1788 4600 
Q 2447 4600 2831 4234 
Q 3216 3869 3216 3328 
Q 3216 3053 3103 2787 
Q 2991 2522 2730 2228 
Q 2469 1934 1863 1422 
Q 1356 997 1212 845 
Q 1069 694 975 541 
L 3222 541 
z
" id="ArialMT-32" transform="scale(0.015625)"/>
       </defs>
       <use xlink:href="#ArialMT-32"/>
       <use x="55.615234" xlink:href="#ArialMT-30"/>
       <use x="111.230469" xlink:href="#ArialMT-30"/>
       <use x="166.845703" xlink:href="#ArialMT-30"/>
      </g>
     </g>
    </g>
    <g id="xtick_6">
     <g id="line2d_11">
      <path clip-path="url(#p3f2b8c980d)" d="M 332.980945 434.756913 
L 332.980945 45.075113 
" style="fill:none;stroke:#cccccc;stroke-dasharray:2.96,1.28;stroke-dashoffset:0;stroke-opacity:0.2;stroke-width:0.8;"/>
     </g>
     <g id="line2d_12">
      <g>
       <use style="fill:#262626;stroke:#262626;stroke-width:0.8;" x="332.980945" xlink:href="#m45c4aadc0d" y="434.756913"/>
      </g>
     </g>
     <g id="text_6">
      <!-- 2010 -->
      <g style="fill:#262626;" transform="translate(321.85907 448.914725)scale(0.1 -0.1)">
       <use xlink:href="#ArialMT-32"/>
       <use x="55.615234" xlink:href="#ArialMT-30"/>
       <use x="111.230469" xlink:href="#ArialMT-31"/>
       <use x="166.845703" xlink:href="#ArialMT-30"/>
      </g>
     </g>
    </g>
    <g id="xtick_7">
     <g id="line2d_13">
      <path clip-path="url(#p3f2b8c980d)" d="M 380.808965 434.756913 
L 380.808965 45.075113 
" style="fill:none;stroke:#cccccc;stroke-dasharray:2.96,1.28;stroke-dashoffset:0;stroke-opacity:0.2;stroke-width:0.8;"/>
     </g>
     <g id="line2d_14">
      <g>
       <use style="fill:#262626;stroke:#262626;stroke-width:0.8;" x="380.808965" xlink:href="#m45c4aadc0d" y="434.756913"/>
      </g>
     </g>
     <g id="text_7">
      <!-- 2020 -->
      <g style="fill:#262626;" transform="translate(369.68709 448.914725)scale(0.1 -0.1)">
       <use xlink:href="#ArialMT-32"/>
       <use x="55.615234" xlink:href="#ArialMT-30"/>
       <use x="111.230469" xlink:href="#ArialMT-32"/>
       <use x="166.845703" xlink:href="#ArialMT-30"/>
      </g>
     </g>
    </g>
   </g>
   <g id="matplotlib.axis_2">
    <g id="ytick_1">
     <g id="line2d_15">
      <path clip-path="url(#p3f2b8c980d)" d="M 50.795625 414.247345 
L 380.808965 414.247345 
" style="fill:none;stroke:#cccccc;stroke-dasharray:2.96,1.28;stroke-dashoffset:0;stroke-opacity:0.2;stroke-width:0.8;"/>
     </g>
     <g id="line2d_16">
      <defs>
       <path d="M 0 0 
L -3.5 0 
" id="m98b1ebbb13" style="stroke:#262626;stroke-width:0.8;"/>
      </defs>
      <g>
       <use style="fill:#262626;stroke:#262626;stroke-width:0.8;" x="50.795625" xlink:href="#m98b1ebbb13" y="414.247345"/>
      </g>
     </g>
     <g id="text_8">
      <!-- 10% -->
      <g style="fill:#262626;" transform="translate(23.781563 417.826251)scale(0.1 -0.1)">
       <defs>
        <path d="M 372 3481 
Q 372 3972 619 4315 
Q 866 4659 1334 4659 
Q 1766 4659 2048 4351 
Q 2331 4044 2331 3447 
Q 2331 2866 2045 2552 
Q 1759 2238 1341 2238 
Q 925 2238 648 2547 
Q 372 2856 372 3481 
z
M 1350 4272 
Q 1141 4272 1002 4090 
Q 863 3909 863 3425 
Q 863 2984 1003 2804 
Q 1144 2625 1350 2625 
Q 1563 2625 1702 2806 
Q 1841 2988 1841 3469 
Q 1841 3913 1700 4092 
Q 1559 4272 1350 4272 
z
M 1353 -169 
L 3859 4659 
L 4316 4659 
L 1819 -169 
L 1353 -169 
z
M 3334 1075 
Q 3334 1569 3581 1911 
Q 3828 2253 4300 2253 
Q 4731 2253 5014 1945 
Q 5297 1638 5297 1041 
Q 5297 459 5011 145 
Q 4725 -169 4303 -169 
Q 3888 -169 3611 142 
Q 3334 453 3334 1075 
z
M 4316 1866 
Q 4103 1866 3964 1684 
Q 3825 1503 3825 1019 
Q 3825 581 3965 400 
Q 4106 219 4313 219 
Q 4528 219 4667 400 
Q 4806 581 4806 1063 
Q 4806 1506 4665 1686 
Q 4525 1866 4316 1866 
z
" id="ArialMT-25" transform="scale(0.015625)"/>
       </defs>
       <use xlink:href="#ArialMT-31"/>
       <use x="55.615234" xlink:href="#ArialMT-30"/>
       <use x="111.230469" xlink:href="#ArialMT-25"/>
      </g>
     </g>
    </g>
    <g id="ytick_2">
     <g id="line2d_17">
      <path clip-path="url(#p3f2b8c980d)" d="M 50.795625 332.209071 
L 380.808965 332.209071 
" style="fill:none;stroke:#cccccc;stroke-dasharray:2.96,1.28;stroke-dashoffset:0;stroke-opacity:0.2;stroke-width:0.8;"/>
     </g>
     <g id="line2d_18">
      <g>
       <use style="fill:#262626;stroke:#262626;stroke-width:0.8;" x="50.795625" xlink:href="#m98b1ebbb13" y="332.209071"/>
      </g>
     </g>
     <g id="text_9">
      <!-- 20% -->
      <g style="fill:#262626;" transform="translate(23.781563 335.787977)scale(0.1 -0.1)">
       <use xlink:href="#ArialMT-32"/>
       <use x="55.615234" xlink:href="#ArialMT-30"/>
       <use x="111.230469" xlink:href="#ArialMT-25"/>
      </g>
     </g>
    </g>
    <g id="ytick_3">
     <g id="line2d_19">
      <path clip-path="url(#p3f2b8c980d)" d="M 50.795625 250.170797 
L 380.808965 250.170797 
" style="fill:none;stroke:#cccccc;stroke-dasharray:2.96,1.28;stroke-dashoffset:0;stroke-opacity:0.2;stroke-width:0.8;"/>
     </g>
     <g id="line2d_20">
      <g>
       <use style="fill:#262626;stroke:#262626;stroke-width:0.8;" x="50.795625" xlink:href="#m98b1ebbb13" y="250.170797"/>
      </g>
     </g>
     <g id="text_10">
      <!-- 30% -->
      <g style="fill:#262626;" transform="translate(23.781563 253.749703)scale(0.1 -0.1)">
       <defs>
        <path d="M 269 1209 
L 831 1284 
Q 928 806 1161 595 
Q 1394 384 1728 384 
Q 2125 384 2398 659 
Q 2672 934 2672 1341 
Q 2672 1728 2419 1979 
Q 2166 2231 1775 2231 
Q 1616 2231 1378 2169 
L 1441 2663 
Q 1497 2656 1531 2656 
Q 1891 2656 2178 2843 
Q 2466 3031 2466 3422 
Q 2466 3731 2256 3934 
Q 2047 4138 1716 4138 
Q 1388 4138 1169 3931 
Q 950 3725 888 3313 
L 325 3413 
Q 428 3978 793 4289 
Q 1159 4600 1703 4600 
Q 2078 4600 2393 4439 
Q 2709 4278 2876 4000 
Q 3044 3722 3044 3409 
Q 3044 3113 2884 2869 
Q 2725 2625 2413 2481 
Q 2819 2388 3044 2092 
Q 3269 1797 3269 1353 
Q 3269 753 2831 336 
Q 2394 -81 1725 -81 
Q 1122 -81 723 278 
Q 325 638 269 1209 
z
" id="ArialMT-33" transform="scale(0.015625)"/>
       </defs>
       <use xlink:href="#ArialMT-33"/>
       <use x="55.615234" xlink:href="#ArialMT-30"/>
       <use x="111.230469" xlink:href="#ArialMT-25"/>
      </g>
     </g>
    </g>
    <g id="ytick_4">
     <g id="line2d_21">
      <path clip-path="url(#p3f2b8c980d)" d="M 50.795625 168.132524 
L 380.808965 168.132524 
" style="fill:none;stroke:#cccccc;stroke-dasharray:2.96,1.28;stroke-dashoffset:0;stroke-opacity:0.2;stroke-width:0.8;"/>
     </g>
     <g id="line2d_22">
      <g>
       <use style="fill:#262626;stroke:#262626;stroke-width:0.8;" x="50.795625" xlink:href="#m98b1ebbb13" y="168.132524"/>
      </g>
     </g>
     <g id="text_11">
      <!-- 40% -->
      <g style="fill:#262626;" transform="translate(23.781563 171.71143)scale(0.1 -0.1)">
       <defs>
        <path d="M 2069 0 
L 2069 1097 
L 81 1097 
L 81 1613 
L 2172 4581 
L 2631 4581 
L 2631 1613 
L 3250 1613 
L 3250 1097 
L 2631 1097 
L 2631 0 
L 2069 0 
z
M 2069 1613 
L 2069 3678 
L 634 1613 
L 2069 1613 
z
" id="ArialMT-34" transform="scale(0.015625)"/>
       </defs>
       <use xlink:href="#ArialMT-34"/>
       <use x="55.615234" xlink:href="#ArialMT-30"/>
       <use x="111.230469" xlink:href="#ArialMT-25"/>
      </g>
     </g>
    </g>
    <g id="ytick_5">
     <g id="line2d_23">
      <path clip-path="url(#p3f2b8c980d)" d="M 50.795625 86.09425 
L 380.808965 86.09425 
" style="fill:none;stroke:#cccccc;stroke-dasharray:2.96,1.28;stroke-dashoffset:0;stroke-opacity:0.2;stroke-width:0.8;"/>
     </g>
     <g id="line2d_24">
      <g>
       <use style="fill:#262626;stroke:#262626;stroke-width:0.8;" x="50.795625" xlink:href="#m98b1ebbb13" y="86.09425"/>
      </g>
     </g>
     <g id="text_12">
      <!-- 50% -->
      <g style="fill:#262626;" transform="translate(23.781563 89.673156)scale(0.1 -0.1)">
       <defs>
        <path d="M 266 1200 
L 856 1250 
Q 922 819 1161 601 
Q 1400 384 1738 384 
Q 2144 384 2425 690 
Q 2706 997 2706 1503 
Q 2706 1984 2436 2262 
Q 2166 2541 1728 2541 
Q 1456 2541 1237 2417 
Q 1019 2294 894 2097 
L 366 2166 
L 809 4519 
L 3088 4519 
L 3088 3981 
L 1259 3981 
L 1013 2750 
Q 1425 3038 1878 3038 
Q 2478 3038 2890 2622 
Q 3303 2206 3303 1553 
Q 3303 931 2941 478 
Q 2500 -78 1738 -78 
Q 1113 -78 717 272 
Q 322 622 266 1200 
z
" id="ArialMT-35" transform="scale(0.015625)"/>
       </defs>
       <use xlink:href="#ArialMT-35"/>
       <use x="55.615234" xlink:href="#ArialMT-30"/>
       <use x="111.230469" xlink:href="#ArialMT-25"/>
      </g>
     </g>
    </g>
    <g id="text_13">
     <!-- Female Authorship: Ten Year Rolling Interval -->
     <g style="fill:#262626;" transform="translate(17.077969 382.760622)rotate(-90)scale(0.13 -0.13)">
      <defs>
       <path d="M 628 4666 
L 3309 4666 
L 3309 4134 
L 1259 4134 
L 1259 2759 
L 3109 2759 
L 3109 2228 
L 1259 2228 
L 1259 0 
L 628 0 
L 628 4666 
z
" id="DejaVuSans-46" transform="scale(0.015625)"/>
       <path d="M 3597 1894 
L 3597 1613 
L 953 1613 
Q 991 1019 1311 708 
Q 1631 397 2203 397 
Q 2534 397 2845 478 
Q 3156 559 3463 722 
L 3463 178 
Q 3153 47 2828 -22 
Q 2503 -91 2169 -91 
Q 1331 -91 842 396 
Q 353 884 353 1716 
Q 353 2575 817 3079 
Q 1281 3584 2069 3584 
Q 2775 3584 3186 3129 
Q 3597 2675 3597 1894 
z
M 3022 2063 
Q 3016 2534 2758 2815 
Q 2500 3097 2075 3097 
Q 1594 3097 1305 2825 
Q 1016 2553 972 2059 
L 3022 2063 
z
" id="DejaVuSans-65" transform="scale(0.015625)"/>
       <path d="M 3328 2828 
Q 3544 3216 3844 3400 
Q 4144 3584 4550 3584 
Q 5097 3584 5394 3201 
Q 5691 2819 5691 2113 
L 5691 0 
L 5113 0 
L 5113 2094 
Q 5113 2597 4934 2840 
Q 4756 3084 4391 3084 
Q 3944 3084 3684 2787 
Q 3425 2491 3425 1978 
L 3425 0 
L 2847 0 
L 2847 2094 
Q 2847 2600 2669 2842 
Q 2491 3084 2119 3084 
Q 1678 3084 1418 2786 
Q 1159 2488 1159 1978 
L 1159 0 
L 581 0 
L 581 3500 
L 1159 3500 
L 1159 2956 
Q 1356 3278 1631 3431 
Q 1906 3584 2284 3584 
Q 2666 3584 2933 3390 
Q 3200 3197 3328 2828 
z
" id="DejaVuSans-6d" transform="scale(0.015625)"/>
       <path d="M 2194 1759 
Q 1497 1759 1228 1600 
Q 959 1441 959 1056 
Q 959 750 1161 570 
Q 1363 391 1709 391 
Q 2188 391 2477 730 
Q 2766 1069 2766 1631 
L 2766 1759 
L 2194 1759 
z
M 3341 1997 
L 3341 0 
L 2766 0 
L 2766 531 
Q 2569 213 2275 61 
Q 1981 -91 1556 -91 
Q 1019 -91 701 211 
Q 384 513 384 1019 
Q 384 1609 779 1909 
Q 1175 2209 1959 2209 
L 2766 2209 
L 2766 2266 
Q 2766 2663 2505 2880 
Q 2244 3097 1772 3097 
Q 1472 3097 1187 3025 
Q 903 2953 641 2809 
L 641 3341 
Q 956 3463 1253 3523 
Q 1550 3584 1831 3584 
Q 2591 3584 2966 3190 
Q 3341 2797 3341 1997 
z
" id="DejaVuSans-61" transform="scale(0.015625)"/>
       <path d="M 603 4863 
L 1178 4863 
L 1178 0 
L 603 0 
L 603 4863 
z
" id="DejaVuSans-6c" transform="scale(0.015625)"/>
       <path id="DejaVuSans-20" transform="scale(0.015625)"/>
       <path d="M 2188 4044 
L 1331 1722 
L 3047 1722 
L 2188 4044 
z
M 1831 4666 
L 2547 4666 
L 4325 0 
L 3669 0 
L 3244 1197 
L 1141 1197 
L 716 0 
L 50 0 
L 1831 4666 
z
" id="DejaVuSans-41" transform="scale(0.015625)"/>
       <path d="M 544 1381 
L 544 3500 
L 1119 3500 
L 1119 1403 
Q 1119 906 1312 657 
Q 1506 409 1894 409 
Q 2359 409 2629 706 
Q 2900 1003 2900 1516 
L 2900 3500 
L 3475 3500 
L 3475 0 
L 2900 0 
L 2900 538 
Q 2691 219 2414 64 
Q 2138 -91 1772 -91 
Q 1169 -91 856 284 
Q 544 659 544 1381 
z
M 1991 3584 
L 1991 3584 
z
" id="DejaVuSans-75" transform="scale(0.015625)"/>
       <path d="M 1172 4494 
L 1172 3500 
L 2356 3500 
L 2356 3053 
L 1172 3053 
L 1172 1153 
Q 1172 725 1289 603 
Q 1406 481 1766 481 
L 2356 481 
L 2356 0 
L 1766 0 
Q 1100 0 847 248 
Q 594 497 594 1153 
L 594 3053 
L 172 3053 
L 172 3500 
L 594 3500 
L 594 4494 
L 1172 4494 
z
" id="DejaVuSans-74" transform="scale(0.015625)"/>
       <path d="M 3513 2113 
L 3513 0 
L 2938 0 
L 2938 2094 
Q 2938 2591 2744 2837 
Q 2550 3084 2163 3084 
Q 1697 3084 1428 2787 
Q 1159 2491 1159 1978 
L 1159 0 
L 581 0 
L 581 4863 
L 1159 4863 
L 1159 2956 
Q 1366 3272 1645 3428 
Q 1925 3584 2291 3584 
Q 2894 3584 3203 3211 
Q 3513 2838 3513 2113 
z
" id="DejaVuSans-68" transform="scale(0.015625)"/>
       <path d="M 1959 3097 
Q 1497 3097 1228 2736 
Q 959 2375 959 1747 
Q 959 1119 1226 758 
Q 1494 397 1959 397 
Q 2419 397 2687 759 
Q 2956 1122 2956 1747 
Q 2956 2369 2687 2733 
Q 2419 3097 1959 3097 
z
M 1959 3584 
Q 2709 3584 3137 3096 
Q 3566 2609 3566 1747 
Q 3566 888 3137 398 
Q 2709 -91 1959 -91 
Q 1206 -91 779 398 
Q 353 888 353 1747 
Q 353 2609 779 3096 
Q 1206 3584 1959 3584 
z
" id="DejaVuSans-6f" transform="scale(0.015625)"/>
       <path d="M 2631 2963 
Q 2534 3019 2420 3045 
Q 2306 3072 2169 3072 
Q 1681 3072 1420 2755 
Q 1159 2438 1159 1844 
L 1159 0 
L 581 0 
L 581 3500 
L 1159 3500 
L 1159 2956 
Q 1341 3275 1631 3429 
Q 1922 3584 2338 3584 
Q 2397 3584 2469 3576 
Q 2541 3569 2628 3553 
L 2631 2963 
z
" id="DejaVuSans-72" transform="scale(0.015625)"/>
       <path d="M 2834 3397 
L 2834 2853 
Q 2591 2978 2328 3040 
Q 2066 3103 1784 3103 
Q 1356 3103 1142 2972 
Q 928 2841 928 2578 
Q 928 2378 1081 2264 
Q 1234 2150 1697 2047 
L 1894 2003 
Q 2506 1872 2764 1633 
Q 3022 1394 3022 966 
Q 3022 478 2636 193 
Q 2250 -91 1575 -91 
Q 1294 -91 989 -36 
Q 684 19 347 128 
L 347 722 
Q 666 556 975 473 
Q 1284 391 1588 391 
Q 1994 391 2212 530 
Q 2431 669 2431 922 
Q 2431 1156 2273 1281 
Q 2116 1406 1581 1522 
L 1381 1569 
Q 847 1681 609 1914 
Q 372 2147 372 2553 
Q 372 3047 722 3315 
Q 1072 3584 1716 3584 
Q 2034 3584 2315 3537 
Q 2597 3491 2834 3397 
z
" id="DejaVuSans-73" transform="scale(0.015625)"/>
       <path d="M 603 3500 
L 1178 3500 
L 1178 0 
L 603 0 
L 603 3500 
z
M 603 4863 
L 1178 4863 
L 1178 4134 
L 603 4134 
L 603 4863 
z
" id="DejaVuSans-69" transform="scale(0.015625)"/>
       <path d="M 1159 525 
L 1159 -1331 
L 581 -1331 
L 581 3500 
L 1159 3500 
L 1159 2969 
Q 1341 3281 1617 3432 
Q 1894 3584 2278 3584 
Q 2916 3584 3314 3078 
Q 3713 2572 3713 1747 
Q 3713 922 3314 415 
Q 2916 -91 2278 -91 
Q 1894 -91 1617 61 
Q 1341 213 1159 525 
z
M 3116 1747 
Q 3116 2381 2855 2742 
Q 2594 3103 2138 3103 
Q 1681 3103 1420 2742 
Q 1159 2381 1159 1747 
Q 1159 1113 1420 752 
Q 1681 391 2138 391 
Q 2594 391 2855 752 
Q 3116 1113 3116 1747 
z
" id="DejaVuSans-70" transform="scale(0.015625)"/>
       <path d="M 750 794 
L 1409 794 
L 1409 0 
L 750 0 
L 750 794 
z
M 750 3309 
L 1409 3309 
L 1409 2516 
L 750 2516 
L 750 3309 
z
" id="DejaVuSans-3a" transform="scale(0.015625)"/>
       <path d="M -19 4666 
L 3928 4666 
L 3928 4134 
L 2272 4134 
L 2272 0 
L 1638 0 
L 1638 4134 
L -19 4134 
L -19 4666 
z
" id="DejaVuSans-54" transform="scale(0.015625)"/>
       <path d="M 3513 2113 
L 3513 0 
L 2938 0 
L 2938 2094 
Q 2938 2591 2744 2837 
Q 2550 3084 2163 3084 
Q 1697 3084 1428 2787 
Q 1159 2491 1159 1978 
L 1159 0 
L 581 0 
L 581 3500 
L 1159 3500 
L 1159 2956 
Q 1366 3272 1645 3428 
Q 1925 3584 2291 3584 
Q 2894 3584 3203 3211 
Q 3513 2838 3513 2113 
z
" id="DejaVuSans-6e" transform="scale(0.015625)"/>
       <path d="M -13 4666 
L 666 4666 
L 1959 2747 
L 3244 4666 
L 3922 4666 
L 2272 2222 
L 2272 0 
L 1638 0 
L 1638 2222 
L -13 4666 
z
" id="DejaVuSans-59" transform="scale(0.015625)"/>
       <path d="M 2841 2188 
Q 3044 2119 3236 1894 
Q 3428 1669 3622 1275 
L 4263 0 
L 3584 0 
L 2988 1197 
Q 2756 1666 2539 1819 
Q 2322 1972 1947 1972 
L 1259 1972 
L 1259 0 
L 628 0 
L 628 4666 
L 2053 4666 
Q 2853 4666 3247 4331 
Q 3641 3997 3641 3322 
Q 3641 2881 3436 2590 
Q 3231 2300 2841 2188 
z
M 1259 4147 
L 1259 2491 
L 2053 2491 
Q 2509 2491 2742 2702 
Q 2975 2913 2975 3322 
Q 2975 3731 2742 3939 
Q 2509 4147 2053 4147 
L 1259 4147 
z
" id="DejaVuSans-52" transform="scale(0.015625)"/>
       <path d="M 2906 1791 
Q 2906 2416 2648 2759 
Q 2391 3103 1925 3103 
Q 1463 3103 1205 2759 
Q 947 2416 947 1791 
Q 947 1169 1205 825 
Q 1463 481 1925 481 
Q 2391 481 2648 825 
Q 2906 1169 2906 1791 
z
M 3481 434 
Q 3481 -459 3084 -895 
Q 2688 -1331 1869 -1331 
Q 1566 -1331 1297 -1286 
Q 1028 -1241 775 -1147 
L 775 -588 
Q 1028 -725 1275 -790 
Q 1522 -856 1778 -856 
Q 2344 -856 2625 -561 
Q 2906 -266 2906 331 
L 2906 616 
Q 2728 306 2450 153 
Q 2172 0 1784 0 
Q 1141 0 747 490 
Q 353 981 353 1791 
Q 353 2603 747 3093 
Q 1141 3584 1784 3584 
Q 2172 3584 2450 3431 
Q 2728 3278 2906 2969 
L 2906 3500 
L 3481 3500 
L 3481 434 
z
" id="DejaVuSans-67" transform="scale(0.015625)"/>
       <path d="M 628 4666 
L 1259 4666 
L 1259 0 
L 628 0 
L 628 4666 
z
" id="DejaVuSans-49" transform="scale(0.015625)"/>
       <path d="M 191 3500 
L 800 3500 
L 1894 563 
L 2988 3500 
L 3597 3500 
L 2284 0 
L 1503 0 
L 191 3500 
z
" id="DejaVuSans-76" transform="scale(0.015625)"/>
      </defs>
      <use xlink:href="#DejaVuSans-46"/>
      <use x="52.019531" xlink:href="#DejaVuSans-65"/>
      <use x="113.542969" xlink:href="#DejaVuSans-6d"/>
      <use x="210.955078" xlink:href="#DejaVuSans-61"/>
      <use x="272.234375" xlink:href="#DejaVuSans-6c"/>
      <use x="300.017578" xlink:href="#DejaVuSans-65"/>
      <use x="361.541016" xlink:href="#DejaVuSans-20"/>
      <use x="393.328125" xlink:href="#DejaVuSans-41"/>
      <use x="461.736328" xlink:href="#DejaVuSans-75"/>
      <use x="525.115234" xlink:href="#DejaVuSans-74"/>
      <use x="564.324219" xlink:href="#DejaVuSans-68"/>
      <use x="627.703125" xlink:href="#DejaVuSans-6f"/>
      <use x="688.884766" xlink:href="#DejaVuSans-72"/>
      <use x="729.998047" xlink:href="#DejaVuSans-73"/>
      <use x="782.097656" xlink:href="#DejaVuSans-68"/>
      <use x="845.476562" xlink:href="#DejaVuSans-69"/>
      <use x="873.259766" xlink:href="#DejaVuSans-70"/>
      <use x="936.736328" xlink:href="#DejaVuSans-3a"/>
      <use x="970.427734" xlink:href="#DejaVuSans-20"/>
      <use x="1002.214844" xlink:href="#DejaVuSans-54"/>
      <use x="1046.298828" xlink:href="#DejaVuSans-65"/>
      <use x="1107.822266" xlink:href="#DejaVuSans-6e"/>
      <use x="1171.201172" xlink:href="#DejaVuSans-20"/>
      <use x="1202.988281" xlink:href="#DejaVuSans-59"/>
      <use x="1250.822266" xlink:href="#DejaVuSans-65"/>
      <use x="1312.345703" xlink:href="#DejaVuSans-61"/>
      <use x="1373.625" xlink:href="#DejaVuSans-72"/>
      <use x="1414.738281" xlink:href="#DejaVuSans-20"/>
      <use x="1446.525391" xlink:href="#DejaVuSans-52"/>
      <use x="1511.507812" xlink:href="#DejaVuSans-6f"/>
      <use x="1572.689453" xlink:href="#DejaVuSans-6c"/>
      <use x="1600.472656" xlink:href="#DejaVuSans-6c"/>
      <use x="1628.255859" xlink:href="#DejaVuSans-69"/>
      <use x="1656.039062" xlink:href="#DejaVuSans-6e"/>
      <use x="1719.417969" xlink:href="#DejaVuSans-67"/>
      <use x="1782.894531" xlink:href="#DejaVuSans-20"/>
      <use x="1814.681641" xlink:href="#DejaVuSans-49"/>
      <use x="1844.173828" xlink:href="#DejaVuSans-6e"/>
      <use x="1907.552734" xlink:href="#DejaVuSans-74"/>
      <use x="1946.761719" xlink:href="#DejaVuSans-65"/>
      <use x="2008.285156" xlink:href="#DejaVuSans-72"/>
      <use x="2049.398438" xlink:href="#DejaVuSans-76"/>
      <use x="2108.578125" xlink:href="#DejaVuSans-61"/>
      <use x="2169.857422" xlink:href="#DejaVuSans-6c"/>
     </g>
    </g>
   </g>
   <g id="PolyCollection_1">
    <defs>
     <path d="M 376.026163 -371.126563 
L 376.026163 -257.995492 
L 371.243361 -250.819516 
L 366.460559 -270.094485 
L 361.677757 -266.311939 
L 356.894955 -265.068249 
L 352.112153 -261.035773 
L 347.329351 -247.204504 
L 342.546549 -246.863384 
L 337.763747 -232.618528 
L 332.980945 -215.279029 
L 328.198143 -197.96909 
L 323.415341 -181.687752 
L 318.632539 -160.221353 
L 313.849737 -159.467762 
L 309.066935 -142.956727 
L 304.284132 -159.313567 
L 299.50133 -169.678364 
L 294.718528 -166.505313 
L 289.935726 -157.683145 
L 285.152924 -163.641496 
L 280.370122 -161.166363 
L 275.58732 -157.398949 
L 270.804518 -141.920665 
L 266.021716 -143.892528 
L 261.238914 -145.15805 
L 256.456112 -160.23454 
L 251.67331 -170.693703 
L 246.890508 -194.561259 
L 242.107706 -219.350137 
L 237.324904 -247.003282 
L 232.542102 -270.914441 
L 227.7593 -267.65882 
L 222.976498 -281.578573 
L 218.193696 -274.789132 
L 213.410894 -278.090397 
L 208.628092 -232.447183 
L 203.84529 -203.908859 
L 199.062488 -163.954181 
L 194.279686 -146.462547 
L 189.496884 -118.152051 
L 184.714082 -96.115543 
L 179.93128 -91.825073 
L 175.148478 -91.029325 
L 170.365676 -89.71325 
L 165.582874 -79.184288 
L 160.800072 -73.162336 
L 156.01727 -60.090974 
L 151.234468 -65.300784 
L 146.451666 -43.712178 
L 141.668864 -55.369025 
L 136.886062 -61.274313 
L 132.103259 -71.59942 
L 127.320457 -77.967377 
L 122.537655 -54.494572 
L 117.754853 -43.649271 
L 112.972051 -58.15577 
L 108.189249 -90.4082 
L 103.406447 -113.557317 
L 98.623645 -158.429862 
L 93.840843 -140.527527 
L 89.058041 -130.602698 
L 84.275239 -135.578229 
L 79.492437 -128.90291 
L 74.709635 -155.166329 
L 74.709635 -210.920496 
L 74.709635 -210.920496 
L 79.492437 -178.739245 
L 84.275239 -181.155047 
L 89.058041 -177.039457 
L 93.840843 -198.489351 
L 98.623645 -209.175186 
L 103.406447 -165.293165 
L 108.189249 -154.612066 
L 112.972051 -133.357521 
L 117.754853 -130.005349 
L 122.537655 -145.019563 
L 127.320457 -168.209478 
L 132.103259 -159.677321 
L 136.886062 -145.656537 
L 141.668864 -141.725102 
L 146.451666 -132.346494 
L 151.234468 -163.346525 
L 156.01727 -155.862526 
L 160.800072 -162.997636 
L 165.582874 -162.556518 
L 170.365676 -168.293971 
L 175.148478 -171.800598 
L 179.93128 -178.024709 
L 184.714082 -179.645422 
L 189.496884 -195.795417 
L 194.279686 -223.27741 
L 199.062488 -240.865062 
L 203.84529 -281.03886 
L 208.628092 -314.868813 
L 213.410894 -363.377712 
L 218.193696 -368.663774 
L 222.976498 -363.99145 
L 227.7593 -344.914593 
L 232.542102 -357.177862 
L 237.324904 -336.319144 
L 242.107706 -311.973994 
L 246.890508 -285.263641 
L 251.67331 -254.456505 
L 256.456112 -247.652373 
L 261.238914 -237.241827 
L 266.021716 -235.508874 
L 270.804518 -244.2102 
L 275.58732 -261.244866 
L 280.370122 -267.735689 
L 285.152924 -273.766765 
L 289.935726 -268.958463 
L 294.718528 -282.172853 
L 299.50133 -290.822965 
L 304.284132 -279.65032 
L 309.066935 -261.590505 
L 313.849737 -279.354611 
L 318.632539 -281.261429 
L 323.415341 -303.403415 
L 328.198143 -319.251634 
L 332.980945 -338.142953 
L 337.763747 -352.369385 
L 342.546549 -367.091889 
L 347.329351 -367.539016 
L 352.112153 -384.53425 
L 356.894955 -385.610744 
L 361.677757 -383.877248 
L 366.460559 -385.708269 
L 371.243361 -368.125165 
L 376.026163 -371.126563 
z
" id="m15b4600ac1" style="stroke:#ffb94e;stroke-opacity:0.2;"/>
    </defs>
    <g clip-path="url(#p3f2b8c980d)">
     <use style="fill:#ffb94e;fill-opacity:0.2;stroke:#ffb94e;stroke-opacity:0.2;" x="0" xlink:href="#m15b4600ac1" y="458.102225"/>
    </g>
   </g>
   <g id="line2d_25">
    <path clip-path="url(#p3f2b8c980d)" d="M 376.026163 200.106734 
L 371.243361 207.28271 
L 366.460559 188.00774 
L 361.677757 191.790286 
L 356.894955 193.033976 
L 352.112153 197.066452 
L 347.329351 210.897722 
L 342.546549 211.238841 
L 337.763747 225.483697 
L 332.980945 242.823196 
L 328.198143 260.133136 
L 323.415341 276.414473 
L 318.632539 297.880872 
L 313.849737 298.634463 
L 309.066935 315.145498 
L 304.284132 298.788659 
L 299.50133 288.423862 
L 294.718528 291.596912 
L 289.935726 300.419081 
L 285.152924 294.460729 
L 280.370122 296.935862 
L 275.58732 300.703276 
L 270.804518 316.181561 
L 266.021716 314.209698 
L 261.238914 312.944176 
L 256.456112 297.867685 
L 251.67331 287.408522 
L 246.890508 263.540966 
L 242.107706 238.752089 
L 237.324904 211.098944 
L 232.542102 187.187784 
L 227.7593 190.443406 
L 222.976498 176.523653 
L 218.193696 183.313093 
L 213.410894 180.011828 
L 208.628092 225.655042 
L 203.84529 254.193367 
L 199.062488 294.148045 
L 194.279686 311.639679 
L 189.496884 339.950175 
L 184.714082 361.986683 
L 179.93128 366.277152 
L 175.148478 367.072901 
L 170.365676 368.388976 
L 165.582874 378.917937 
L 160.800072 384.93989 
L 156.01727 398.011252 
L 151.234468 392.801442 
L 146.451666 414.390047 
L 141.668864 402.733201 
L 136.886062 396.827913 
L 132.103259 386.502806 
L 127.320457 380.134849 
L 122.537655 403.607654 
L 117.754853 414.452954 
L 112.972051 399.946455 
L 108.189249 367.694026 
L 103.406447 344.544909 
L 98.623645 299.672363 
L 93.840843 317.574698 
L 89.058041 327.499527 
L 84.275239 322.523997 
L 79.492437 329.199315 
L 74.709635 302.935896 
" style="fill:none;stroke:#ffb94e;stroke-dasharray:3.6,1.8;stroke-dashoffset:0;stroke-width:0.3;"/>
   </g>
   <g id="line2d_26">
    <path clip-path="url(#p3f2b8c980d)" d="M 376.026163 86.975663 
L 371.243361 89.97706 
L 366.460559 72.393957 
L 361.677757 74.224978 
L 356.894955 72.491481 
L 352.112153 73.567976 
L 347.329351 90.563209 
L 342.546549 91.010336 
L 337.763747 105.73284 
L 332.980945 119.959272 
L 328.198143 138.850592 
L 323.415341 154.69881 
L 318.632539 176.840796 
L 313.849737 178.747614 
L 309.066935 196.51172 
L 304.284132 178.451905 
L 299.50133 167.27926 
L 294.718528 175.929373 
L 289.935726 189.143763 
L 285.152924 184.33546 
L 280.370122 190.366536 
L 275.58732 196.85736 
L 270.804518 213.892026 
L 266.021716 222.593352 
L 261.238914 220.860399 
L 256.456112 210.449853 
L 251.67331 203.64572 
L 246.890508 172.838584 
L 242.107706 146.128231 
L 237.324904 121.783081 
L 232.542102 100.924363 
L 227.7593 113.187632 
L 222.976498 94.110775 
L 218.193696 89.438452 
L 213.410894 94.724514 
L 208.628092 143.233412 
L 203.84529 177.063366 
L 199.062488 217.237163 
L 194.279686 234.824816 
L 189.496884 262.306808 
L 184.714082 278.456804 
L 179.93128 280.077517 
L 175.148478 286.301627 
L 170.365676 289.808254 
L 165.582874 295.545708 
L 160.800072 295.10459 
L 156.01727 302.239699 
L 151.234468 294.7557 
L 146.451666 325.755732 
L 141.668864 316.377123 
L 136.886062 312.445688 
L 132.103259 298.424905 
L 127.320457 289.892748 
L 122.537655 313.082662 
L 117.754853 328.096877 
L 112.972051 324.744704 
L 108.189249 303.490159 
L 103.406447 292.80906 
L 98.623645 248.927039 
L 93.840843 259.612874 
L 89.058041 281.062769 
L 84.275239 276.947178 
L 79.492437 279.362981 
L 74.709635 247.18173 
" style="fill:none;stroke:#ffb94e;stroke-dasharray:3.6,1.8;stroke-dashoffset:0;stroke-width:0.3;"/>
   </g>
   <g id="line2d_27">
    <path clip-path="url(#p3f2b8c980d)" d="M 376.026163 143.541198 
L 371.243361 148.629885 
L 366.460559 130.200849 
L 361.677757 133.007632 
L 356.894955 132.762729 
L 352.112153 135.317214 
L 347.329351 150.730465 
L 342.546549 151.124589 
L 337.763747 165.608269 
L 332.980945 181.391234 
L 328.198143 199.491864 
L 323.415341 215.556642 
L 318.632539 237.360834 
L 313.849737 238.691039 
L 309.066935 255.828609 
L 304.284132 238.620282 
L 299.50133 227.851561 
L 294.718528 233.763142 
L 289.935726 244.781422 
L 285.152924 239.398095 
L 280.370122 243.651199 
L 275.58732 248.780318 
L 270.804518 265.036793 
L 266.021716 268.401525 
L 261.238914 266.902287 
L 256.456112 254.158769 
L 251.67331 245.527121 
L 246.890508 218.189775 
L 242.107706 192.44016 
L 237.324904 166.441013 
L 232.542102 144.056074 
L 227.7593 151.815519 
L 222.976498 135.317214 
L 218.193696 136.375772 
L 213.410894 137.368171 
L 208.628092 184.444227 
L 203.84529 215.628366 
L 199.062488 255.692604 
L 194.279686 273.232247 
L 189.496884 301.128491 
L 184.714082 320.221743 
L 179.93128 323.177334 
L 175.148478 326.687264 
L 170.365676 329.098615 
L 165.582874 337.231822 
L 160.800072 340.02224 
L 156.01727 350.125475 
L 151.234468 343.778571 
L 146.451666 370.07289 
L 141.668864 359.555162 
L 136.886062 354.6368 
L 132.103259 342.463855 
L 127.320457 335.013798 
L 122.537655 358.345158 
L 117.754853 371.274916 
L 112.972051 362.34558 
L 108.189249 335.592092 
L 103.406447 318.676985 
L 98.623645 274.299701 
L 93.840843 288.593786 
L 89.058041 304.281148 
L 84.275239 299.735588 
L 79.492437 304.281148 
L 74.709635 275.058813 
" style="fill:none;stroke:#377eb8;stroke-linecap:round;stroke-width:1.5;"/>
   </g>
   <g id="line2d_28">
    <path clip-path="url(#p3f2b8c980d)" d="M 50.795625 284.22442 
L 196.001495 284.22442 
" style="fill:none;stroke:#000000;stroke-dasharray:2.775,1.2;stroke-dashoffset:0;stroke-opacity:0.75;stroke-width:0.75;"/>
   </g>
   <g id="line2d_29">
    <path clip-path="url(#p3f2b8c980d)" d="M 196.001495 190.639777 
L 380.808965 190.639777 
" style="fill:none;stroke:#000000;stroke-dasharray:2.775,1.2;stroke-dashoffset:0;stroke-opacity:0.75;stroke-width:0.75;"/>
   </g>
   <g id="patch_3">
    <path d="M 50.795625 414.247345 
L 50.795625 45.075113 
" style="fill:none;stroke:#262626;stroke-linecap:square;stroke-linejoin:miter;stroke-width:0.8;"/>
   </g>
   <g id="patch_4">
    <path d="M 69.926833 434.756913 
L 380.808965 434.756913 
" style="fill:none;stroke:#262626;stroke-linecap:square;stroke-linejoin:miter;stroke-width:0.8;"/>
   </g>
   <g id="patch_5">
    <path d="M 256.900336 354.759976 
Q 221.218059 338.85682 209.256418 286.99575 
" style="fill:none;stroke:#000000;stroke-linecap:round;stroke-width:0.75;"/>
    <path d="M 208.206573 291.342913 
L 209.256418 286.99575 
L 212.104241 290.443924 
" style="fill:none;stroke:#000000;stroke-linecap:round;stroke-width:0.75;"/>
   </g>
   <g id="text_14">
    <!-- 1947-1984 backward -->
    <g style="fill:#262626;" transform="translate(261.238914 355.064881)scale(0.1 -0.1)">
     <defs>
      <path d="M 794 531 
L 1825 531 
L 1825 4091 
L 703 3866 
L 703 4441 
L 1819 4666 
L 2450 4666 
L 2450 531 
L 3481 531 
L 3481 0 
L 794 0 
L 794 531 
z
" id="DejaVuSans-31" transform="scale(0.015625)"/>
      <path d="M 703 97 
L 703 672 
Q 941 559 1184 500 
Q 1428 441 1663 441 
Q 2288 441 2617 861 
Q 2947 1281 2994 2138 
Q 2813 1869 2534 1725 
Q 2256 1581 1919 1581 
Q 1219 1581 811 2004 
Q 403 2428 403 3163 
Q 403 3881 828 4315 
Q 1253 4750 1959 4750 
Q 2769 4750 3195 4129 
Q 3622 3509 3622 2328 
Q 3622 1225 3098 567 
Q 2575 -91 1691 -91 
Q 1453 -91 1209 -44 
Q 966 3 703 97 
z
M 1959 2075 
Q 2384 2075 2632 2365 
Q 2881 2656 2881 3163 
Q 2881 3666 2632 3958 
Q 2384 4250 1959 4250 
Q 1534 4250 1286 3958 
Q 1038 3666 1038 3163 
Q 1038 2656 1286 2365 
Q 1534 2075 1959 2075 
z
" id="DejaVuSans-39" transform="scale(0.015625)"/>
      <path d="M 2419 4116 
L 825 1625 
L 2419 1625 
L 2419 4116 
z
M 2253 4666 
L 3047 4666 
L 3047 1625 
L 3713 1625 
L 3713 1100 
L 3047 1100 
L 3047 0 
L 2419 0 
L 2419 1100 
L 313 1100 
L 313 1709 
L 2253 4666 
z
" id="DejaVuSans-34" transform="scale(0.015625)"/>
      <path d="M 525 4666 
L 3525 4666 
L 3525 4397 
L 1831 0 
L 1172 0 
L 2766 4134 
L 525 4134 
L 525 4666 
z
" id="DejaVuSans-37" transform="scale(0.015625)"/>
      <path d="M 313 2009 
L 1997 2009 
L 1997 1497 
L 313 1497 
L 313 2009 
z
" id="DejaVuSans-2d" transform="scale(0.015625)"/>
      <path d="M 2034 2216 
Q 1584 2216 1326 1975 
Q 1069 1734 1069 1313 
Q 1069 891 1326 650 
Q 1584 409 2034 409 
Q 2484 409 2743 651 
Q 3003 894 3003 1313 
Q 3003 1734 2745 1975 
Q 2488 2216 2034 2216 
z
M 1403 2484 
Q 997 2584 770 2862 
Q 544 3141 544 3541 
Q 544 4100 942 4425 
Q 1341 4750 2034 4750 
Q 2731 4750 3128 4425 
Q 3525 4100 3525 3541 
Q 3525 3141 3298 2862 
Q 3072 2584 2669 2484 
Q 3125 2378 3379 2068 
Q 3634 1759 3634 1313 
Q 3634 634 3220 271 
Q 2806 -91 2034 -91 
Q 1263 -91 848 271 
Q 434 634 434 1313 
Q 434 1759 690 2068 
Q 947 2378 1403 2484 
z
M 1172 3481 
Q 1172 3119 1398 2916 
Q 1625 2713 2034 2713 
Q 2441 2713 2670 2916 
Q 2900 3119 2900 3481 
Q 2900 3844 2670 4047 
Q 2441 4250 2034 4250 
Q 1625 4250 1398 4047 
Q 1172 3844 1172 3481 
z
" id="DejaVuSans-38" transform="scale(0.015625)"/>
      <path d="M 3116 1747 
Q 3116 2381 2855 2742 
Q 2594 3103 2138 3103 
Q 1681 3103 1420 2742 
Q 1159 2381 1159 1747 
Q 1159 1113 1420 752 
Q 1681 391 2138 391 
Q 2594 391 2855 752 
Q 3116 1113 3116 1747 
z
M 1159 2969 
Q 1341 3281 1617 3432 
Q 1894 3584 2278 3584 
Q 2916 3584 3314 3078 
Q 3713 2572 3713 1747 
Q 3713 922 3314 415 
Q 2916 -91 2278 -91 
Q 1894 -91 1617 61 
Q 1341 213 1159 525 
L 1159 0 
L 581 0 
L 581 4863 
L 1159 4863 
L 1159 2969 
z
" id="DejaVuSans-62" transform="scale(0.015625)"/>
      <path d="M 3122 3366 
L 3122 2828 
Q 2878 2963 2633 3030 
Q 2388 3097 2138 3097 
Q 1578 3097 1268 2742 
Q 959 2388 959 1747 
Q 959 1106 1268 751 
Q 1578 397 2138 397 
Q 2388 397 2633 464 
Q 2878 531 3122 666 
L 3122 134 
Q 2881 22 2623 -34 
Q 2366 -91 2075 -91 
Q 1284 -91 818 406 
Q 353 903 353 1747 
Q 353 2603 823 3093 
Q 1294 3584 2113 3584 
Q 2378 3584 2631 3529 
Q 2884 3475 3122 3366 
z
" id="DejaVuSans-63" transform="scale(0.015625)"/>
      <path d="M 581 4863 
L 1159 4863 
L 1159 1991 
L 2875 3500 
L 3609 3500 
L 1753 1863 
L 3688 0 
L 2938 0 
L 1159 1709 
L 1159 0 
L 581 0 
L 581 4863 
z
" id="DejaVuSans-6b" transform="scale(0.015625)"/>
      <path d="M 269 3500 
L 844 3500 
L 1563 769 
L 2278 3500 
L 2956 3500 
L 3675 769 
L 4391 3500 
L 4966 3500 
L 4050 0 
L 3372 0 
L 2619 2869 
L 1863 0 
L 1184 0 
L 269 3500 
z
" id="DejaVuSans-77" transform="scale(0.015625)"/>
      <path d="M 2906 2969 
L 2906 4863 
L 3481 4863 
L 3481 0 
L 2906 0 
L 2906 525 
Q 2725 213 2448 61 
Q 2172 -91 1784 -91 
Q 1150 -91 751 415 
Q 353 922 353 1747 
Q 353 2572 751 3078 
Q 1150 3584 1784 3584 
Q 2172 3584 2448 3432 
Q 2725 3281 2906 2969 
z
M 947 1747 
Q 947 1113 1208 752 
Q 1469 391 1925 391 
Q 2381 391 2643 752 
Q 2906 1113 2906 1747 
Q 2906 2381 2643 2742 
Q 2381 3103 1925 3103 
Q 1469 3103 1208 2742 
Q 947 2381 947 1747 
z
" id="DejaVuSans-64" transform="scale(0.015625)"/>
     </defs>
     <use xlink:href="#DejaVuSans-31"/>
     <use x="63.623047" xlink:href="#DejaVuSans-39"/>
     <use x="127.246094" xlink:href="#DejaVuSans-34"/>
     <use x="190.869141" xlink:href="#DejaVuSans-37"/>
     <use x="254.492188" xlink:href="#DejaVuSans-2d"/>
     <use x="290.576172" xlink:href="#DejaVuSans-31"/>
     <use x="354.199219" xlink:href="#DejaVuSans-39"/>
     <use x="417.822266" xlink:href="#DejaVuSans-38"/>
     <use x="481.445312" xlink:href="#DejaVuSans-34"/>
     <use x="545.068359" xlink:href="#DejaVuSans-20"/>
     <use x="576.855469" xlink:href="#DejaVuSans-62"/>
     <use x="640.332031" xlink:href="#DejaVuSans-61"/>
     <use x="701.611328" xlink:href="#DejaVuSans-63"/>
     <use x="756.591797" xlink:href="#DejaVuSans-6b"/>
     <use x="814.501953" xlink:href="#DejaVuSans-77"/>
     <use x="896.289062" xlink:href="#DejaVuSans-61"/>
     <use x="957.568359" xlink:href="#DejaVuSans-72"/>
     <use x="996.931641" xlink:href="#DejaVuSans-64"/>
    </g>
    <!-- looking average: 25.85% -->
    <g style="fill:#262626;" transform="translate(261.238914 366.262694)scale(0.1 -0.1)">
     <defs>
      <path d="M 1228 531 
L 3431 531 
L 3431 0 
L 469 0 
L 469 531 
Q 828 903 1448 1529 
Q 2069 2156 2228 2338 
Q 2531 2678 2651 2914 
Q 2772 3150 2772 3378 
Q 2772 3750 2511 3984 
Q 2250 4219 1831 4219 
Q 1534 4219 1204 4116 
Q 875 4013 500 3803 
L 500 4441 
Q 881 4594 1212 4672 
Q 1544 4750 1819 4750 
Q 2544 4750 2975 4387 
Q 3406 4025 3406 3419 
Q 3406 3131 3298 2873 
Q 3191 2616 2906 2266 
Q 2828 2175 2409 1742 
Q 1991 1309 1228 531 
z
" id="DejaVuSans-32" transform="scale(0.015625)"/>
      <path d="M 691 4666 
L 3169 4666 
L 3169 4134 
L 1269 4134 
L 1269 2991 
Q 1406 3038 1543 3061 
Q 1681 3084 1819 3084 
Q 2600 3084 3056 2656 
Q 3513 2228 3513 1497 
Q 3513 744 3044 326 
Q 2575 -91 1722 -91 
Q 1428 -91 1123 -41 
Q 819 9 494 109 
L 494 744 
Q 775 591 1075 516 
Q 1375 441 1709 441 
Q 2250 441 2565 725 
Q 2881 1009 2881 1497 
Q 2881 1984 2565 2268 
Q 2250 2553 1709 2553 
Q 1456 2553 1204 2497 
Q 953 2441 691 2322 
L 691 4666 
z
" id="DejaVuSans-35" transform="scale(0.015625)"/>
      <path d="M 684 794 
L 1344 794 
L 1344 0 
L 684 0 
L 684 794 
z
" id="DejaVuSans-2e" transform="scale(0.015625)"/>
      <path d="M 4653 2053 
Q 4381 2053 4226 1822 
Q 4072 1591 4072 1178 
Q 4072 772 4226 539 
Q 4381 306 4653 306 
Q 4919 306 5073 539 
Q 5228 772 5228 1178 
Q 5228 1588 5073 1820 
Q 4919 2053 4653 2053 
z
M 4653 2450 
Q 5147 2450 5437 2106 
Q 5728 1763 5728 1178 
Q 5728 594 5436 251 
Q 5144 -91 4653 -91 
Q 4153 -91 3862 251 
Q 3572 594 3572 1178 
Q 3572 1766 3864 2108 
Q 4156 2450 4653 2450 
z
M 1428 4353 
Q 1159 4353 1004 4120 
Q 850 3888 850 3481 
Q 850 3069 1003 2837 
Q 1156 2606 1428 2606 
Q 1700 2606 1854 2837 
Q 2009 3069 2009 3481 
Q 2009 3884 1853 4118 
Q 1697 4353 1428 4353 
z
M 4250 4750 
L 4750 4750 
L 1831 -91 
L 1331 -91 
L 4250 4750 
z
M 1428 4750 
Q 1922 4750 2215 4408 
Q 2509 4066 2509 3481 
Q 2509 2891 2217 2550 
Q 1925 2209 1428 2209 
Q 931 2209 642 2551 
Q 353 2894 353 3481 
Q 353 4063 643 4406 
Q 934 4750 1428 4750 
z
" id="DejaVuSans-25" transform="scale(0.015625)"/>
     </defs>
     <use xlink:href="#DejaVuSans-6c"/>
     <use x="27.783203" xlink:href="#DejaVuSans-6f"/>
     <use x="88.964844" xlink:href="#DejaVuSans-6f"/>
     <use x="150.146484" xlink:href="#DejaVuSans-6b"/>
     <use x="208.056641" xlink:href="#DejaVuSans-69"/>
     <use x="235.839844" xlink:href="#DejaVuSans-6e"/>
     <use x="299.21875" xlink:href="#DejaVuSans-67"/>
     <use x="362.695312" xlink:href="#DejaVuSans-20"/>
     <use x="394.482422" xlink:href="#DejaVuSans-61"/>
     <use x="455.761719" xlink:href="#DejaVuSans-76"/>
     <use x="514.941406" xlink:href="#DejaVuSans-65"/>
     <use x="576.464844" xlink:href="#DejaVuSans-72"/>
     <use x="617.578125" xlink:href="#DejaVuSans-61"/>
     <use x="678.857422" xlink:href="#DejaVuSans-67"/>
     <use x="742.333984" xlink:href="#DejaVuSans-65"/>
     <use x="803.857422" xlink:href="#DejaVuSans-3a"/>
     <use x="837.548828" xlink:href="#DejaVuSans-20"/>
     <use x="869.335938" xlink:href="#DejaVuSans-32"/>
     <use x="932.958984" xlink:href="#DejaVuSans-35"/>
     <use x="996.582031" xlink:href="#DejaVuSans-2e"/>
     <use x="1028.369141" xlink:href="#DejaVuSans-38"/>
     <use x="1091.992188" xlink:href="#DejaVuSans-35"/>
     <use x="1155.615234" xlink:href="#DejaVuSans-25"/>
    </g>
   </g>
   <g id="patch_6">
    <path d="M 146.746609 212.628841 
Q 160.086936 183.066905 196.279983 190.078581 
" style="fill:none;stroke:#000000;stroke-linecap:round;stroke-width:0.75;"/>
    <path d="M 192.733384 187.354313 
L 196.279983 190.078581 
L 191.97261 191.281299 
" style="fill:none;stroke:#000000;stroke-linecap:round;stroke-width:0.75;"/>
   </g>
   <g id="text_15">
    <!-- 1984-2020 backward -->
    <g style="fill:#262626;" transform="translate(79.492437 224.563015)scale(0.1 -0.1)">
     <defs>
      <path d="M 2034 4250 
Q 1547 4250 1301 3770 
Q 1056 3291 1056 2328 
Q 1056 1369 1301 889 
Q 1547 409 2034 409 
Q 2525 409 2770 889 
Q 3016 1369 3016 2328 
Q 3016 3291 2770 3770 
Q 2525 4250 2034 4250 
z
M 2034 4750 
Q 2819 4750 3233 4129 
Q 3647 3509 3647 2328 
Q 3647 1150 3233 529 
Q 2819 -91 2034 -91 
Q 1250 -91 836 529 
Q 422 1150 422 2328 
Q 422 3509 836 4129 
Q 1250 4750 2034 4750 
z
" id="DejaVuSans-30" transform="scale(0.015625)"/>
     </defs>
     <use xlink:href="#DejaVuSans-31"/>
     <use x="63.623047" xlink:href="#DejaVuSans-39"/>
     <use x="127.246094" xlink:href="#DejaVuSans-38"/>
     <use x="190.869141" xlink:href="#DejaVuSans-34"/>
     <use x="254.492188" xlink:href="#DejaVuSans-2d"/>
     <use x="290.576172" xlink:href="#DejaVuSans-32"/>
     <use x="354.199219" xlink:href="#DejaVuSans-30"/>
     <use x="417.822266" xlink:href="#DejaVuSans-32"/>
     <use x="481.445312" xlink:href="#DejaVuSans-30"/>
     <use x="545.068359" xlink:href="#DejaVuSans-20"/>
     <use x="576.855469" xlink:href="#DejaVuSans-62"/>
     <use x="640.332031" xlink:href="#DejaVuSans-61"/>
     <use x="701.611328" xlink:href="#DejaVuSans-63"/>
     <use x="756.591797" xlink:href="#DejaVuSans-6b"/>
     <use x="814.501953" xlink:href="#DejaVuSans-77"/>
     <use x="896.289062" xlink:href="#DejaVuSans-61"/>
     <use x="957.568359" xlink:href="#DejaVuSans-72"/>
     <use x="996.931641" xlink:href="#DejaVuSans-64"/>
    </g>
    <!-- looking average: 37.26% -->
    <g style="fill:#262626;" transform="translate(79.492437 235.760828)scale(0.1 -0.1)">
     <defs>
      <path d="M 2597 2516 
Q 3050 2419 3304 2112 
Q 3559 1806 3559 1356 
Q 3559 666 3084 287 
Q 2609 -91 1734 -91 
Q 1441 -91 1130 -33 
Q 819 25 488 141 
L 488 750 
Q 750 597 1062 519 
Q 1375 441 1716 441 
Q 2309 441 2620 675 
Q 2931 909 2931 1356 
Q 2931 1769 2642 2001 
Q 2353 2234 1838 2234 
L 1294 2234 
L 1294 2753 
L 1863 2753 
Q 2328 2753 2575 2939 
Q 2822 3125 2822 3475 
Q 2822 3834 2567 4026 
Q 2313 4219 1838 4219 
Q 1578 4219 1281 4162 
Q 984 4106 628 3988 
L 628 4550 
Q 988 4650 1302 4700 
Q 1616 4750 1894 4750 
Q 2613 4750 3031 4423 
Q 3450 4097 3450 3541 
Q 3450 3153 3228 2886 
Q 3006 2619 2597 2516 
z
" id="DejaVuSans-33" transform="scale(0.015625)"/>
      <path d="M 2113 2584 
Q 1688 2584 1439 2293 
Q 1191 2003 1191 1497 
Q 1191 994 1439 701 
Q 1688 409 2113 409 
Q 2538 409 2786 701 
Q 3034 994 3034 1497 
Q 3034 2003 2786 2293 
Q 2538 2584 2113 2584 
z
M 3366 4563 
L 3366 3988 
Q 3128 4100 2886 4159 
Q 2644 4219 2406 4219 
Q 1781 4219 1451 3797 
Q 1122 3375 1075 2522 
Q 1259 2794 1537 2939 
Q 1816 3084 2150 3084 
Q 2853 3084 3261 2657 
Q 3669 2231 3669 1497 
Q 3669 778 3244 343 
Q 2819 -91 2113 -91 
Q 1303 -91 875 529 
Q 447 1150 447 2328 
Q 447 3434 972 4092 
Q 1497 4750 2381 4750 
Q 2619 4750 2861 4703 
Q 3103 4656 3366 4563 
z
" id="DejaVuSans-36" transform="scale(0.015625)"/>
     </defs>
     <use xlink:href="#DejaVuSans-6c"/>
     <use x="27.783203" xlink:href="#DejaVuSans-6f"/>
     <use x="88.964844" xlink:href="#DejaVuSans-6f"/>
     <use x="150.146484" xlink:href="#DejaVuSans-6b"/>
     <use x="208.056641" xlink:href="#DejaVuSans-69"/>
     <use x="235.839844" xlink:href="#DejaVuSans-6e"/>
     <use x="299.21875" xlink:href="#DejaVuSans-67"/>
     <use x="362.695312" xlink:href="#DejaVuSans-20"/>
     <use x="394.482422" xlink:href="#DejaVuSans-61"/>
     <use x="455.761719" xlink:href="#DejaVuSans-76"/>
     <use x="514.941406" xlink:href="#DejaVuSans-65"/>
     <use x="576.464844" xlink:href="#DejaVuSans-72"/>
     <use x="617.578125" xlink:href="#DejaVuSans-61"/>
     <use x="678.857422" xlink:href="#DejaVuSans-67"/>
     <use x="742.333984" xlink:href="#DejaVuSans-65"/>
     <use x="803.857422" xlink:href="#DejaVuSans-3a"/>
     <use x="837.548828" xlink:href="#DejaVuSans-20"/>
     <use x="869.335938" xlink:href="#DejaVuSans-33"/>
     <use x="932.958984" xlink:href="#DejaVuSans-37"/>
     <use x="996.582031" xlink:href="#DejaVuSans-2e"/>
     <use x="1028.369141" xlink:href="#DejaVuSans-32"/>
     <use x="1091.992188" xlink:href="#DejaVuSans-36"/>
     <use x="1155.615234" xlink:href="#DejaVuSans-25"/>
    </g>
   </g>
   <g id="text_16">
    <!-- A. -->
    <g style="fill:#262626;" transform="translate(50.795625 25.43625)scale(0.24 -0.24)">
     <use xlink:href="#DejaVuSans-41"/>
     <use x="66.658203" xlink:href="#DejaVuSans-2e"/>
    </g>
   </g>
   <g id="legend_1">
    <g id="line2d_30">
     <path d="M 61.595625 60.410738 
L 85.595625 60.410738 
" style="fill:none;stroke:#377eb8;stroke-linecap:round;"/>
    </g>
    <g id="line2d_31"/>
    <g id="text_17">
     <!-- Detector: F/(M+F) -->
     <g style="fill:#262626;" transform="translate(95.195625 64.610738)scale(0.12 -0.12)">
      <defs>
       <path d="M 494 0 
L 494 4581 
L 2072 4581 
Q 2606 4581 2888 4516 
Q 3281 4425 3559 4188 
Q 3922 3881 4101 3404 
Q 4281 2928 4281 2316 
Q 4281 1794 4159 1391 
Q 4038 988 3847 723 
Q 3656 459 3429 307 
Q 3203 156 2883 78 
Q 2563 0 2147 0 
L 494 0 
z
M 1100 541 
L 2078 541 
Q 2531 541 2789 625 
Q 3047 709 3200 863 
Q 3416 1078 3536 1442 
Q 3656 1806 3656 2325 
Q 3656 3044 3420 3430 
Q 3184 3816 2847 3947 
Q 2603 4041 2063 4041 
L 1100 4041 
L 1100 541 
z
" id="ArialMT-44" transform="scale(0.015625)"/>
       <path d="M 2694 1069 
L 3275 997 
Q 3138 488 2766 206 
Q 2394 -75 1816 -75 
Q 1088 -75 661 373 
Q 234 822 234 1631 
Q 234 2469 665 2931 
Q 1097 3394 1784 3394 
Q 2450 3394 2872 2941 
Q 3294 2488 3294 1666 
Q 3294 1616 3291 1516 
L 816 1516 
Q 847 969 1125 678 
Q 1403 388 1819 388 
Q 2128 388 2347 550 
Q 2566 713 2694 1069 
z
M 847 1978 
L 2700 1978 
Q 2663 2397 2488 2606 
Q 2219 2931 1791 2931 
Q 1403 2931 1139 2672 
Q 875 2413 847 1978 
z
" id="ArialMT-65" transform="scale(0.015625)"/>
       <path d="M 1650 503 
L 1731 6 
Q 1494 -44 1306 -44 
Q 1000 -44 831 53 
Q 663 150 594 308 
Q 525 466 525 972 
L 525 2881 
L 113 2881 
L 113 3319 
L 525 3319 
L 525 4141 
L 1084 4478 
L 1084 3319 
L 1650 3319 
L 1650 2881 
L 1084 2881 
L 1084 941 
Q 1084 700 1114 631 
Q 1144 563 1211 522 
Q 1278 481 1403 481 
Q 1497 481 1650 503 
z
" id="ArialMT-74" transform="scale(0.015625)"/>
       <path d="M 2588 1216 
L 3141 1144 
Q 3050 572 2676 248 
Q 2303 -75 1759 -75 
Q 1078 -75 664 370 
Q 250 816 250 1647 
Q 250 2184 428 2587 
Q 606 2991 970 3192 
Q 1334 3394 1763 3394 
Q 2303 3394 2647 3120 
Q 2991 2847 3088 2344 
L 2541 2259 
Q 2463 2594 2264 2762 
Q 2066 2931 1784 2931 
Q 1359 2931 1093 2626 
Q 828 2322 828 1663 
Q 828 994 1084 691 
Q 1341 388 1753 388 
Q 2084 388 2306 591 
Q 2528 794 2588 1216 
z
" id="ArialMT-63" transform="scale(0.015625)"/>
       <path d="M 213 1659 
Q 213 2581 725 3025 
Q 1153 3394 1769 3394 
Q 2453 3394 2887 2945 
Q 3322 2497 3322 1706 
Q 3322 1066 3130 698 
Q 2938 331 2570 128 
Q 2203 -75 1769 -75 
Q 1072 -75 642 372 
Q 213 819 213 1659 
z
M 791 1659 
Q 791 1022 1069 705 
Q 1347 388 1769 388 
Q 2188 388 2466 706 
Q 2744 1025 2744 1678 
Q 2744 2294 2464 2611 
Q 2184 2928 1769 2928 
Q 1347 2928 1069 2612 
Q 791 2297 791 1659 
z
" id="ArialMT-6f" transform="scale(0.015625)"/>
       <path d="M 416 0 
L 416 3319 
L 922 3319 
L 922 2816 
Q 1116 3169 1280 3281 
Q 1444 3394 1641 3394 
Q 1925 3394 2219 3213 
L 2025 2691 
Q 1819 2813 1613 2813 
Q 1428 2813 1281 2702 
Q 1134 2591 1072 2394 
Q 978 2094 978 1738 
L 978 0 
L 416 0 
z
" id="ArialMT-72" transform="scale(0.015625)"/>
       <path d="M 578 2678 
L 578 3319 
L 1219 3319 
L 1219 2678 
L 578 2678 
z
M 578 0 
L 578 641 
L 1219 641 
L 1219 0 
L 578 0 
z
" id="ArialMT-3a" transform="scale(0.015625)"/>
       <path id="ArialMT-20" transform="scale(0.015625)"/>
       <path d="M 525 0 
L 525 4581 
L 3616 4581 
L 3616 4041 
L 1131 4041 
L 1131 2622 
L 3281 2622 
L 3281 2081 
L 1131 2081 
L 1131 0 
L 525 0 
z
" id="ArialMT-46" transform="scale(0.015625)"/>
       <path d="M 0 -78 
L 1328 4659 
L 1778 4659 
L 453 -78 
L 0 -78 
z
" id="ArialMT-2f" transform="scale(0.015625)"/>
       <path d="M 1497 -1347 
Q 1031 -759 709 28 
Q 388 816 388 1659 
Q 388 2403 628 3084 
Q 909 3875 1497 4659 
L 1900 4659 
Q 1522 4009 1400 3731 
Q 1209 3300 1100 2831 
Q 966 2247 966 1656 
Q 966 153 1900 -1347 
L 1497 -1347 
z
" id="ArialMT-28" transform="scale(0.015625)"/>
       <path d="M 475 0 
L 475 4581 
L 1388 4581 
L 2472 1338 
Q 2622 884 2691 659 
Q 2769 909 2934 1394 
L 4031 4581 
L 4847 4581 
L 4847 0 
L 4263 0 
L 4263 3834 
L 2931 0 
L 2384 0 
L 1059 3900 
L 1059 0 
L 475 0 
z
" id="ArialMT-4d" transform="scale(0.015625)"/>
       <path d="M 1603 741 
L 1603 1997 
L 356 1997 
L 356 2522 
L 1603 2522 
L 1603 3769 
L 2134 3769 
L 2134 2522 
L 3381 2522 
L 3381 1997 
L 2134 1997 
L 2134 741 
L 1603 741 
z
" id="ArialMT-2b" transform="scale(0.015625)"/>
       <path d="M 791 -1347 
L 388 -1347 
Q 1322 153 1322 1656 
Q 1322 2244 1188 2822 
Q 1081 3291 891 3722 
Q 769 4003 388 4659 
L 791 4659 
Q 1378 3875 1659 3084 
Q 1900 2403 1900 1659 
Q 1900 816 1576 28 
Q 1253 -759 791 -1347 
z
" id="ArialMT-29" transform="scale(0.015625)"/>
      </defs>
      <use xlink:href="#ArialMT-44"/>
      <use x="72.216797" xlink:href="#ArialMT-65"/>
      <use x="127.832031" xlink:href="#ArialMT-74"/>
      <use x="155.615234" xlink:href="#ArialMT-65"/>
      <use x="211.230469" xlink:href="#ArialMT-63"/>
      <use x="261.230469" xlink:href="#ArialMT-74"/>
      <use x="289.013672" xlink:href="#ArialMT-6f"/>
      <use x="344.628906" xlink:href="#ArialMT-72"/>
      <use x="377.929688" xlink:href="#ArialMT-3a"/>
      <use x="405.712891" xlink:href="#ArialMT-20"/>
      <use x="433.496094" xlink:href="#ArialMT-46"/>
      <use x="494.580078" xlink:href="#ArialMT-2f"/>
      <use x="522.363281" xlink:href="#ArialMT-28"/>
      <use x="555.664062" xlink:href="#ArialMT-4d"/>
      <use x="638.964844" xlink:href="#ArialMT-2b"/>
      <use x="697.363281" xlink:href="#ArialMT-46"/>
      <use x="758.447266" xlink:href="#ArialMT-29"/>
     </g>
    </g>
    <g id="patch_7">
     <path d="M 61.595625 81.725738 
L 85.595625 81.725738 
L 85.595625 73.325738 
L 61.595625 73.325738 
z
" style="fill:#ffb94e;fill-opacity:0.3;stroke:#000000;stroke-linejoin:miter;stroke-width:0.5;"/>
    </g>
    <g id="text_18">
     <!-- Detector: CI's -->
     <g style="fill:#262626;" transform="translate(95.195625 81.725738)scale(0.12 -0.12)">
      <defs>
       <path d="M 3763 1606 
L 4369 1453 
Q 4178 706 3683 314 
Q 3188 -78 2472 -78 
Q 1731 -78 1267 223 
Q 803 525 561 1097 
Q 319 1669 319 2325 
Q 319 3041 592 3573 
Q 866 4106 1370 4382 
Q 1875 4659 2481 4659 
Q 3169 4659 3637 4309 
Q 4106 3959 4291 3325 
L 3694 3184 
Q 3534 3684 3231 3912 
Q 2928 4141 2469 4141 
Q 1941 4141 1586 3887 
Q 1231 3634 1087 3207 
Q 944 2781 944 2328 
Q 944 1744 1114 1308 
Q 1284 872 1643 656 
Q 2003 441 2422 441 
Q 2931 441 3284 734 
Q 3638 1028 3763 1606 
z
" id="ArialMT-43" transform="scale(0.015625)"/>
       <path d="M 597 0 
L 597 4581 
L 1203 4581 
L 1203 0 
L 597 0 
z
" id="ArialMT-49" transform="scale(0.015625)"/>
       <path d="M 425 2959 
L 281 3816 
L 281 4581 
L 922 4581 
L 922 3816 
L 772 2959 
L 425 2959 
z
" id="ArialMT-27" transform="scale(0.015625)"/>
       <path d="M 197 991 
L 753 1078 
Q 800 744 1014 566 
Q 1228 388 1613 388 
Q 2000 388 2187 545 
Q 2375 703 2375 916 
Q 2375 1106 2209 1216 
Q 2094 1291 1634 1406 
Q 1016 1563 777 1677 
Q 538 1791 414 1992 
Q 291 2194 291 2438 
Q 291 2659 392 2848 
Q 494 3038 669 3163 
Q 800 3259 1026 3326 
Q 1253 3394 1513 3394 
Q 1903 3394 2198 3281 
Q 2494 3169 2634 2976 
Q 2775 2784 2828 2463 
L 2278 2388 
Q 2241 2644 2061 2787 
Q 1881 2931 1553 2931 
Q 1166 2931 1000 2803 
Q 834 2675 834 2503 
Q 834 2394 903 2306 
Q 972 2216 1119 2156 
Q 1203 2125 1616 2013 
Q 2213 1853 2448 1751 
Q 2684 1650 2818 1456 
Q 2953 1263 2953 975 
Q 2953 694 2789 445 
Q 2625 197 2315 61 
Q 2006 -75 1616 -75 
Q 969 -75 630 194 
Q 291 463 197 991 
z
" id="ArialMT-73" transform="scale(0.015625)"/>
      </defs>
      <use xlink:href="#ArialMT-44"/>
      <use x="72.216797" xlink:href="#ArialMT-65"/>
      <use x="127.832031" xlink:href="#ArialMT-74"/>
      <use x="155.615234" xlink:href="#ArialMT-65"/>
      <use x="211.230469" xlink:href="#ArialMT-63"/>
      <use x="261.230469" xlink:href="#ArialMT-74"/>
      <use x="289.013672" xlink:href="#ArialMT-6f"/>
      <use x="344.628906" xlink:href="#ArialMT-72"/>
      <use x="377.929688" xlink:href="#ArialMT-3a"/>
      <use x="405.712891" xlink:href="#ArialMT-20"/>
      <use x="433.496094" xlink:href="#ArialMT-43"/>
      <use x="505.712891" xlink:href="#ArialMT-49"/>
      <use x="533.496094" xlink:href="#ArialMT-27"/>
      <use x="552.587891" xlink:href="#ArialMT-73"/>
     </g>
    </g>
   </g>
  </g>
  <g id="axes_2">
   <g id="patch_8">
    <path d="M 469.407285 434.756913 
L 799.420625 434.756913 
L 799.420625 45.075113 
L 469.407285 45.075113 
z
" style="fill:#ffffff;"/>
   </g>
   <g id="matplotlib.axis_3">
    <g id="xtick_8">
     <g id="line2d_32">
      <path clip-path="url(#pe5084e74ab)" d="M 512.452503 434.756913 
L 512.452503 45.075113 
" style="fill:none;stroke:#cccccc;stroke-dasharray:2.96,1.28;stroke-dashoffset:0;stroke-opacity:0.2;stroke-width:0.8;"/>
     </g>
     <g id="line2d_33">
      <g>
       <use style="fill:#262626;stroke:#262626;stroke-width:0.8;" x="512.452503" xlink:href="#m45c4aadc0d" y="434.756913"/>
      </g>
     </g>
     <g id="text_19">
      <!-- 1960 -->
      <g style="fill:#262626;" transform="translate(501.330628 448.914725)scale(0.1 -0.1)">
       <use xlink:href="#ArialMT-31"/>
       <use x="55.615234" xlink:href="#ArialMT-39"/>
       <use x="111.230469" xlink:href="#ArialMT-36"/>
       <use x="166.845703" xlink:href="#ArialMT-30"/>
      </g>
     </g>
    </g>
    <g id="xtick_9">
     <g id="line2d_34">
      <path clip-path="url(#pe5084e74ab)" d="M 560.280524 434.756913 
L 560.280524 45.075113 
" style="fill:none;stroke:#cccccc;stroke-dasharray:2.96,1.28;stroke-dashoffset:0;stroke-opacity:0.2;stroke-width:0.8;"/>
     </g>
     <g id="line2d_35">
      <g>
       <use style="fill:#262626;stroke:#262626;stroke-width:0.8;" x="560.280524" xlink:href="#m45c4aadc0d" y="434.756913"/>
      </g>
     </g>
     <g id="text_20">
      <!-- 1970 -->
      <g style="fill:#262626;" transform="translate(549.158649 448.914725)scale(0.1 -0.1)">
       <use xlink:href="#ArialMT-31"/>
       <use x="55.615234" xlink:href="#ArialMT-39"/>
       <use x="111.230469" xlink:href="#ArialMT-37"/>
       <use x="166.845703" xlink:href="#ArialMT-30"/>
      </g>
     </g>
    </g>
    <g id="xtick_10">
     <g id="line2d_36">
      <path clip-path="url(#pe5084e74ab)" d="M 608.108544 434.756913 
L 608.108544 45.075113 
" style="fill:none;stroke:#cccccc;stroke-dasharray:2.96,1.28;stroke-dashoffset:0;stroke-opacity:0.2;stroke-width:0.8;"/>
     </g>
     <g id="line2d_37">
      <g>
       <use style="fill:#262626;stroke:#262626;stroke-width:0.8;" x="608.108544" xlink:href="#m45c4aadc0d" y="434.756913"/>
      </g>
     </g>
     <g id="text_21">
      <!-- 1980 -->
      <g style="fill:#262626;" transform="translate(596.986669 448.914725)scale(0.1 -0.1)">
       <use xlink:href="#ArialMT-31"/>
       <use x="55.615234" xlink:href="#ArialMT-39"/>
       <use x="111.230469" xlink:href="#ArialMT-38"/>
       <use x="166.845703" xlink:href="#ArialMT-30"/>
      </g>
     </g>
    </g>
    <g id="xtick_11">
     <g id="line2d_38">
      <path clip-path="url(#pe5084e74ab)" d="M 655.936564 434.756913 
L 655.936564 45.075113 
" style="fill:none;stroke:#cccccc;stroke-dasharray:2.96,1.28;stroke-dashoffset:0;stroke-opacity:0.2;stroke-width:0.8;"/>
     </g>
     <g id="line2d_39">
      <g>
       <use style="fill:#262626;stroke:#262626;stroke-width:0.8;" x="655.936564" xlink:href="#m45c4aadc0d" y="434.756913"/>
      </g>
     </g>
     <g id="text_22">
      <!-- 1990 -->
      <g style="fill:#262626;" transform="translate(644.814689 448.914725)scale(0.1 -0.1)">
       <use xlink:href="#ArialMT-31"/>
       <use x="55.615234" xlink:href="#ArialMT-39"/>
       <use x="111.230469" xlink:href="#ArialMT-39"/>
       <use x="166.845703" xlink:href="#ArialMT-30"/>
      </g>
     </g>
    </g>
    <g id="xtick_12">
     <g id="line2d_40">
      <path clip-path="url(#pe5084e74ab)" d="M 703.764584 434.756913 
L 703.764584 45.075113 
" style="fill:none;stroke:#cccccc;stroke-dasharray:2.96,1.28;stroke-dashoffset:0;stroke-opacity:0.2;stroke-width:0.8;"/>
     </g>
     <g id="line2d_41">
      <g>
       <use style="fill:#262626;stroke:#262626;stroke-width:0.8;" x="703.764584" xlink:href="#m45c4aadc0d" y="434.756913"/>
      </g>
     </g>
     <g id="text_23">
      <!-- 2000 -->
      <g style="fill:#262626;" transform="translate(692.642709 448.914725)scale(0.1 -0.1)">
       <use xlink:href="#ArialMT-32"/>
       <use x="55.615234" xlink:href="#ArialMT-30"/>
       <use x="111.230469" xlink:href="#ArialMT-30"/>
       <use x="166.845703" xlink:href="#ArialMT-30"/>
      </g>
     </g>
    </g>
    <g id="xtick_13">
     <g id="line2d_42">
      <path clip-path="url(#pe5084e74ab)" d="M 751.592605 434.756913 
L 751.592605 45.075113 
" style="fill:none;stroke:#cccccc;stroke-dasharray:2.96,1.28;stroke-dashoffset:0;stroke-opacity:0.2;stroke-width:0.8;"/>
     </g>
     <g id="line2d_43">
      <g>
       <use style="fill:#262626;stroke:#262626;stroke-width:0.8;" x="751.592605" xlink:href="#m45c4aadc0d" y="434.756913"/>
      </g>
     </g>
     <g id="text_24">
      <!-- 2010 -->
      <g style="fill:#262626;" transform="translate(740.47073 448.914725)scale(0.1 -0.1)">
       <use xlink:href="#ArialMT-32"/>
       <use x="55.615234" xlink:href="#ArialMT-30"/>
       <use x="111.230469" xlink:href="#ArialMT-31"/>
       <use x="166.845703" xlink:href="#ArialMT-30"/>
      </g>
     </g>
    </g>
    <g id="xtick_14">
     <g id="line2d_44">
      <path clip-path="url(#pe5084e74ab)" d="M 799.420625 434.756913 
L 799.420625 45.075113 
" style="fill:none;stroke:#cccccc;stroke-dasharray:2.96,1.28;stroke-dashoffset:0;stroke-opacity:0.2;stroke-width:0.8;"/>
     </g>
     <g id="line2d_45">
      <g>
       <use style="fill:#262626;stroke:#262626;stroke-width:0.8;" x="799.420625" xlink:href="#m45c4aadc0d" y="434.756913"/>
      </g>
     </g>
     <g id="text_25">
      <!-- 2020 -->
      <g style="fill:#262626;" transform="translate(788.29875 448.914725)scale(0.1 -0.1)">
       <use xlink:href="#ArialMT-32"/>
       <use x="55.615234" xlink:href="#ArialMT-30"/>
       <use x="111.230469" xlink:href="#ArialMT-32"/>
       <use x="166.845703" xlink:href="#ArialMT-30"/>
      </g>
     </g>
    </g>
   </g>
   <g id="matplotlib.axis_4">
    <g id="ytick_6">
     <g id="line2d_46">
      <path clip-path="url(#pe5084e74ab)" d="M 469.407285 414.247345 
L 799.420625 414.247345 
" style="fill:none;stroke:#cccccc;stroke-dasharray:2.96,1.28;stroke-dashoffset:0;stroke-opacity:0.2;stroke-width:0.8;"/>
     </g>
     <g id="line2d_47">
      <g>
       <use style="fill:#262626;stroke:#262626;stroke-width:0.8;" x="469.407285" xlink:href="#m98b1ebbb13" y="414.247345"/>
      </g>
     </g>
     <g id="text_26">
      <!-- 10% -->
      <g style="fill:#262626;" transform="translate(442.393223 417.826251)scale(0.1 -0.1)">
       <use xlink:href="#ArialMT-31"/>
       <use x="55.615234" xlink:href="#ArialMT-30"/>
       <use x="111.230469" xlink:href="#ArialMT-25"/>
      </g>
     </g>
    </g>
    <g id="ytick_7">
     <g id="line2d_48">
      <path clip-path="url(#pe5084e74ab)" d="M 469.407285 332.209071 
L 799.420625 332.209071 
" style="fill:none;stroke:#cccccc;stroke-dasharray:2.96,1.28;stroke-dashoffset:0;stroke-opacity:0.2;stroke-width:0.8;"/>
     </g>
     <g id="line2d_49">
      <g>
       <use style="fill:#262626;stroke:#262626;stroke-width:0.8;" x="469.407285" xlink:href="#m98b1ebbb13" y="332.209071"/>
      </g>
     </g>
     <g id="text_27">
      <!-- 20% -->
      <g style="fill:#262626;" transform="translate(442.393223 335.787977)scale(0.1 -0.1)">
       <use xlink:href="#ArialMT-32"/>
       <use x="55.615234" xlink:href="#ArialMT-30"/>
       <use x="111.230469" xlink:href="#ArialMT-25"/>
      </g>
     </g>
    </g>
    <g id="ytick_8">
     <g id="line2d_50">
      <path clip-path="url(#pe5084e74ab)" d="M 469.407285 250.170797 
L 799.420625 250.170797 
" style="fill:none;stroke:#cccccc;stroke-dasharray:2.96,1.28;stroke-dashoffset:0;stroke-opacity:0.2;stroke-width:0.8;"/>
     </g>
     <g id="line2d_51">
      <g>
       <use style="fill:#262626;stroke:#262626;stroke-width:0.8;" x="469.407285" xlink:href="#m98b1ebbb13" y="250.170797"/>
      </g>
     </g>
     <g id="text_28">
      <!-- 30% -->
      <g style="fill:#262626;" transform="translate(442.393223 253.749703)scale(0.1 -0.1)">
       <use xlink:href="#ArialMT-33"/>
       <use x="55.615234" xlink:href="#ArialMT-30"/>
       <use x="111.230469" xlink:href="#ArialMT-25"/>
      </g>
     </g>
    </g>
    <g id="ytick_9">
     <g id="line2d_52">
      <path clip-path="url(#pe5084e74ab)" d="M 469.407285 168.132524 
L 799.420625 168.132524 
" style="fill:none;stroke:#cccccc;stroke-dasharray:2.96,1.28;stroke-dashoffset:0;stroke-opacity:0.2;stroke-width:0.8;"/>
     </g>
     <g id="line2d_53">
      <g>
       <use style="fill:#262626;stroke:#262626;stroke-width:0.8;" x="469.407285" xlink:href="#m98b1ebbb13" y="168.132524"/>
      </g>
     </g>
     <g id="text_29">
      <!-- 40% -->
      <g style="fill:#262626;" transform="translate(442.393223 171.71143)scale(0.1 -0.1)">
       <use xlink:href="#ArialMT-34"/>
       <use x="55.615234" xlink:href="#ArialMT-30"/>
       <use x="111.230469" xlink:href="#ArialMT-25"/>
      </g>
     </g>
    </g>
    <g id="ytick_10">
     <g id="line2d_54">
      <path clip-path="url(#pe5084e74ab)" d="M 469.407285 86.09425 
L 799.420625 86.09425 
" style="fill:none;stroke:#cccccc;stroke-dasharray:2.96,1.28;stroke-dashoffset:0;stroke-opacity:0.2;stroke-width:0.8;"/>
     </g>
     <g id="line2d_55">
      <g>
       <use style="fill:#262626;stroke:#262626;stroke-width:0.8;" x="469.407285" xlink:href="#m98b1ebbb13" y="86.09425"/>
      </g>
     </g>
     <g id="text_30">
      <!-- 50% -->
      <g style="fill:#262626;" transform="translate(442.393223 89.673156)scale(0.1 -0.1)">
       <use xlink:href="#ArialMT-35"/>
       <use x="55.615234" xlink:href="#ArialMT-30"/>
       <use x="111.230469" xlink:href="#ArialMT-25"/>
      </g>
     </g>
    </g>
    <g id="text_31">
     <!-- Female Authorship: Ten Year Rolling Interval -->
     <g style="fill:#262626;" transform="translate(435.689629 382.760622)rotate(-90)scale(0.13 -0.13)">
      <use xlink:href="#DejaVuSans-46"/>
      <use x="52.019531" xlink:href="#DejaVuSans-65"/>
      <use x="113.542969" xlink:href="#DejaVuSans-6d"/>
      <use x="210.955078" xlink:href="#DejaVuSans-61"/>
      <use x="272.234375" xlink:href="#DejaVuSans-6c"/>
      <use x="300.017578" xlink:href="#DejaVuSans-65"/>
      <use x="361.541016" xlink:href="#DejaVuSans-20"/>
      <use x="393.328125" xlink:href="#DejaVuSans-41"/>
      <use x="461.736328" xlink:href="#DejaVuSans-75"/>
      <use x="525.115234" xlink:href="#DejaVuSans-74"/>
      <use x="564.324219" xlink:href="#DejaVuSans-68"/>
      <use x="627.703125" xlink:href="#DejaVuSans-6f"/>
      <use x="688.884766" xlink:href="#DejaVuSans-72"/>
      <use x="729.998047" xlink:href="#DejaVuSans-73"/>
      <use x="782.097656" xlink:href="#DejaVuSans-68"/>
      <use x="845.476562" xlink:href="#DejaVuSans-69"/>
      <use x="873.259766" xlink:href="#DejaVuSans-70"/>
      <use x="936.736328" xlink:href="#DejaVuSans-3a"/>
      <use x="970.427734" xlink:href="#DejaVuSans-20"/>
      <use x="1002.214844" xlink:href="#DejaVuSans-54"/>
      <use x="1046.298828" xlink:href="#DejaVuSans-65"/>
      <use x="1107.822266" xlink:href="#DejaVuSans-6e"/>
      <use x="1171.201172" xlink:href="#DejaVuSans-20"/>
      <use x="1202.988281" xlink:href="#DejaVuSans-59"/>
      <use x="1250.822266" xlink:href="#DejaVuSans-65"/>
      <use x="1312.345703" xlink:href="#DejaVuSans-61"/>
      <use x="1373.625" xlink:href="#DejaVuSans-72"/>
      <use x="1414.738281" xlink:href="#DejaVuSans-20"/>
      <use x="1446.525391" xlink:href="#DejaVuSans-52"/>
      <use x="1511.507812" xlink:href="#DejaVuSans-6f"/>
      <use x="1572.689453" xlink:href="#DejaVuSans-6c"/>
      <use x="1600.472656" xlink:href="#DejaVuSans-6c"/>
      <use x="1628.255859" xlink:href="#DejaVuSans-69"/>
      <use x="1656.039062" xlink:href="#DejaVuSans-6e"/>
      <use x="1719.417969" xlink:href="#DejaVuSans-67"/>
      <use x="1782.894531" xlink:href="#DejaVuSans-20"/>
      <use x="1814.681641" xlink:href="#DejaVuSans-49"/>
      <use x="1844.173828" xlink:href="#DejaVuSans-6e"/>
      <use x="1907.552734" xlink:href="#DejaVuSans-74"/>
      <use x="1946.761719" xlink:href="#DejaVuSans-65"/>
      <use x="2008.285156" xlink:href="#DejaVuSans-72"/>
      <use x="2049.398438" xlink:href="#DejaVuSans-76"/>
      <use x="2108.578125" xlink:href="#DejaVuSans-61"/>
      <use x="2169.857422" xlink:href="#DejaVuSans-6c"/>
     </g>
    </g>
   </g>
   <g id="PolyCollection_2">
    <defs>
     <path d="M 794.637823 -347.33493 
L 794.637823 -289.674577 
L 789.855021 -291.033271 
L 785.072219 -310.842287 
L 780.289417 -302.665065 
L 775.506615 -302.361942 
L 770.723813 -302.62727 
L 765.941011 -288.682053 
L 761.158209 -281.099903 
L 756.375407 -260.751549 
L 751.592605 -240.814294 
L 746.809803 -223.325255 
L 742.027001 -211.732684 
L 737.244199 -191.484911 
L 732.461397 -185.480356 
L 727.678595 -176.161705 
L 722.895793 -181.975378 
L 718.112991 -193.372823 
L 713.330188 -189.861481 
L 708.547386 -181.961593 
L 703.764584 -186.911632 
L 698.981782 -187.707597 
L 694.19898 -182.218811 
L 689.416178 -168.656052 
L 684.633376 -167.27197 
L 679.850574 -166.247516 
L 675.067772 -185.161346 
L 670.28497 -189.675303 
L 665.502168 -215.87525 
L 660.719366 -231.564905 
L 655.936564 -257.101964 
L 651.153762 -271.617155 
L 646.37096 -258.820852 
L 641.588158 -267.892497 
L 636.805356 -258.208163 
L 632.022554 -256.383235 
L 627.239752 -205.07368 
L 622.45695 -180.059451 
L 617.674148 -153.190225 
L 612.891346 -139.914999 
L 608.108544 -110.282827 
L 603.325742 -89.433087 
L 598.54294 -88.604569 
L 593.760138 -91.775245 
L 588.977336 -94.2989 
L 584.194534 -92.641851 
L 579.411732 -99.004635 
L 574.62893 -101.498514 
L 569.846128 -109.941893 
L 565.063326 -91.782194 
L 560.280524 -108.925737 
L 555.497722 -123.655747 
L 550.71492 -142.712414 
L 545.932118 -148.294332 
L 541.149315 -136.331598 
L 536.366513 -119.447813 
L 531.583711 -116.018177 
L 526.800909 -131.498254 
L 522.018107 -130.313443 
L 517.235305 -174.899981 
L 512.452503 -158.545856 
L 507.669701 -138.895447 
L 502.886899 -135.312364 
L 498.104097 -128.883335 
L 493.321295 -144.505824 
L 493.321295 -176.365348 
L 493.321295 -176.365348 
L 498.104097 -155.718284 
L 502.886899 -165.69691 
L 507.669701 -162.113826 
L 512.452503 -189.756069 
L 517.235305 -204.50142 
L 522.018107 -156.181367 
L 526.800909 -167.167069 
L 531.583711 -157.037314 
L 536.366513 -165.709997 
L 541.149315 -181.594094 
L 545.932118 -194.782687 
L 550.71492 -185.493109 
L 555.497722 -172.878711 
L 560.280524 -158.580481 
L 565.063326 -141.25251 
L 569.846128 -163.967097 
L 574.62893 -150.287795 
L 579.411732 -148.159799 
L 584.194534 -140.997744 
L 588.977336 -144.590562 
L 593.760138 -144.039011 
L 598.54294 -146.566393 
L 603.325742 -143.130866 
L 608.108544 -163.021718 
L 612.891346 -192.149106 
L 617.674148 -212.475697 
L 622.45695 -248.424679 
L 627.239752 -277.9114 
L 632.022554 -329.486647 
L 636.805356 -331.675274 
L 641.588158 -333.448195 
L 646.37096 -317.682394 
L 651.153762 -326.191972 
L 655.936564 -316.645872 
L 660.719366 -291.843924 
L 665.502168 -271.379692 
L 670.28497 -241.411151 
L 675.067772 -238.956935 
L 679.850574 -220.660656 
L 684.633376 -220.367807 
L 689.416178 -226.5168 
L 694.19898 -241.410983 
L 698.981782 -254.062083 
L 703.764584 -254.603311 
L 708.547386 -251.7814 
L 713.330188 -258.405208 
L 718.112991 -263.509171 
L 722.895793 -253.131024 
L 727.678595 -244.526933 
L 732.461397 -257.808786 
L 737.244199 -263.532576 
L 742.027001 -283.612013 
L 746.809803 -291.361804 
L 751.592605 -308.534567 
L 756.375407 -325.988956 
L 761.158209 -351.822553 
L 765.941011 -358.072027 
L 770.723813 -371.433564 
L 775.506615 -374.340554 
L 780.289417 -367.883776 
L 785.072219 -368.649179 
L 789.855021 -346.280448 
L 794.637823 -347.33493 
z
" id="m061cf6612d" style="stroke:#ffb94e;stroke-opacity:0.2;"/>
    </defs>
    <g clip-path="url(#pe5084e74ab)">
     <use style="fill:#ffb94e;fill-opacity:0.2;stroke:#ffb94e;stroke-opacity:0.2;" x="0" xlink:href="#m061cf6612d" y="458.102225"/>
    </g>
   </g>
   <g id="line2d_56">
    <path clip-path="url(#pe5084e74ab)" d="M 794.637823 168.427648 
L 789.855021 167.068954 
L 785.072219 147.259938 
L 780.289417 155.437161 
L 775.506615 155.740284 
L 770.723813 155.474955 
L 765.941011 169.420173 
L 761.158209 177.002323 
L 756.375407 197.350677 
L 751.592605 217.287931 
L 746.809803 234.77697 
L 742.027001 246.369541 
L 737.244199 266.617314 
L 732.461397 272.62187 
L 727.678595 281.940521 
L 722.895793 276.126847 
L 718.112991 264.729403 
L 713.330188 268.240745 
L 708.547386 276.140633 
L 703.764584 271.190594 
L 698.981782 270.394629 
L 694.19898 275.883415 
L 689.416178 289.446173 
L 684.633376 290.830256 
L 679.850574 291.85471 
L 675.067772 272.94088 
L 670.28497 268.426923 
L 665.502168 242.226976 
L 660.719366 226.53732 
L 655.936564 201.000262 
L 651.153762 186.485071 
L 646.37096 199.281373 
L 641.588158 190.209728 
L 636.805356 199.894062 
L 632.022554 201.718991 
L 627.239752 253.028545 
L 622.45695 278.042775 
L 617.674148 304.912 
L 612.891346 318.187226 
L 608.108544 347.819398 
L 603.325742 368.669139 
L 598.54294 369.497656 
L 593.760138 366.32698 
L 588.977336 363.803325 
L 584.194534 365.460375 
L 579.411732 359.09759 
L 574.62893 356.603712 
L 569.846128 348.160333 
L 565.063326 366.320031 
L 560.280524 349.176489 
L 555.497722 334.446478 
L 550.71492 315.389811 
L 545.932118 309.807893 
L 541.149315 321.770627 
L 536.366513 338.654413 
L 531.583711 342.084048 
L 526.800909 326.603971 
L 522.018107 327.788783 
L 517.235305 283.202244 
L 512.452503 299.556369 
L 507.669701 319.206778 
L 502.886899 322.789862 
L 498.104097 329.218891 
L 493.321295 313.596402 
" style="fill:none;stroke:#ffb94e;stroke-dasharray:3.6,1.8;stroke-dashoffset:0;stroke-width:0.3;"/>
   </g>
   <g id="line2d_57">
    <path clip-path="url(#pe5084e74ab)" d="M 794.637823 110.767296 
L 789.855021 111.821778 
L 785.072219 89.453046 
L 780.289417 90.21845 
L 775.506615 83.761671 
L 770.723813 86.668661 
L 765.941011 100.030198 
L 761.158209 106.279673 
L 756.375407 132.11327 
L 751.592605 149.567658 
L 746.809803 166.740421 
L 742.027001 174.490213 
L 737.244199 194.56965 
L 732.461397 200.29344 
L 727.678595 213.575293 
L 722.895793 204.971202 
L 718.112991 194.593055 
L 713.330188 199.697017 
L 708.547386 206.320825 
L 703.764584 203.498915 
L 698.981782 204.040143 
L 694.19898 216.691243 
L 689.416178 231.585426 
L 684.633376 237.734418 
L 679.850574 237.441569 
L 675.067772 219.145291 
L 670.28497 216.691074 
L 665.502168 186.722533 
L 660.719366 166.258302 
L 655.936564 141.456353 
L 651.153762 131.910253 
L 646.37096 140.419832 
L 641.588158 124.65403 
L 636.805356 126.426952 
L 632.022554 128.615579 
L 627.239752 180.190825 
L 622.45695 209.677547 
L 617.674148 245.626529 
L 612.891346 265.95312 
L 608.108544 295.080508 
L 603.325742 314.97136 
L 598.54294 311.535832 
L 593.760138 314.063215 
L 588.977336 313.511663 
L 584.194534 317.104482 
L 579.411732 309.942426 
L 574.62893 307.81443 
L 569.846128 294.135128 
L 565.063326 316.849716 
L 560.280524 299.521744 
L 555.497722 285.223514 
L 550.71492 272.609117 
L 545.932118 263.319538 
L 541.149315 276.508131 
L 536.366513 292.392228 
L 531.583711 301.064911 
L 526.800909 290.935157 
L 522.018107 301.920859 
L 517.235305 253.600805 
L 512.452503 268.346156 
L 507.669701 295.988399 
L 502.886899 292.405316 
L 498.104097 302.383941 
L 493.321295 281.736878 
" style="fill:none;stroke:#ffb94e;stroke-dasharray:3.6,1.8;stroke-dashoffset:0;stroke-width:0.3;"/>
   </g>
   <g id="line2d_58">
    <path clip-path="url(#pe5084e74ab)" d="M 794.637823 139.597472 
L 789.855021 139.445366 
L 785.072219 118.356492 
L 780.289417 122.827805 
L 775.506615 119.750978 
L 770.723813 121.071808 
L 765.941011 134.725185 
L 761.158209 141.640998 
L 756.375407 164.731973 
L 751.592605 183.427795 
L 746.809803 200.758696 
L 742.027001 210.429877 
L 737.244199 230.593482 
L 732.461397 236.457655 
L 727.678595 247.757907 
L 722.895793 240.549024 
L 718.112991 229.661229 
L 713.330188 233.968881 
L 708.547386 241.230729 
L 703.764584 237.344754 
L 698.981782 237.217386 
L 694.19898 246.287329 
L 689.416178 260.515799 
L 684.633376 264.282337 
L 679.850574 264.64814 
L 675.067772 246.043085 
L 670.28497 242.558999 
L 665.502168 214.474754 
L 660.719366 196.397811 
L 655.936564 171.228307 
L 651.153762 159.197662 
L 646.37096 169.850603 
L 641.588158 157.431879 
L 636.805356 163.160507 
L 632.022554 165.167285 
L 627.239752 216.609685 
L 622.45695 243.860161 
L 617.674148 275.269265 
L 612.891346 292.070173 
L 608.108544 321.449953 
L 603.325742 341.820249 
L 598.54294 340.516744 
L 593.760138 340.195098 
L 588.977336 338.657494 
L 584.194534 341.282428 
L 579.411732 334.520008 
L 574.62893 332.209071 
L 569.846128 321.147731 
L 565.063326 341.584874 
L 560.280524 324.349117 
L 555.497722 309.834996 
L 550.71492 293.999464 
L 545.932118 286.563716 
L 541.149315 299.139379 
L 536.366513 315.52332 
L 531.583711 321.57448 
L 526.800909 308.769564 
L 522.018107 314.854821 
L 517.235305 268.401525 
L 512.452503 283.951263 
L 507.669701 307.597589 
L 502.886899 307.597589 
L 498.104097 315.801416 
L 493.321295 297.66664 
" style="fill:none;stroke:#377eb8;stroke-linecap:round;stroke-width:1.5;"/>
   </g>
   <g id="line2d_59">
    <path clip-path="url(#pe5084e74ab)" d="M 469.407285 289.406493 
L 614.613155 289.406493 
" style="fill:none;stroke:#000000;stroke-dasharray:2.775,1.2;stroke-dashoffset:0;stroke-opacity:0.75;stroke-width:0.75;"/>
   </g>
   <g id="line2d_60">
    <path clip-path="url(#pe5084e74ab)" d="M 614.613155 184.849325 
L 799.420625 184.849325 
" style="fill:none;stroke:#000000;stroke-dasharray:2.775,1.2;stroke-dashoffset:0;stroke-opacity:0.75;stroke-width:0.75;"/>
   </g>
   <g id="patch_9">
    <path d="M 469.407285 414.247345 
L 469.407285 45.075113 
" style="fill:none;stroke:#262626;stroke-linecap:square;stroke-linejoin:miter;stroke-width:0.8;"/>
   </g>
   <g id="patch_10">
    <path d="M 488.538493 434.756913 
L 799.420625 434.756913 
" style="fill:none;stroke:#262626;stroke-linecap:square;stroke-linejoin:miter;stroke-width:0.8;"/>
   </g>
   <g id="patch_11">
    <path d="M 675.498262 359.971598 
Q 639.201088 344.472398 627.832316 292.18268 
" style="fill:none;stroke:#000000;stroke-linecap:round;stroke-width:0.75;"/>
    <path d="M 626.727796 296.516274 
L 627.832316 292.18268 
L 630.636479 295.666452 
" style="fill:none;stroke:#000000;stroke-linecap:round;stroke-width:0.75;"/>
   </g>
   <g id="text_32">
    <!-- 1947-1984 backward -->
    <g style="fill:#262626;" transform="translate(679.850574 360.246955)scale(0.1 -0.1)">
     <use xlink:href="#DejaVuSans-31"/>
     <use x="63.623047" xlink:href="#DejaVuSans-39"/>
     <use x="127.246094" xlink:href="#DejaVuSans-34"/>
     <use x="190.869141" xlink:href="#DejaVuSans-37"/>
     <use x="254.492188" xlink:href="#DejaVuSans-2d"/>
     <use x="290.576172" xlink:href="#DejaVuSans-31"/>
     <use x="354.199219" xlink:href="#DejaVuSans-39"/>
     <use x="417.822266" xlink:href="#DejaVuSans-38"/>
     <use x="481.445312" xlink:href="#DejaVuSans-34"/>
     <use x="545.068359" xlink:href="#DejaVuSans-20"/>
     <use x="576.855469" xlink:href="#DejaVuSans-62"/>
     <use x="640.332031" xlink:href="#DejaVuSans-61"/>
     <use x="701.611328" xlink:href="#DejaVuSans-63"/>
     <use x="756.591797" xlink:href="#DejaVuSans-6b"/>
     <use x="814.501953" xlink:href="#DejaVuSans-77"/>
     <use x="896.289062" xlink:href="#DejaVuSans-61"/>
     <use x="957.568359" xlink:href="#DejaVuSans-72"/>
     <use x="996.931641" xlink:href="#DejaVuSans-64"/>
    </g>
    <!-- looking average: 25.2% -->
    <g style="fill:#262626;" transform="translate(679.850574 371.444767)scale(0.1 -0.1)">
     <use xlink:href="#DejaVuSans-6c"/>
     <use x="27.783203" xlink:href="#DejaVuSans-6f"/>
     <use x="88.964844" xlink:href="#DejaVuSans-6f"/>
     <use x="150.146484" xlink:href="#DejaVuSans-6b"/>
     <use x="208.056641" xlink:href="#DejaVuSans-69"/>
     <use x="235.839844" xlink:href="#DejaVuSans-6e"/>
     <use x="299.21875" xlink:href="#DejaVuSans-67"/>
     <use x="362.695312" xlink:href="#DejaVuSans-20"/>
     <use x="394.482422" xlink:href="#DejaVuSans-61"/>
     <use x="455.761719" xlink:href="#DejaVuSans-76"/>
     <use x="514.941406" xlink:href="#DejaVuSans-65"/>
     <use x="576.464844" xlink:href="#DejaVuSans-72"/>
     <use x="617.578125" xlink:href="#DejaVuSans-61"/>
     <use x="678.857422" xlink:href="#DejaVuSans-67"/>
     <use x="742.333984" xlink:href="#DejaVuSans-65"/>
     <use x="803.857422" xlink:href="#DejaVuSans-3a"/>
     <use x="837.548828" xlink:href="#DejaVuSans-20"/>
     <use x="869.335938" xlink:href="#DejaVuSans-32"/>
     <use x="932.958984" xlink:href="#DejaVuSans-35"/>
     <use x="996.582031" xlink:href="#DejaVuSans-2e"/>
     <use x="1028.369141" xlink:href="#DejaVuSans-32"/>
     <use x="1091.992188" xlink:href="#DejaVuSans-25"/>
    </g>
   </g>
   <g id="patch_12">
    <path d="M 565.358269 206.838388 
Q 578.698596 177.276453 614.891643 184.288128 
" style="fill:none;stroke:#000000;stroke-linecap:round;stroke-width:0.75;"/>
    <path d="M 611.345044 181.56386 
L 614.891643 184.288128 
L 610.58427 185.490847 
" style="fill:none;stroke:#000000;stroke-linecap:round;stroke-width:0.75;"/>
   </g>
   <g id="text_33">
    <!-- 1984-2020 backward -->
    <g style="fill:#262626;" transform="translate(498.104097 218.772563)scale(0.1 -0.1)">
     <use xlink:href="#DejaVuSans-31"/>
     <use x="63.623047" xlink:href="#DejaVuSans-39"/>
     <use x="127.246094" xlink:href="#DejaVuSans-38"/>
     <use x="190.869141" xlink:href="#DejaVuSans-34"/>
     <use x="254.492188" xlink:href="#DejaVuSans-2d"/>
     <use x="290.576172" xlink:href="#DejaVuSans-32"/>
     <use x="354.199219" xlink:href="#DejaVuSans-30"/>
     <use x="417.822266" xlink:href="#DejaVuSans-32"/>
     <use x="481.445312" xlink:href="#DejaVuSans-30"/>
     <use x="545.068359" xlink:href="#DejaVuSans-20"/>
     <use x="576.855469" xlink:href="#DejaVuSans-62"/>
     <use x="640.332031" xlink:href="#DejaVuSans-61"/>
     <use x="701.611328" xlink:href="#DejaVuSans-63"/>
     <use x="756.591797" xlink:href="#DejaVuSans-6b"/>
     <use x="814.501953" xlink:href="#DejaVuSans-77"/>
     <use x="896.289062" xlink:href="#DejaVuSans-61"/>
     <use x="957.568359" xlink:href="#DejaVuSans-72"/>
     <use x="996.931641" xlink:href="#DejaVuSans-64"/>
    </g>
    <!-- looking average: 37.96% -->
    <g style="fill:#262626;" transform="translate(498.104097 229.970375)scale(0.1 -0.1)">
     <use xlink:href="#DejaVuSans-6c"/>
     <use x="27.783203" xlink:href="#DejaVuSans-6f"/>
     <use x="88.964844" xlink:href="#DejaVuSans-6f"/>
     <use x="150.146484" xlink:href="#DejaVuSans-6b"/>
     <use x="208.056641" xlink:href="#DejaVuSans-69"/>
     <use x="235.839844" xlink:href="#DejaVuSans-6e"/>
     <use x="299.21875" xlink:href="#DejaVuSans-67"/>
     <use x="362.695312" xlink:href="#DejaVuSans-20"/>
     <use x="394.482422" xlink:href="#DejaVuSans-61"/>
     <use x="455.761719" xlink:href="#DejaVuSans-76"/>
     <use x="514.941406" xlink:href="#DejaVuSans-65"/>
     <use x="576.464844" xlink:href="#DejaVuSans-72"/>
     <use x="617.578125" xlink:href="#DejaVuSans-61"/>
     <use x="678.857422" xlink:href="#DejaVuSans-67"/>
     <use x="742.333984" xlink:href="#DejaVuSans-65"/>
     <use x="803.857422" xlink:href="#DejaVuSans-3a"/>
     <use x="837.548828" xlink:href="#DejaVuSans-20"/>
     <use x="869.335938" xlink:href="#DejaVuSans-33"/>
     <use x="932.958984" xlink:href="#DejaVuSans-37"/>
     <use x="996.582031" xlink:href="#DejaVuSans-2e"/>
     <use x="1028.369141" xlink:href="#DejaVuSans-39"/>
     <use x="1091.992188" xlink:href="#DejaVuSans-36"/>
     <use x="1155.615234" xlink:href="#DejaVuSans-25"/>
    </g>
   </g>
   <g id="text_34">
    <!-- B. -->
    <g style="fill:#262626;" transform="translate(469.407285 25.43625)scale(0.24 -0.24)">
     <defs>
      <path d="M 1259 2228 
L 1259 519 
L 2272 519 
Q 2781 519 3026 730 
Q 3272 941 3272 1375 
Q 3272 1813 3026 2020 
Q 2781 2228 2272 2228 
L 1259 2228 
z
M 1259 4147 
L 1259 2741 
L 2194 2741 
Q 2656 2741 2882 2914 
Q 3109 3088 3109 3444 
Q 3109 3797 2882 3972 
Q 2656 4147 2194 4147 
L 1259 4147 
z
M 628 4666 
L 2241 4666 
Q 2963 4666 3353 4366 
Q 3744 4066 3744 3513 
Q 3744 3084 3544 2831 
Q 3344 2578 2956 2516 
Q 3422 2416 3680 2098 
Q 3938 1781 3938 1306 
Q 3938 681 3513 340 
Q 3088 0 2303 0 
L 628 0 
L 628 4666 
z
" id="DejaVuSans-42" transform="scale(0.015625)"/>
     </defs>
     <use xlink:href="#DejaVuSans-42"/>
     <use x="68.603516" xlink:href="#DejaVuSans-2e"/>
    </g>
   </g>
   <g id="legend_2">
    <g id="line2d_61">
     <path d="M 480.207285 60.410738 
L 504.207285 60.410738 
" style="fill:none;stroke:#377eb8;stroke-linecap:round;"/>
    </g>
    <g id="line2d_62"/>
    <g id="text_35">
     <!-- Guesser: F/(M+F) -->
     <g style="fill:#262626;" transform="translate(513.807285 64.610738)scale(0.12 -0.12)">
      <defs>
       <path d="M 2638 1797 
L 2638 2334 
L 4578 2338 
L 4578 638 
Q 4131 281 3656 101 
Q 3181 -78 2681 -78 
Q 2006 -78 1454 211 
Q 903 500 622 1047 
Q 341 1594 341 2269 
Q 341 2938 620 3517 
Q 900 4097 1425 4378 
Q 1950 4659 2634 4659 
Q 3131 4659 3532 4498 
Q 3934 4338 4162 4050 
Q 4391 3763 4509 3300 
L 3963 3150 
Q 3859 3500 3706 3700 
Q 3553 3900 3268 4020 
Q 2984 4141 2638 4141 
Q 2222 4141 1919 4014 
Q 1616 3888 1430 3681 
Q 1244 3475 1141 3228 
Q 966 2803 966 2306 
Q 966 1694 1177 1281 
Q 1388 869 1791 669 
Q 2194 469 2647 469 
Q 3041 469 3416 620 
Q 3791 772 3984 944 
L 3984 1797 
L 2638 1797 
z
" id="ArialMT-47" transform="scale(0.015625)"/>
       <path d="M 2597 0 
L 2597 488 
Q 2209 -75 1544 -75 
Q 1250 -75 995 37 
Q 741 150 617 320 
Q 494 491 444 738 
Q 409 903 409 1263 
L 409 3319 
L 972 3319 
L 972 1478 
Q 972 1038 1006 884 
Q 1059 663 1231 536 
Q 1403 409 1656 409 
Q 1909 409 2131 539 
Q 2353 669 2445 892 
Q 2538 1116 2538 1541 
L 2538 3319 
L 3100 3319 
L 3100 0 
L 2597 0 
z
" id="ArialMT-75" transform="scale(0.015625)"/>
      </defs>
      <use xlink:href="#ArialMT-47"/>
      <use x="77.783203" xlink:href="#ArialMT-75"/>
      <use x="133.398438" xlink:href="#ArialMT-65"/>
      <use x="189.013672" xlink:href="#ArialMT-73"/>
      <use x="239.013672" xlink:href="#ArialMT-73"/>
      <use x="289.013672" xlink:href="#ArialMT-65"/>
      <use x="344.628906" xlink:href="#ArialMT-72"/>
      <use x="377.929688" xlink:href="#ArialMT-3a"/>
      <use x="405.712891" xlink:href="#ArialMT-20"/>
      <use x="433.496094" xlink:href="#ArialMT-46"/>
      <use x="494.580078" xlink:href="#ArialMT-2f"/>
      <use x="522.363281" xlink:href="#ArialMT-28"/>
      <use x="555.664062" xlink:href="#ArialMT-4d"/>
      <use x="638.964844" xlink:href="#ArialMT-2b"/>
      <use x="697.363281" xlink:href="#ArialMT-46"/>
      <use x="758.447266" xlink:href="#ArialMT-29"/>
     </g>
    </g>
    <g id="patch_13">
     <path d="M 480.207285 81.725738 
L 504.207285 81.725738 
L 504.207285 73.325738 
L 480.207285 73.325738 
z
" style="fill:#ffb94e;fill-opacity:0.3;stroke:#000000;stroke-linejoin:miter;stroke-width:0.5;"/>
    </g>
    <g id="text_36">
     <!-- Guesser: CI's -->
     <g style="fill:#262626;" transform="translate(513.807285 81.725738)scale(0.12 -0.12)">
      <use xlink:href="#ArialMT-47"/>
      <use x="77.783203" xlink:href="#ArialMT-75"/>
      <use x="133.398438" xlink:href="#ArialMT-65"/>
      <use x="189.013672" xlink:href="#ArialMT-73"/>
      <use x="239.013672" xlink:href="#ArialMT-73"/>
      <use x="289.013672" xlink:href="#ArialMT-65"/>
      <use x="344.628906" xlink:href="#ArialMT-72"/>
      <use x="377.929688" xlink:href="#ArialMT-3a"/>
      <use x="405.712891" xlink:href="#ArialMT-20"/>
      <use x="433.496094" xlink:href="#ArialMT-43"/>
      <use x="505.712891" xlink:href="#ArialMT-49"/>
      <use x="533.496094" xlink:href="#ArialMT-27"/>
      <use x="552.587891" xlink:href="#ArialMT-73"/>
     </g>
    </g>
   </g>
  </g>
 </g>
 <defs>
  <clipPath id="p3f2b8c980d">
   <rect height="389.6818" width="330.01334" x="50.795625" y="45.075113"/>
  </clipPath>
  <clipPath id="pe5084e74ab">
   <rect height="389.6818" width="330.01334" x="469.407285" y="45.075113"/>
  </clipPath>
 </defs>
</svg>
