<?xml version="1.0" encoding="utf-8" standalone="no"?>
<!DOCTYPE svg PUBLIC "-//W3C//DTD SVG 1.1//EN"
  "http://www.w3.org/Graphics/SVG/1.1/DTD/svg11.dtd">
<!-- Created with matplotlib (https://matplotlib.org/) -->
<svg height="457.600038pt" version="1.1" viewBox="0 0 817.828552 457.600038" width="817.828552pt" xmlns="http://www.w3.org/2000/svg" xmlns:xlink="http://www.w3.org/1999/xlink">
 <defs>
  <style type="text/css">
*{stroke-linecap:butt;stroke-linejoin:round;}
  </style>
 </defs>
 <g id="figure_1">
  <g id="patch_1">
   <path d="M 0 457.600038 
L 817.828552 457.600038 
L 817.828552 0 
L 0 0 
z
" style="fill:#ffffff;"/>
  </g>
  <g id="axes_1">
   <g id="patch_2">
    <path d="M 50.104688 433.721913 
L 369.009572 433.721913 
L 369.009572 45.040113 
L 50.104688 45.040113 
z
" style="fill:#ffffff;"/>
   </g>
   <g id="matplotlib.axis_1">
    <g id="xtick_1">
     <g id="line2d_1">
      <path clip-path="url(#p388e3c87f7)" d="M 83.007572 433.721913 
L 83.007572 45.040113 
" style="fill:none;stroke:#cccccc;stroke-dasharray:2.96,1.28;stroke-dashoffset:0;stroke-opacity:0.2;stroke-width:0.8;"/>
     </g>
     <g id="line2d_2">
      <defs>
       <path d="M 0 0 
L 0 3.5 
" id="mcd2b013d07" style="stroke:#262626;stroke-width:0.8;"/>
      </defs>
      <g>
       <use style="fill:#262626;stroke:#262626;stroke-width:0.8;" x="83.007572" xlink:href="#mcd2b013d07" y="433.721913"/>
      </g>
     </g>
     <g id="text_1">
      <!-- 1960 -->
      <defs>
       <path d="M 12.40625 8.296875 
L 28.515625 8.296875 
L 28.515625 63.921875 
L 10.984375 60.40625 
L 10.984375 69.390625 
L 28.421875 72.90625 
L 38.28125 72.90625 
L 38.28125 8.296875 
L 54.390625 8.296875 
L 54.390625 0 
L 12.40625 0 
z
" id="DejaVuSans-49"/>
       <path d="M 10.984375 1.515625 
L 10.984375 10.5 
Q 14.703125 8.734375 18.5 7.8125 
Q 22.3125 6.890625 25.984375 6.890625 
Q 35.75 6.890625 40.890625 13.453125 
Q 46.046875 20.015625 46.78125 33.40625 
Q 43.953125 29.203125 39.59375 26.953125 
Q 35.25 24.703125 29.984375 24.703125 
Q 19.046875 24.703125 12.671875 31.3125 
Q 6.296875 37.9375 6.296875 49.421875 
Q 6.296875 60.640625 12.9375 67.421875 
Q 19.578125 74.21875 30.609375 74.21875 
Q 43.265625 74.21875 49.921875 64.515625 
Q 56.59375 54.828125 56.59375 36.375 
Q 56.59375 19.140625 48.40625 8.859375 
Q 40.234375 -1.421875 26.421875 -1.421875 
Q 22.703125 -1.421875 18.890625 -0.6875 
Q 15.09375 0.046875 10.984375 1.515625 
z
M 30.609375 32.421875 
Q 37.25 32.421875 41.125 36.953125 
Q 45.015625 41.5 45.015625 49.421875 
Q 45.015625 57.28125 41.125 61.84375 
Q 37.25 66.40625 30.609375 66.40625 
Q 23.96875 66.40625 20.09375 61.84375 
Q 16.21875 57.28125 16.21875 49.421875 
Q 16.21875 41.5 20.09375 36.953125 
Q 23.96875 32.421875 30.609375 32.421875 
z
" id="DejaVuSans-57"/>
       <path d="M 33.015625 40.375 
Q 26.375 40.375 22.484375 35.828125 
Q 18.609375 31.296875 18.609375 23.390625 
Q 18.609375 15.53125 22.484375 10.953125 
Q 26.375 6.390625 33.015625 6.390625 
Q 39.65625 6.390625 43.53125 10.953125 
Q 47.40625 15.53125 47.40625 23.390625 
Q 47.40625 31.296875 43.53125 35.828125 
Q 39.65625 40.375 33.015625 40.375 
z
M 52.59375 71.296875 
L 52.59375 62.3125 
Q 48.875 64.0625 45.09375 64.984375 
Q 41.3125 65.921875 37.59375 65.921875 
Q 27.828125 65.921875 22.671875 59.328125 
Q 17.53125 52.734375 16.796875 39.40625 
Q 19.671875 43.65625 24.015625 45.921875 
Q 28.375 48.1875 33.59375 48.1875 
Q 44.578125 48.1875 50.953125 41.515625 
Q 57.328125 34.859375 57.328125 23.390625 
Q 57.328125 12.15625 50.6875 5.359375 
Q 44.046875 -1.421875 33.015625 -1.421875 
Q 20.359375 -1.421875 13.671875 8.265625 
Q 6.984375 17.96875 6.984375 36.375 
Q 6.984375 53.65625 15.1875 63.9375 
Q 23.390625 74.21875 37.203125 74.21875 
Q 40.921875 74.21875 44.703125 73.484375 
Q 48.484375 72.75 52.59375 71.296875 
z
" id="DejaVuSans-54"/>
       <path d="M 31.78125 66.40625 
Q 24.171875 66.40625 20.328125 58.90625 
Q 16.5 51.421875 16.5 36.375 
Q 16.5 21.390625 20.328125 13.890625 
Q 24.171875 6.390625 31.78125 6.390625 
Q 39.453125 6.390625 43.28125 13.890625 
Q 47.125 21.390625 47.125 36.375 
Q 47.125 51.421875 43.28125 58.90625 
Q 39.453125 66.40625 31.78125 66.40625 
z
M 31.78125 74.21875 
Q 44.046875 74.21875 50.515625 64.515625 
Q 56.984375 54.828125 56.984375 36.375 
Q 56.984375 17.96875 50.515625 8.265625 
Q 44.046875 -1.421875 31.78125 -1.421875 
Q 19.53125 -1.421875 13.0625 8.265625 
Q 6.59375 17.96875 6.59375 36.375 
Q 6.59375 54.828125 13.0625 64.515625 
Q 19.53125 74.21875 31.78125 74.21875 
z
" id="DejaVuSans-48"/>
      </defs>
      <g style="fill:#262626;" transform="translate(70.282572 448.32035)scale(0.1 -0.1)">
       <use xlink:href="#DejaVuSans-49"/>
       <use x="63.623047" xlink:href="#DejaVuSans-57"/>
       <use x="127.246094" xlink:href="#DejaVuSans-54"/>
       <use x="190.869141" xlink:href="#DejaVuSans-48"/>
      </g>
     </g>
    </g>
    <g id="xtick_2">
     <g id="line2d_3">
      <path clip-path="url(#p388e3c87f7)" d="M 129.025593 433.721913 
L 129.025593 45.040113 
" style="fill:none;stroke:#cccccc;stroke-dasharray:2.96,1.28;stroke-dashoffset:0;stroke-opacity:0.2;stroke-width:0.8;"/>
     </g>
     <g id="line2d_4">
      <g>
       <use style="fill:#262626;stroke:#262626;stroke-width:0.8;" x="129.025593" xlink:href="#mcd2b013d07" y="433.721913"/>
      </g>
     </g>
     <g id="text_2">
      <!-- 1970 -->
      <defs>
       <path d="M 8.203125 72.90625 
L 55.078125 72.90625 
L 55.078125 68.703125 
L 28.609375 0 
L 18.3125 0 
L 43.21875 64.59375 
L 8.203125 64.59375 
z
" id="DejaVuSans-55"/>
      </defs>
      <g style="fill:#262626;" transform="translate(116.300593 448.32035)scale(0.1 -0.1)">
       <use xlink:href="#DejaVuSans-49"/>
       <use x="63.623047" xlink:href="#DejaVuSans-57"/>
       <use x="127.246094" xlink:href="#DejaVuSans-55"/>
       <use x="190.869141" xlink:href="#DejaVuSans-48"/>
      </g>
     </g>
    </g>
    <g id="xtick_3">
     <g id="line2d_5">
      <path clip-path="url(#p388e3c87f7)" d="M 175.043614 433.721913 
L 175.043614 45.040113 
" style="fill:none;stroke:#cccccc;stroke-dasharray:2.96,1.28;stroke-dashoffset:0;stroke-opacity:0.2;stroke-width:0.8;"/>
     </g>
     <g id="line2d_6">
      <g>
       <use style="fill:#262626;stroke:#262626;stroke-width:0.8;" x="175.043614" xlink:href="#mcd2b013d07" y="433.721913"/>
      </g>
     </g>
     <g id="text_3">
      <!-- 1980 -->
      <defs>
       <path d="M 31.78125 34.625 
Q 24.75 34.625 20.71875 30.859375 
Q 16.703125 27.09375 16.703125 20.515625 
Q 16.703125 13.921875 20.71875 10.15625 
Q 24.75 6.390625 31.78125 6.390625 
Q 38.8125 6.390625 42.859375 10.171875 
Q 46.921875 13.96875 46.921875 20.515625 
Q 46.921875 27.09375 42.890625 30.859375 
Q 38.875 34.625 31.78125 34.625 
z
M 21.921875 38.8125 
Q 15.578125 40.375 12.03125 44.71875 
Q 8.5 49.078125 8.5 55.328125 
Q 8.5 64.0625 14.71875 69.140625 
Q 20.953125 74.21875 31.78125 74.21875 
Q 42.671875 74.21875 48.875 69.140625 
Q 55.078125 64.0625 55.078125 55.328125 
Q 55.078125 49.078125 51.53125 44.71875 
Q 48 40.375 41.703125 38.8125 
Q 48.828125 37.15625 52.796875 32.3125 
Q 56.78125 27.484375 56.78125 20.515625 
Q 56.78125 9.90625 50.3125 4.234375 
Q 43.84375 -1.421875 31.78125 -1.421875 
Q 19.734375 -1.421875 13.25 4.234375 
Q 6.78125 9.90625 6.78125 20.515625 
Q 6.78125 27.484375 10.78125 32.3125 
Q 14.796875 37.15625 21.921875 38.8125 
z
M 18.3125 54.390625 
Q 18.3125 48.734375 21.84375 45.5625 
Q 25.390625 42.390625 31.78125 42.390625 
Q 38.140625 42.390625 41.71875 45.5625 
Q 45.3125 48.734375 45.3125 54.390625 
Q 45.3125 60.0625 41.71875 63.234375 
Q 38.140625 66.40625 31.78125 66.40625 
Q 25.390625 66.40625 21.84375 63.234375 
Q 18.3125 60.0625 18.3125 54.390625 
z
" id="DejaVuSans-56"/>
      </defs>
      <g style="fill:#262626;" transform="translate(162.318614 448.32035)scale(0.1 -0.1)">
       <use xlink:href="#DejaVuSans-49"/>
       <use x="63.623047" xlink:href="#DejaVuSans-57"/>
       <use x="127.246094" xlink:href="#DejaVuSans-56"/>
       <use x="190.869141" xlink:href="#DejaVuSans-48"/>
      </g>
     </g>
    </g>
    <g id="xtick_4">
     <g id="line2d_7">
      <path clip-path="url(#p388e3c87f7)" d="M 221.061635 433.721913 
L 221.061635 45.040113 
" style="fill:none;stroke:#cccccc;stroke-dasharray:2.96,1.28;stroke-dashoffset:0;stroke-opacity:0.2;stroke-width:0.8;"/>
     </g>
     <g id="line2d_8">
      <g>
       <use style="fill:#262626;stroke:#262626;stroke-width:0.8;" x="221.061635" xlink:href="#mcd2b013d07" y="433.721913"/>
      </g>
     </g>
     <g id="text_4">
      <!-- 1990 -->
      <g style="fill:#262626;" transform="translate(208.336635 448.32035)scale(0.1 -0.1)">
       <use xlink:href="#DejaVuSans-49"/>
       <use x="63.623047" xlink:href="#DejaVuSans-57"/>
       <use x="127.246094" xlink:href="#DejaVuSans-57"/>
       <use x="190.869141" xlink:href="#DejaVuSans-48"/>
      </g>
     </g>
    </g>
    <g id="xtick_5">
     <g id="line2d_9">
      <path clip-path="url(#p388e3c87f7)" d="M 267.079656 433.721913 
L 267.079656 45.040113 
" style="fill:none;stroke:#cccccc;stroke-dasharray:2.96,1.28;stroke-dashoffset:0;stroke-opacity:0.2;stroke-width:0.8;"/>
     </g>
     <g id="line2d_10">
      <g>
       <use style="fill:#262626;stroke:#262626;stroke-width:0.8;" x="267.079656" xlink:href="#mcd2b013d07" y="433.721913"/>
      </g>
     </g>
     <g id="text_5">
      <!-- 2000 -->
      <defs>
       <path d="M 19.1875 8.296875 
L 53.609375 8.296875 
L 53.609375 0 
L 7.328125 0 
L 7.328125 8.296875 
Q 12.9375 14.109375 22.625 23.890625 
Q 32.328125 33.6875 34.8125 36.53125 
Q 39.546875 41.84375 41.421875 45.53125 
Q 43.3125 49.21875 43.3125 52.78125 
Q 43.3125 58.59375 39.234375 62.25 
Q 35.15625 65.921875 28.609375 65.921875 
Q 23.96875 65.921875 18.8125 64.3125 
Q 13.671875 62.703125 7.8125 59.421875 
L 7.8125 69.390625 
Q 13.765625 71.78125 18.9375 73 
Q 24.125 74.21875 28.421875 74.21875 
Q 39.75 74.21875 46.484375 68.546875 
Q 53.21875 62.890625 53.21875 53.421875 
Q 53.21875 48.921875 51.53125 44.890625 
Q 49.859375 40.875 45.40625 35.40625 
Q 44.1875 33.984375 37.640625 27.21875 
Q 31.109375 20.453125 19.1875 8.296875 
z
" id="DejaVuSans-50"/>
      </defs>
      <g style="fill:#262626;" transform="translate(254.354656 448.32035)scale(0.1 -0.1)">
       <use xlink:href="#DejaVuSans-50"/>
       <use x="63.623047" xlink:href="#DejaVuSans-48"/>
       <use x="127.246094" xlink:href="#DejaVuSans-48"/>
       <use x="190.869141" xlink:href="#DejaVuSans-48"/>
      </g>
     </g>
    </g>
    <g id="xtick_6">
     <g id="line2d_11">
      <path clip-path="url(#p388e3c87f7)" d="M 313.097677 433.721913 
L 313.097677 45.040113 
" style="fill:none;stroke:#cccccc;stroke-dasharray:2.96,1.28;stroke-dashoffset:0;stroke-opacity:0.2;stroke-width:0.8;"/>
     </g>
     <g id="line2d_12">
      <g>
       <use style="fill:#262626;stroke:#262626;stroke-width:0.8;" x="313.097677" xlink:href="#mcd2b013d07" y="433.721913"/>
      </g>
     </g>
     <g id="text_6">
      <!-- 2010 -->
      <g style="fill:#262626;" transform="translate(300.372677 448.32035)scale(0.1 -0.1)">
       <use xlink:href="#DejaVuSans-50"/>
       <use x="63.623047" xlink:href="#DejaVuSans-48"/>
       <use x="127.246094" xlink:href="#DejaVuSans-49"/>
       <use x="190.869141" xlink:href="#DejaVuSans-48"/>
      </g>
     </g>
    </g>
    <g id="xtick_7">
     <g id="line2d_13">
      <path clip-path="url(#p388e3c87f7)" d="M 359.115698 433.721913 
L 359.115698 45.040113 
" style="fill:none;stroke:#cccccc;stroke-dasharray:2.96,1.28;stroke-dashoffset:0;stroke-opacity:0.2;stroke-width:0.8;"/>
     </g>
     <g id="line2d_14">
      <g>
       <use style="fill:#262626;stroke:#262626;stroke-width:0.8;" x="359.115698" xlink:href="#mcd2b013d07" y="433.721913"/>
      </g>
     </g>
     <g id="text_7">
      <!-- 2020 -->
      <g style="fill:#262626;" transform="translate(346.390698 448.32035)scale(0.1 -0.1)">
       <use xlink:href="#DejaVuSans-50"/>
       <use x="63.623047" xlink:href="#DejaVuSans-48"/>
       <use x="127.246094" xlink:href="#DejaVuSans-50"/>
       <use x="190.869141" xlink:href="#DejaVuSans-48"/>
      </g>
     </g>
    </g>
   </g>
   <g id="matplotlib.axis_2">
    <g id="ytick_1">
     <g id="line2d_15">
      <path clip-path="url(#p388e3c87f7)" d="M 50.104688 433.721913 
L 369.009572 433.721913 
" style="fill:none;stroke:#cccccc;stroke-dasharray:2.96,1.28;stroke-dashoffset:0;stroke-opacity:0.2;stroke-width:0.8;"/>
     </g>
     <g id="line2d_16">
      <defs>
       <path d="M 0 0 
L -3.5 0 
" id="ma17e870432" style="stroke:#262626;stroke-width:0.8;"/>
      </defs>
      <g>
       <use style="fill:#262626;stroke:#262626;stroke-width:0.8;" x="50.104688" xlink:href="#ma17e870432" y="433.721913"/>
      </g>
     </g>
     <g id="text_8">
      <!-- 10% -->
      <defs>
       <path d="M 72.703125 32.078125 
Q 68.453125 32.078125 66.03125 28.46875 
Q 63.625 24.859375 63.625 18.40625 
Q 63.625 12.0625 66.03125 8.421875 
Q 68.453125 4.78125 72.703125 4.78125 
Q 76.859375 4.78125 79.265625 8.421875 
Q 81.6875 12.0625 81.6875 18.40625 
Q 81.6875 24.8125 79.265625 28.4375 
Q 76.859375 32.078125 72.703125 32.078125 
z
M 72.703125 38.28125 
Q 80.421875 38.28125 84.953125 32.90625 
Q 89.5 27.546875 89.5 18.40625 
Q 89.5 9.28125 84.9375 3.921875 
Q 80.375 -1.421875 72.703125 -1.421875 
Q 64.890625 -1.421875 60.34375 3.921875 
Q 55.8125 9.28125 55.8125 18.40625 
Q 55.8125 27.59375 60.375 32.9375 
Q 64.9375 38.28125 72.703125 38.28125 
z
M 22.3125 68.015625 
Q 18.109375 68.015625 15.6875 64.375 
Q 13.28125 60.75 13.28125 54.390625 
Q 13.28125 47.953125 15.671875 44.328125 
Q 18.0625 40.71875 22.3125 40.71875 
Q 26.5625 40.71875 28.96875 44.328125 
Q 31.390625 47.953125 31.390625 54.390625 
Q 31.390625 60.6875 28.953125 64.34375 
Q 26.515625 68.015625 22.3125 68.015625 
z
M 66.40625 74.21875 
L 74.21875 74.21875 
L 28.609375 -1.421875 
L 20.796875 -1.421875 
z
M 22.3125 74.21875 
Q 30.03125 74.21875 34.609375 68.875 
Q 39.203125 63.53125 39.203125 54.390625 
Q 39.203125 45.171875 34.640625 39.84375 
Q 30.078125 34.515625 22.3125 34.515625 
Q 14.546875 34.515625 10.03125 39.859375 
Q 5.515625 45.21875 5.515625 54.390625 
Q 5.515625 63.484375 10.046875 68.84375 
Q 14.59375 74.21875 22.3125 74.21875 
z
" id="DejaVuSans-37"/>
      </defs>
      <g style="fill:#262626;" transform="translate(20.878125 437.521132)scale(0.1 -0.1)">
       <use xlink:href="#DejaVuSans-49"/>
       <use x="63.623047" xlink:href="#DejaVuSans-48"/>
       <use x="127.246094" xlink:href="#DejaVuSans-37"/>
      </g>
     </g>
    </g>
    <g id="ytick_2">
     <g id="line2d_17">
      <path clip-path="url(#p388e3c87f7)" d="M 50.104688 390.535046 
L 369.009572 390.535046 
" style="fill:none;stroke:#cccccc;stroke-dasharray:2.96,1.28;stroke-dashoffset:0;stroke-opacity:0.2;stroke-width:0.8;"/>
     </g>
     <g id="line2d_18">
      <g>
       <use style="fill:#262626;stroke:#262626;stroke-width:0.8;" x="50.104688" xlink:href="#ma17e870432" y="390.535046"/>
      </g>
     </g>
     <g id="text_9">
      <!-- 15% -->
      <defs>
       <path d="M 10.796875 72.90625 
L 49.515625 72.90625 
L 49.515625 64.59375 
L 19.828125 64.59375 
L 19.828125 46.734375 
Q 21.96875 47.46875 24.109375 47.828125 
Q 26.265625 48.1875 28.421875 48.1875 
Q 40.625 48.1875 47.75 41.5 
Q 54.890625 34.8125 54.890625 23.390625 
Q 54.890625 11.625 47.5625 5.09375 
Q 40.234375 -1.421875 26.90625 -1.421875 
Q 22.3125 -1.421875 17.546875 -0.640625 
Q 12.796875 0.140625 7.71875 1.703125 
L 7.71875 11.625 
Q 12.109375 9.234375 16.796875 8.0625 
Q 21.484375 6.890625 26.703125 6.890625 
Q 35.15625 6.890625 40.078125 11.328125 
Q 45.015625 15.765625 45.015625 23.390625 
Q 45.015625 31 40.078125 35.4375 
Q 35.15625 39.890625 26.703125 39.890625 
Q 22.75 39.890625 18.8125 39.015625 
Q 14.890625 38.140625 10.796875 36.28125 
z
" id="DejaVuSans-53"/>
      </defs>
      <g style="fill:#262626;" transform="translate(20.878125 394.334265)scale(0.1 -0.1)">
       <use xlink:href="#DejaVuSans-49"/>
       <use x="63.623047" xlink:href="#DejaVuSans-53"/>
       <use x="127.246094" xlink:href="#DejaVuSans-37"/>
      </g>
     </g>
    </g>
    <g id="ytick_3">
     <g id="line2d_19">
      <path clip-path="url(#p388e3c87f7)" d="M 50.104688 347.34818 
L 369.009572 347.34818 
" style="fill:none;stroke:#cccccc;stroke-dasharray:2.96,1.28;stroke-dashoffset:0;stroke-opacity:0.2;stroke-width:0.8;"/>
     </g>
     <g id="line2d_20">
      <g>
       <use style="fill:#262626;stroke:#262626;stroke-width:0.8;" x="50.104688" xlink:href="#ma17e870432" y="347.34818"/>
      </g>
     </g>
     <g id="text_10">
      <!-- 20% -->
      <g style="fill:#262626;" transform="translate(20.878125 351.147398)scale(0.1 -0.1)">
       <use xlink:href="#DejaVuSans-50"/>
       <use x="63.623047" xlink:href="#DejaVuSans-48"/>
       <use x="127.246094" xlink:href="#DejaVuSans-37"/>
      </g>
     </g>
    </g>
    <g id="ytick_4">
     <g id="line2d_21">
      <path clip-path="url(#p388e3c87f7)" d="M 50.104688 304.161313 
L 369.009572 304.161313 
" style="fill:none;stroke:#cccccc;stroke-dasharray:2.96,1.28;stroke-dashoffset:0;stroke-opacity:0.2;stroke-width:0.8;"/>
     </g>
     <g id="line2d_22">
      <g>
       <use style="fill:#262626;stroke:#262626;stroke-width:0.8;" x="50.104688" xlink:href="#ma17e870432" y="304.161313"/>
      </g>
     </g>
     <g id="text_11">
      <!-- 25% -->
      <g style="fill:#262626;" transform="translate(20.878125 307.960532)scale(0.1 -0.1)">
       <use xlink:href="#DejaVuSans-50"/>
       <use x="63.623047" xlink:href="#DejaVuSans-53"/>
       <use x="127.246094" xlink:href="#DejaVuSans-37"/>
      </g>
     </g>
    </g>
    <g id="ytick_5">
     <g id="line2d_23">
      <path clip-path="url(#p388e3c87f7)" d="M 50.104688 260.974446 
L 369.009572 260.974446 
" style="fill:none;stroke:#cccccc;stroke-dasharray:2.96,1.28;stroke-dashoffset:0;stroke-opacity:0.2;stroke-width:0.8;"/>
     </g>
     <g id="line2d_24">
      <g>
       <use style="fill:#262626;stroke:#262626;stroke-width:0.8;" x="50.104688" xlink:href="#ma17e870432" y="260.974446"/>
      </g>
     </g>
     <g id="text_12">
      <!-- 30% -->
      <defs>
       <path d="M 40.578125 39.3125 
Q 47.65625 37.796875 51.625 33 
Q 55.609375 28.21875 55.609375 21.1875 
Q 55.609375 10.40625 48.1875 4.484375 
Q 40.765625 -1.421875 27.09375 -1.421875 
Q 22.515625 -1.421875 17.65625 -0.515625 
Q 12.796875 0.390625 7.625 2.203125 
L 7.625 11.71875 
Q 11.71875 9.328125 16.59375 8.109375 
Q 21.484375 6.890625 26.8125 6.890625 
Q 36.078125 6.890625 40.9375 10.546875 
Q 45.796875 14.203125 45.796875 21.1875 
Q 45.796875 27.640625 41.28125 31.265625 
Q 36.765625 34.90625 28.71875 34.90625 
L 20.21875 34.90625 
L 20.21875 43.015625 
L 29.109375 43.015625 
Q 36.375 43.015625 40.234375 45.921875 
Q 44.09375 48.828125 44.09375 54.296875 
Q 44.09375 59.90625 40.109375 62.90625 
Q 36.140625 65.921875 28.71875 65.921875 
Q 24.65625 65.921875 20.015625 65.03125 
Q 15.375 64.15625 9.8125 62.3125 
L 9.8125 71.09375 
Q 15.4375 72.65625 20.34375 73.4375 
Q 25.25 74.21875 29.59375 74.21875 
Q 40.828125 74.21875 47.359375 69.109375 
Q 53.90625 64.015625 53.90625 55.328125 
Q 53.90625 49.265625 50.4375 45.09375 
Q 46.96875 40.921875 40.578125 39.3125 
z
" id="DejaVuSans-51"/>
      </defs>
      <g style="fill:#262626;" transform="translate(20.878125 264.773665)scale(0.1 -0.1)">
       <use xlink:href="#DejaVuSans-51"/>
       <use x="63.623047" xlink:href="#DejaVuSans-48"/>
       <use x="127.246094" xlink:href="#DejaVuSans-37"/>
      </g>
     </g>
    </g>
    <g id="ytick_6">
     <g id="line2d_25">
      <path clip-path="url(#p388e3c87f7)" d="M 50.104688 217.78758 
L 369.009572 217.78758 
" style="fill:none;stroke:#cccccc;stroke-dasharray:2.96,1.28;stroke-dashoffset:0;stroke-opacity:0.2;stroke-width:0.8;"/>
     </g>
     <g id="line2d_26">
      <g>
       <use style="fill:#262626;stroke:#262626;stroke-width:0.8;" x="50.104688" xlink:href="#ma17e870432" y="217.78758"/>
      </g>
     </g>
     <g id="text_13">
      <!-- 35% -->
      <g style="fill:#262626;" transform="translate(20.878125 221.586798)scale(0.1 -0.1)">
       <use xlink:href="#DejaVuSans-51"/>
       <use x="63.623047" xlink:href="#DejaVuSans-53"/>
       <use x="127.246094" xlink:href="#DejaVuSans-37"/>
      </g>
     </g>
    </g>
    <g id="ytick_7">
     <g id="line2d_27">
      <path clip-path="url(#p388e3c87f7)" d="M 50.104688 174.600713 
L 369.009572 174.600713 
" style="fill:none;stroke:#cccccc;stroke-dasharray:2.96,1.28;stroke-dashoffset:0;stroke-opacity:0.2;stroke-width:0.8;"/>
     </g>
     <g id="line2d_28">
      <g>
       <use style="fill:#262626;stroke:#262626;stroke-width:0.8;" x="50.104688" xlink:href="#ma17e870432" y="174.600713"/>
      </g>
     </g>
     <g id="text_14">
      <!-- 40% -->
      <defs>
       <path d="M 37.796875 64.3125 
L 12.890625 25.390625 
L 37.796875 25.390625 
z
M 35.203125 72.90625 
L 47.609375 72.90625 
L 47.609375 25.390625 
L 58.015625 25.390625 
L 58.015625 17.1875 
L 47.609375 17.1875 
L 47.609375 0 
L 37.796875 0 
L 37.796875 17.1875 
L 4.890625 17.1875 
L 4.890625 26.703125 
z
" id="DejaVuSans-52"/>
      </defs>
      <g style="fill:#262626;" transform="translate(20.878125 178.399932)scale(0.1 -0.1)">
       <use xlink:href="#DejaVuSans-52"/>
       <use x="63.623047" xlink:href="#DejaVuSans-48"/>
       <use x="127.246094" xlink:href="#DejaVuSans-37"/>
      </g>
     </g>
    </g>
    <g id="ytick_8">
     <g id="line2d_29">
      <path clip-path="url(#p388e3c87f7)" d="M 50.104688 131.413846 
L 369.009572 131.413846 
" style="fill:none;stroke:#cccccc;stroke-dasharray:2.96,1.28;stroke-dashoffset:0;stroke-opacity:0.2;stroke-width:0.8;"/>
     </g>
     <g id="line2d_30">
      <g>
       <use style="fill:#262626;stroke:#262626;stroke-width:0.8;" x="50.104688" xlink:href="#ma17e870432" y="131.413846"/>
      </g>
     </g>
     <g id="text_15">
      <!-- 45% -->
      <g style="fill:#262626;" transform="translate(20.878125 135.213065)scale(0.1 -0.1)">
       <use xlink:href="#DejaVuSans-52"/>
       <use x="63.623047" xlink:href="#DejaVuSans-53"/>
       <use x="127.246094" xlink:href="#DejaVuSans-37"/>
      </g>
     </g>
    </g>
    <g id="ytick_9">
     <g id="line2d_31">
      <path clip-path="url(#p388e3c87f7)" d="M 50.104688 88.22698 
L 369.009572 88.22698 
" style="fill:none;stroke:#cccccc;stroke-dasharray:2.96,1.28;stroke-dashoffset:0;stroke-opacity:0.2;stroke-width:0.8;"/>
     </g>
     <g id="line2d_32">
      <g>
       <use style="fill:#262626;stroke:#262626;stroke-width:0.8;" x="50.104688" xlink:href="#ma17e870432" y="88.22698"/>
      </g>
     </g>
     <g id="text_16">
      <!-- 50% -->
      <g style="fill:#262626;" transform="translate(20.878125 92.026198)scale(0.1 -0.1)">
       <use xlink:href="#DejaVuSans-53"/>
       <use x="63.623047" xlink:href="#DejaVuSans-48"/>
       <use x="127.246094" xlink:href="#DejaVuSans-37"/>
      </g>
     </g>
    </g>
    <g id="ytick_10">
     <g id="line2d_33">
      <path clip-path="url(#p388e3c87f7)" d="M 50.104688 45.040113 
L 369.009572 45.040113 
" style="fill:none;stroke:#cccccc;stroke-dasharray:2.96,1.28;stroke-dashoffset:0;stroke-opacity:0.2;stroke-width:0.8;"/>
     </g>
     <g id="line2d_34">
      <g>
       <use style="fill:#262626;stroke:#262626;stroke-width:0.8;" x="50.104688" xlink:href="#ma17e870432" y="45.040113"/>
      </g>
     </g>
     <g id="text_17">
      <!-- 55% -->
      <g style="fill:#262626;" transform="translate(20.878125 48.839332)scale(0.1 -0.1)">
       <use xlink:href="#DejaVuSans-53"/>
       <use x="63.623047" xlink:href="#DejaVuSans-53"/>
       <use x="127.246094" xlink:href="#DejaVuSans-37"/>
      </g>
     </g>
    </g>
    <g id="text_18">
     <!-- Female Authorship: Ten Year Rolling Interval -->
     <defs>
      <path d="M 9.8125 72.90625 
L 51.703125 72.90625 
L 51.703125 64.59375 
L 19.671875 64.59375 
L 19.671875 43.109375 
L 48.578125 43.109375 
L 48.578125 34.8125 
L 19.671875 34.8125 
L 19.671875 0 
L 9.8125 0 
z
" id="DejaVuSans-70"/>
      <path d="M 56.203125 29.59375 
L 56.203125 25.203125 
L 14.890625 25.203125 
Q 15.484375 15.921875 20.484375 11.0625 
Q 25.484375 6.203125 34.421875 6.203125 
Q 39.59375 6.203125 44.453125 7.46875 
Q 49.3125 8.734375 54.109375 11.28125 
L 54.109375 2.78125 
Q 49.265625 0.734375 44.1875 -0.34375 
Q 39.109375 -1.421875 33.890625 -1.421875 
Q 20.796875 -1.421875 13.15625 6.1875 
Q 5.515625 13.8125 5.515625 26.8125 
Q 5.515625 40.234375 12.765625 48.109375 
Q 20.015625 56 32.328125 56 
Q 43.359375 56 49.78125 48.890625 
Q 56.203125 41.796875 56.203125 29.59375 
z
M 47.21875 32.234375 
Q 47.125 39.59375 43.09375 43.984375 
Q 39.0625 48.390625 32.421875 48.390625 
Q 24.90625 48.390625 20.390625 44.140625 
Q 15.875 39.890625 15.1875 32.171875 
z
" id="DejaVuSans-101"/>
      <path d="M 52 44.1875 
Q 55.375 50.25 60.0625 53.125 
Q 64.75 56 71.09375 56 
Q 79.640625 56 84.28125 50.015625 
Q 88.921875 44.046875 88.921875 33.015625 
L 88.921875 0 
L 79.890625 0 
L 79.890625 32.71875 
Q 79.890625 40.578125 77.09375 44.375 
Q 74.3125 48.1875 68.609375 48.1875 
Q 61.625 48.1875 57.5625 43.546875 
Q 53.515625 38.921875 53.515625 30.90625 
L 53.515625 0 
L 44.484375 0 
L 44.484375 32.71875 
Q 44.484375 40.625 41.703125 44.40625 
Q 38.921875 48.1875 33.109375 48.1875 
Q 26.21875 48.1875 22.15625 43.53125 
Q 18.109375 38.875 18.109375 30.90625 
L 18.109375 0 
L 9.078125 0 
L 9.078125 54.6875 
L 18.109375 54.6875 
L 18.109375 46.1875 
Q 21.1875 51.21875 25.484375 53.609375 
Q 29.78125 56 35.6875 56 
Q 41.65625 56 45.828125 52.96875 
Q 50 49.953125 52 44.1875 
z
" id="DejaVuSans-109"/>
      <path d="M 34.28125 27.484375 
Q 23.390625 27.484375 19.1875 25 
Q 14.984375 22.515625 14.984375 16.5 
Q 14.984375 11.71875 18.140625 8.90625 
Q 21.296875 6.109375 26.703125 6.109375 
Q 34.1875 6.109375 38.703125 11.40625 
Q 43.21875 16.703125 43.21875 25.484375 
L 43.21875 27.484375 
z
M 52.203125 31.203125 
L 52.203125 0 
L 43.21875 0 
L 43.21875 8.296875 
Q 40.140625 3.328125 35.546875 0.953125 
Q 30.953125 -1.421875 24.3125 -1.421875 
Q 15.921875 -1.421875 10.953125 3.296875 
Q 6 8.015625 6 15.921875 
Q 6 25.140625 12.171875 29.828125 
Q 18.359375 34.515625 30.609375 34.515625 
L 43.21875 34.515625 
L 43.21875 35.40625 
Q 43.21875 41.609375 39.140625 45 
Q 35.0625 48.390625 27.6875 48.390625 
Q 23 48.390625 18.546875 47.265625 
Q 14.109375 46.140625 10.015625 43.890625 
L 10.015625 52.203125 
Q 14.9375 54.109375 19.578125 55.046875 
Q 24.21875 56 28.609375 56 
Q 40.484375 56 46.34375 49.84375 
Q 52.203125 43.703125 52.203125 31.203125 
z
" id="DejaVuSans-97"/>
      <path d="M 9.421875 75.984375 
L 18.40625 75.984375 
L 18.40625 0 
L 9.421875 0 
z
" id="DejaVuSans-108"/>
      <path id="DejaVuSans-32"/>
      <path d="M 34.1875 63.1875 
L 20.796875 26.90625 
L 47.609375 26.90625 
z
M 28.609375 72.90625 
L 39.796875 72.90625 
L 67.578125 0 
L 57.328125 0 
L 50.6875 18.703125 
L 17.828125 18.703125 
L 11.1875 0 
L 0.78125 0 
z
" id="DejaVuSans-65"/>
      <path d="M 8.5 21.578125 
L 8.5 54.6875 
L 17.484375 54.6875 
L 17.484375 21.921875 
Q 17.484375 14.15625 20.5 10.265625 
Q 23.53125 6.390625 29.59375 6.390625 
Q 36.859375 6.390625 41.078125 11.03125 
Q 45.3125 15.671875 45.3125 23.6875 
L 45.3125 54.6875 
L 54.296875 54.6875 
L 54.296875 0 
L 45.3125 0 
L 45.3125 8.40625 
Q 42.046875 3.421875 37.71875 1 
Q 33.40625 -1.421875 27.6875 -1.421875 
Q 18.265625 -1.421875 13.375 4.4375 
Q 8.5 10.296875 8.5 21.578125 
z
M 31.109375 56 
z
" id="DejaVuSans-117"/>
      <path d="M 18.3125 70.21875 
L 18.3125 54.6875 
L 36.8125 54.6875 
L 36.8125 47.703125 
L 18.3125 47.703125 
L 18.3125 18.015625 
Q 18.3125 11.328125 20.140625 9.421875 
Q 21.96875 7.515625 27.59375 7.515625 
L 36.8125 7.515625 
L 36.8125 0 
L 27.59375 0 
Q 17.1875 0 13.234375 3.875 
Q 9.28125 7.765625 9.28125 18.015625 
L 9.28125 47.703125 
L 2.6875 47.703125 
L 2.6875 54.6875 
L 9.28125 54.6875 
L 9.28125 70.21875 
z
" id="DejaVuSans-116"/>
      <path d="M 54.890625 33.015625 
L 54.890625 0 
L 45.90625 0 
L 45.90625 32.71875 
Q 45.90625 40.484375 42.875 44.328125 
Q 39.84375 48.1875 33.796875 48.1875 
Q 26.515625 48.1875 22.3125 43.546875 
Q 18.109375 38.921875 18.109375 30.90625 
L 18.109375 0 
L 9.078125 0 
L 9.078125 75.984375 
L 18.109375 75.984375 
L 18.109375 46.1875 
Q 21.34375 51.125 25.703125 53.5625 
Q 30.078125 56 35.796875 56 
Q 45.21875 56 50.046875 50.171875 
Q 54.890625 44.34375 54.890625 33.015625 
z
" id="DejaVuSans-104"/>
      <path d="M 30.609375 48.390625 
Q 23.390625 48.390625 19.1875 42.75 
Q 14.984375 37.109375 14.984375 27.296875 
Q 14.984375 17.484375 19.15625 11.84375 
Q 23.34375 6.203125 30.609375 6.203125 
Q 37.796875 6.203125 41.984375 11.859375 
Q 46.1875 17.53125 46.1875 27.296875 
Q 46.1875 37.015625 41.984375 42.703125 
Q 37.796875 48.390625 30.609375 48.390625 
z
M 30.609375 56 
Q 42.328125 56 49.015625 48.375 
Q 55.71875 40.765625 55.71875 27.296875 
Q 55.71875 13.875 49.015625 6.21875 
Q 42.328125 -1.421875 30.609375 -1.421875 
Q 18.84375 -1.421875 12.171875 6.21875 
Q 5.515625 13.875 5.515625 27.296875 
Q 5.515625 40.765625 12.171875 48.375 
Q 18.84375 56 30.609375 56 
z
" id="DejaVuSans-111"/>
      <path d="M 41.109375 46.296875 
Q 39.59375 47.171875 37.8125 47.578125 
Q 36.03125 48 33.890625 48 
Q 26.265625 48 22.1875 43.046875 
Q 18.109375 38.09375 18.109375 28.8125 
L 18.109375 0 
L 9.078125 0 
L 9.078125 54.6875 
L 18.109375 54.6875 
L 18.109375 46.1875 
Q 20.953125 51.171875 25.484375 53.578125 
Q 30.03125 56 36.53125 56 
Q 37.453125 56 38.578125 55.875 
Q 39.703125 55.765625 41.0625 55.515625 
z
" id="DejaVuSans-114"/>
      <path d="M 44.28125 53.078125 
L 44.28125 44.578125 
Q 40.484375 46.53125 36.375 47.5 
Q 32.28125 48.484375 27.875 48.484375 
Q 21.1875 48.484375 17.84375 46.4375 
Q 14.5 44.390625 14.5 40.28125 
Q 14.5 37.15625 16.890625 35.375 
Q 19.28125 33.59375 26.515625 31.984375 
L 29.59375 31.296875 
Q 39.15625 29.25 43.1875 25.515625 
Q 47.21875 21.78125 47.21875 15.09375 
Q 47.21875 7.46875 41.1875 3.015625 
Q 35.15625 -1.421875 24.609375 -1.421875 
Q 20.21875 -1.421875 15.453125 -0.5625 
Q 10.6875 0.296875 5.421875 2 
L 5.421875 11.28125 
Q 10.40625 8.6875 15.234375 7.390625 
Q 20.0625 6.109375 24.8125 6.109375 
Q 31.15625 6.109375 34.5625 8.28125 
Q 37.984375 10.453125 37.984375 14.40625 
Q 37.984375 18.0625 35.515625 20.015625 
Q 33.0625 21.96875 24.703125 23.78125 
L 21.578125 24.515625 
Q 13.234375 26.265625 9.515625 29.90625 
Q 5.8125 33.546875 5.8125 39.890625 
Q 5.8125 47.609375 11.28125 51.796875 
Q 16.75 56 26.8125 56 
Q 31.78125 56 36.171875 55.265625 
Q 40.578125 54.546875 44.28125 53.078125 
z
" id="DejaVuSans-115"/>
      <path d="M 9.421875 54.6875 
L 18.40625 54.6875 
L 18.40625 0 
L 9.421875 0 
z
M 9.421875 75.984375 
L 18.40625 75.984375 
L 18.40625 64.59375 
L 9.421875 64.59375 
z
" id="DejaVuSans-105"/>
      <path d="M 18.109375 8.203125 
L 18.109375 -20.796875 
L 9.078125 -20.796875 
L 9.078125 54.6875 
L 18.109375 54.6875 
L 18.109375 46.390625 
Q 20.953125 51.265625 25.265625 53.625 
Q 29.59375 56 35.59375 56 
Q 45.5625 56 51.78125 48.09375 
Q 58.015625 40.1875 58.015625 27.296875 
Q 58.015625 14.40625 51.78125 6.484375 
Q 45.5625 -1.421875 35.59375 -1.421875 
Q 29.59375 -1.421875 25.265625 0.953125 
Q 20.953125 3.328125 18.109375 8.203125 
z
M 48.6875 27.296875 
Q 48.6875 37.203125 44.609375 42.84375 
Q 40.53125 48.484375 33.40625 48.484375 
Q 26.265625 48.484375 22.1875 42.84375 
Q 18.109375 37.203125 18.109375 27.296875 
Q 18.109375 17.390625 22.1875 11.75 
Q 26.265625 6.109375 33.40625 6.109375 
Q 40.53125 6.109375 44.609375 11.75 
Q 48.6875 17.390625 48.6875 27.296875 
z
" id="DejaVuSans-112"/>
      <path d="M 11.71875 12.40625 
L 22.015625 12.40625 
L 22.015625 0 
L 11.71875 0 
z
M 11.71875 51.703125 
L 22.015625 51.703125 
L 22.015625 39.3125 
L 11.71875 39.3125 
z
" id="DejaVuSans-58"/>
      <path d="M -0.296875 72.90625 
L 61.375 72.90625 
L 61.375 64.59375 
L 35.5 64.59375 
L 35.5 0 
L 25.59375 0 
L 25.59375 64.59375 
L -0.296875 64.59375 
z
" id="DejaVuSans-84"/>
      <path d="M 54.890625 33.015625 
L 54.890625 0 
L 45.90625 0 
L 45.90625 32.71875 
Q 45.90625 40.484375 42.875 44.328125 
Q 39.84375 48.1875 33.796875 48.1875 
Q 26.515625 48.1875 22.3125 43.546875 
Q 18.109375 38.921875 18.109375 30.90625 
L 18.109375 0 
L 9.078125 0 
L 9.078125 54.6875 
L 18.109375 54.6875 
L 18.109375 46.1875 
Q 21.34375 51.125 25.703125 53.5625 
Q 30.078125 56 35.796875 56 
Q 45.21875 56 50.046875 50.171875 
Q 54.890625 44.34375 54.890625 33.015625 
z
" id="DejaVuSans-110"/>
      <path d="M -0.203125 72.90625 
L 10.40625 72.90625 
L 30.609375 42.921875 
L 50.6875 72.90625 
L 61.28125 72.90625 
L 35.5 34.71875 
L 35.5 0 
L 25.59375 0 
L 25.59375 34.71875 
z
" id="DejaVuSans-89"/>
      <path d="M 44.390625 34.1875 
Q 47.5625 33.109375 50.5625 29.59375 
Q 53.5625 26.078125 56.59375 19.921875 
L 66.609375 0 
L 56 0 
L 46.6875 18.703125 
Q 43.0625 26.03125 39.671875 28.421875 
Q 36.28125 30.8125 30.421875 30.8125 
L 19.671875 30.8125 
L 19.671875 0 
L 9.8125 0 
L 9.8125 72.90625 
L 32.078125 72.90625 
Q 44.578125 72.90625 50.734375 67.671875 
Q 56.890625 62.453125 56.890625 51.90625 
Q 56.890625 45.015625 53.6875 40.46875 
Q 50.484375 35.9375 44.390625 34.1875 
z
M 19.671875 64.796875 
L 19.671875 38.921875 
L 32.078125 38.921875 
Q 39.203125 38.921875 42.84375 42.21875 
Q 46.484375 45.515625 46.484375 51.90625 
Q 46.484375 58.296875 42.84375 61.546875 
Q 39.203125 64.796875 32.078125 64.796875 
z
" id="DejaVuSans-82"/>
      <path d="M 45.40625 27.984375 
Q 45.40625 37.75 41.375 43.109375 
Q 37.359375 48.484375 30.078125 48.484375 
Q 22.859375 48.484375 18.828125 43.109375 
Q 14.796875 37.75 14.796875 27.984375 
Q 14.796875 18.265625 18.828125 12.890625 
Q 22.859375 7.515625 30.078125 7.515625 
Q 37.359375 7.515625 41.375 12.890625 
Q 45.40625 18.265625 45.40625 27.984375 
z
M 54.390625 6.78125 
Q 54.390625 -7.171875 48.1875 -13.984375 
Q 42 -20.796875 29.203125 -20.796875 
Q 24.46875 -20.796875 20.265625 -20.09375 
Q 16.0625 -19.390625 12.109375 -17.921875 
L 12.109375 -9.1875 
Q 16.0625 -11.328125 19.921875 -12.34375 
Q 23.78125 -13.375 27.78125 -13.375 
Q 36.625 -13.375 41.015625 -8.765625 
Q 45.40625 -4.15625 45.40625 5.171875 
L 45.40625 9.625 
Q 42.625 4.78125 38.28125 2.390625 
Q 33.9375 0 27.875 0 
Q 17.828125 0 11.671875 7.65625 
Q 5.515625 15.328125 5.515625 27.984375 
Q 5.515625 40.671875 11.671875 48.328125 
Q 17.828125 56 27.875 56 
Q 33.9375 56 38.28125 53.609375 
Q 42.625 51.21875 45.40625 46.390625 
L 45.40625 54.6875 
L 54.390625 54.6875 
z
" id="DejaVuSans-103"/>
      <path d="M 9.8125 72.90625 
L 19.671875 72.90625 
L 19.671875 0 
L 9.8125 0 
z
" id="DejaVuSans-73"/>
      <path d="M 2.984375 54.6875 
L 12.5 54.6875 
L 29.59375 8.796875 
L 46.6875 54.6875 
L 56.203125 54.6875 
L 35.6875 0 
L 23.484375 0 
z
" id="DejaVuSans-118"/>
     </defs>
     <g style="fill:#262626;" transform="translate(14.798438 351.243513)rotate(-90)scale(0.1 -0.1)">
      <use xlink:href="#DejaVuSans-70"/>
      <use x="57.441406" xlink:href="#DejaVuSans-101"/>
      <use x="118.964844" xlink:href="#DejaVuSans-109"/>
      <use x="216.376953" xlink:href="#DejaVuSans-97"/>
      <use x="277.65625" xlink:href="#DejaVuSans-108"/>
      <use x="305.439453" xlink:href="#DejaVuSans-101"/>
      <use x="366.962891" xlink:href="#DejaVuSans-32"/>
      <use x="398.75" xlink:href="#DejaVuSans-65"/>
      <use x="467.158203" xlink:href="#DejaVuSans-117"/>
      <use x="530.537109" xlink:href="#DejaVuSans-116"/>
      <use x="569.746094" xlink:href="#DejaVuSans-104"/>
      <use x="633.125" xlink:href="#DejaVuSans-111"/>
      <use x="694.306641" xlink:href="#DejaVuSans-114"/>
      <use x="735.419922" xlink:href="#DejaVuSans-115"/>
      <use x="787.519531" xlink:href="#DejaVuSans-104"/>
      <use x="850.898438" xlink:href="#DejaVuSans-105"/>
      <use x="878.681641" xlink:href="#DejaVuSans-112"/>
      <use x="942.158203" xlink:href="#DejaVuSans-58"/>
      <use x="975.849609" xlink:href="#DejaVuSans-32"/>
      <use x="1007.636719" xlink:href="#DejaVuSans-84"/>
      <use x="1068.455078" xlink:href="#DejaVuSans-101"/>
      <use x="1129.978516" xlink:href="#DejaVuSans-110"/>
      <use x="1193.357422" xlink:href="#DejaVuSans-32"/>
      <use x="1225.144531" xlink:href="#DejaVuSans-89"/>
      <use x="1286.025391" xlink:href="#DejaVuSans-101"/>
      <use x="1347.548828" xlink:href="#DejaVuSans-97"/>
      <use x="1408.828125" xlink:href="#DejaVuSans-114"/>
      <use x="1449.941406" xlink:href="#DejaVuSans-32"/>
      <use x="1481.728516" xlink:href="#DejaVuSans-82"/>
      <use x="1551.148438" xlink:href="#DejaVuSans-111"/>
      <use x="1612.330078" xlink:href="#DejaVuSans-108"/>
      <use x="1640.113281" xlink:href="#DejaVuSans-108"/>
      <use x="1667.896484" xlink:href="#DejaVuSans-105"/>
      <use x="1695.679688" xlink:href="#DejaVuSans-110"/>
      <use x="1759.058594" xlink:href="#DejaVuSans-103"/>
      <use x="1822.535156" xlink:href="#DejaVuSans-32"/>
      <use x="1854.322266" xlink:href="#DejaVuSans-73"/>
      <use x="1883.814453" xlink:href="#DejaVuSans-110"/>
      <use x="1947.193359" xlink:href="#DejaVuSans-116"/>
      <use x="1986.402344" xlink:href="#DejaVuSans-101"/>
      <use x="2047.925781" xlink:href="#DejaVuSans-114"/>
      <use x="2089.039062" xlink:href="#DejaVuSans-118"/>
      <use x="2148.21875" xlink:href="#DejaVuSans-97"/>
      <use x="2209.498047" xlink:href="#DejaVuSans-108"/>
     </g>
    </g>
   </g>
   <g id="PolyCollection_1">
    <defs>
     <path d="M 354.513896 -355.136978 
L 354.513896 -242.475587 
L 349.912094 -239.889692 
L 345.310292 -264.504224 
L 340.70849 -269.770125 
L 336.106687 -269.196413 
L 331.504885 -260.474804 
L 326.903083 -239.905382 
L 322.301281 -245.104281 
L 317.699479 -232.355786 
L 313.097677 -212.150007 
L 308.495875 -193.93472 
L 303.894073 -171.851538 
L 299.292271 -150.338027 
L 294.690469 -145.94001 
L 290.088667 -129.01904 
L 285.486864 -147.099664 
L 280.885062 -164.483678 
L 276.28326 -162.134906 
L 271.681458 -152.714405 
L 267.079656 -158.26144 
L 262.477854 -155.252927 
L 257.876052 -150.421871 
L 253.27425 -134.058531 
L 248.672448 -135.167358 
L 244.070646 -136.055107 
L 239.468844 -152.054764 
L 234.867041 -160.462752 
L 230.265239 -185.642382 
L 225.663437 -212.39102 
L 221.061635 -241.065954 
L 216.459833 -262.091709 
L 211.858031 -263.736156 
L 207.256229 -280.076448 
L 202.654427 -275.473827 
L 198.052625 -279.847488 
L 193.450823 -231.565235 
L 188.849021 -200.136703 
L 184.247218 -157.600253 
L 179.645416 -137.605342 
L 175.043614 -107.664312 
L 170.441812 -84.67461 
L 165.84001 -76.216386 
L 161.238208 -74.200332 
L 156.636406 -72.157002 
L 152.034604 -60.40222 
L 147.432802 -56.173567 
L 142.831 -42.523883 
L 138.229198 -46.487996 
L 133.627395 -23.966592 
L 129.025593 -36.183898 
L 124.423791 -42.386782 
L 119.821989 -55.195309 
L 115.220187 -64.407844 
L 110.618385 -39.853986 
L 106.016583 -28.94768 
L 101.414781 -40.416673 
L 96.812979 -74.489321 
L 92.211177 -98.97956 
L 87.609375 -146.479077 
L 83.007572 -127.697214 
L 78.40577 -117.03399 
L 73.803968 -124.070298 
L 69.202166 -117.03399 
L 64.600364 -144.76676 
L 64.600364 -196.077889 
L 64.600364 -196.077889 
L 69.202166 -162.277375 
L 73.803968 -164.812625 
L 78.40577 -162.277375 
L 83.007572 -184.646928 
L 87.609375 -195.964028 
L 92.211177 -150.018584 
L 96.812979 -138.890789 
L 101.414781 -116.628791 
L 106.016583 -109.295339 
L 110.618385 -125.61514 
L 115.220187 -150.189976 
L 119.821989 -143.714974 
L 124.423791 -128.760515 
L 129.025593 -124.830625 
L 133.627395 -115.114752 
L 138.229198 -147.608464 
L 142.831 -138.494698 
L 147.432802 -146.146206 
L 152.034604 -147.825027 
L 156.636406 -153.235794 
L 161.238208 -156.2219 
L 165.84001 -161.640957 
L 170.441812 -167.237737 
L 175.043614 -184.059852 
L 179.645416 -212.855185 
L 184.247218 -229.86513 
L 188.849021 -271.800499 
L 193.450823 -306.311735 
L 198.052625 -356.966893 
L 202.654427 -363.61029 
L 207.256229 -357.337356 
L 211.858031 -331.823558 
L 216.459833 -340.274829 
L 221.061635 -321.494936 
L 225.663437 -297.832663 
L 230.265239 -272.300239 
L 234.867041 -241.679845 
L 239.468844 -234.145502 
L 244.070646 -223.761083 
L 248.672448 -221.541092 
L 253.27425 -231.256594 
L 257.876052 -250.340072 
L 262.477854 -257.821736 
L 267.079656 -263.780988 
L 271.681458 -258.622253 
L 276.28326 -272.128266 
L 280.885062 -282.162177 
L 285.486864 -265.479907 
L 290.088667 -246.048199 
L 294.690469 -263.629338 
L 299.292271 -271.339954 
L 303.894073 -293.55998 
L 308.495875 -315.769229 
L 313.097677 -335.26189 
L 317.699479 -351.616589 
L 322.301281 -365.315147 
L 326.903083 -360.933093 
L 331.504885 -384.494116 
L 336.106687 -386.269244 
L 340.70849 -385.388508 
L 345.310292 -377.334777 
L 349.912094 -354.570783 
L 354.513896 -355.136978 
z
" id="md1ed13df15" style="stroke:#ffb94e;stroke-opacity:0.1;"/>
    </defs>
    <g clip-path="url(#p388e3c87f7)">
     <use style="fill:#ffb94e;fill-opacity:0.1;stroke:#ffb94e;stroke-opacity:0.1;" x="0" xlink:href="#md1ed13df15" y="457.600038"/>
    </g>
   </g>
   <g id="line2d_35">
    <path clip-path="url(#p388e3c87f7)" d="M 354.513896 215.124451 
L 349.912094 217.710346 
L 345.310292 193.095814 
L 340.70849 187.829913 
L 336.106687 188.403625 
L 331.504885 197.125234 
L 326.903083 217.694656 
L 322.301281 212.495757 
L 317.699479 225.244252 
L 313.097677 245.450031 
L 308.495875 263.665318 
L 303.894073 285.7485 
L 299.292271 307.262011 
L 294.690469 311.660028 
L 290.088667 328.580998 
L 285.486864 310.500374 
L 280.885062 293.11636 
L 276.28326 295.465132 
L 271.681458 304.885633 
L 267.079656 299.338598 
L 262.477854 302.347111 
L 257.876052 307.178167 
L 253.27425 323.541507 
L 248.672448 322.43268 
L 244.070646 321.544931 
L 239.468844 305.545274 
L 234.867041 297.137286 
L 230.265239 271.957656 
L 225.663437 245.209018 
L 221.061635 216.534084 
L 216.459833 195.508329 
L 211.858031 193.863882 
L 207.256229 177.52359 
L 202.654427 182.126211 
L 198.052625 177.75255 
L 193.450823 226.034803 
L 188.849021 257.463335 
L 184.247218 299.999785 
L 179.645416 319.994696 
L 175.043614 349.935726 
L 170.441812 372.925428 
L 165.84001 381.383652 
L 161.238208 383.399706 
L 156.636406 385.443036 
L 152.034604 397.197818 
L 147.432802 401.426471 
L 142.831 415.076155 
L 138.229198 411.112042 
L 133.627395 433.633446 
L 129.025593 421.41614 
L 124.423791 415.213256 
L 119.821989 402.404729 
L 115.220187 393.192194 
L 110.618385 417.746052 
L 106.016583 428.652358 
L 101.414781 417.183365 
L 96.812979 383.110717 
L 92.211177 358.620478 
L 87.609375 311.120961 
L 83.007572 329.902824 
L 78.40577 340.566048 
L 73.803968 333.52974 
L 69.202166 340.566048 
L 64.600364 312.833278 
" style="fill:none;stroke:#ffb94e;stroke-dasharray:3.6,1.8;stroke-dashoffset:0;stroke-width:0.3;"/>
   </g>
   <g id="line2d_36">
    <path clip-path="url(#p388e3c87f7)" d="M 354.513896 102.46306 
L 349.912094 103.029255 
L 345.310292 80.265261 
L 340.70849 72.21153 
L 336.106687 71.330794 
L 331.504885 73.105922 
L 326.903083 96.666945 
L 322.301281 92.284891 
L 317.699479 105.983449 
L 313.097677 122.338148 
L 308.495875 141.830809 
L 303.894073 164.040058 
L 299.292271 186.260084 
L 294.690469 193.9707 
L 290.088667 211.551839 
L 285.486864 192.120131 
L 280.885062 175.437861 
L 276.28326 185.471772 
L 271.681458 198.977785 
L 267.079656 193.81905 
L 262.477854 199.778302 
L 257.876052 207.259966 
L 253.27425 226.343444 
L 248.672448 236.058946 
L 244.070646 233.838955 
L 239.468844 223.454536 
L 234.867041 215.920193 
L 230.265239 185.299799 
L 225.663437 159.767375 
L 221.061635 136.105102 
L 216.459833 117.325209 
L 211.858031 125.77648 
L 207.256229 100.262682 
L 202.654427 93.989748 
L 198.052625 100.633145 
L 193.450823 151.288303 
L 188.849021 185.799539 
L 184.247218 227.734908 
L 179.645416 244.744853 
L 175.043614 273.540186 
L 170.441812 290.362301 
L 165.84001 295.959081 
L 161.238208 301.378138 
L 156.636406 304.364244 
L 152.034604 309.775011 
L 147.432802 311.453832 
L 142.831 319.10534 
L 138.229198 309.991574 
L 133.627395 342.485286 
L 129.025593 332.769413 
L 124.423791 328.839523 
L 119.821989 313.885064 
L 115.220187 307.410062 
L 110.618385 331.984898 
L 106.016583 348.304699 
L 101.414781 340.971247 
L 96.812979 318.709249 
L 92.211177 307.581454 
L 87.609375 261.63601 
L 83.007572 272.95311 
L 78.40577 295.322663 
L 73.803968 292.787413 
L 69.202166 295.322663 
L 64.600364 261.522149 
" style="fill:none;stroke:#ffb94e;stroke-dasharray:3.6,1.8;stroke-dashoffset:0;stroke-width:0.3;"/>
   </g>
   <g id="line2d_37">
    <path clip-path="url(#p388e3c87f7)" d="M 354.513896 158.793755 
L 349.912094 160.3698 
L 345.310292 136.680537 
L 340.70849 130.020722 
L 336.106687 129.867209 
L 331.504885 135.115578 
L 326.903083 157.1808 
L 322.301281 152.390324 
L 317.699479 165.613851 
L 313.097677 183.894089 
L 308.495875 202.748064 
L 303.894073 224.894279 
L 299.292271 246.761047 
L 294.690469 252.815364 
L 290.088667 270.066418 
L 285.486864 251.310252 
L 280.885062 234.277111 
L 276.28326 240.468452 
L 271.681458 251.931709 
L 267.079656 246.578824 
L 262.477854 251.062706 
L 257.876052 257.219067 
L 253.27425 274.942476 
L 248.672448 279.245813 
L 244.070646 277.691943 
L 239.468844 264.499905 
L 234.867041 256.528739 
L 230.265239 228.628727 
L 225.663437 202.488196 
L 221.061635 176.319593 
L 216.459833 156.416769 
L 211.858031 159.820181 
L 207.256229 138.893136 
L 202.654427 138.05798 
L 198.052625 139.192847 
L 193.450823 188.661553 
L 188.849021 221.631437 
L 184.247218 263.867346 
L 179.645416 282.369775 
L 175.043614 311.737956 
L 170.441812 331.643865 
L 165.84001 338.671366 
L 161.238208 342.388922 
L 156.636406 344.90364 
L 152.034604 353.486415 
L 147.432802 356.440152 
L 142.831 367.090747 
L 138.229198 360.551808 
L 133.627395 388.059366 
L 129.025593 377.092777 
L 124.423791 372.026389 
L 119.821989 358.144896 
L 115.220187 350.301128 
L 110.618385 374.865475 
L 106.016583 388.478529 
L 101.414781 379.077306 
L 96.812979 350.909983 
L 92.211177 333.100966 
L 87.609375 286.378486 
L 83.007572 301.427967 
L 78.40577 317.944356 
L 73.803968 313.158577 
L 69.202166 317.944356 
L 64.600364 287.177714 
" style="fill:none;stroke:#377eb8;stroke-linecap:round;stroke-width:1.5;"/>
   </g>
   <g id="line2d_38">
    <path clip-path="url(#p388e3c87f7)" d="M 50.104688 296.043481 
L 190.422837 296.043481 
" style="fill:none;stroke:#000000;stroke-dasharray:2.775,1.2;stroke-dashoffset:0;stroke-opacity:0.75;stroke-width:0.75;"/>
   </g>
   <g id="line2d_39">
    <path clip-path="url(#p388e3c87f7)" d="M 190.422837 203.092494 
L 369.009572 203.092494 
" style="fill:none;stroke:#000000;stroke-dasharray:2.775,1.2;stroke-dashoffset:0;stroke-opacity:0.75;stroke-width:0.75;"/>
   </g>
   <g id="patch_3">
    <path d="M 50.104688 433.721913 
L 50.104688 45.040113 
" style="fill:none;stroke:#262626;stroke-linecap:square;stroke-linejoin:miter;stroke-width:0.8;"/>
   </g>
   <g id="patch_4">
    <path d="M 50.104687 433.721913 
L 369.009572 433.721913 
" style="fill:none;stroke:#262626;stroke-linecap:square;stroke-linejoin:miter;stroke-width:0.8;"/>
   </g>
   <g id="patch_5">
    <path d="M 239.852149 368.993585 
Q 207.459216 349.332731 194.092891 298.52067 
" style="fill:none;stroke:#ffffff;stroke-linecap:round;stroke-width:0.5;"/>
    <path d="M 193.35961 302.022427 
L 194.092891 298.52067 
L 196.454328 301.208349 
" style="fill:none;stroke:#ffffff;stroke-linecap:round;stroke-width:0.5;"/>
   </g>
   <g id="text_19">
    <!-- 1947-1984 backward -->
    <defs>
     <path d="M 4.890625 31.390625 
L 31.203125 31.390625 
L 31.203125 23.390625 
L 4.890625 23.390625 
z
" id="DejaVuSans-45"/>
     <path d="M 48.6875 27.296875 
Q 48.6875 37.203125 44.609375 42.84375 
Q 40.53125 48.484375 33.40625 48.484375 
Q 26.265625 48.484375 22.1875 42.84375 
Q 18.109375 37.203125 18.109375 27.296875 
Q 18.109375 17.390625 22.1875 11.75 
Q 26.265625 6.109375 33.40625 6.109375 
Q 40.53125 6.109375 44.609375 11.75 
Q 48.6875 17.390625 48.6875 27.296875 
z
M 18.109375 46.390625 
Q 20.953125 51.265625 25.265625 53.625 
Q 29.59375 56 35.59375 56 
Q 45.5625 56 51.78125 48.09375 
Q 58.015625 40.1875 58.015625 27.296875 
Q 58.015625 14.40625 51.78125 6.484375 
Q 45.5625 -1.421875 35.59375 -1.421875 
Q 29.59375 -1.421875 25.265625 0.953125 
Q 20.953125 3.328125 18.109375 8.203125 
L 18.109375 0 
L 9.078125 0 
L 9.078125 75.984375 
L 18.109375 75.984375 
z
" id="DejaVuSans-98"/>
     <path d="M 48.78125 52.59375 
L 48.78125 44.1875 
Q 44.96875 46.296875 41.140625 47.34375 
Q 37.3125 48.390625 33.40625 48.390625 
Q 24.65625 48.390625 19.8125 42.84375 
Q 14.984375 37.3125 14.984375 27.296875 
Q 14.984375 17.28125 19.8125 11.734375 
Q 24.65625 6.203125 33.40625 6.203125 
Q 37.3125 6.203125 41.140625 7.25 
Q 44.96875 8.296875 48.78125 10.40625 
L 48.78125 2.09375 
Q 45.015625 0.34375 40.984375 -0.53125 
Q 36.96875 -1.421875 32.421875 -1.421875 
Q 20.0625 -1.421875 12.78125 6.34375 
Q 5.515625 14.109375 5.515625 27.296875 
Q 5.515625 40.671875 12.859375 48.328125 
Q 20.21875 56 33.015625 56 
Q 37.15625 56 41.109375 55.140625 
Q 45.0625 54.296875 48.78125 52.59375 
z
" id="DejaVuSans-99"/>
     <path d="M 9.078125 75.984375 
L 18.109375 75.984375 
L 18.109375 31.109375 
L 44.921875 54.6875 
L 56.390625 54.6875 
L 27.390625 29.109375 
L 57.625 0 
L 45.90625 0 
L 18.109375 26.703125 
L 18.109375 0 
L 9.078125 0 
z
" id="DejaVuSans-107"/>
     <path d="M 4.203125 54.6875 
L 13.1875 54.6875 
L 24.421875 12.015625 
L 35.59375 54.6875 
L 46.1875 54.6875 
L 57.421875 12.015625 
L 68.609375 54.6875 
L 77.59375 54.6875 
L 63.28125 0 
L 52.6875 0 
L 40.921875 44.828125 
L 29.109375 0 
L 18.5 0 
z
" id="DejaVuSans-119"/>
     <path d="M 45.40625 46.390625 
L 45.40625 75.984375 
L 54.390625 75.984375 
L 54.390625 0 
L 45.40625 0 
L 45.40625 8.203125 
Q 42.578125 3.328125 38.25 0.953125 
Q 33.9375 -1.421875 27.875 -1.421875 
Q 17.96875 -1.421875 11.734375 6.484375 
Q 5.515625 14.40625 5.515625 27.296875 
Q 5.515625 40.1875 11.734375 48.09375 
Q 17.96875 56 27.875 56 
Q 33.9375 56 38.25 53.625 
Q 42.578125 51.265625 45.40625 46.390625 
z
M 14.796875 27.296875 
Q 14.796875 17.390625 18.875 11.75 
Q 22.953125 6.109375 30.078125 6.109375 
Q 37.203125 6.109375 41.296875 11.75 
Q 45.40625 17.390625 45.40625 27.296875 
Q 45.40625 37.203125 41.296875 42.84375 
Q 37.203125 48.484375 30.078125 48.484375 
Q 22.953125 48.484375 18.875 42.84375 
Q 14.796875 37.203125 14.796875 27.296875 
z
" id="DejaVuSans-100"/>
    </defs>
    <g style="fill:#262626;" transform="translate(244.070646 373.458964)scale(0.08 -0.08)">
     <use xlink:href="#DejaVuSans-49"/>
     <use x="63.623047" xlink:href="#DejaVuSans-57"/>
     <use x="127.246094" xlink:href="#DejaVuSans-52"/>
     <use x="190.869141" xlink:href="#DejaVuSans-55"/>
     <use x="254.492188" xlink:href="#DejaVuSans-45"/>
     <use x="290.576172" xlink:href="#DejaVuSans-49"/>
     <use x="354.199219" xlink:href="#DejaVuSans-57"/>
     <use x="417.822266" xlink:href="#DejaVuSans-56"/>
     <use x="481.445312" xlink:href="#DejaVuSans-52"/>
     <use x="545.068359" xlink:href="#DejaVuSans-32"/>
     <use x="576.855469" xlink:href="#DejaVuSans-98"/>
     <use x="640.332031" xlink:href="#DejaVuSans-97"/>
     <use x="701.611328" xlink:href="#DejaVuSans-99"/>
     <use x="756.591797" xlink:href="#DejaVuSans-107"/>
     <use x="814.501953" xlink:href="#DejaVuSans-119"/>
     <use x="896.289062" xlink:href="#DejaVuSans-97"/>
     <use x="957.568359" xlink:href="#DejaVuSans-114"/>
     <use x="998.666016" xlink:href="#DejaVuSans-100"/>
    </g>
    <!-- looking average: 25.900000000000002% -->
    <defs>
     <path d="M 10.6875 12.40625 
L 21 12.40625 
L 21 0 
L 10.6875 0 
z
" id="DejaVuSans-46"/>
    </defs>
    <g style="fill:#262626;" transform="translate(244.070646 382.417214)scale(0.08 -0.08)">
     <use xlink:href="#DejaVuSans-108"/>
     <use x="27.783203" xlink:href="#DejaVuSans-111"/>
     <use x="88.964844" xlink:href="#DejaVuSans-111"/>
     <use x="150.146484" xlink:href="#DejaVuSans-107"/>
     <use x="208.056641" xlink:href="#DejaVuSans-105"/>
     <use x="235.839844" xlink:href="#DejaVuSans-110"/>
     <use x="299.21875" xlink:href="#DejaVuSans-103"/>
     <use x="362.695312" xlink:href="#DejaVuSans-32"/>
     <use x="394.482422" xlink:href="#DejaVuSans-97"/>
     <use x="455.761719" xlink:href="#DejaVuSans-118"/>
     <use x="514.941406" xlink:href="#DejaVuSans-101"/>
     <use x="576.464844" xlink:href="#DejaVuSans-114"/>
     <use x="617.578125" xlink:href="#DejaVuSans-97"/>
     <use x="678.857422" xlink:href="#DejaVuSans-103"/>
     <use x="742.333984" xlink:href="#DejaVuSans-101"/>
     <use x="803.857422" xlink:href="#DejaVuSans-58"/>
     <use x="837.548828" xlink:href="#DejaVuSans-32"/>
     <use x="869.335938" xlink:href="#DejaVuSans-50"/>
     <use x="932.958984" xlink:href="#DejaVuSans-53"/>
     <use x="996.582031" xlink:href="#DejaVuSans-46"/>
     <use x="1028.369141" xlink:href="#DejaVuSans-57"/>
     <use x="1091.992188" xlink:href="#DejaVuSans-48"/>
     <use x="1155.615234" xlink:href="#DejaVuSans-48"/>
     <use x="1219.238281" xlink:href="#DejaVuSans-48"/>
     <use x="1282.861328" xlink:href="#DejaVuSans-48"/>
     <use x="1346.484375" xlink:href="#DejaVuSans-48"/>
     <use x="1410.107422" xlink:href="#DejaVuSans-48"/>
     <use x="1473.730469" xlink:href="#DejaVuSans-48"/>
     <use x="1537.353516" xlink:href="#DejaVuSans-48"/>
     <use x="1600.976562" xlink:href="#DejaVuSans-48"/>
     <use x="1664.599609" xlink:href="#DejaVuSans-48"/>
     <use x="1728.222656" xlink:href="#DejaVuSans-48"/>
     <use x="1791.845703" xlink:href="#DejaVuSans-48"/>
     <use x="1855.46875" xlink:href="#DejaVuSans-48"/>
     <use x="1919.091797" xlink:href="#DejaVuSans-50"/>
     <use x="1982.714844" xlink:href="#DejaVuSans-37"/>
    </g>
   </g>
   <g id="patch_6">
    <path d="M 119.481725 239.773037 
Q 132.335026 195.961863 181.711904 202.727426 
" style="fill:none;stroke:#ffffff;stroke-linecap:round;stroke-width:0.5;"/>
    <path d="M 178.758727 200.707835 
L 181.711904 202.727426 
L 178.324326 203.878213 
" style="fill:none;stroke:#ffffff;stroke-linecap:round;stroke-width:0.5;"/>
   </g>
   <g id="text_20">
    <!-- 1984-2020 backward -->
    <g style="fill:#262626;" transform="translate(69.202166 250.277171)scale(0.08 -0.08)">
     <use xlink:href="#DejaVuSans-49"/>
     <use x="63.623047" xlink:href="#DejaVuSans-57"/>
     <use x="127.246094" xlink:href="#DejaVuSans-56"/>
     <use x="190.869141" xlink:href="#DejaVuSans-52"/>
     <use x="254.492188" xlink:href="#DejaVuSans-45"/>
     <use x="290.576172" xlink:href="#DejaVuSans-50"/>
     <use x="354.199219" xlink:href="#DejaVuSans-48"/>
     <use x="417.822266" xlink:href="#DejaVuSans-50"/>
     <use x="481.445312" xlink:href="#DejaVuSans-48"/>
     <use x="545.068359" xlink:href="#DejaVuSans-32"/>
     <use x="576.855469" xlink:href="#DejaVuSans-98"/>
     <use x="640.332031" xlink:href="#DejaVuSans-97"/>
     <use x="701.611328" xlink:href="#DejaVuSans-99"/>
     <use x="756.591797" xlink:href="#DejaVuSans-107"/>
     <use x="814.501953" xlink:href="#DejaVuSans-119"/>
     <use x="896.289062" xlink:href="#DejaVuSans-97"/>
     <use x="957.568359" xlink:href="#DejaVuSans-114"/>
     <use x="998.666016" xlink:href="#DejaVuSans-100"/>
    </g>
    <!-- looking average: 36.7% -->
    <g style="fill:#262626;" transform="translate(69.202166 259.235421)scale(0.08 -0.08)">
     <use xlink:href="#DejaVuSans-108"/>
     <use x="27.783203" xlink:href="#DejaVuSans-111"/>
     <use x="88.964844" xlink:href="#DejaVuSans-111"/>
     <use x="150.146484" xlink:href="#DejaVuSans-107"/>
     <use x="208.056641" xlink:href="#DejaVuSans-105"/>
     <use x="235.839844" xlink:href="#DejaVuSans-110"/>
     <use x="299.21875" xlink:href="#DejaVuSans-103"/>
     <use x="362.695312" xlink:href="#DejaVuSans-32"/>
     <use x="394.482422" xlink:href="#DejaVuSans-97"/>
     <use x="455.761719" xlink:href="#DejaVuSans-118"/>
     <use x="514.941406" xlink:href="#DejaVuSans-101"/>
     <use x="576.464844" xlink:href="#DejaVuSans-114"/>
     <use x="617.578125" xlink:href="#DejaVuSans-97"/>
     <use x="678.857422" xlink:href="#DejaVuSans-103"/>
     <use x="742.333984" xlink:href="#DejaVuSans-101"/>
     <use x="803.857422" xlink:href="#DejaVuSans-58"/>
     <use x="837.548828" xlink:href="#DejaVuSans-32"/>
     <use x="869.335938" xlink:href="#DejaVuSans-51"/>
     <use x="932.958984" xlink:href="#DejaVuSans-54"/>
     <use x="996.582031" xlink:href="#DejaVuSans-46"/>
     <use x="1028.369141" xlink:href="#DejaVuSans-55"/>
     <use x="1091.992188" xlink:href="#DejaVuSans-37"/>
    </g>
   </g>
   <g id="text_21">
    <!-- A. -->
    <g style="fill:#262626;" transform="translate(50.104688 25.43625)scale(0.24 -0.24)">
     <use xlink:href="#DejaVuSans-65"/>
     <use x="68.392578" xlink:href="#DejaVuSans-46"/>
    </g>
   </g>
   <g id="legend_1">
    <g id="line2d_40">
     <path d="M 60.004688 59.448394 
L 82.004688 59.448394 
" style="fill:none;stroke:#377eb8;stroke-linecap:round;"/>
    </g>
    <g id="line2d_41"/>
    <g id="text_22">
     <!-- Detector: F/(M+F) -->
     <defs>
      <path d="M 19.671875 64.796875 
L 19.671875 8.109375 
L 31.59375 8.109375 
Q 46.6875 8.109375 53.6875 14.9375 
Q 60.6875 21.78125 60.6875 36.53125 
Q 60.6875 51.171875 53.6875 57.984375 
Q 46.6875 64.796875 31.59375 64.796875 
z
M 9.8125 72.90625 
L 30.078125 72.90625 
Q 51.265625 72.90625 61.171875 64.09375 
Q 71.09375 55.28125 71.09375 36.53125 
Q 71.09375 17.671875 61.125 8.828125 
Q 51.171875 0 30.078125 0 
L 9.8125 0 
z
" id="DejaVuSans-68"/>
      <path d="M 25.390625 72.90625 
L 33.6875 72.90625 
L 8.296875 -9.28125 
L 0 -9.28125 
z
" id="DejaVuSans-47"/>
      <path d="M 31 75.875 
Q 24.46875 64.65625 21.28125 53.65625 
Q 18.109375 42.671875 18.109375 31.390625 
Q 18.109375 20.125 21.3125 9.0625 
Q 24.515625 -2 31 -13.1875 
L 23.1875 -13.1875 
Q 15.875 -1.703125 12.234375 9.375 
Q 8.59375 20.453125 8.59375 31.390625 
Q 8.59375 42.28125 12.203125 53.3125 
Q 15.828125 64.359375 23.1875 75.875 
z
" id="DejaVuSans-40"/>
      <path d="M 9.8125 72.90625 
L 24.515625 72.90625 
L 43.109375 23.296875 
L 61.8125 72.90625 
L 76.515625 72.90625 
L 76.515625 0 
L 66.890625 0 
L 66.890625 64.015625 
L 48.09375 14.015625 
L 38.1875 14.015625 
L 19.390625 64.015625 
L 19.390625 0 
L 9.8125 0 
z
" id="DejaVuSans-77"/>
      <path d="M 46 62.703125 
L 46 35.5 
L 73.1875 35.5 
L 73.1875 27.203125 
L 46 27.203125 
L 46 0 
L 37.796875 0 
L 37.796875 27.203125 
L 10.59375 27.203125 
L 10.59375 35.5 
L 37.796875 35.5 
L 37.796875 62.703125 
z
" id="DejaVuSans-43"/>
      <path d="M 8.015625 75.875 
L 15.828125 75.875 
Q 23.140625 64.359375 26.78125 53.3125 
Q 30.421875 42.28125 30.421875 31.390625 
Q 30.421875 20.453125 26.78125 9.375 
Q 23.140625 -1.703125 15.828125 -13.1875 
L 8.015625 -13.1875 
Q 14.5 -2 17.703125 9.0625 
Q 20.90625 20.125 20.90625 31.390625 
Q 20.90625 42.671875 17.703125 53.65625 
Q 14.5 64.65625 8.015625 75.875 
z
" id="DejaVuSans-41"/>
     </defs>
     <g style="fill:#262626;" transform="translate(90.804688 63.298394)scale(0.11 -0.11)">
      <use xlink:href="#DejaVuSans-68"/>
      <use x="77.001953" xlink:href="#DejaVuSans-101"/>
      <use x="138.525391" xlink:href="#DejaVuSans-116"/>
      <use x="177.734375" xlink:href="#DejaVuSans-101"/>
      <use x="239.257812" xlink:href="#DejaVuSans-99"/>
      <use x="294.238281" xlink:href="#DejaVuSans-116"/>
      <use x="333.447266" xlink:href="#DejaVuSans-111"/>
      <use x="394.628906" xlink:href="#DejaVuSans-114"/>
      <use x="435.726562" xlink:href="#DejaVuSans-58"/>
      <use x="469.417969" xlink:href="#DejaVuSans-32"/>
      <use x="501.205078" xlink:href="#DejaVuSans-70"/>
      <use x="558.724609" xlink:href="#DejaVuSans-47"/>
      <use x="592.416016" xlink:href="#DejaVuSans-40"/>
      <use x="631.429688" xlink:href="#DejaVuSans-77"/>
      <use x="717.708984" xlink:href="#DejaVuSans-43"/>
      <use x="801.498047" xlink:href="#DejaVuSans-70"/>
      <use x="859.017578" xlink:href="#DejaVuSans-41"/>
     </g>
    </g>
    <g id="patch_7">
     <path d="M 60.004688 79.444332 
L 82.004688 79.444332 
L 82.004688 71.744332 
L 60.004688 71.744332 
z
" style="fill:#ffb94e;fill-opacity:0.3;stroke:#000000;stroke-linejoin:miter;stroke-width:0.5;"/>
    </g>
    <g id="text_23">
     <!-- Detector: CI's -->
     <defs>
      <path d="M 64.40625 67.28125 
L 64.40625 56.890625 
Q 59.421875 61.53125 53.78125 63.8125 
Q 48.140625 66.109375 41.796875 66.109375 
Q 29.296875 66.109375 22.65625 58.46875 
Q 16.015625 50.828125 16.015625 36.375 
Q 16.015625 21.96875 22.65625 14.328125 
Q 29.296875 6.6875 41.796875 6.6875 
Q 48.140625 6.6875 53.78125 8.984375 
Q 59.421875 11.28125 64.40625 15.921875 
L 64.40625 5.609375 
Q 59.234375 2.09375 53.4375 0.328125 
Q 47.65625 -1.421875 41.21875 -1.421875 
Q 24.65625 -1.421875 15.125 8.703125 
Q 5.609375 18.84375 5.609375 36.375 
Q 5.609375 53.953125 15.125 64.078125 
Q 24.65625 74.21875 41.21875 74.21875 
Q 47.75 74.21875 53.53125 72.484375 
Q 59.328125 70.75 64.40625 67.28125 
z
" id="DejaVuSans-67"/>
      <path d="M 17.921875 72.90625 
L 17.921875 45.796875 
L 9.625 45.796875 
L 9.625 72.90625 
z
" id="DejaVuSans-39"/>
     </defs>
     <g style="fill:#262626;" transform="translate(90.804688 79.444332)scale(0.11 -0.11)">
      <use xlink:href="#DejaVuSans-68"/>
      <use x="77.001953" xlink:href="#DejaVuSans-101"/>
      <use x="138.525391" xlink:href="#DejaVuSans-116"/>
      <use x="177.734375" xlink:href="#DejaVuSans-101"/>
      <use x="239.257812" xlink:href="#DejaVuSans-99"/>
      <use x="294.238281" xlink:href="#DejaVuSans-116"/>
      <use x="333.447266" xlink:href="#DejaVuSans-111"/>
      <use x="394.628906" xlink:href="#DejaVuSans-114"/>
      <use x="435.726562" xlink:href="#DejaVuSans-58"/>
      <use x="469.417969" xlink:href="#DejaVuSans-32"/>
      <use x="501.205078" xlink:href="#DejaVuSans-67"/>
      <use x="571.029297" xlink:href="#DejaVuSans-73"/>
      <use x="600.521484" xlink:href="#DejaVuSans-39"/>
      <use x="628.011719" xlink:href="#DejaVuSans-115"/>
     </g>
    </g>
   </g>
  </g>
  <g id="axes_2">
   <g id="patch_8">
    <path d="M 488.892542 433.721913 
L 807.797427 433.721913 
L 807.797427 45.040113 
L 488.892542 45.040113 
z
" style="fill:#ffffff;"/>
   </g>
   <g id="matplotlib.axis_3">
    <g id="xtick_8">
     <g id="line2d_42">
      <path clip-path="url(#p5741700d5d)" d="M 521.795427 433.721913 
L 521.795427 45.040113 
" style="fill:none;stroke:#cccccc;stroke-dasharray:2.96,1.28;stroke-dashoffset:0;stroke-opacity:0.2;stroke-width:0.8;"/>
     </g>
     <g id="line2d_43">
      <g>
       <use style="fill:#262626;stroke:#262626;stroke-width:0.8;" x="521.795427" xlink:href="#mcd2b013d07" y="433.721913"/>
      </g>
     </g>
     <g id="text_24">
      <!-- 1960 -->
      <g style="fill:#262626;" transform="translate(509.070427 448.32035)scale(0.1 -0.1)">
       <use xlink:href="#DejaVuSans-49"/>
       <use x="63.623047" xlink:href="#DejaVuSans-57"/>
       <use x="127.246094" xlink:href="#DejaVuSans-54"/>
       <use x="190.869141" xlink:href="#DejaVuSans-48"/>
      </g>
     </g>
    </g>
    <g id="xtick_9">
     <g id="line2d_44">
      <path clip-path="url(#p5741700d5d)" d="M 567.813448 433.721913 
L 567.813448 45.040113 
" style="fill:none;stroke:#cccccc;stroke-dasharray:2.96,1.28;stroke-dashoffset:0;stroke-opacity:0.2;stroke-width:0.8;"/>
     </g>
     <g id="line2d_45">
      <g>
       <use style="fill:#262626;stroke:#262626;stroke-width:0.8;" x="567.813448" xlink:href="#mcd2b013d07" y="433.721913"/>
      </g>
     </g>
     <g id="text_25">
      <!-- 1970 -->
      <g style="fill:#262626;" transform="translate(555.088448 448.32035)scale(0.1 -0.1)">
       <use xlink:href="#DejaVuSans-49"/>
       <use x="63.623047" xlink:href="#DejaVuSans-57"/>
       <use x="127.246094" xlink:href="#DejaVuSans-55"/>
       <use x="190.869141" xlink:href="#DejaVuSans-48"/>
      </g>
     </g>
    </g>
    <g id="xtick_10">
     <g id="line2d_46">
      <path clip-path="url(#p5741700d5d)" d="M 613.831468 433.721913 
L 613.831468 45.040113 
" style="fill:none;stroke:#cccccc;stroke-dasharray:2.96,1.28;stroke-dashoffset:0;stroke-opacity:0.2;stroke-width:0.8;"/>
     </g>
     <g id="line2d_47">
      <g>
       <use style="fill:#262626;stroke:#262626;stroke-width:0.8;" x="613.831468" xlink:href="#mcd2b013d07" y="433.721913"/>
      </g>
     </g>
     <g id="text_26">
      <!-- 1980 -->
      <g style="fill:#262626;" transform="translate(601.106468 448.32035)scale(0.1 -0.1)">
       <use xlink:href="#DejaVuSans-49"/>
       <use x="63.623047" xlink:href="#DejaVuSans-57"/>
       <use x="127.246094" xlink:href="#DejaVuSans-56"/>
       <use x="190.869141" xlink:href="#DejaVuSans-48"/>
      </g>
     </g>
    </g>
    <g id="xtick_11">
     <g id="line2d_48">
      <path clip-path="url(#p5741700d5d)" d="M 659.849489 433.721913 
L 659.849489 45.040113 
" style="fill:none;stroke:#cccccc;stroke-dasharray:2.96,1.28;stroke-dashoffset:0;stroke-opacity:0.2;stroke-width:0.8;"/>
     </g>
     <g id="line2d_49">
      <g>
       <use style="fill:#262626;stroke:#262626;stroke-width:0.8;" x="659.849489" xlink:href="#mcd2b013d07" y="433.721913"/>
      </g>
     </g>
     <g id="text_27">
      <!-- 1990 -->
      <g style="fill:#262626;" transform="translate(647.124489 448.32035)scale(0.1 -0.1)">
       <use xlink:href="#DejaVuSans-49"/>
       <use x="63.623047" xlink:href="#DejaVuSans-57"/>
       <use x="127.246094" xlink:href="#DejaVuSans-57"/>
       <use x="190.869141" xlink:href="#DejaVuSans-48"/>
      </g>
     </g>
    </g>
    <g id="xtick_12">
     <g id="line2d_50">
      <path clip-path="url(#p5741700d5d)" d="M 705.86751 433.721913 
L 705.86751 45.040113 
" style="fill:none;stroke:#cccccc;stroke-dasharray:2.96,1.28;stroke-dashoffset:0;stroke-opacity:0.2;stroke-width:0.8;"/>
     </g>
     <g id="line2d_51">
      <g>
       <use style="fill:#262626;stroke:#262626;stroke-width:0.8;" x="705.86751" xlink:href="#mcd2b013d07" y="433.721913"/>
      </g>
     </g>
     <g id="text_28">
      <!-- 2000 -->
      <g style="fill:#262626;" transform="translate(693.14251 448.32035)scale(0.1 -0.1)">
       <use xlink:href="#DejaVuSans-50"/>
       <use x="63.623047" xlink:href="#DejaVuSans-48"/>
       <use x="127.246094" xlink:href="#DejaVuSans-48"/>
       <use x="190.869141" xlink:href="#DejaVuSans-48"/>
      </g>
     </g>
    </g>
    <g id="xtick_13">
     <g id="line2d_52">
      <path clip-path="url(#p5741700d5d)" d="M 751.885531 433.721913 
L 751.885531 45.040113 
" style="fill:none;stroke:#cccccc;stroke-dasharray:2.96,1.28;stroke-dashoffset:0;stroke-opacity:0.2;stroke-width:0.8;"/>
     </g>
     <g id="line2d_53">
      <g>
       <use style="fill:#262626;stroke:#262626;stroke-width:0.8;" x="751.885531" xlink:href="#mcd2b013d07" y="433.721913"/>
      </g>
     </g>
     <g id="text_29">
      <!-- 2010 -->
      <g style="fill:#262626;" transform="translate(739.160531 448.32035)scale(0.1 -0.1)">
       <use xlink:href="#DejaVuSans-50"/>
       <use x="63.623047" xlink:href="#DejaVuSans-48"/>
       <use x="127.246094" xlink:href="#DejaVuSans-49"/>
       <use x="190.869141" xlink:href="#DejaVuSans-48"/>
      </g>
     </g>
    </g>
    <g id="xtick_14">
     <g id="line2d_54">
      <path clip-path="url(#p5741700d5d)" d="M 797.903552 433.721913 
L 797.903552 45.040113 
" style="fill:none;stroke:#cccccc;stroke-dasharray:2.96,1.28;stroke-dashoffset:0;stroke-opacity:0.2;stroke-width:0.8;"/>
     </g>
     <g id="line2d_55">
      <g>
       <use style="fill:#262626;stroke:#262626;stroke-width:0.8;" x="797.903552" xlink:href="#mcd2b013d07" y="433.721913"/>
      </g>
     </g>
     <g id="text_30">
      <!-- 2020 -->
      <g style="fill:#262626;" transform="translate(785.178552 448.32035)scale(0.1 -0.1)">
       <use xlink:href="#DejaVuSans-50"/>
       <use x="63.623047" xlink:href="#DejaVuSans-48"/>
       <use x="127.246094" xlink:href="#DejaVuSans-50"/>
       <use x="190.869141" xlink:href="#DejaVuSans-48"/>
      </g>
     </g>
    </g>
   </g>
   <g id="matplotlib.axis_4">
    <g id="ytick_11">
     <g id="line2d_56">
      <path clip-path="url(#p5741700d5d)" d="M 488.892542 433.721913 
L 807.797427 433.721913 
" style="fill:none;stroke:#cccccc;stroke-dasharray:2.96,1.28;stroke-dashoffset:0;stroke-opacity:0.2;stroke-width:0.8;"/>
     </g>
     <g id="line2d_57">
      <g>
       <use style="fill:#262626;stroke:#262626;stroke-width:0.8;" x="488.892542" xlink:href="#ma17e870432" y="433.721913"/>
      </g>
     </g>
     <g id="text_31">
      <!-- 10% -->
      <g style="fill:#262626;" transform="translate(459.665979 437.521132)scale(0.1 -0.1)">
       <use xlink:href="#DejaVuSans-49"/>
       <use x="63.623047" xlink:href="#DejaVuSans-48"/>
       <use x="127.246094" xlink:href="#DejaVuSans-37"/>
      </g>
     </g>
    </g>
    <g id="ytick_12">
     <g id="line2d_58">
      <path clip-path="url(#p5741700d5d)" d="M 488.892542 390.535046 
L 807.797427 390.535046 
" style="fill:none;stroke:#cccccc;stroke-dasharray:2.96,1.28;stroke-dashoffset:0;stroke-opacity:0.2;stroke-width:0.8;"/>
     </g>
     <g id="line2d_59">
      <g>
       <use style="fill:#262626;stroke:#262626;stroke-width:0.8;" x="488.892542" xlink:href="#ma17e870432" y="390.535046"/>
      </g>
     </g>
     <g id="text_32">
      <!-- 15% -->
      <g style="fill:#262626;" transform="translate(459.665979 394.334265)scale(0.1 -0.1)">
       <use xlink:href="#DejaVuSans-49"/>
       <use x="63.623047" xlink:href="#DejaVuSans-53"/>
       <use x="127.246094" xlink:href="#DejaVuSans-37"/>
      </g>
     </g>
    </g>
    <g id="ytick_13">
     <g id="line2d_60">
      <path clip-path="url(#p5741700d5d)" d="M 488.892542 347.34818 
L 807.797427 347.34818 
" style="fill:none;stroke:#cccccc;stroke-dasharray:2.96,1.28;stroke-dashoffset:0;stroke-opacity:0.2;stroke-width:0.8;"/>
     </g>
     <g id="line2d_61">
      <g>
       <use style="fill:#262626;stroke:#262626;stroke-width:0.8;" x="488.892542" xlink:href="#ma17e870432" y="347.34818"/>
      </g>
     </g>
     <g id="text_33">
      <!-- 20% -->
      <g style="fill:#262626;" transform="translate(459.665979 351.147398)scale(0.1 -0.1)">
       <use xlink:href="#DejaVuSans-50"/>
       <use x="63.623047" xlink:href="#DejaVuSans-48"/>
       <use x="127.246094" xlink:href="#DejaVuSans-37"/>
      </g>
     </g>
    </g>
    <g id="ytick_14">
     <g id="line2d_62">
      <path clip-path="url(#p5741700d5d)" d="M 488.892542 304.161313 
L 807.797427 304.161313 
" style="fill:none;stroke:#cccccc;stroke-dasharray:2.96,1.28;stroke-dashoffset:0;stroke-opacity:0.2;stroke-width:0.8;"/>
     </g>
     <g id="line2d_63">
      <g>
       <use style="fill:#262626;stroke:#262626;stroke-width:0.8;" x="488.892542" xlink:href="#ma17e870432" y="304.161313"/>
      </g>
     </g>
     <g id="text_34">
      <!-- 25% -->
      <g style="fill:#262626;" transform="translate(459.665979 307.960532)scale(0.1 -0.1)">
       <use xlink:href="#DejaVuSans-50"/>
       <use x="63.623047" xlink:href="#DejaVuSans-53"/>
       <use x="127.246094" xlink:href="#DejaVuSans-37"/>
      </g>
     </g>
    </g>
    <g id="ytick_15">
     <g id="line2d_64">
      <path clip-path="url(#p5741700d5d)" d="M 488.892542 260.974446 
L 807.797427 260.974446 
" style="fill:none;stroke:#cccccc;stroke-dasharray:2.96,1.28;stroke-dashoffset:0;stroke-opacity:0.2;stroke-width:0.8;"/>
     </g>
     <g id="line2d_65">
      <g>
       <use style="fill:#262626;stroke:#262626;stroke-width:0.8;" x="488.892542" xlink:href="#ma17e870432" y="260.974446"/>
      </g>
     </g>
     <g id="text_35">
      <!-- 30% -->
      <g style="fill:#262626;" transform="translate(459.665979 264.773665)scale(0.1 -0.1)">
       <use xlink:href="#DejaVuSans-51"/>
       <use x="63.623047" xlink:href="#DejaVuSans-48"/>
       <use x="127.246094" xlink:href="#DejaVuSans-37"/>
      </g>
     </g>
    </g>
    <g id="ytick_16">
     <g id="line2d_66">
      <path clip-path="url(#p5741700d5d)" d="M 488.892542 217.78758 
L 807.797427 217.78758 
" style="fill:none;stroke:#cccccc;stroke-dasharray:2.96,1.28;stroke-dashoffset:0;stroke-opacity:0.2;stroke-width:0.8;"/>
     </g>
     <g id="line2d_67">
      <g>
       <use style="fill:#262626;stroke:#262626;stroke-width:0.8;" x="488.892542" xlink:href="#ma17e870432" y="217.78758"/>
      </g>
     </g>
     <g id="text_36">
      <!-- 35% -->
      <g style="fill:#262626;" transform="translate(459.665979 221.586798)scale(0.1 -0.1)">
       <use xlink:href="#DejaVuSans-51"/>
       <use x="63.623047" xlink:href="#DejaVuSans-53"/>
       <use x="127.246094" xlink:href="#DejaVuSans-37"/>
      </g>
     </g>
    </g>
    <g id="ytick_17">
     <g id="line2d_68">
      <path clip-path="url(#p5741700d5d)" d="M 488.892542 174.600713 
L 807.797427 174.600713 
" style="fill:none;stroke:#cccccc;stroke-dasharray:2.96,1.28;stroke-dashoffset:0;stroke-opacity:0.2;stroke-width:0.8;"/>
     </g>
     <g id="line2d_69">
      <g>
       <use style="fill:#262626;stroke:#262626;stroke-width:0.8;" x="488.892542" xlink:href="#ma17e870432" y="174.600713"/>
      </g>
     </g>
     <g id="text_37">
      <!-- 40% -->
      <g style="fill:#262626;" transform="translate(459.665979 178.399932)scale(0.1 -0.1)">
       <use xlink:href="#DejaVuSans-52"/>
       <use x="63.623047" xlink:href="#DejaVuSans-48"/>
       <use x="127.246094" xlink:href="#DejaVuSans-37"/>
      </g>
     </g>
    </g>
    <g id="ytick_18">
     <g id="line2d_70">
      <path clip-path="url(#p5741700d5d)" d="M 488.892542 131.413846 
L 807.797427 131.413846 
" style="fill:none;stroke:#cccccc;stroke-dasharray:2.96,1.28;stroke-dashoffset:0;stroke-opacity:0.2;stroke-width:0.8;"/>
     </g>
     <g id="line2d_71">
      <g>
       <use style="fill:#262626;stroke:#262626;stroke-width:0.8;" x="488.892542" xlink:href="#ma17e870432" y="131.413846"/>
      </g>
     </g>
     <g id="text_38">
      <!-- 45% -->
      <g style="fill:#262626;" transform="translate(459.665979 135.213065)scale(0.1 -0.1)">
       <use xlink:href="#DejaVuSans-52"/>
       <use x="63.623047" xlink:href="#DejaVuSans-53"/>
       <use x="127.246094" xlink:href="#DejaVuSans-37"/>
      </g>
     </g>
    </g>
    <g id="ytick_19">
     <g id="line2d_72">
      <path clip-path="url(#p5741700d5d)" d="M 488.892542 88.22698 
L 807.797427 88.22698 
" style="fill:none;stroke:#cccccc;stroke-dasharray:2.96,1.28;stroke-dashoffset:0;stroke-opacity:0.2;stroke-width:0.8;"/>
     </g>
     <g id="line2d_73">
      <g>
       <use style="fill:#262626;stroke:#262626;stroke-width:0.8;" x="488.892542" xlink:href="#ma17e870432" y="88.22698"/>
      </g>
     </g>
     <g id="text_39">
      <!-- 50% -->
      <g style="fill:#262626;" transform="translate(459.665979 92.026198)scale(0.1 -0.1)">
       <use xlink:href="#DejaVuSans-53"/>
       <use x="63.623047" xlink:href="#DejaVuSans-48"/>
       <use x="127.246094" xlink:href="#DejaVuSans-37"/>
      </g>
     </g>
    </g>
    <g id="ytick_20">
     <g id="line2d_74">
      <path clip-path="url(#p5741700d5d)" d="M 488.892542 45.040113 
L 807.797427 45.040113 
" style="fill:none;stroke:#cccccc;stroke-dasharray:2.96,1.28;stroke-dashoffset:0;stroke-opacity:0.2;stroke-width:0.8;"/>
     </g>
     <g id="line2d_75">
      <g>
       <use style="fill:#262626;stroke:#262626;stroke-width:0.8;" x="488.892542" xlink:href="#ma17e870432" y="45.040113"/>
      </g>
     </g>
     <g id="text_40">
      <!-- 55% -->
      <g style="fill:#262626;" transform="translate(459.665979 48.839332)scale(0.1 -0.1)">
       <use xlink:href="#DejaVuSans-53"/>
       <use x="63.623047" xlink:href="#DejaVuSans-53"/>
       <use x="127.246094" xlink:href="#DejaVuSans-37"/>
      </g>
     </g>
    </g>
    <g id="text_41">
     <!-- Female Authorship: Ten Year Rolling Interval -->
     <g style="fill:#262626;" transform="translate(453.586292 351.243513)rotate(-90)scale(0.1 -0.1)">
      <use xlink:href="#DejaVuSans-70"/>
      <use x="57.441406" xlink:href="#DejaVuSans-101"/>
      <use x="118.964844" xlink:href="#DejaVuSans-109"/>
      <use x="216.376953" xlink:href="#DejaVuSans-97"/>
      <use x="277.65625" xlink:href="#DejaVuSans-108"/>
      <use x="305.439453" xlink:href="#DejaVuSans-101"/>
      <use x="366.962891" xlink:href="#DejaVuSans-32"/>
      <use x="398.75" xlink:href="#DejaVuSans-65"/>
      <use x="467.158203" xlink:href="#DejaVuSans-117"/>
      <use x="530.537109" xlink:href="#DejaVuSans-116"/>
      <use x="569.746094" xlink:href="#DejaVuSans-104"/>
      <use x="633.125" xlink:href="#DejaVuSans-111"/>
      <use x="694.306641" xlink:href="#DejaVuSans-114"/>
      <use x="735.419922" xlink:href="#DejaVuSans-115"/>
      <use x="787.519531" xlink:href="#DejaVuSans-104"/>
      <use x="850.898438" xlink:href="#DejaVuSans-105"/>
      <use x="878.681641" xlink:href="#DejaVuSans-112"/>
      <use x="942.158203" xlink:href="#DejaVuSans-58"/>
      <use x="975.849609" xlink:href="#DejaVuSans-32"/>
      <use x="1007.636719" xlink:href="#DejaVuSans-84"/>
      <use x="1068.455078" xlink:href="#DejaVuSans-101"/>
      <use x="1129.978516" xlink:href="#DejaVuSans-110"/>
      <use x="1193.357422" xlink:href="#DejaVuSans-32"/>
      <use x="1225.144531" xlink:href="#DejaVuSans-89"/>
      <use x="1286.025391" xlink:href="#DejaVuSans-101"/>
      <use x="1347.548828" xlink:href="#DejaVuSans-97"/>
      <use x="1408.828125" xlink:href="#DejaVuSans-114"/>
      <use x="1449.941406" xlink:href="#DejaVuSans-32"/>
      <use x="1481.728516" xlink:href="#DejaVuSans-82"/>
      <use x="1551.148438" xlink:href="#DejaVuSans-111"/>
      <use x="1612.330078" xlink:href="#DejaVuSans-108"/>
      <use x="1640.113281" xlink:href="#DejaVuSans-108"/>
      <use x="1667.896484" xlink:href="#DejaVuSans-105"/>
      <use x="1695.679688" xlink:href="#DejaVuSans-110"/>
      <use x="1759.058594" xlink:href="#DejaVuSans-103"/>
      <use x="1822.535156" xlink:href="#DejaVuSans-32"/>
      <use x="1854.322266" xlink:href="#DejaVuSans-73"/>
      <use x="1883.814453" xlink:href="#DejaVuSans-110"/>
      <use x="1947.193359" xlink:href="#DejaVuSans-116"/>
      <use x="1986.402344" xlink:href="#DejaVuSans-101"/>
      <use x="2047.925781" xlink:href="#DejaVuSans-114"/>
      <use x="2089.039062" xlink:href="#DejaVuSans-118"/>
      <use x="2148.21875" xlink:href="#DejaVuSans-97"/>
      <use x="2209.498047" xlink:href="#DejaVuSans-108"/>
     </g>
    </g>
   </g>
   <g id="PolyCollection_2">
    <defs>
     <path d="M 793.30175 -323.829308 
L 793.30175 -273.062137 
L 788.699948 -280.268237 
L 784.098146 -306.239192 
L 779.496344 -306.143774 
L 774.894542 -307.74035 
L 770.29274 -303.695031 
L 765.690937 -285.523129 
L 761.089135 -276.994211 
L 756.487333 -258.19641 
L 751.885531 -237.565695 
L 747.283729 -219.610298 
L 742.681927 -203.971116 
L 738.080125 -183.695854 
L 733.478323 -172.80135 
L 728.876521 -163.097093 
L 724.274719 -170.736048 
L 719.672917 -188.358643 
L 715.071114 -186.112542 
L 710.469312 -177.318713 
L 705.86751 -181.86694 
L 701.265708 -182.210892 
L 696.663906 -175.751865 
L 692.062104 -161.492935 
L 687.460302 -159.125653 
L 682.8585 -157.567981 
L 678.256698 -177.385484 
L 673.654896 -179.823537 
L 669.053094 -207.288634 
L 664.451291 -225.138977 
L 659.849489 -251.54301 
L 655.247687 -263.245128 
L 650.645885 -250.057991 
L 646.044083 -261.553417 
L 641.442281 -253.070094 
L 636.840479 -252.084273 
L 632.238677 -198.114187 
L 627.636875 -170.796605 
L 623.035073 -142.47386 
L 618.433271 -127.05514 
L 613.831468 -95.882751 
L 609.229666 -74.051102 
L 604.627864 -73.132183 
L 600.026062 -75.174235 
L 595.42426 -77.093726 
L 590.822458 -74.59779 
L 586.220656 -83.630048 
L 581.618854 -86.359423 
L 577.017052 -93.480831 
L 572.41525 -74.497907 
L 567.813448 -92.446747 
L 563.211645 -107.863645 
L 558.609843 -130.362615 
L 554.008041 -139.082395 
L 549.406239 -126.691787 
L 544.804437 -109.406392 
L 540.202635 -101.488137 
L 535.600833 -117.88262 
L 530.999031 -116.744989 
L 526.397229 -163.935533 
L 521.795427 -146.822508 
L 517.193625 -125.881391 
L 512.591822 -123.94128 
L 507.99002 -117.244018 
L 503.388218 -133.791964 
L 503.388218 -159.447528 
L 503.388218 -159.447528 
L 507.99002 -137.809192 
L 512.591822 -148.386676 
L 517.193625 -146.446566 
L 521.795427 -175.297365 
L 526.397229 -190.927325 
L 530.999031 -140.301461 
L 535.600833 -151.977515 
L 540.202635 -141.40877 
L 544.804437 -146.232402 
L 549.406239 -163.446567 
L 554.008041 -177.536454 
L 558.609843 -170.598826 
L 563.211645 -157.220064 
L 567.813448 -142.452592 
L 572.41525 -124.412376 
L 577.017052 -148.254418 
L 581.618854 -132.425414 
L 586.220656 -130.41582 
L 590.822458 -125.303018 
L 595.42426 -128.388472 
L 600.026062 -127.065432 
L 604.627864 -128.499961 
L 609.229666 -124.859181 
L 613.831468 -145.773716 
L 618.433271 -176.131125 
L 623.035073 -195.812221 
L 627.636875 -233.030954 
L 632.238677 -262.479229 
L 636.840479 -315.983209 
L 641.442281 -319.172441 
L 646.044083 -320.984884 
L 650.645885 -296.746496 
L 655.247687 -306.059694 
L 659.849489 -298.751325 
L 664.451291 -274.850478 
L 669.053094 -254.169114 
L 673.654896 -224.944144 
L 678.256698 -219.025714 
L 682.8585 -199.755666 
L 687.460302 -198.990453 
L 692.062104 -205.673873 
L 696.663906 -223.49056 
L 701.265708 -237.274147 
L 705.86751 -237.34629 
L 710.469312 -233.802898 
L 715.071114 -241.688135 
L 719.672917 -246.626638 
L 724.274719 -235.406737 
L 728.876521 -226.272125 
L 733.478323 -239.321405 
L 738.080125 -251.574984 
L 742.681927 -271.695975 
L 747.283729 -283.994388 
L 751.885531 -300.098715 
L 756.487333 -318.730303 
L 761.089135 -343.778026 
L 765.690937 -349.084444 
L 770.29274 -367.024041 
L 774.894542 -370.179194 
L 779.496344 -362.252695 
L 784.098146 -355.262122 
L 788.699948 -326.721337 
L 793.30175 -323.829308 
z
" id="m690727a60c" style="stroke:#ffb94e;stroke-opacity:0.1;"/>
    </defs>
    <g clip-path="url(#p5741700d5d)">
     <use style="fill:#ffb94e;fill-opacity:0.1;stroke:#ffb94e;stroke-opacity:0.1;" x="0" xlink:href="#m690727a60c" y="457.600038"/>
    </g>
   </g>
   <g id="line2d_76">
    <path clip-path="url(#p5741700d5d)" d="M 793.30175 184.537901 
L 788.699948 177.331801 
L 784.098146 151.360846 
L 779.496344 151.456264 
L 774.894542 149.859688 
L 770.29274 153.905007 
L 765.690937 172.076909 
L 761.089135 180.605827 
L 756.487333 199.403628 
L 751.885531 220.034343 
L 747.283729 237.98974 
L 742.681927 253.628922 
L 738.080125 273.904184 
L 733.478323 284.798688 
L 728.876521 294.502945 
L 724.274719 286.86399 
L 719.672917 269.241395 
L 715.071114 271.487496 
L 710.469312 280.281325 
L 705.86751 275.733098 
L 701.265708 275.389146 
L 696.663906 281.848173 
L 692.062104 296.107103 
L 687.460302 298.474385 
L 682.8585 300.032057 
L 678.256698 280.214554 
L 673.654896 277.776501 
L 669.053094 250.311404 
L 664.451291 232.461061 
L 659.849489 206.057028 
L 655.247687 194.35491 
L 650.645885 207.542047 
L 646.044083 196.046621 
L 641.442281 204.529944 
L 636.840479 205.515765 
L 632.238677 259.485851 
L 627.636875 286.803433 
L 623.035073 315.126178 
L 618.433271 330.544898 
L 613.831468 361.717287 
L 609.229666 383.548936 
L 604.627864 384.467855 
L 600.026062 382.425803 
L 595.42426 380.506312 
L 590.822458 383.002248 
L 586.220656 373.96999 
L 581.618854 371.240615 
L 577.017052 364.119207 
L 572.41525 383.102131 
L 567.813448 365.153291 
L 563.211645 349.736393 
L 558.609843 327.237423 
L 554.008041 318.517643 
L 549.406239 330.908251 
L 544.804437 348.193646 
L 540.202635 356.111901 
L 535.600833 339.717418 
L 530.999031 340.855049 
L 526.397229 293.664505 
L 521.795427 310.77753 
L 517.193625 331.718647 
L 512.591822 333.658758 
L 507.99002 340.35602 
L 503.388218 323.808074 
" style="fill:none;stroke:#ffb94e;stroke-dasharray:3.6,1.8;stroke-dashoffset:0;stroke-width:0.3;"/>
   </g>
   <g id="line2d_77">
    <path clip-path="url(#p5741700d5d)" d="M 793.30175 133.77073 
L 788.699948 130.878701 
L 784.098146 102.337916 
L 779.496344 95.347343 
L 774.894542 87.420844 
L 770.29274 90.575997 
L 765.690937 108.515594 
L 761.089135 113.822012 
L 756.487333 138.869735 
L 751.885531 157.501323 
L 747.283729 173.60565 
L 742.681927 185.904063 
L 738.080125 206.025054 
L 733.478323 218.278633 
L 728.876521 231.327913 
L 724.274719 222.193301 
L 719.672917 210.9734 
L 715.071114 215.911903 
L 710.469312 223.79714 
L 705.86751 220.253748 
L 701.265708 220.325891 
L 696.663906 234.109478 
L 692.062104 251.926165 
L 687.460302 258.609585 
L 682.8585 257.844372 
L 678.256698 238.574324 
L 673.654896 232.655894 
L 669.053094 203.430924 
L 664.451291 182.74956 
L 659.849489 158.848713 
L 655.247687 151.540344 
L 650.645885 160.853542 
L 646.044083 136.615154 
L 641.442281 138.427597 
L 636.840479 141.616829 
L 632.238677 195.120809 
L 627.636875 224.569084 
L 623.035073 261.787817 
L 618.433271 281.468913 
L 613.831468 311.826322 
L 609.229666 332.740857 
L 604.627864 329.100077 
L 600.026062 330.534606 
L 595.42426 329.211566 
L 590.822458 332.29702 
L 586.220656 327.184218 
L 581.618854 325.174624 
L 577.017052 309.34562 
L 572.41525 333.187662 
L 567.813448 315.147446 
L 563.211645 300.379974 
L 558.609843 287.001212 
L 554.008041 280.063584 
L 549.406239 294.153471 
L 544.804437 311.367636 
L 540.202635 316.191268 
L 535.600833 305.622523 
L 530.999031 317.298577 
L 526.397229 266.672713 
L 521.795427 282.302673 
L 517.193625 311.153472 
L 512.591822 309.213362 
L 507.99002 319.790846 
L 503.388218 298.15251 
" style="fill:none;stroke:#ffb94e;stroke-dasharray:3.6,1.8;stroke-dashoffset:0;stroke-width:0.3;"/>
   </g>
   <g id="line2d_78">
    <path clip-path="url(#p5741700d5d)" d="M 793.30175 159.154315 
L 788.699948 154.105251 
L 784.098146 126.849381 
L 779.496344 123.401803 
L 774.894542 118.640266 
L 770.29274 122.240502 
L 765.690937 140.296252 
L 761.089135 147.21392 
L 756.487333 169.136681 
L 751.885531 188.767833 
L 747.283729 205.797695 
L 742.681927 219.766493 
L 738.080125 239.964619 
L 733.478323 251.53866 
L 728.876521 262.915429 
L 724.274719 254.528645 
L 719.672917 240.107398 
L 715.071114 243.6997 
L 710.469312 252.039233 
L 705.86751 247.993423 
L 701.265708 247.857518 
L 696.663906 257.978826 
L 692.062104 274.016634 
L 687.460302 278.541985 
L 682.8585 278.938214 
L 678.256698 259.394439 
L 673.654896 255.216197 
L 669.053094 226.871164 
L 664.451291 207.60531 
L 659.849489 182.452871 
L 655.247687 172.947627 
L 650.645885 184.197794 
L 646.044083 166.330887 
L 641.442281 171.478771 
L 636.840479 173.566297 
L 632.238677 227.30333 
L 627.636875 255.686259 
L 623.035073 288.456998 
L 618.433271 306.006906 
L 613.831468 336.771804 
L 609.229666 358.144896 
L 604.627864 356.783966 
L 600.026062 356.480204 
L 595.42426 354.858939 
L 590.822458 357.649634 
L 586.220656 350.577104 
L 581.618854 348.20762 
L 577.017052 336.732414 
L 572.41525 358.144896 
L 567.813448 340.150369 
L 563.211645 325.058184 
L 558.609843 307.119318 
L 554.008041 299.290614 
L 549.406239 312.530861 
L 544.804437 329.780641 
L 540.202635 336.151585 
L 535.600833 322.66997 
L 530.999031 329.076813 
L 526.397229 280.168609 
L 521.795427 296.540101 
L 517.193625 321.43606 
L 512.591822 321.43606 
L 507.99002 330.073433 
L 503.388218 310.980292 
" style="fill:none;stroke:#377eb8;stroke-linecap:round;stroke-width:1.5;"/>
   </g>
   <g id="line2d_79">
    <path clip-path="url(#p5741700d5d)" d="M 488.892542 303.038604 
L 629.210691 303.038604 
" style="fill:none;stroke:#000000;stroke-dasharray:2.775,1.2;stroke-dashoffset:0;stroke-opacity:0.75;stroke-width:0.75;"/>
   </g>
   <g id="line2d_80">
    <path clip-path="url(#p5741700d5d)" d="M 629.210691 198.679324 
L 807.797427 198.679324 
" style="fill:none;stroke:#000000;stroke-dasharray:2.775,1.2;stroke-dashoffset:0;stroke-opacity:0.75;stroke-width:0.75;"/>
   </g>
   <g id="patch_9">
    <path d="M 488.892542 433.721913 
L 488.892542 45.040113 
" style="fill:none;stroke:#262626;stroke-linecap:square;stroke-linejoin:miter;stroke-width:0.8;"/>
   </g>
   <g id="patch_10">
    <path d="M 488.892542 433.721913 
L 807.797427 433.721913 
" style="fill:none;stroke:#262626;stroke-linecap:square;stroke-linejoin:miter;stroke-width:0.8;"/>
   </g>
   <g id="patch_11">
    <path d="M 678.493039 377.404238 
Q 638.960753 361.545421 632.519928 305.58246 
" style="fill:none;stroke:#ffffff;stroke-linecap:round;stroke-width:0.5;"/>
    <path d="M 631.296296 308.944413 
L 632.519928 305.58246 
L 634.475311 308.578537 
" style="fill:none;stroke:#ffffff;stroke-linecap:round;stroke-width:0.5;"/>
   </g>
   <g id="text_42">
    <!-- 1947-1984 backward -->
    <g style="fill:#262626;" transform="translate(682.8585 380.454087)scale(0.08 -0.08)">
     <use xlink:href="#DejaVuSans-49"/>
     <use x="63.623047" xlink:href="#DejaVuSans-57"/>
     <use x="127.246094" xlink:href="#DejaVuSans-52"/>
     <use x="190.869141" xlink:href="#DejaVuSans-55"/>
     <use x="254.492188" xlink:href="#DejaVuSans-45"/>
     <use x="290.576172" xlink:href="#DejaVuSans-49"/>
     <use x="354.199219" xlink:href="#DejaVuSans-57"/>
     <use x="417.822266" xlink:href="#DejaVuSans-56"/>
     <use x="481.445312" xlink:href="#DejaVuSans-52"/>
     <use x="545.068359" xlink:href="#DejaVuSans-32"/>
     <use x="576.855469" xlink:href="#DejaVuSans-98"/>
     <use x="640.332031" xlink:href="#DejaVuSans-97"/>
     <use x="701.611328" xlink:href="#DejaVuSans-99"/>
     <use x="756.591797" xlink:href="#DejaVuSans-107"/>
     <use x="814.501953" xlink:href="#DejaVuSans-119"/>
     <use x="896.289062" xlink:href="#DejaVuSans-97"/>
     <use x="957.568359" xlink:href="#DejaVuSans-114"/>
     <use x="998.666016" xlink:href="#DejaVuSans-100"/>
    </g>
    <!-- looking average: 25.1% -->
    <g style="fill:#262626;" transform="translate(682.8585 389.412337)scale(0.08 -0.08)">
     <use xlink:href="#DejaVuSans-108"/>
     <use x="27.783203" xlink:href="#DejaVuSans-111"/>
     <use x="88.964844" xlink:href="#DejaVuSans-111"/>
     <use x="150.146484" xlink:href="#DejaVuSans-107"/>
     <use x="208.056641" xlink:href="#DejaVuSans-105"/>
     <use x="235.839844" xlink:href="#DejaVuSans-110"/>
     <use x="299.21875" xlink:href="#DejaVuSans-103"/>
     <use x="362.695312" xlink:href="#DejaVuSans-32"/>
     <use x="394.482422" xlink:href="#DejaVuSans-97"/>
     <use x="455.761719" xlink:href="#DejaVuSans-118"/>
     <use x="514.941406" xlink:href="#DejaVuSans-101"/>
     <use x="576.464844" xlink:href="#DejaVuSans-114"/>
     <use x="617.578125" xlink:href="#DejaVuSans-97"/>
     <use x="678.857422" xlink:href="#DejaVuSans-103"/>
     <use x="742.333984" xlink:href="#DejaVuSans-101"/>
     <use x="803.857422" xlink:href="#DejaVuSans-58"/>
     <use x="837.548828" xlink:href="#DejaVuSans-32"/>
     <use x="869.335938" xlink:href="#DejaVuSans-50"/>
     <use x="932.958984" xlink:href="#DejaVuSans-53"/>
     <use x="996.582031" xlink:href="#DejaVuSans-46"/>
     <use x="1028.369141" xlink:href="#DejaVuSans-49"/>
     <use x="1091.992188" xlink:href="#DejaVuSans-37"/>
    </g>
   </g>
   <g id="patch_12">
    <path d="M 558.269579 235.359867 
Q 571.12288 191.548692 620.499758 198.314255 
" style="fill:none;stroke:#ffffff;stroke-linecap:round;stroke-width:0.5;"/>
    <path d="M 617.546581 196.294665 
L 620.499758 198.314255 
L 617.11218 199.465043 
" style="fill:none;stroke:#ffffff;stroke-linecap:round;stroke-width:0.5;"/>
   </g>
   <g id="text_43">
    <!-- 1984-2020 backward -->
    <g style="fill:#262626;" transform="translate(507.99002 245.864001)scale(0.08 -0.08)">
     <use xlink:href="#DejaVuSans-49"/>
     <use x="63.623047" xlink:href="#DejaVuSans-57"/>
     <use x="127.246094" xlink:href="#DejaVuSans-56"/>
     <use x="190.869141" xlink:href="#DejaVuSans-52"/>
     <use x="254.492188" xlink:href="#DejaVuSans-45"/>
     <use x="290.576172" xlink:href="#DejaVuSans-50"/>
     <use x="354.199219" xlink:href="#DejaVuSans-48"/>
     <use x="417.822266" xlink:href="#DejaVuSans-50"/>
     <use x="481.445312" xlink:href="#DejaVuSans-48"/>
     <use x="545.068359" xlink:href="#DejaVuSans-32"/>
     <use x="576.855469" xlink:href="#DejaVuSans-98"/>
     <use x="640.332031" xlink:href="#DejaVuSans-97"/>
     <use x="701.611328" xlink:href="#DejaVuSans-99"/>
     <use x="756.591797" xlink:href="#DejaVuSans-107"/>
     <use x="814.501953" xlink:href="#DejaVuSans-119"/>
     <use x="896.289062" xlink:href="#DejaVuSans-97"/>
     <use x="957.568359" xlink:href="#DejaVuSans-114"/>
     <use x="998.666016" xlink:href="#DejaVuSans-100"/>
    </g>
    <!-- looking average: 37.2% -->
    <g style="fill:#262626;" transform="translate(507.99002 254.822251)scale(0.08 -0.08)">
     <use xlink:href="#DejaVuSans-108"/>
     <use x="27.783203" xlink:href="#DejaVuSans-111"/>
     <use x="88.964844" xlink:href="#DejaVuSans-111"/>
     <use x="150.146484" xlink:href="#DejaVuSans-107"/>
     <use x="208.056641" xlink:href="#DejaVuSans-105"/>
     <use x="235.839844" xlink:href="#DejaVuSans-110"/>
     <use x="299.21875" xlink:href="#DejaVuSans-103"/>
     <use x="362.695312" xlink:href="#DejaVuSans-32"/>
     <use x="394.482422" xlink:href="#DejaVuSans-97"/>
     <use x="455.761719" xlink:href="#DejaVuSans-118"/>
     <use x="514.941406" xlink:href="#DejaVuSans-101"/>
     <use x="576.464844" xlink:href="#DejaVuSans-114"/>
     <use x="617.578125" xlink:href="#DejaVuSans-97"/>
     <use x="678.857422" xlink:href="#DejaVuSans-103"/>
     <use x="742.333984" xlink:href="#DejaVuSans-101"/>
     <use x="803.857422" xlink:href="#DejaVuSans-58"/>
     <use x="837.548828" xlink:href="#DejaVuSans-32"/>
     <use x="869.335938" xlink:href="#DejaVuSans-51"/>
     <use x="932.958984" xlink:href="#DejaVuSans-55"/>
     <use x="996.582031" xlink:href="#DejaVuSans-46"/>
     <use x="1028.369141" xlink:href="#DejaVuSans-50"/>
     <use x="1091.992188" xlink:href="#DejaVuSans-37"/>
    </g>
   </g>
   <g id="text_44">
    <!-- B. -->
    <defs>
     <path d="M 19.671875 34.8125 
L 19.671875 8.109375 
L 35.5 8.109375 
Q 43.453125 8.109375 47.28125 11.40625 
Q 51.125 14.703125 51.125 21.484375 
Q 51.125 28.328125 47.28125 31.5625 
Q 43.453125 34.8125 35.5 34.8125 
z
M 19.671875 64.796875 
L 19.671875 42.828125 
L 34.28125 42.828125 
Q 41.5 42.828125 45.03125 45.53125 
Q 48.578125 48.25 48.578125 53.8125 
Q 48.578125 59.328125 45.03125 62.0625 
Q 41.5 64.796875 34.28125 64.796875 
z
M 9.8125 72.90625 
L 35.015625 72.90625 
Q 46.296875 72.90625 52.390625 68.21875 
Q 58.5 63.53125 58.5 54.890625 
Q 58.5 48.1875 55.375 44.234375 
Q 52.25 40.28125 46.1875 39.3125 
Q 53.46875 37.75 57.5 32.78125 
Q 61.53125 27.828125 61.53125 20.40625 
Q 61.53125 10.640625 54.890625 5.3125 
Q 48.25 0 35.984375 0 
L 9.8125 0 
z
" id="DejaVuSans-66"/>
    </defs>
    <g style="fill:#262626;" transform="translate(488.892542 25.43625)scale(0.24 -0.24)">
     <use xlink:href="#DejaVuSans-66"/>
     <use x="68.603516" xlink:href="#DejaVuSans-46"/>
    </g>
   </g>
   <g id="legend_2">
    <g id="line2d_81">
     <path d="M 498.792542 59.448394 
L 520.792542 59.448394 
" style="fill:none;stroke:#377eb8;stroke-linecap:round;"/>
    </g>
    <g id="line2d_82"/>
    <g id="text_45">
     <!-- Guesser: F/(M+F) -->
     <defs>
      <path d="M 59.515625 10.40625 
L 59.515625 29.984375 
L 43.40625 29.984375 
L 43.40625 38.09375 
L 69.28125 38.09375 
L 69.28125 6.78125 
Q 63.578125 2.734375 56.6875 0.65625 
Q 49.8125 -1.421875 42 -1.421875 
Q 24.90625 -1.421875 15.25 8.5625 
Q 5.609375 18.5625 5.609375 36.375 
Q 5.609375 54.25 15.25 64.234375 
Q 24.90625 74.21875 42 74.21875 
Q 49.125 74.21875 55.546875 72.453125 
Q 61.96875 70.703125 67.390625 67.28125 
L 67.390625 56.78125 
Q 61.921875 61.421875 55.765625 63.765625 
Q 49.609375 66.109375 42.828125 66.109375 
Q 29.4375 66.109375 22.71875 58.640625 
Q 16.015625 51.171875 16.015625 36.375 
Q 16.015625 21.625 22.71875 14.15625 
Q 29.4375 6.6875 42.828125 6.6875 
Q 48.046875 6.6875 52.140625 7.59375 
Q 56.25 8.5 59.515625 10.40625 
z
" id="DejaVuSans-71"/>
     </defs>
     <g style="fill:#262626;" transform="translate(529.592542 63.298394)scale(0.11 -0.11)">
      <use xlink:href="#DejaVuSans-71"/>
      <use x="77.490234" xlink:href="#DejaVuSans-117"/>
      <use x="140.869141" xlink:href="#DejaVuSans-101"/>
      <use x="202.392578" xlink:href="#DejaVuSans-115"/>
      <use x="254.492188" xlink:href="#DejaVuSans-115"/>
      <use x="306.591797" xlink:href="#DejaVuSans-101"/>
      <use x="368.115234" xlink:href="#DejaVuSans-114"/>
      <use x="409.212891" xlink:href="#DejaVuSans-58"/>
      <use x="442.904297" xlink:href="#DejaVuSans-32"/>
      <use x="474.691406" xlink:href="#DejaVuSans-70"/>
      <use x="532.210938" xlink:href="#DejaVuSans-47"/>
      <use x="565.902344" xlink:href="#DejaVuSans-40"/>
      <use x="604.916016" xlink:href="#DejaVuSans-77"/>
      <use x="691.195312" xlink:href="#DejaVuSans-43"/>
      <use x="774.984375" xlink:href="#DejaVuSans-70"/>
      <use x="832.503906" xlink:href="#DejaVuSans-41"/>
     </g>
    </g>
    <g id="patch_13">
     <path d="M 498.792542 79.444332 
L 520.792542 79.444332 
L 520.792542 71.744332 
L 498.792542 71.744332 
z
" style="fill:#ffb94e;fill-opacity:0.3;stroke:#000000;stroke-linejoin:miter;stroke-width:0.5;"/>
    </g>
    <g id="text_46">
     <!-- Guesser: CI's -->
     <g style="fill:#262626;" transform="translate(529.592542 79.444332)scale(0.11 -0.11)">
      <use xlink:href="#DejaVuSans-71"/>
      <use x="77.490234" xlink:href="#DejaVuSans-117"/>
      <use x="140.869141" xlink:href="#DejaVuSans-101"/>
      <use x="202.392578" xlink:href="#DejaVuSans-115"/>
      <use x="254.492188" xlink:href="#DejaVuSans-115"/>
      <use x="306.591797" xlink:href="#DejaVuSans-101"/>
      <use x="368.115234" xlink:href="#DejaVuSans-114"/>
      <use x="409.212891" xlink:href="#DejaVuSans-58"/>
      <use x="442.904297" xlink:href="#DejaVuSans-32"/>
      <use x="474.691406" xlink:href="#DejaVuSans-67"/>
      <use x="544.515625" xlink:href="#DejaVuSans-73"/>
      <use x="574.007812" xlink:href="#DejaVuSans-39"/>
      <use x="601.498047" xlink:href="#DejaVuSans-115"/>
     </g>
    </g>
   </g>
  </g>
 </g>
 <defs>
  <clipPath id="p388e3c87f7">
   <rect height="388.6818" width="318.904885" x="50.104688" y="45.040113"/>
  </clipPath>
  <clipPath id="p5741700d5d">
   <rect height="388.6818" width="318.904885" x="488.892542" y="45.040113"/>
  </clipPath>
 </defs>
</svg>
