<?xml version="1.0" encoding="utf-8" standalone="no"?>
<!DOCTYPE svg PUBLIC "-//W3C//DTD SVG 1.1//EN"
  "http://www.w3.org/Graphics/SVG/1.1/DTD/svg11.dtd">
<!-- Created with matplotlib (https://matplotlib.org/) -->
<svg height="458.079725pt" version="1.1" viewBox="0 0 818.061562 458.079725" width="818.061562pt" xmlns="http://www.w3.org/2000/svg" xmlns:xlink="http://www.w3.org/1999/xlink">
 <metadata>
  <rdf:RDF xmlns:cc="http://creativecommons.org/ns#" xmlns:dc="http://purl.org/dc/elements/1.1/" xmlns:rdf="http://www.w3.org/1999/02/22-rdf-syntax-ns#">
   <cc:Work>
    <dc:type rdf:resource="http://purl.org/dc/dcmitype/StillImage"/>
    <dc:date>2021-02-20T10:01:53.005557</dc:date>
    <dc:format>image/svg+xml</dc:format>
    <dc:creator>
     <cc:Agent>
      <dc:title>Matplotlib v3.3.2, https://matplotlib.org/</dc:title>
     </cc:Agent>
    </dc:creator>
   </cc:Work>
  </rdf:RDF>
 </metadata>
 <defs>
  <style type="text/css">*{stroke-linecap:butt;stroke-linejoin:round;}</style>
 </defs>
 <g id="figure_1">
  <g id="patch_1">
   <path d="M 0 458.079725 
L 818.061562 458.079725 
L 818.061562 0 
L 0 0 
z
" style="fill:#ffffff;"/>
  </g>
  <g id="axes_1">
   <g id="patch_2">
    <path d="M 50.255313 434.734413 
L 382.739688 434.734413 
L 382.739688 44.052613 
L 50.255313 44.052613 
z
" style="fill:#ffffff;"/>
   </g>
   <g id="matplotlib.axis_1">
    <g id="xtick_1">
     <g id="line2d_1">
      <path clip-path="url(#p159e200fed)" d="M 93.62284 434.734413 
L 93.62284 44.052613 
" style="fill:none;stroke:#cccccc;stroke-dasharray:2.96,1.28;stroke-dashoffset:0;stroke-opacity:0.2;stroke-width:0.8;"/>
     </g>
     <g id="line2d_2">
      <defs>
       <path d="M 0 0 
L 0 3.5 
" id="m3cce4f6a66" style="stroke:#262626;stroke-width:0.8;"/>
      </defs>
      <g>
       <use style="fill:#262626;stroke:#262626;stroke-width:0.8;" x="93.62284" xlink:href="#m3cce4f6a66" y="434.734413"/>
      </g>
     </g>
     <g id="text_1">
      <!-- 1960 -->
      <g style="fill:#262626;" transform="translate(82.500965 448.892225)scale(0.1 -0.1)">
       <defs>
        <path d="M 37.25 0 
L 28.46875 0 
L 28.46875 56 
Q 25.296875 52.984375 20.140625 49.953125 
Q 14.984375 46.921875 10.890625 45.40625 
L 10.890625 53.90625 
Q 18.265625 57.375 23.78125 62.296875 
Q 29.296875 67.234375 31.59375 71.875 
L 37.25 71.875 
z
" id="ArialMT-49"/>
        <path d="M 5.46875 16.546875 
L 13.921875 17.328125 
Q 14.984375 11.375 18.015625 8.6875 
Q 21.046875 6 25.78125 6 
Q 29.828125 6 32.875 7.859375 
Q 35.9375 9.71875 37.890625 12.8125 
Q 39.84375 15.921875 41.15625 21.1875 
Q 42.484375 26.46875 42.484375 31.9375 
Q 42.484375 32.515625 42.4375 33.6875 
Q 39.796875 29.5 35.234375 26.875 
Q 30.671875 24.265625 25.34375 24.265625 
Q 16.453125 24.265625 10.296875 30.703125 
Q 4.15625 37.15625 4.15625 47.703125 
Q 4.15625 58.59375 10.578125 65.234375 
Q 17 71.875 26.65625 71.875 
Q 33.640625 71.875 39.421875 68.109375 
Q 45.21875 64.359375 48.21875 57.390625 
Q 51.21875 50.4375 51.21875 37.25 
Q 51.21875 23.53125 48.234375 15.40625 
Q 45.265625 7.28125 39.375 3.03125 
Q 33.5 -1.21875 25.59375 -1.21875 
Q 17.1875 -1.21875 11.859375 3.4375 
Q 6.546875 8.109375 5.46875 16.546875 
z
M 41.453125 48.140625 
Q 41.453125 55.71875 37.421875 60.15625 
Q 33.40625 64.59375 27.734375 64.59375 
Q 21.875 64.59375 17.53125 59.8125 
Q 13.1875 55.03125 13.1875 47.40625 
Q 13.1875 40.578125 17.3125 36.296875 
Q 21.4375 32.03125 27.484375 32.03125 
Q 33.59375 32.03125 37.515625 36.296875 
Q 41.453125 40.578125 41.453125 48.140625 
z
" id="ArialMT-57"/>
        <path d="M 49.75 54.046875 
L 41.015625 53.375 
Q 39.84375 58.546875 37.703125 60.890625 
Q 34.125 64.65625 28.90625 64.65625 
Q 24.703125 64.65625 21.53125 62.3125 
Q 17.390625 59.28125 14.984375 53.46875 
Q 12.59375 47.65625 12.5 36.921875 
Q 15.671875 41.75 20.265625 44.09375 
Q 24.859375 46.4375 29.890625 46.4375 
Q 38.671875 46.4375 44.84375 39.96875 
Q 51.03125 33.5 51.03125 23.25 
Q 51.03125 16.5 48.125 10.71875 
Q 45.21875 4.9375 40.140625 1.859375 
Q 35.0625 -1.21875 28.609375 -1.21875 
Q 17.625 -1.21875 10.6875 6.859375 
Q 3.765625 14.9375 3.765625 33.5 
Q 3.765625 54.25 11.421875 63.671875 
Q 18.109375 71.875 29.4375 71.875 
Q 37.890625 71.875 43.28125 67.140625 
Q 48.6875 62.40625 49.75 54.046875 
z
M 13.875 23.1875 
Q 13.875 18.65625 15.796875 14.5 
Q 17.71875 10.359375 21.1875 8.171875 
Q 24.65625 6 28.46875 6 
Q 34.03125 6 38.03125 10.484375 
Q 42.046875 14.984375 42.046875 22.703125 
Q 42.046875 30.125 38.078125 34.390625 
Q 34.125 38.671875 28.125 38.671875 
Q 22.171875 38.671875 18.015625 34.390625 
Q 13.875 30.125 13.875 23.1875 
z
" id="ArialMT-54"/>
        <path d="M 4.15625 35.296875 
Q 4.15625 48 6.765625 55.734375 
Q 9.375 63.484375 14.515625 67.671875 
Q 19.671875 71.875 27.484375 71.875 
Q 33.25 71.875 37.59375 69.546875 
Q 41.9375 67.234375 44.765625 62.859375 
Q 47.609375 58.5 49.21875 52.21875 
Q 50.828125 45.953125 50.828125 35.296875 
Q 50.828125 22.703125 48.234375 14.96875 
Q 45.65625 7.234375 40.5 3 
Q 35.359375 -1.21875 27.484375 -1.21875 
Q 17.140625 -1.21875 11.234375 6.203125 
Q 4.15625 15.140625 4.15625 35.296875 
z
M 13.1875 35.296875 
Q 13.1875 17.671875 17.3125 11.828125 
Q 21.4375 6 27.484375 6 
Q 33.546875 6 37.671875 11.859375 
Q 41.796875 17.71875 41.796875 35.296875 
Q 41.796875 52.984375 37.671875 58.78125 
Q 33.546875 64.59375 27.390625 64.59375 
Q 21.34375 64.59375 17.71875 59.46875 
Q 13.1875 52.9375 13.1875 35.296875 
z
" id="ArialMT-48"/>
       </defs>
       <use xlink:href="#ArialMT-49"/>
       <use x="55.615234" xlink:href="#ArialMT-57"/>
       <use x="111.230469" xlink:href="#ArialMT-54"/>
       <use x="166.845703" xlink:href="#ArialMT-48"/>
      </g>
     </g>
    </g>
    <g id="xtick_2">
     <g id="line2d_3">
      <path clip-path="url(#p159e200fed)" d="M 141.808981 434.734413 
L 141.808981 44.052613 
" style="fill:none;stroke:#cccccc;stroke-dasharray:2.96,1.28;stroke-dashoffset:0;stroke-opacity:0.2;stroke-width:0.8;"/>
     </g>
     <g id="line2d_4">
      <g>
       <use style="fill:#262626;stroke:#262626;stroke-width:0.8;" x="141.808981" xlink:href="#m3cce4f6a66" y="434.734413"/>
      </g>
     </g>
     <g id="text_2">
      <!-- 1970 -->
      <g style="fill:#262626;" transform="translate(130.687106 448.892225)scale(0.1 -0.1)">
       <defs>
        <path d="M 4.734375 62.203125 
L 4.734375 70.65625 
L 51.078125 70.65625 
L 51.078125 63.8125 
Q 44.234375 56.546875 37.515625 44.484375 
Q 30.8125 32.421875 27.15625 19.671875 
Q 24.515625 10.6875 23.78125 0 
L 14.75 0 
Q 14.890625 8.453125 18.0625 20.40625 
Q 21.234375 32.375 27.171875 43.484375 
Q 33.109375 54.59375 39.796875 62.203125 
z
" id="ArialMT-55"/>
       </defs>
       <use xlink:href="#ArialMT-49"/>
       <use x="55.615234" xlink:href="#ArialMT-57"/>
       <use x="111.230469" xlink:href="#ArialMT-55"/>
       <use x="166.845703" xlink:href="#ArialMT-48"/>
      </g>
     </g>
    </g>
    <g id="xtick_3">
     <g id="line2d_5">
      <path clip-path="url(#p159e200fed)" d="M 189.995122 434.734413 
L 189.995122 44.052613 
" style="fill:none;stroke:#cccccc;stroke-dasharray:2.96,1.28;stroke-dashoffset:0;stroke-opacity:0.2;stroke-width:0.8;"/>
     </g>
     <g id="line2d_6">
      <g>
       <use style="fill:#262626;stroke:#262626;stroke-width:0.8;" x="189.995122" xlink:href="#m3cce4f6a66" y="434.734413"/>
      </g>
     </g>
     <g id="text_3">
      <!-- 1980 -->
      <g style="fill:#262626;" transform="translate(178.873247 448.892225)scale(0.1 -0.1)">
       <defs>
        <path d="M 17.671875 38.8125 
Q 12.203125 40.828125 9.5625 44.53125 
Q 6.9375 48.25 6.9375 53.421875 
Q 6.9375 61.234375 12.546875 66.546875 
Q 18.171875 71.875 27.484375 71.875 
Q 36.859375 71.875 42.578125 66.421875 
Q 48.296875 60.984375 48.296875 53.171875 
Q 48.296875 48.1875 45.671875 44.5 
Q 43.0625 40.828125 37.75 38.8125 
Q 44.34375 36.671875 47.78125 31.875 
Q 51.21875 27.09375 51.21875 20.453125 
Q 51.21875 11.28125 44.71875 5.03125 
Q 38.234375 -1.21875 27.640625 -1.21875 
Q 17.046875 -1.21875 10.546875 5.046875 
Q 4.046875 11.328125 4.046875 20.703125 
Q 4.046875 27.6875 7.59375 32.390625 
Q 11.140625 37.109375 17.671875 38.8125 
z
M 15.921875 53.71875 
Q 15.921875 48.640625 19.1875 45.40625 
Q 22.46875 42.1875 27.6875 42.1875 
Q 32.765625 42.1875 36.015625 45.375 
Q 39.265625 48.578125 39.265625 53.21875 
Q 39.265625 58.0625 35.90625 61.359375 
Q 32.5625 64.65625 27.59375 64.65625 
Q 22.5625 64.65625 19.234375 61.421875 
Q 15.921875 58.203125 15.921875 53.71875 
z
M 13.09375 20.65625 
Q 13.09375 16.890625 14.875 13.375 
Q 16.65625 9.859375 20.171875 7.921875 
Q 23.6875 6 27.734375 6 
Q 34.03125 6 38.125 10.046875 
Q 42.234375 14.109375 42.234375 20.359375 
Q 42.234375 26.703125 38.015625 30.859375 
Q 33.796875 35.015625 27.4375 35.015625 
Q 21.234375 35.015625 17.15625 30.90625 
Q 13.09375 26.8125 13.09375 20.65625 
z
" id="ArialMT-56"/>
       </defs>
       <use xlink:href="#ArialMT-49"/>
       <use x="55.615234" xlink:href="#ArialMT-57"/>
       <use x="111.230469" xlink:href="#ArialMT-56"/>
       <use x="166.845703" xlink:href="#ArialMT-48"/>
      </g>
     </g>
    </g>
    <g id="xtick_4">
     <g id="line2d_7">
      <path clip-path="url(#p159e200fed)" d="M 238.181264 434.734413 
L 238.181264 44.052613 
" style="fill:none;stroke:#cccccc;stroke-dasharray:2.96,1.28;stroke-dashoffset:0;stroke-opacity:0.2;stroke-width:0.8;"/>
     </g>
     <g id="line2d_8">
      <g>
       <use style="fill:#262626;stroke:#262626;stroke-width:0.8;" x="238.181264" xlink:href="#m3cce4f6a66" y="434.734413"/>
      </g>
     </g>
     <g id="text_4">
      <!-- 1990 -->
      <g style="fill:#262626;" transform="translate(227.059389 448.892225)scale(0.1 -0.1)">
       <use xlink:href="#ArialMT-49"/>
       <use x="55.615234" xlink:href="#ArialMT-57"/>
       <use x="111.230469" xlink:href="#ArialMT-57"/>
       <use x="166.845703" xlink:href="#ArialMT-48"/>
      </g>
     </g>
    </g>
    <g id="xtick_5">
     <g id="line2d_9">
      <path clip-path="url(#p159e200fed)" d="M 286.367405 434.734413 
L 286.367405 44.052613 
" style="fill:none;stroke:#cccccc;stroke-dasharray:2.96,1.28;stroke-dashoffset:0;stroke-opacity:0.2;stroke-width:0.8;"/>
     </g>
     <g id="line2d_10">
      <g>
       <use style="fill:#262626;stroke:#262626;stroke-width:0.8;" x="286.367405" xlink:href="#m3cce4f6a66" y="434.734413"/>
      </g>
     </g>
     <g id="text_5">
      <!-- 2000 -->
      <g style="fill:#262626;" transform="translate(275.24553 448.892225)scale(0.1 -0.1)">
       <defs>
        <path d="M 50.34375 8.453125 
L 50.34375 0 
L 3.03125 0 
Q 2.9375 3.171875 4.046875 6.109375 
Q 5.859375 10.9375 9.828125 15.625 
Q 13.8125 20.3125 21.34375 26.46875 
Q 33.015625 36.03125 37.109375 41.625 
Q 41.21875 47.21875 41.21875 52.203125 
Q 41.21875 57.421875 37.46875 61 
Q 33.734375 64.59375 27.734375 64.59375 
Q 21.390625 64.59375 17.578125 60.78125 
Q 13.765625 56.984375 13.71875 50.25 
L 4.6875 51.171875 
Q 5.609375 61.28125 11.65625 66.578125 
Q 17.71875 71.875 27.9375 71.875 
Q 38.234375 71.875 44.234375 66.15625 
Q 50.25 60.453125 50.25 52 
Q 50.25 47.703125 48.484375 43.546875 
Q 46.734375 39.40625 42.65625 34.8125 
Q 38.578125 30.21875 29.109375 22.21875 
Q 21.1875 15.578125 18.9375 13.203125 
Q 16.703125 10.84375 15.234375 8.453125 
z
" id="ArialMT-50"/>
       </defs>
       <use xlink:href="#ArialMT-50"/>
       <use x="55.615234" xlink:href="#ArialMT-48"/>
       <use x="111.230469" xlink:href="#ArialMT-48"/>
       <use x="166.845703" xlink:href="#ArialMT-48"/>
      </g>
     </g>
    </g>
    <g id="xtick_6">
     <g id="line2d_11">
      <path clip-path="url(#p159e200fed)" d="M 334.553546 434.734413 
L 334.553546 44.052613 
" style="fill:none;stroke:#cccccc;stroke-dasharray:2.96,1.28;stroke-dashoffset:0;stroke-opacity:0.2;stroke-width:0.8;"/>
     </g>
     <g id="line2d_12">
      <g>
       <use style="fill:#262626;stroke:#262626;stroke-width:0.8;" x="334.553546" xlink:href="#m3cce4f6a66" y="434.734413"/>
      </g>
     </g>
     <g id="text_6">
      <!-- 2010 -->
      <g style="fill:#262626;" transform="translate(323.431671 448.892225)scale(0.1 -0.1)">
       <use xlink:href="#ArialMT-50"/>
       <use x="55.615234" xlink:href="#ArialMT-48"/>
       <use x="111.230469" xlink:href="#ArialMT-49"/>
       <use x="166.845703" xlink:href="#ArialMT-48"/>
      </g>
     </g>
    </g>
    <g id="xtick_7">
     <g id="line2d_13">
      <path clip-path="url(#p159e200fed)" d="M 382.739687 434.734413 
L 382.739687 44.052613 
" style="fill:none;stroke:#cccccc;stroke-dasharray:2.96,1.28;stroke-dashoffset:0;stroke-opacity:0.2;stroke-width:0.8;"/>
     </g>
     <g id="line2d_14">
      <g>
       <use style="fill:#262626;stroke:#262626;stroke-width:0.8;" x="382.739687" xlink:href="#m3cce4f6a66" y="434.734413"/>
      </g>
     </g>
     <g id="text_7">
      <!-- 2020 -->
      <g style="fill:#262626;" transform="translate(371.617812 448.892225)scale(0.1 -0.1)">
       <use xlink:href="#ArialMT-50"/>
       <use x="55.615234" xlink:href="#ArialMT-48"/>
       <use x="111.230469" xlink:href="#ArialMT-50"/>
       <use x="166.845703" xlink:href="#ArialMT-48"/>
      </g>
     </g>
    </g>
   </g>
   <g id="matplotlib.axis_2">
    <g id="ytick_1">
     <g id="line2d_15">
      <path clip-path="url(#p159e200fed)" d="M 50.255313 414.172213 
L 382.739688 414.172213 
" style="fill:none;stroke:#cccccc;stroke-dasharray:2.96,1.28;stroke-dashoffset:0;stroke-opacity:0.2;stroke-width:0.8;"/>
     </g>
     <g id="line2d_16">
      <defs>
       <path d="M 0 0 
L -3.5 0 
" id="m21ca36b966" style="stroke:#262626;stroke-width:0.8;"/>
      </defs>
      <g>
       <use style="fill:#262626;stroke:#262626;stroke-width:0.8;" x="50.255313" xlink:href="#m21ca36b966" y="414.172213"/>
      </g>
     </g>
     <g id="text_8">
      <!-- 10% -->
      <g style="fill:#262626;" transform="translate(23.24125 417.751119)scale(0.1 -0.1)">
       <defs>
        <path d="M 5.8125 54.390625 
Q 5.8125 62.0625 9.671875 67.421875 
Q 13.53125 72.796875 20.84375 72.796875 
Q 27.59375 72.796875 32 67.984375 
Q 36.421875 63.1875 36.421875 53.859375 
Q 36.421875 44.78125 31.953125 39.875 
Q 27.484375 34.96875 20.953125 34.96875 
Q 14.453125 34.96875 10.125 39.796875 
Q 5.8125 44.625 5.8125 54.390625 
z
M 21.09375 66.75 
Q 17.828125 66.75 15.65625 63.90625 
Q 13.484375 61.078125 13.484375 53.515625 
Q 13.484375 46.625 15.671875 43.8125 
Q 17.875 41.015625 21.09375 41.015625 
Q 24.421875 41.015625 26.59375 43.84375 
Q 28.765625 46.6875 28.765625 54.203125 
Q 28.765625 61.140625 26.5625 63.9375 
Q 24.359375 66.75 21.09375 66.75 
z
M 21.140625 -2.640625 
L 60.296875 72.796875 
L 67.4375 72.796875 
L 28.421875 -2.640625 
z
M 52.09375 16.796875 
Q 52.09375 24.515625 55.953125 29.859375 
Q 59.8125 35.203125 67.1875 35.203125 
Q 73.921875 35.203125 78.34375 30.390625 
Q 82.765625 25.59375 82.765625 16.265625 
Q 82.765625 7.171875 78.296875 2.265625 
Q 73.828125 -2.640625 67.234375 -2.640625 
Q 60.75 -2.640625 56.421875 2.21875 
Q 52.09375 7.078125 52.09375 16.796875 
z
M 67.4375 29.15625 
Q 64.109375 29.15625 61.9375 26.3125 
Q 59.765625 23.484375 59.765625 15.921875 
Q 59.765625 9.078125 61.953125 6.25 
Q 64.15625 3.421875 67.390625 3.421875 
Q 70.75 3.421875 72.921875 6.25 
Q 75.09375 9.078125 75.09375 16.609375 
Q 75.09375 23.53125 72.890625 26.34375 
Q 70.703125 29.15625 67.4375 29.15625 
z
" id="ArialMT-37"/>
       </defs>
       <use xlink:href="#ArialMT-49"/>
       <use x="55.615234" xlink:href="#ArialMT-48"/>
       <use x="111.230469" xlink:href="#ArialMT-37"/>
      </g>
     </g>
    </g>
    <g id="ytick_2">
     <g id="line2d_17">
      <path clip-path="url(#p159e200fed)" d="M 50.255313 331.923413 
L 382.739688 331.923413 
" style="fill:none;stroke:#cccccc;stroke-dasharray:2.96,1.28;stroke-dashoffset:0;stroke-opacity:0.2;stroke-width:0.8;"/>
     </g>
     <g id="line2d_18">
      <g>
       <use style="fill:#262626;stroke:#262626;stroke-width:0.8;" x="50.255313" xlink:href="#m21ca36b966" y="331.923413"/>
      </g>
     </g>
     <g id="text_9">
      <!-- 20% -->
      <g style="fill:#262626;" transform="translate(23.24125 335.502319)scale(0.1 -0.1)">
       <use xlink:href="#ArialMT-50"/>
       <use x="55.615234" xlink:href="#ArialMT-48"/>
       <use x="111.230469" xlink:href="#ArialMT-37"/>
      </g>
     </g>
    </g>
    <g id="ytick_3">
     <g id="line2d_19">
      <path clip-path="url(#p159e200fed)" d="M 50.255313 249.674613 
L 382.739688 249.674613 
" style="fill:none;stroke:#cccccc;stroke-dasharray:2.96,1.28;stroke-dashoffset:0;stroke-opacity:0.2;stroke-width:0.8;"/>
     </g>
     <g id="line2d_20">
      <g>
       <use style="fill:#262626;stroke:#262626;stroke-width:0.8;" x="50.255313" xlink:href="#m21ca36b966" y="249.674613"/>
      </g>
     </g>
     <g id="text_10">
      <!-- 30% -->
      <g style="fill:#262626;" transform="translate(23.24125 253.253519)scale(0.1 -0.1)">
       <defs>
        <path d="M 4.203125 18.890625 
L 12.984375 20.0625 
Q 14.5 12.59375 18.140625 9.296875 
Q 21.78125 6 27 6 
Q 33.203125 6 37.46875 10.296875 
Q 41.75 14.59375 41.75 20.953125 
Q 41.75 27 37.796875 30.921875 
Q 33.84375 34.859375 27.734375 34.859375 
Q 25.25 34.859375 21.53125 33.890625 
L 22.515625 41.609375 
Q 23.390625 41.5 23.921875 41.5 
Q 29.546875 41.5 34.03125 44.421875 
Q 38.53125 47.359375 38.53125 53.46875 
Q 38.53125 58.296875 35.25 61.46875 
Q 31.984375 64.65625 26.8125 64.65625 
Q 21.6875 64.65625 18.265625 61.421875 
Q 14.84375 58.203125 13.875 51.765625 
L 5.078125 53.328125 
Q 6.6875 62.15625 12.390625 67.015625 
Q 18.109375 71.875 26.609375 71.875 
Q 32.46875 71.875 37.390625 69.359375 
Q 42.328125 66.84375 44.9375 62.5 
Q 47.5625 58.15625 47.5625 53.265625 
Q 47.5625 48.640625 45.0625 44.828125 
Q 42.578125 41.015625 37.703125 38.765625 
Q 44.046875 37.3125 47.5625 32.6875 
Q 51.078125 28.078125 51.078125 21.140625 
Q 51.078125 11.765625 44.234375 5.25 
Q 37.40625 -1.265625 26.953125 -1.265625 
Q 17.53125 -1.265625 11.296875 4.34375 
Q 5.078125 9.96875 4.203125 18.890625 
z
" id="ArialMT-51"/>
       </defs>
       <use xlink:href="#ArialMT-51"/>
       <use x="55.615234" xlink:href="#ArialMT-48"/>
       <use x="111.230469" xlink:href="#ArialMT-37"/>
      </g>
     </g>
    </g>
    <g id="ytick_4">
     <g id="line2d_21">
      <path clip-path="url(#p159e200fed)" d="M 50.255313 167.425813 
L 382.739688 167.425813 
" style="fill:none;stroke:#cccccc;stroke-dasharray:2.96,1.28;stroke-dashoffset:0;stroke-opacity:0.2;stroke-width:0.8;"/>
     </g>
     <g id="line2d_22">
      <g>
       <use style="fill:#262626;stroke:#262626;stroke-width:0.8;" x="50.255313" xlink:href="#m21ca36b966" y="167.425813"/>
      </g>
     </g>
     <g id="text_11">
      <!-- 40% -->
      <g style="fill:#262626;" transform="translate(23.24125 171.004719)scale(0.1 -0.1)">
       <defs>
        <path d="M 32.328125 0 
L 32.328125 17.140625 
L 1.265625 17.140625 
L 1.265625 25.203125 
L 33.9375 71.578125 
L 41.109375 71.578125 
L 41.109375 25.203125 
L 50.78125 25.203125 
L 50.78125 17.140625 
L 41.109375 17.140625 
L 41.109375 0 
z
M 32.328125 25.203125 
L 32.328125 57.46875 
L 9.90625 25.203125 
z
" id="ArialMT-52"/>
       </defs>
       <use xlink:href="#ArialMT-52"/>
       <use x="55.615234" xlink:href="#ArialMT-48"/>
       <use x="111.230469" xlink:href="#ArialMT-37"/>
      </g>
     </g>
    </g>
    <g id="ytick_5">
     <g id="line2d_23">
      <path clip-path="url(#p159e200fed)" d="M 50.255313 85.177013 
L 382.739688 85.177013 
" style="fill:none;stroke:#cccccc;stroke-dasharray:2.96,1.28;stroke-dashoffset:0;stroke-opacity:0.2;stroke-width:0.8;"/>
     </g>
     <g id="line2d_24">
      <g>
       <use style="fill:#262626;stroke:#262626;stroke-width:0.8;" x="50.255313" xlink:href="#m21ca36b966" y="85.177013"/>
      </g>
     </g>
     <g id="text_12">
      <!-- 50% -->
      <g style="fill:#262626;" transform="translate(23.24125 88.755919)scale(0.1 -0.1)">
       <defs>
        <path d="M 4.15625 18.75 
L 13.375 19.53125 
Q 14.40625 12.796875 18.140625 9.390625 
Q 21.875 6 27.15625 6 
Q 33.5 6 37.890625 10.78125 
Q 42.28125 15.578125 42.28125 23.484375 
Q 42.28125 31 38.0625 35.34375 
Q 33.84375 39.703125 27 39.703125 
Q 22.75 39.703125 19.328125 37.765625 
Q 15.921875 35.84375 13.96875 32.765625 
L 5.71875 33.84375 
L 12.640625 70.609375 
L 48.25 70.609375 
L 48.25 62.203125 
L 19.671875 62.203125 
L 15.828125 42.96875 
Q 22.265625 47.46875 29.34375 47.46875 
Q 38.71875 47.46875 45.15625 40.96875 
Q 51.609375 34.46875 51.609375 24.265625 
Q 51.609375 14.546875 45.953125 7.46875 
Q 39.0625 -1.21875 27.15625 -1.21875 
Q 17.390625 -1.21875 11.203125 4.25 
Q 5.03125 9.71875 4.15625 18.75 
z
" id="ArialMT-53"/>
       </defs>
       <use xlink:href="#ArialMT-53"/>
       <use x="55.615234" xlink:href="#ArialMT-48"/>
       <use x="111.230469" xlink:href="#ArialMT-37"/>
      </g>
     </g>
    </g>
    <g id="text_13">
     <!-- Female Authorship: Ten Year Rolling Interval -->
     <g style="fill:#262626;" transform="translate(16.505156 367.185544)rotate(-90)scale(0.13 -0.13)">
      <defs>
       <path d="M 8.203125 0 
L 8.203125 71.578125 
L 56.5 71.578125 
L 56.5 63.140625 
L 17.671875 63.140625 
L 17.671875 40.96875 
L 51.265625 40.96875 
L 51.265625 32.515625 
L 17.671875 32.515625 
L 17.671875 0 
z
" id="ArialMT-70"/>
       <path d="M 42.09375 16.703125 
L 51.171875 15.578125 
Q 49.03125 7.625 43.21875 3.21875 
Q 37.40625 -1.171875 28.375 -1.171875 
Q 17 -1.171875 10.328125 5.828125 
Q 3.65625 12.84375 3.65625 25.484375 
Q 3.65625 38.578125 10.390625 45.796875 
Q 17.140625 53.03125 27.875 53.03125 
Q 38.28125 53.03125 44.875 45.953125 
Q 51.46875 38.875 51.46875 26.03125 
Q 51.46875 25.25 51.421875 23.6875 
L 12.75 23.6875 
Q 13.234375 15.140625 17.578125 10.59375 
Q 21.921875 6.0625 28.421875 6.0625 
Q 33.25 6.0625 36.671875 8.59375 
Q 40.09375 11.140625 42.09375 16.703125 
z
M 13.234375 30.90625 
L 42.1875 30.90625 
Q 41.609375 37.453125 38.875 40.71875 
Q 34.671875 45.796875 27.984375 45.796875 
Q 21.921875 45.796875 17.796875 41.75 
Q 13.671875 37.703125 13.234375 30.90625 
z
" id="ArialMT-101"/>
       <path d="M 6.59375 0 
L 6.59375 51.859375 
L 14.453125 51.859375 
L 14.453125 44.578125 
Q 16.890625 48.390625 20.9375 50.703125 
Q 25 53.03125 30.171875 53.03125 
Q 35.9375 53.03125 39.625 50.640625 
Q 43.3125 48.25 44.828125 43.953125 
Q 50.984375 53.03125 60.84375 53.03125 
Q 68.5625 53.03125 72.703125 48.75 
Q 76.859375 44.484375 76.859375 35.59375 
L 76.859375 0 
L 68.109375 0 
L 68.109375 32.671875 
Q 68.109375 37.9375 67.25 40.25 
Q 66.40625 42.578125 64.15625 43.984375 
Q 61.921875 45.40625 58.890625 45.40625 
Q 53.421875 45.40625 49.796875 41.765625 
Q 46.1875 38.140625 46.1875 30.125 
L 46.1875 0 
L 37.40625 0 
L 37.40625 33.6875 
Q 37.40625 39.546875 35.25 42.46875 
Q 33.109375 45.40625 28.21875 45.40625 
Q 24.515625 45.40625 21.359375 43.453125 
Q 18.21875 41.5 16.796875 37.734375 
Q 15.375 33.984375 15.375 26.90625 
L 15.375 0 
z
" id="ArialMT-109"/>
       <path d="M 40.4375 6.390625 
Q 35.546875 2.25 31.03125 0.53125 
Q 26.515625 -1.171875 21.34375 -1.171875 
Q 12.796875 -1.171875 8.203125 3 
Q 3.609375 7.171875 3.609375 13.671875 
Q 3.609375 17.484375 5.34375 20.625 
Q 7.078125 23.78125 9.890625 25.6875 
Q 12.703125 27.59375 16.21875 28.5625 
Q 18.796875 29.25 24.03125 29.890625 
Q 34.671875 31.15625 39.703125 32.90625 
Q 39.75 34.71875 39.75 35.203125 
Q 39.75 40.578125 37.25 42.78125 
Q 33.890625 45.75 27.25 45.75 
Q 21.046875 45.75 18.09375 43.578125 
Q 15.140625 41.40625 13.71875 35.890625 
L 5.125 37.0625 
Q 6.296875 42.578125 8.984375 45.96875 
Q 11.671875 49.359375 16.75 51.1875 
Q 21.828125 53.03125 28.515625 53.03125 
Q 35.15625 53.03125 39.296875 51.46875 
Q 43.453125 49.90625 45.40625 47.53125 
Q 47.359375 45.171875 48.140625 41.546875 
Q 48.578125 39.3125 48.578125 33.453125 
L 48.578125 21.734375 
Q 48.578125 9.46875 49.140625 6.21875 
Q 49.703125 2.984375 51.375 0 
L 42.1875 0 
Q 40.828125 2.734375 40.4375 6.390625 
z
M 39.703125 26.03125 
Q 34.90625 24.078125 25.34375 22.703125 
Q 19.921875 21.921875 17.671875 20.9375 
Q 15.4375 19.96875 14.203125 18.09375 
Q 12.984375 16.21875 12.984375 13.921875 
Q 12.984375 10.40625 15.640625 8.0625 
Q 18.3125 5.71875 23.4375 5.71875 
Q 28.515625 5.71875 32.46875 7.9375 
Q 36.421875 10.15625 38.28125 14.015625 
Q 39.703125 17 39.703125 22.796875 
z
" id="ArialMT-97"/>
       <path d="M 6.390625 0 
L 6.390625 71.578125 
L 15.1875 71.578125 
L 15.1875 0 
z
" id="ArialMT-108"/>
       <path id="ArialMT-32"/>
       <path d="M -0.140625 0 
L 27.34375 71.578125 
L 37.546875 71.578125 
L 66.84375 0 
L 56.0625 0 
L 47.703125 21.6875 
L 17.78125 21.6875 
L 9.90625 0 
z
M 20.515625 29.390625 
L 44.78125 29.390625 
L 37.3125 49.21875 
Q 33.890625 58.25 32.234375 64.0625 
Q 30.859375 57.171875 28.375 50.390625 
z
" id="ArialMT-65"/>
       <path d="M 40.578125 0 
L 40.578125 7.625 
Q 34.515625 -1.171875 24.125 -1.171875 
Q 19.53125 -1.171875 15.546875 0.578125 
Q 11.578125 2.34375 9.640625 5 
Q 7.71875 7.671875 6.9375 11.53125 
Q 6.390625 14.109375 6.390625 19.734375 
L 6.390625 51.859375 
L 15.1875 51.859375 
L 15.1875 23.09375 
Q 15.1875 16.21875 15.71875 13.8125 
Q 16.546875 10.359375 19.234375 8.375 
Q 21.921875 6.390625 25.875 6.390625 
Q 29.828125 6.390625 33.296875 8.421875 
Q 36.765625 10.453125 38.203125 13.9375 
Q 39.65625 17.4375 39.65625 24.078125 
L 39.65625 51.859375 
L 48.4375 51.859375 
L 48.4375 0 
z
" id="ArialMT-117"/>
       <path d="M 25.78125 7.859375 
L 27.046875 0.09375 
Q 23.34375 -0.6875 20.40625 -0.6875 
Q 15.625 -0.6875 12.984375 0.828125 
Q 10.359375 2.34375 9.28125 4.8125 
Q 8.203125 7.28125 8.203125 15.1875 
L 8.203125 45.015625 
L 1.765625 45.015625 
L 1.765625 51.859375 
L 8.203125 51.859375 
L 8.203125 64.703125 
L 16.9375 69.96875 
L 16.9375 51.859375 
L 25.78125 51.859375 
L 25.78125 45.015625 
L 16.9375 45.015625 
L 16.9375 14.703125 
Q 16.9375 10.9375 17.40625 9.859375 
Q 17.875 8.796875 18.921875 8.15625 
Q 19.96875 7.515625 21.921875 7.515625 
Q 23.390625 7.515625 25.78125 7.859375 
z
" id="ArialMT-116"/>
       <path d="M 6.59375 0 
L 6.59375 71.578125 
L 15.375 71.578125 
L 15.375 45.90625 
Q 21.53125 53.03125 30.90625 53.03125 
Q 36.671875 53.03125 40.921875 50.75 
Q 45.171875 48.484375 47 44.484375 
Q 48.828125 40.484375 48.828125 32.859375 
L 48.828125 0 
L 40.046875 0 
L 40.046875 32.859375 
Q 40.046875 39.453125 37.1875 42.453125 
Q 34.328125 45.453125 29.109375 45.453125 
Q 25.203125 45.453125 21.75 43.421875 
Q 18.3125 41.40625 16.84375 37.9375 
Q 15.375 34.46875 15.375 28.375 
L 15.375 0 
z
" id="ArialMT-104"/>
       <path d="M 3.328125 25.921875 
Q 3.328125 40.328125 11.328125 47.265625 
Q 18.015625 53.03125 27.640625 53.03125 
Q 38.328125 53.03125 45.109375 46.015625 
Q 51.90625 39.015625 51.90625 26.65625 
Q 51.90625 16.65625 48.90625 10.90625 
Q 45.90625 5.171875 40.15625 2 
Q 34.421875 -1.171875 27.640625 -1.171875 
Q 16.75 -1.171875 10.03125 5.8125 
Q 3.328125 12.796875 3.328125 25.921875 
z
M 12.359375 25.921875 
Q 12.359375 15.96875 16.703125 11.015625 
Q 21.046875 6.0625 27.640625 6.0625 
Q 34.1875 6.0625 38.53125 11.03125 
Q 42.875 16.015625 42.875 26.21875 
Q 42.875 35.84375 38.5 40.796875 
Q 34.125 45.75 27.640625 45.75 
Q 21.046875 45.75 16.703125 40.8125 
Q 12.359375 35.890625 12.359375 25.921875 
z
" id="ArialMT-111"/>
       <path d="M 6.5 0 
L 6.5 51.859375 
L 14.40625 51.859375 
L 14.40625 44 
Q 17.4375 49.515625 20 51.265625 
Q 22.5625 53.03125 25.640625 53.03125 
Q 30.078125 53.03125 34.671875 50.203125 
L 31.640625 42.046875 
Q 28.421875 43.953125 25.203125 43.953125 
Q 22.3125 43.953125 20.015625 42.21875 
Q 17.71875 40.484375 16.75 37.40625 
Q 15.28125 32.71875 15.28125 27.15625 
L 15.28125 0 
z
" id="ArialMT-114"/>
       <path d="M 3.078125 15.484375 
L 11.765625 16.84375 
Q 12.5 11.625 15.84375 8.84375 
Q 19.1875 6.0625 25.203125 6.0625 
Q 31.25 6.0625 34.171875 8.515625 
Q 37.109375 10.984375 37.109375 14.3125 
Q 37.109375 17.28125 34.515625 19 
Q 32.71875 20.171875 25.53125 21.96875 
Q 15.875 24.421875 12.140625 26.203125 
Q 8.40625 27.984375 6.46875 31.125 
Q 4.546875 34.28125 4.546875 38.09375 
Q 4.546875 41.546875 6.125 44.5 
Q 7.71875 47.46875 10.453125 49.421875 
Q 12.5 50.921875 16.03125 51.96875 
Q 19.578125 53.03125 23.640625 53.03125 
Q 29.734375 53.03125 34.34375 51.265625 
Q 38.96875 49.515625 41.15625 46.5 
Q 43.359375 43.5 44.1875 38.484375 
L 35.59375 37.3125 
Q 35.015625 41.3125 32.203125 43.546875 
Q 29.390625 45.796875 24.265625 45.796875 
Q 18.21875 45.796875 15.625 43.796875 
Q 13.03125 41.796875 13.03125 39.109375 
Q 13.03125 37.40625 14.109375 36.03125 
Q 15.1875 34.625 17.484375 33.6875 
Q 18.796875 33.203125 25.25 31.453125 
Q 34.578125 28.953125 38.25 27.359375 
Q 41.9375 25.78125 44.03125 22.75 
Q 46.140625 19.734375 46.140625 15.234375 
Q 46.140625 10.84375 43.578125 6.953125 
Q 41.015625 3.078125 36.171875 0.953125 
Q 31.34375 -1.171875 25.25 -1.171875 
Q 15.140625 -1.171875 9.84375 3.03125 
Q 4.546875 7.234375 3.078125 15.484375 
z
" id="ArialMT-115"/>
       <path d="M 6.640625 61.46875 
L 6.640625 71.578125 
L 15.4375 71.578125 
L 15.4375 61.46875 
z
M 6.640625 0 
L 6.640625 51.859375 
L 15.4375 51.859375 
L 15.4375 0 
z
" id="ArialMT-105"/>
       <path d="M 6.59375 -19.875 
L 6.59375 51.859375 
L 14.59375 51.859375 
L 14.59375 45.125 
Q 17.4375 49.078125 21 51.046875 
Q 24.5625 53.03125 29.640625 53.03125 
Q 36.28125 53.03125 41.359375 49.609375 
Q 46.4375 46.1875 49.015625 39.953125 
Q 51.609375 33.734375 51.609375 26.3125 
Q 51.609375 18.359375 48.75 11.984375 
Q 45.90625 5.609375 40.453125 2.21875 
Q 35.015625 -1.171875 29 -1.171875 
Q 24.609375 -1.171875 21.109375 0.6875 
Q 17.625 2.546875 15.375 5.375 
L 15.375 -19.875 
z
M 14.546875 25.640625 
Q 14.546875 15.625 18.59375 10.84375 
Q 22.65625 6.0625 28.421875 6.0625 
Q 34.28125 6.0625 38.453125 11.015625 
Q 42.625 15.96875 42.625 26.375 
Q 42.625 36.28125 38.546875 41.203125 
Q 34.46875 46.140625 28.8125 46.140625 
Q 23.1875 46.140625 18.859375 40.890625 
Q 14.546875 35.640625 14.546875 25.640625 
z
" id="ArialMT-112"/>
       <path d="M 9.03125 41.84375 
L 9.03125 51.859375 
L 19.046875 51.859375 
L 19.046875 41.84375 
z
M 9.03125 0 
L 9.03125 10.015625 
L 19.046875 10.015625 
L 19.046875 0 
z
" id="ArialMT-58"/>
       <path d="M 25.921875 0 
L 25.921875 63.140625 
L 2.34375 63.140625 
L 2.34375 71.578125 
L 59.078125 71.578125 
L 59.078125 63.140625 
L 35.40625 63.140625 
L 35.40625 0 
z
" id="ArialMT-84"/>
       <path d="M 6.59375 0 
L 6.59375 51.859375 
L 14.5 51.859375 
L 14.5 44.484375 
Q 20.21875 53.03125 31 53.03125 
Q 35.6875 53.03125 39.625 51.34375 
Q 43.5625 49.65625 45.515625 46.921875 
Q 47.46875 44.1875 48.25 40.4375 
Q 48.734375 37.984375 48.734375 31.890625 
L 48.734375 0 
L 39.9375 0 
L 39.9375 31.546875 
Q 39.9375 36.921875 38.90625 39.578125 
Q 37.890625 42.234375 35.28125 43.8125 
Q 32.671875 45.40625 29.15625 45.40625 
Q 23.53125 45.40625 19.453125 41.84375 
Q 15.375 38.28125 15.375 28.328125 
L 15.375 0 
z
" id="ArialMT-110"/>
       <path d="M 27.875 0 
L 27.875 30.328125 
L 0.296875 71.578125 
L 11.8125 71.578125 
L 25.921875 50 
Q 29.828125 43.953125 33.203125 37.890625 
Q 36.421875 43.5 41.015625 50.53125 
L 54.890625 71.578125 
L 65.921875 71.578125 
L 37.359375 30.328125 
L 37.359375 0 
z
" id="ArialMT-89"/>
       <path d="M 7.859375 0 
L 7.859375 71.578125 
L 39.59375 71.578125 
Q 49.171875 71.578125 54.140625 69.640625 
Q 59.125 67.71875 62.109375 62.828125 
Q 65.09375 57.953125 65.09375 52.046875 
Q 65.09375 44.4375 60.15625 39.203125 
Q 55.21875 33.984375 44.921875 32.5625 
Q 48.6875 30.765625 50.640625 29 
Q 54.78125 25.203125 58.5 19.484375 
L 70.953125 0 
L 59.03125 0 
L 49.5625 14.890625 
Q 45.40625 21.34375 42.71875 24.75 
Q 40.046875 28.171875 37.921875 29.53125 
Q 35.796875 30.90625 33.59375 31.453125 
Q 31.984375 31.78125 28.328125 31.78125 
L 17.328125 31.78125 
L 17.328125 0 
z
M 17.328125 39.984375 
L 37.703125 39.984375 
Q 44.1875 39.984375 47.84375 41.328125 
Q 51.515625 42.671875 53.421875 45.625 
Q 55.328125 48.578125 55.328125 52.046875 
Q 55.328125 57.125 51.640625 60.390625 
Q 47.953125 63.671875 39.984375 63.671875 
L 17.328125 63.671875 
z
" id="ArialMT-82"/>
       <path d="M 4.984375 -4.296875 
L 13.53125 -5.5625 
Q 14.0625 -9.515625 16.5 -11.328125 
Q 19.78125 -13.765625 25.4375 -13.765625 
Q 31.546875 -13.765625 34.859375 -11.328125 
Q 38.1875 -8.890625 39.359375 -4.5 
Q 40.046875 -1.8125 39.984375 6.78125 
Q 34.234375 0 25.640625 0 
Q 14.9375 0 9.078125 7.71875 
Q 3.21875 15.4375 3.21875 26.21875 
Q 3.21875 33.640625 5.90625 39.90625 
Q 8.59375 46.1875 13.6875 49.609375 
Q 18.796875 53.03125 25.6875 53.03125 
Q 34.859375 53.03125 40.828125 45.609375 
L 40.828125 51.859375 
L 48.921875 51.859375 
L 48.921875 7.03125 
Q 48.921875 -5.078125 46.453125 -10.125 
Q 44 -15.1875 38.640625 -18.109375 
Q 33.296875 -21.046875 25.484375 -21.046875 
Q 16.21875 -21.046875 10.5 -16.875 
Q 4.78125 -12.703125 4.984375 -4.296875 
z
M 12.25 26.859375 
Q 12.25 16.65625 16.296875 11.96875 
Q 20.359375 7.28125 26.46875 7.28125 
Q 32.515625 7.28125 36.609375 11.9375 
Q 40.71875 16.609375 40.71875 26.5625 
Q 40.71875 36.078125 36.5 40.90625 
Q 32.28125 45.75 26.3125 45.75 
Q 20.453125 45.75 16.34375 40.984375 
Q 12.25 36.234375 12.25 26.859375 
z
" id="ArialMT-103"/>
       <path d="M 9.328125 0 
L 9.328125 71.578125 
L 18.796875 71.578125 
L 18.796875 0 
z
" id="ArialMT-73"/>
       <path d="M 21 0 
L 1.265625 51.859375 
L 10.546875 51.859375 
L 21.6875 20.796875 
Q 23.484375 15.765625 25 10.359375 
Q 26.171875 14.453125 28.265625 20.21875 
L 39.796875 51.859375 
L 48.828125 51.859375 
L 29.203125 0 
z
" id="ArialMT-118"/>
      </defs>
      <use xlink:href="#ArialMT-70"/>
      <use x="61.083984" xlink:href="#ArialMT-101"/>
      <use x="116.699219" xlink:href="#ArialMT-109"/>
      <use x="200" xlink:href="#ArialMT-97"/>
      <use x="255.615234" xlink:href="#ArialMT-108"/>
      <use x="277.832031" xlink:href="#ArialMT-101"/>
      <use x="333.447266" xlink:href="#ArialMT-32"/>
      <use x="355.730469" xlink:href="#ArialMT-65"/>
      <use x="422.429688" xlink:href="#ArialMT-117"/>
      <use x="478.044922" xlink:href="#ArialMT-116"/>
      <use x="505.828125" xlink:href="#ArialMT-104"/>
      <use x="561.443359" xlink:href="#ArialMT-111"/>
      <use x="617.058594" xlink:href="#ArialMT-114"/>
      <use x="650.359375" xlink:href="#ArialMT-115"/>
      <use x="700.359375" xlink:href="#ArialMT-104"/>
      <use x="755.974609" xlink:href="#ArialMT-105"/>
      <use x="778.191406" xlink:href="#ArialMT-112"/>
      <use x="833.806641" xlink:href="#ArialMT-58"/>
      <use x="861.589844" xlink:href="#ArialMT-32"/>
      <use x="887.623047" xlink:href="#ArialMT-84"/>
      <use x="937.582031" xlink:href="#ArialMT-101"/>
      <use x="993.197266" xlink:href="#ArialMT-110"/>
      <use x="1048.8125" xlink:href="#ArialMT-32"/>
      <use x="1074.845703" xlink:href="#ArialMT-89"/>
      <use x="1132.419922" xlink:href="#ArialMT-101"/>
      <use x="1188.035156" xlink:href="#ArialMT-97"/>
      <use x="1243.650391" xlink:href="#ArialMT-114"/>
      <use x="1276.951172" xlink:href="#ArialMT-32"/>
      <use x="1304.734375" xlink:href="#ArialMT-82"/>
      <use x="1376.951172" xlink:href="#ArialMT-111"/>
      <use x="1432.566406" xlink:href="#ArialMT-108"/>
      <use x="1454.783203" xlink:href="#ArialMT-108"/>
      <use x="1477" xlink:href="#ArialMT-105"/>
      <use x="1499.216797" xlink:href="#ArialMT-110"/>
      <use x="1554.832031" xlink:href="#ArialMT-103"/>
      <use x="1610.447266" xlink:href="#ArialMT-32"/>
      <use x="1638.230469" xlink:href="#ArialMT-73"/>
      <use x="1666.013672" xlink:href="#ArialMT-110"/>
      <use x="1721.628906" xlink:href="#ArialMT-116"/>
      <use x="1749.412109" xlink:href="#ArialMT-101"/>
      <use x="1805.027344" xlink:href="#ArialMT-114"/>
      <use x="1838.328125" xlink:href="#ArialMT-118"/>
      <use x="1888.328125" xlink:href="#ArialMT-97"/>
      <use x="1943.943359" xlink:href="#ArialMT-108"/>
     </g>
    </g>
   </g>
   <g id="PolyCollection_1">
    <defs>
     <path d="M 377.921073 -372.019038 
L 377.921073 -258.59765 
L 373.102459 -251.403259 
L 368.283845 -270.727692 
L 363.465231 -266.935439 
L 358.646617 -265.688558 
L 353.828003 -261.645734 
L 349.009389 -247.77897 
L 344.190774 -247.436976 
L 339.37216 -233.155564 
L 334.553546 -215.771569 
L 329.734932 -198.417209 
L 324.916318 -182.09409 
L 320.097704 -160.572604 
L 315.27909 -159.817079 
L 310.460476 -143.263674 
L 305.641861 -159.662488 
L 300.823247 -170.053883 
L 296.004633 -166.87269 
L 291.186019 -158.027882 
L 286.367405 -164.001524 
L 281.548791 -161.520039 
L 276.730177 -157.742957 
L 271.911562 -142.224952 
L 267.092948 -144.201876 
L 262.274334 -145.470645 
L 257.45572 -160.585825 
L 252.637106 -171.071828 
L 247.818492 -195.000633 
L 242.999878 -219.853123 
L 238.181264 -247.577232 
L 233.362649 -271.549752 
L 228.544035 -268.285776 
L 223.725421 -282.24125 
L 218.906807 -275.434387 
L 214.088193 -278.744123 
L 209.269579 -232.98378 
L 204.450965 -204.37222 
L 199.632351 -164.315011 
L 194.813736 -146.77849 
L 189.995122 -118.395344 
L 185.176508 -96.302286 
L 180.357894 -92.000806 
L 175.53928 -91.203015 
L 170.720666 -89.883563 
L 165.902052 -79.327582 
L 161.083437 -73.290176 
L 156.264823 -60.18527 
L 151.446209 -65.40845 
L 146.627595 -43.764443 
L 141.808981 -55.451204 
L 136.990367 -61.371646 
L 132.171753 -71.723249 
L 127.353139 -78.107548 
L 122.534524 -54.574507 
L 117.71591 -43.701375 
L 112.897296 -58.245101 
L 108.078682 -90.580296 
L 103.260068 -113.788819 
L 98.441454 -158.776516 
L 93.62284 -140.82824 
L 88.804226 -130.877942 
L 83.985611 -135.86624 
L 79.166997 -129.173792 
L 74.348383 -155.504608 
L 74.348383 -211.401851 
L 74.348383 -211.401851 
L 79.166997 -179.138016 
L 83.985611 -181.560018 
L 88.804226 -177.433866 
L 93.62284 -198.938805 
L 98.441454 -209.652062 
L 103.260068 -165.657431 
L 108.078682 -154.948922 
L 112.897296 -133.639834 
L 117.71591 -130.279059 
L 122.534524 -145.331803 
L 127.353139 -168.581228 
L 132.171753 -160.027176 
L 136.990367 -145.970412 
L 141.808981 -142.028888 
L 146.627595 -132.626212 
L 151.446209 -163.705796 
L 156.264823 -156.202592 
L 161.083437 -163.356011 
L 165.902052 -162.913761 
L 170.720666 -168.665938 
L 175.53928 -172.181564 
L 180.357894 -178.421647 
L 185.176508 -180.046518 
L 189.995122 -196.237958 
L 194.813736 -223.790475 
L 199.632351 -241.423261 
L 204.450965 -281.700152 
L 209.269579 -315.61692 
L 214.088193 -364.250302 
L 218.906807 -369.549929 
L 223.725421 -364.865615 
L 228.544035 -345.739803 
L 233.362649 -358.034542 
L 238.181264 -337.122296 
L 242.999878 -312.714672 
L 247.818492 -285.935775 
L 252.637106 -255.049582 
L 257.45572 -248.227989 
L 262.274334 -237.790727 
L 267.092948 -236.053327 
L 271.911562 -244.776983 
L 276.730177 -261.855362 
L 281.548791 -268.362843 
L 286.367405 -274.409396 
L 291.186019 -269.588755 
L 296.004633 -282.837055 
L 300.823247 -291.509365 
L 305.641861 -280.308049 
L 310.460476 -262.201889 
L 315.27909 -280.011581 
L 320.097704 -281.923293 
L 324.916318 -304.122099 
L 329.734932 -320.010988 
L 334.553546 -338.950786 
L 339.37216 -353.213725 
L 344.190774 -367.97401 
L 349.009389 -368.422285 
L 353.828003 -385.461131 
L 358.646617 -386.540388 
L 363.465231 -384.802443 
L 368.283845 -386.638163 
L 373.102459 -369.009938 
L 377.921073 -372.019038 
z
" id="m9e3fd9594d" style="stroke:#ffb94e;stroke-opacity:0.2;"/>
    </defs>
    <g clip-path="url(#p159e200fed)">
     <use style="fill:#ffb94e;fill-opacity:0.2;stroke:#ffb94e;stroke-opacity:0.2;" x="0" xlink:href="#m9e3fd9594d" y="458.079725"/>
    </g>
   </g>
   <g id="line2d_25">
    <path clip-path="url(#p159e200fed)" d="M 377.921073 199.482076 
L 373.102459 206.676466 
L 368.283845 187.352033 
L 363.465231 191.144286 
L 358.646617 192.391168 
L 353.828003 196.433992 
L 349.009389 210.300755 
L 344.190774 210.64275 
L 339.37216 224.924161 
L 334.553546 242.308157 
L 329.734932 259.662517 
L 324.916318 275.985636 
L 320.097704 297.507121 
L 315.27909 298.262646 
L 310.460476 314.816052 
L 305.641861 298.417238 
L 300.823247 288.025842 
L 296.004633 291.207036 
L 291.186019 300.051843 
L 286.367405 294.078201 
L 281.548791 296.559686 
L 276.730177 300.336768 
L 271.911562 315.854773 
L 267.092948 313.87785 
L 262.274334 312.60908 
L 257.45572 297.493901 
L 252.637106 287.007897 
L 247.818492 263.079092 
L 242.999878 238.226602 
L 238.181264 210.502494 
L 233.362649 186.529973 
L 228.544035 189.793949 
L 223.725421 175.838476 
L 218.906807 182.645339 
L 214.088193 179.335602 
L 209.269579 225.095946 
L 204.450965 253.707505 
L 199.632351 293.764715 
L 194.813736 311.301236 
L 189.995122 339.684382 
L 185.176508 361.77744 
L 180.357894 366.07892 
L 175.53928 366.87671 
L 170.720666 368.196163 
L 165.902052 378.752143 
L 161.083437 384.789549 
L 156.264823 397.894455 
L 151.446209 392.671276 
L 146.627595 414.315282 
L 141.808981 402.628522 
L 136.990367 396.708079 
L 132.171753 386.356476 
L 127.353139 379.972178 
L 122.534524 403.505219 
L 117.71591 414.37835 
L 112.897296 399.834625 
L 108.078682 367.499429 
L 103.260068 344.290907 
L 98.441454 299.30321 
L 93.62284 317.251485 
L 88.804226 327.201784 
L 83.985611 322.213485 
L 79.166997 328.905934 
L 74.348383 302.575118 
" style="fill:none;stroke:#ffb94e;stroke-dasharray:3.6,1.8;stroke-dashoffset:0;stroke-width:0.3;"/>
   </g>
   <g id="line2d_26">
    <path clip-path="url(#p159e200fed)" d="M 377.921073 86.060688 
L 373.102459 89.069787 
L 368.283845 71.441562 
L 363.465231 73.277282 
L 358.646617 71.539337 
L 353.828003 72.618594 
L 349.009389 89.65744 
L 344.190774 90.105715 
L 339.37216 104.866 
L 334.553546 119.12894 
L 329.734932 138.068738 
L 324.916318 153.957626 
L 320.097704 176.156433 
L 315.27909 178.068144 
L 310.460476 195.877836 
L 305.641861 177.771676 
L 300.823247 166.57036 
L 296.004633 175.24267 
L 291.186019 188.490971 
L 286.367405 183.67033 
L 281.548791 189.716883 
L 276.730177 196.224363 
L 271.911562 213.302743 
L 267.092948 222.026398 
L 262.274334 220.288998 
L 257.45572 209.851737 
L 252.637106 203.030144 
L 247.818492 172.143951 
L 242.999878 145.365054 
L 238.181264 120.957429 
L 233.362649 100.045183 
L 228.544035 112.339922 
L 223.725421 93.21411 
L 218.906807 88.529797 
L 214.088193 93.829424 
L 209.269579 142.462805 
L 204.450965 176.379574 
L 199.632351 216.656465 
L 194.813736 234.289251 
L 189.995122 261.841768 
L 185.176508 278.033207 
L 180.357894 279.658079 
L 175.53928 285.898162 
L 170.720666 289.413787 
L 165.902052 295.165964 
L 161.083437 294.723715 
L 156.264823 301.877134 
L 151.446209 294.37393 
L 146.627595 325.453513 
L 141.808981 316.050838 
L 136.990367 312.109314 
L 132.171753 298.05255 
L 127.353139 289.498498 
L 122.534524 312.747922 
L 117.71591 327.800666 
L 112.897296 324.439891 
L 108.078682 303.130803 
L 103.260068 292.422294 
L 98.441454 248.427663 
L 93.62284 259.14092 
L 88.804226 280.645859 
L 83.985611 276.519707 
L 79.166997 278.941709 
L 74.348383 246.677875 
" style="fill:none;stroke:#ffb94e;stroke-dasharray:3.6,1.8;stroke-dashoffset:0;stroke-width:0.3;"/>
   </g>
   <g id="line2d_27">
    <path clip-path="url(#p159e200fed)" d="M 377.921073 142.771382 
L 373.102459 147.873127 
L 368.283845 129.396798 
L 363.465231 132.210784 
L 358.646617 131.965253 
L 353.828003 134.526293 
L 349.009389 149.979098 
L 344.190774 150.374233 
L 339.37216 164.895081 
L 334.553546 180.718548 
L 329.734932 198.865627 
L 324.916318 214.971631 
L 320.097704 236.831777 
L 315.27909 238.165395 
L 310.460476 255.346944 
L 305.641861 238.094457 
L 300.823247 227.298101 
L 296.004633 233.224853 
L 291.186019 244.271407 
L 286.367405 238.874266 
L 281.548791 243.138285 
L 276.730177 248.280566 
L 271.911562 264.578758 
L 267.092948 267.952124 
L 262.274334 266.449039 
L 257.45572 253.672819 
L 252.637106 245.019021 
L 247.818492 217.611521 
L 242.999878 191.795828 
L 238.181264 165.729961 
L 233.362649 143.287578 
L 228.544035 151.066936 
L 223.725421 134.526293 
L 218.906807 135.587568 
L 214.088193 136.582513 
L 209.269579 183.779376 
L 204.450965 215.043539 
L 199.632351 255.21059 
L 194.813736 272.795243 
L 189.995122 300.763075 
L 185.176508 319.905324 
L 180.357894 322.868499 
L 175.53928 326.387436 
L 170.720666 328.804975 
L 165.902052 336.959054 
L 161.083437 339.756632 
L 156.264823 349.885795 
L 151.446209 343.522603 
L 146.627595 369.884398 
L 141.808981 359.33968 
L 136.990367 354.408696 
L 132.171753 342.204513 
L 127.353139 334.735338 
L 122.534524 358.126571 
L 117.71591 371.089508 
L 112.897296 362.137258 
L 108.078682 335.315116 
L 103.260068 318.356601 
L 98.441454 273.865437 
L 93.62284 288.196203 
L 88.804226 303.923822 
L 83.985611 299.366596 
L 79.166997 303.923822 
L 74.348383 274.626496 
" style="fill:none;stroke:#377eb8;stroke-linecap:round;stroke-width:1.5;"/>
   </g>
   <g id="line2d_28">
    <path clip-path="url(#p159e200fed)" d="M 50.255313 283.815624 
L 196.548438 283.815624 
" style="fill:none;stroke:#000000;stroke-dasharray:2.775,1.2;stroke-dashoffset:0;stroke-opacity:0.75;stroke-width:0.75;"/>
   </g>
   <g id="line2d_29">
    <path clip-path="url(#p159e200fed)" d="M 196.548438 189.990825 
L 382.739688 189.990825 
" style="fill:none;stroke:#000000;stroke-dasharray:2.775,1.2;stroke-dashoffset:0;stroke-opacity:0.75;stroke-width:0.75;"/>
   </g>
   <g id="patch_3">
    <path d="M 50.255313 414.172213 
L 50.255313 44.052613 
" style="fill:none;stroke:#262626;stroke-linecap:square;stroke-linejoin:miter;stroke-width:0.8;"/>
   </g>
   <g id="patch_4">
    <path d="M 69.529769 434.734413 
L 382.739687 434.734413 
" style="fill:none;stroke:#262626;stroke-linecap:square;stroke-linejoin:miter;stroke-width:0.8;"/>
   </g>
   <g id="patch_5">
    <path d="M 257.905458 355.048344 
Q 220.275614 340.026713 209.804621 286.602717 
" style="fill:none;stroke:#000000;stroke-linecap:round;stroke-width:0.75;"/>
    <path d="M 208.611317 290.912708 
L 209.804621 286.602717 
L 212.536632 290.143355 
" style="fill:none;stroke:#000000;stroke-linecap:round;stroke-width:0.75;"/>
   </g>
   <g id="text_14">
    <!-- 1947-1984 backward -->
    <g style="fill:#262626;" transform="translate(262.274334 355.341299)scale(0.1 -0.1)">
     <defs>
      <path d="M 3.171875 21.484375 
L 3.171875 30.328125 
L 30.171875 30.328125 
L 30.171875 21.484375 
z
" id="ArialMT-45"/>
      <path d="M 14.703125 0 
L 6.546875 0 
L 6.546875 71.578125 
L 15.328125 71.578125 
L 15.328125 46.046875 
Q 20.90625 53.03125 29.546875 53.03125 
Q 34.328125 53.03125 38.59375 51.09375 
Q 42.875 49.171875 45.625 45.671875 
Q 48.390625 42.1875 49.953125 37.25 
Q 51.515625 32.328125 51.515625 26.703125 
Q 51.515625 13.375 44.921875 6.09375 
Q 38.328125 -1.171875 29.109375 -1.171875 
Q 19.921875 -1.171875 14.703125 6.5 
z
M 14.59375 26.3125 
Q 14.59375 17 17.140625 12.84375 
Q 21.296875 6.0625 28.375 6.0625 
Q 34.125 6.0625 38.328125 11.0625 
Q 42.53125 16.0625 42.53125 25.984375 
Q 42.53125 36.140625 38.5 40.96875 
Q 34.46875 45.796875 28.765625 45.796875 
Q 23 45.796875 18.796875 40.796875 
Q 14.59375 35.796875 14.59375 26.3125 
z
" id="ArialMT-98"/>
      <path d="M 40.4375 19 
L 49.078125 17.875 
Q 47.65625 8.9375 41.8125 3.875 
Q 35.984375 -1.171875 27.484375 -1.171875 
Q 16.84375 -1.171875 10.375 5.78125 
Q 3.90625 12.75 3.90625 25.734375 
Q 3.90625 34.125 6.6875 40.421875 
Q 9.46875 46.734375 15.15625 49.875 
Q 20.84375 53.03125 27.546875 53.03125 
Q 35.984375 53.03125 41.359375 48.75 
Q 46.734375 44.484375 48.25 36.625 
L 39.703125 35.296875 
Q 38.484375 40.53125 35.375 43.15625 
Q 32.28125 45.796875 27.875 45.796875 
Q 21.234375 45.796875 17.078125 41.03125 
Q 12.9375 36.28125 12.9375 25.984375 
Q 12.9375 15.53125 16.9375 10.796875 
Q 20.953125 6.0625 27.390625 6.0625 
Q 32.5625 6.0625 36.03125 9.234375 
Q 39.5 12.40625 40.4375 19 
z
" id="ArialMT-99"/>
      <path d="M 6.640625 0 
L 6.640625 71.578125 
L 15.4375 71.578125 
L 15.4375 30.765625 
L 36.234375 51.859375 
L 47.609375 51.859375 
L 27.78125 32.625 
L 49.609375 0 
L 38.765625 0 
L 21.625 26.515625 
L 15.4375 20.5625 
L 15.4375 0 
z
" id="ArialMT-107"/>
      <path d="M 16.15625 0 
L 0.296875 51.859375 
L 9.375 51.859375 
L 17.625 21.921875 
L 20.703125 10.796875 
Q 20.90625 11.625 23.390625 21.484375 
L 31.640625 51.859375 
L 40.671875 51.859375 
L 48.4375 21.78125 
L 51.03125 11.859375 
L 54 21.875 
L 62.890625 51.859375 
L 71.4375 51.859375 
L 55.21875 0 
L 46.09375 0 
L 37.84375 31.0625 
L 35.84375 39.890625 
L 25.34375 0 
z
" id="ArialMT-119"/>
      <path d="M 40.234375 0 
L 40.234375 6.546875 
Q 35.296875 -1.171875 25.734375 -1.171875 
Q 19.53125 -1.171875 14.328125 2.25 
Q 9.125 5.671875 6.265625 11.796875 
Q 3.421875 17.921875 3.421875 25.875 
Q 3.421875 33.640625 6 39.96875 
Q 8.59375 46.296875 13.765625 49.65625 
Q 18.953125 53.03125 25.34375 53.03125 
Q 30.03125 53.03125 33.6875 51.046875 
Q 37.359375 49.078125 39.65625 45.90625 
L 39.65625 71.578125 
L 48.390625 71.578125 
L 48.390625 0 
z
M 12.453125 25.875 
Q 12.453125 15.921875 16.640625 10.984375 
Q 20.84375 6.0625 26.5625 6.0625 
Q 32.328125 6.0625 36.34375 10.765625 
Q 40.375 15.484375 40.375 25.140625 
Q 40.375 35.796875 36.265625 40.765625 
Q 32.171875 45.75 26.171875 45.75 
Q 20.3125 45.75 16.375 40.96875 
Q 12.453125 36.1875 12.453125 25.875 
z
" id="ArialMT-100"/>
     </defs>
     <use xlink:href="#ArialMT-49"/>
     <use x="55.615234" xlink:href="#ArialMT-57"/>
     <use x="111.230469" xlink:href="#ArialMT-52"/>
     <use x="166.845703" xlink:href="#ArialMT-55"/>
     <use x="222.460938" xlink:href="#ArialMT-45"/>
     <use x="255.761719" xlink:href="#ArialMT-49"/>
     <use x="311.376953" xlink:href="#ArialMT-57"/>
     <use x="366.992188" xlink:href="#ArialMT-56"/>
     <use x="422.607422" xlink:href="#ArialMT-52"/>
     <use x="478.222656" xlink:href="#ArialMT-32"/>
     <use x="506.005859" xlink:href="#ArialMT-98"/>
     <use x="561.621094" xlink:href="#ArialMT-97"/>
     <use x="617.236328" xlink:href="#ArialMT-99"/>
     <use x="667.236328" xlink:href="#ArialMT-107"/>
     <use x="717.236328" xlink:href="#ArialMT-119"/>
     <use x="789.453125" xlink:href="#ArialMT-97"/>
     <use x="845.068359" xlink:href="#ArialMT-114"/>
     <use x="878.369141" xlink:href="#ArialMT-100"/>
    </g>
    <!-- looking average: 25.85% -->
    <g style="fill:#262626;" transform="translate(262.274334 366.064424)scale(0.1 -0.1)">
     <defs>
      <path d="M 9.078125 0 
L 9.078125 10.015625 
L 19.09375 10.015625 
L 19.09375 0 
z
" id="ArialMT-46"/>
     </defs>
     <use xlink:href="#ArialMT-108"/>
     <use x="22.216797" xlink:href="#ArialMT-111"/>
     <use x="77.832031" xlink:href="#ArialMT-111"/>
     <use x="133.447266" xlink:href="#ArialMT-107"/>
     <use x="183.447266" xlink:href="#ArialMT-105"/>
     <use x="205.664062" xlink:href="#ArialMT-110"/>
     <use x="261.279297" xlink:href="#ArialMT-103"/>
     <use x="316.894531" xlink:href="#ArialMT-32"/>
     <use x="344.677734" xlink:href="#ArialMT-97"/>
     <use x="400.292969" xlink:href="#ArialMT-118"/>
     <use x="450.292969" xlink:href="#ArialMT-101"/>
     <use x="505.908203" xlink:href="#ArialMT-114"/>
     <use x="539.208984" xlink:href="#ArialMT-97"/>
     <use x="594.824219" xlink:href="#ArialMT-103"/>
     <use x="650.439453" xlink:href="#ArialMT-101"/>
     <use x="706.054688" xlink:href="#ArialMT-58"/>
     <use x="733.837891" xlink:href="#ArialMT-32"/>
     <use x="761.621094" xlink:href="#ArialMT-50"/>
     <use x="817.236328" xlink:href="#ArialMT-53"/>
     <use x="872.851562" xlink:href="#ArialMT-46"/>
     <use x="900.634766" xlink:href="#ArialMT-56"/>
     <use x="956.25" xlink:href="#ArialMT-53"/>
     <use x="1011.865234" xlink:href="#ArialMT-37"/>
    </g>
   </g>
   <g id="patch_6">
    <path d="M 139.429519 213.027757 
Q 155.803305 178.901436 196.883434 189.276428 
" style="fill:none;stroke:#000000;stroke-linecap:round;stroke-width:0.75;"/>
    <path d="M 193.49494 186.357849 
L 196.883434 189.276428 
L 192.515474 190.236076 
" style="fill:none;stroke:#000000;stroke-linecap:round;stroke-width:0.75;"/>
   </g>
   <g id="text_15">
    <!-- 1984-2020 backward -->
    <g style="fill:#262626;" transform="translate(79.166997 224.50454)scale(0.1 -0.1)">
     <use xlink:href="#ArialMT-49"/>
     <use x="55.615234" xlink:href="#ArialMT-57"/>
     <use x="111.230469" xlink:href="#ArialMT-56"/>
     <use x="166.845703" xlink:href="#ArialMT-52"/>
     <use x="222.460938" xlink:href="#ArialMT-45"/>
     <use x="255.761719" xlink:href="#ArialMT-50"/>
     <use x="311.376953" xlink:href="#ArialMT-48"/>
     <use x="366.992188" xlink:href="#ArialMT-50"/>
     <use x="422.607422" xlink:href="#ArialMT-48"/>
     <use x="478.222656" xlink:href="#ArialMT-32"/>
     <use x="506.005859" xlink:href="#ArialMT-98"/>
     <use x="561.621094" xlink:href="#ArialMT-97"/>
     <use x="617.236328" xlink:href="#ArialMT-99"/>
     <use x="667.236328" xlink:href="#ArialMT-107"/>
     <use x="717.236328" xlink:href="#ArialMT-119"/>
     <use x="789.453125" xlink:href="#ArialMT-97"/>
     <use x="845.068359" xlink:href="#ArialMT-114"/>
     <use x="878.369141" xlink:href="#ArialMT-100"/>
    </g>
    <!-- looking average: 37.26% -->
    <g style="fill:#262626;" transform="translate(79.166997 235.227665)scale(0.1 -0.1)">
     <use xlink:href="#ArialMT-108"/>
     <use x="22.216797" xlink:href="#ArialMT-111"/>
     <use x="77.832031" xlink:href="#ArialMT-111"/>
     <use x="133.447266" xlink:href="#ArialMT-107"/>
     <use x="183.447266" xlink:href="#ArialMT-105"/>
     <use x="205.664062" xlink:href="#ArialMT-110"/>
     <use x="261.279297" xlink:href="#ArialMT-103"/>
     <use x="316.894531" xlink:href="#ArialMT-32"/>
     <use x="344.677734" xlink:href="#ArialMT-97"/>
     <use x="400.292969" xlink:href="#ArialMT-118"/>
     <use x="450.292969" xlink:href="#ArialMT-101"/>
     <use x="505.908203" xlink:href="#ArialMT-114"/>
     <use x="539.208984" xlink:href="#ArialMT-97"/>
     <use x="594.824219" xlink:href="#ArialMT-103"/>
     <use x="650.439453" xlink:href="#ArialMT-101"/>
     <use x="706.054688" xlink:href="#ArialMT-58"/>
     <use x="733.837891" xlink:href="#ArialMT-32"/>
     <use x="761.621094" xlink:href="#ArialMT-51"/>
     <use x="817.236328" xlink:href="#ArialMT-55"/>
     <use x="872.851562" xlink:href="#ArialMT-46"/>
     <use x="900.634766" xlink:href="#ArialMT-50"/>
     <use x="956.25" xlink:href="#ArialMT-54"/>
     <use x="1011.865234" xlink:href="#ArialMT-37"/>
    </g>
   </g>
   <g id="text_16">
    <!-- A. -->
    <g style="fill:#262626;" transform="translate(50.255313 24.37875)scale(0.24 -0.24)">
     <use xlink:href="#ArialMT-65"/>
     <use x="66.699219" xlink:href="#ArialMT-46"/>
    </g>
   </g>
   <g id="legend_1">
    <g id="line2d_30">
     <path d="M 61.055313 59.388238 
L 85.055313 59.388238 
" style="fill:none;stroke:#377eb8;stroke-linecap:round;"/>
    </g>
    <g id="line2d_31"/>
    <g id="text_17">
     <!-- Detector: F/(M+F) -->
     <g style="fill:#262626;" transform="translate(94.655313 63.588238)scale(0.12 -0.12)">
      <defs>
       <path d="M 7.71875 0 
L 7.71875 71.578125 
L 32.375 71.578125 
Q 40.71875 71.578125 45.125 70.5625 
Q 51.265625 69.140625 55.609375 65.4375 
Q 61.28125 60.640625 64.078125 53.1875 
Q 66.890625 45.75 66.890625 36.1875 
Q 66.890625 28.03125 64.984375 21.734375 
Q 63.09375 15.4375 60.109375 11.296875 
Q 57.125 7.171875 53.578125 4.796875 
Q 50.046875 2.4375 45.046875 1.21875 
Q 40.046875 0 33.546875 0 
z
M 17.1875 8.453125 
L 32.46875 8.453125 
Q 39.546875 8.453125 43.578125 9.765625 
Q 47.609375 11.078125 50 13.484375 
Q 53.375 16.84375 55.25 22.53125 
Q 57.125 28.21875 57.125 36.328125 
Q 57.125 47.5625 53.4375 53.59375 
Q 49.75 59.625 44.484375 61.671875 
Q 40.671875 63.140625 32.234375 63.140625 
L 17.1875 63.140625 
z
" id="ArialMT-68"/>
       <path d="M 0 -1.21875 
L 20.75 72.796875 
L 27.78125 72.796875 
L 7.078125 -1.21875 
z
" id="ArialMT-47"/>
       <path d="M 23.390625 -21.046875 
Q 16.109375 -11.859375 11.078125 0.4375 
Q 6.0625 12.75 6.0625 25.921875 
Q 6.0625 37.546875 9.8125 48.1875 
Q 14.203125 60.546875 23.390625 72.796875 
L 29.6875 72.796875 
Q 23.78125 62.640625 21.875 58.296875 
Q 18.890625 51.5625 17.1875 44.234375 
Q 15.09375 35.109375 15.09375 25.875 
Q 15.09375 2.390625 29.6875 -21.046875 
z
" id="ArialMT-40"/>
       <path d="M 7.421875 0 
L 7.421875 71.578125 
L 21.6875 71.578125 
L 38.625 20.90625 
Q 40.96875 13.8125 42.046875 10.296875 
Q 43.265625 14.203125 45.84375 21.78125 
L 62.984375 71.578125 
L 75.734375 71.578125 
L 75.734375 0 
L 66.609375 0 
L 66.609375 59.90625 
L 45.796875 0 
L 37.25 0 
L 16.546875 60.9375 
L 16.546875 0 
z
" id="ArialMT-77"/>
       <path d="M 25.046875 11.578125 
L 25.046875 31.203125 
L 5.5625 31.203125 
L 5.5625 39.40625 
L 25.046875 39.40625 
L 25.046875 58.890625 
L 33.34375 58.890625 
L 33.34375 39.40625 
L 52.828125 39.40625 
L 52.828125 31.203125 
L 33.34375 31.203125 
L 33.34375 11.578125 
z
" id="ArialMT-43"/>
       <path d="M 12.359375 -21.046875 
L 6.0625 -21.046875 
Q 20.65625 2.390625 20.65625 25.875 
Q 20.65625 35.0625 18.5625 44.09375 
Q 16.890625 51.421875 13.921875 58.15625 
Q 12.015625 62.546875 6.0625 72.796875 
L 12.359375 72.796875 
Q 21.53125 60.546875 25.921875 48.1875 
Q 29.6875 37.546875 29.6875 25.921875 
Q 29.6875 12.75 24.625 0.4375 
Q 19.578125 -11.859375 12.359375 -21.046875 
z
" id="ArialMT-41"/>
      </defs>
      <use xlink:href="#ArialMT-68"/>
      <use x="72.216797" xlink:href="#ArialMT-101"/>
      <use x="127.832031" xlink:href="#ArialMT-116"/>
      <use x="155.615234" xlink:href="#ArialMT-101"/>
      <use x="211.230469" xlink:href="#ArialMT-99"/>
      <use x="261.230469" xlink:href="#ArialMT-116"/>
      <use x="289.013672" xlink:href="#ArialMT-111"/>
      <use x="344.628906" xlink:href="#ArialMT-114"/>
      <use x="377.929688" xlink:href="#ArialMT-58"/>
      <use x="405.712891" xlink:href="#ArialMT-32"/>
      <use x="433.496094" xlink:href="#ArialMT-70"/>
      <use x="494.580078" xlink:href="#ArialMT-47"/>
      <use x="522.363281" xlink:href="#ArialMT-40"/>
      <use x="555.664062" xlink:href="#ArialMT-77"/>
      <use x="638.964844" xlink:href="#ArialMT-43"/>
      <use x="697.363281" xlink:href="#ArialMT-70"/>
      <use x="758.447266" xlink:href="#ArialMT-41"/>
     </g>
    </g>
    <g id="patch_7">
     <path d="M 61.055313 80.703238 
L 85.055313 80.703238 
L 85.055313 72.303238 
L 61.055313 72.303238 
z
" style="fill:#ffb94e;fill-opacity:0.3;stroke:#000000;stroke-linejoin:miter;stroke-width:0.5;"/>
    </g>
    <g id="text_18">
     <!-- Detector: CI's -->
     <g style="fill:#262626;" transform="translate(94.655313 80.703238)scale(0.12 -0.12)">
      <defs>
       <path d="M 58.796875 25.09375 
L 68.265625 22.703125 
Q 65.28125 11.03125 57.546875 4.90625 
Q 49.8125 -1.21875 38.625 -1.21875 
Q 27.046875 -1.21875 19.796875 3.484375 
Q 12.546875 8.203125 8.765625 17.140625 
Q 4.984375 26.078125 4.984375 36.328125 
Q 4.984375 47.515625 9.25 55.828125 
Q 13.53125 64.15625 21.40625 68.46875 
Q 29.296875 72.796875 38.765625 72.796875 
Q 49.515625 72.796875 56.828125 67.328125 
Q 64.15625 61.859375 67.046875 51.953125 
L 57.71875 49.75 
Q 55.21875 57.5625 50.484375 61.125 
Q 45.75 64.703125 38.578125 64.703125 
Q 30.328125 64.703125 24.78125 60.734375 
Q 19.234375 56.78125 16.984375 50.109375 
Q 14.75 43.453125 14.75 36.375 
Q 14.75 27.25 17.40625 20.4375 
Q 20.0625 13.625 25.671875 10.25 
Q 31.296875 6.890625 37.84375 6.890625 
Q 45.796875 6.890625 51.3125 11.46875 
Q 56.84375 16.0625 58.796875 25.09375 
z
" id="ArialMT-67"/>
       <path d="M 6.640625 46.234375 
L 4.390625 59.625 
L 4.390625 71.578125 
L 14.40625 71.578125 
L 14.40625 59.625 
L 12.0625 46.234375 
z
" id="ArialMT-39"/>
      </defs>
      <use xlink:href="#ArialMT-68"/>
      <use x="72.216797" xlink:href="#ArialMT-101"/>
      <use x="127.832031" xlink:href="#ArialMT-116"/>
      <use x="155.615234" xlink:href="#ArialMT-101"/>
      <use x="211.230469" xlink:href="#ArialMT-99"/>
      <use x="261.230469" xlink:href="#ArialMT-116"/>
      <use x="289.013672" xlink:href="#ArialMT-111"/>
      <use x="344.628906" xlink:href="#ArialMT-114"/>
      <use x="377.929688" xlink:href="#ArialMT-58"/>
      <use x="405.712891" xlink:href="#ArialMT-32"/>
      <use x="433.496094" xlink:href="#ArialMT-67"/>
      <use x="505.712891" xlink:href="#ArialMT-73"/>
      <use x="533.496094" xlink:href="#ArialMT-39"/>
      <use x="552.587891" xlink:href="#ArialMT-115"/>
     </g>
    </g>
   </g>
  </g>
  <g id="axes_2">
   <g id="patch_8">
    <path d="M 467.255313 434.734413 
L 799.739688 434.734413 
L 799.739688 44.052613 
L 467.255313 44.052613 
z
" style="fill:#ffffff;"/>
   </g>
   <g id="matplotlib.axis_3">
    <g id="xtick_8">
     <g id="line2d_32">
      <path clip-path="url(#p21972f5260)" d="M 510.62284 434.734413 
L 510.62284 44.052613 
" style="fill:none;stroke:#cccccc;stroke-dasharray:2.96,1.28;stroke-dashoffset:0;stroke-opacity:0.2;stroke-width:0.8;"/>
     </g>
     <g id="line2d_33">
      <g>
       <use style="fill:#262626;stroke:#262626;stroke-width:0.8;" x="510.62284" xlink:href="#m3cce4f6a66" y="434.734413"/>
      </g>
     </g>
     <g id="text_19">
      <!-- 1960 -->
      <g style="fill:#262626;" transform="translate(499.500965 448.892225)scale(0.1 -0.1)">
       <use xlink:href="#ArialMT-49"/>
       <use x="55.615234" xlink:href="#ArialMT-57"/>
       <use x="111.230469" xlink:href="#ArialMT-54"/>
       <use x="166.845703" xlink:href="#ArialMT-48"/>
      </g>
     </g>
    </g>
    <g id="xtick_9">
     <g id="line2d_34">
      <path clip-path="url(#p21972f5260)" d="M 558.808981 434.734413 
L 558.808981 44.052613 
" style="fill:none;stroke:#cccccc;stroke-dasharray:2.96,1.28;stroke-dashoffset:0;stroke-opacity:0.2;stroke-width:0.8;"/>
     </g>
     <g id="line2d_35">
      <g>
       <use style="fill:#262626;stroke:#262626;stroke-width:0.8;" x="558.808981" xlink:href="#m3cce4f6a66" y="434.734413"/>
      </g>
     </g>
     <g id="text_20">
      <!-- 1970 -->
      <g style="fill:#262626;" transform="translate(547.687106 448.892225)scale(0.1 -0.1)">
       <use xlink:href="#ArialMT-49"/>
       <use x="55.615234" xlink:href="#ArialMT-57"/>
       <use x="111.230469" xlink:href="#ArialMT-55"/>
       <use x="166.845703" xlink:href="#ArialMT-48"/>
      </g>
     </g>
    </g>
    <g id="xtick_10">
     <g id="line2d_36">
      <path clip-path="url(#p21972f5260)" d="M 606.995122 434.734413 
L 606.995122 44.052613 
" style="fill:none;stroke:#cccccc;stroke-dasharray:2.96,1.28;stroke-dashoffset:0;stroke-opacity:0.2;stroke-width:0.8;"/>
     </g>
     <g id="line2d_37">
      <g>
       <use style="fill:#262626;stroke:#262626;stroke-width:0.8;" x="606.995122" xlink:href="#m3cce4f6a66" y="434.734413"/>
      </g>
     </g>
     <g id="text_21">
      <!-- 1980 -->
      <g style="fill:#262626;" transform="translate(595.873247 448.892225)scale(0.1 -0.1)">
       <use xlink:href="#ArialMT-49"/>
       <use x="55.615234" xlink:href="#ArialMT-57"/>
       <use x="111.230469" xlink:href="#ArialMT-56"/>
       <use x="166.845703" xlink:href="#ArialMT-48"/>
      </g>
     </g>
    </g>
    <g id="xtick_11">
     <g id="line2d_38">
      <path clip-path="url(#p21972f5260)" d="M 655.181264 434.734413 
L 655.181264 44.052613 
" style="fill:none;stroke:#cccccc;stroke-dasharray:2.96,1.28;stroke-dashoffset:0;stroke-opacity:0.2;stroke-width:0.8;"/>
     </g>
     <g id="line2d_39">
      <g>
       <use style="fill:#262626;stroke:#262626;stroke-width:0.8;" x="655.181264" xlink:href="#m3cce4f6a66" y="434.734413"/>
      </g>
     </g>
     <g id="text_22">
      <!-- 1990 -->
      <g style="fill:#262626;" transform="translate(644.059389 448.892225)scale(0.1 -0.1)">
       <use xlink:href="#ArialMT-49"/>
       <use x="55.615234" xlink:href="#ArialMT-57"/>
       <use x="111.230469" xlink:href="#ArialMT-57"/>
       <use x="166.845703" xlink:href="#ArialMT-48"/>
      </g>
     </g>
    </g>
    <g id="xtick_12">
     <g id="line2d_40">
      <path clip-path="url(#p21972f5260)" d="M 703.367405 434.734413 
L 703.367405 44.052613 
" style="fill:none;stroke:#cccccc;stroke-dasharray:2.96,1.28;stroke-dashoffset:0;stroke-opacity:0.2;stroke-width:0.8;"/>
     </g>
     <g id="line2d_41">
      <g>
       <use style="fill:#262626;stroke:#262626;stroke-width:0.8;" x="703.367405" xlink:href="#m3cce4f6a66" y="434.734413"/>
      </g>
     </g>
     <g id="text_23">
      <!-- 2000 -->
      <g style="fill:#262626;" transform="translate(692.24553 448.892225)scale(0.1 -0.1)">
       <use xlink:href="#ArialMT-50"/>
       <use x="55.615234" xlink:href="#ArialMT-48"/>
       <use x="111.230469" xlink:href="#ArialMT-48"/>
       <use x="166.845703" xlink:href="#ArialMT-48"/>
      </g>
     </g>
    </g>
    <g id="xtick_13">
     <g id="line2d_42">
      <path clip-path="url(#p21972f5260)" d="M 751.553546 434.734413 
L 751.553546 44.052613 
" style="fill:none;stroke:#cccccc;stroke-dasharray:2.96,1.28;stroke-dashoffset:0;stroke-opacity:0.2;stroke-width:0.8;"/>
     </g>
     <g id="line2d_43">
      <g>
       <use style="fill:#262626;stroke:#262626;stroke-width:0.8;" x="751.553546" xlink:href="#m3cce4f6a66" y="434.734413"/>
      </g>
     </g>
     <g id="text_24">
      <!-- 2010 -->
      <g style="fill:#262626;" transform="translate(740.431671 448.892225)scale(0.1 -0.1)">
       <use xlink:href="#ArialMT-50"/>
       <use x="55.615234" xlink:href="#ArialMT-48"/>
       <use x="111.230469" xlink:href="#ArialMT-49"/>
       <use x="166.845703" xlink:href="#ArialMT-48"/>
      </g>
     </g>
    </g>
    <g id="xtick_14">
     <g id="line2d_44">
      <path clip-path="url(#p21972f5260)" d="M 799.739687 434.734413 
L 799.739687 44.052613 
" style="fill:none;stroke:#cccccc;stroke-dasharray:2.96,1.28;stroke-dashoffset:0;stroke-opacity:0.2;stroke-width:0.8;"/>
     </g>
     <g id="line2d_45">
      <g>
       <use style="fill:#262626;stroke:#262626;stroke-width:0.8;" x="799.739687" xlink:href="#m3cce4f6a66" y="434.734413"/>
      </g>
     </g>
     <g id="text_25">
      <!-- 2020 -->
      <g style="fill:#262626;" transform="translate(788.617812 448.892225)scale(0.1 -0.1)">
       <use xlink:href="#ArialMT-50"/>
       <use x="55.615234" xlink:href="#ArialMT-48"/>
       <use x="111.230469" xlink:href="#ArialMT-50"/>
       <use x="166.845703" xlink:href="#ArialMT-48"/>
      </g>
     </g>
    </g>
   </g>
   <g id="matplotlib.axis_4">
    <g id="ytick_6">
     <g id="line2d_46">
      <path clip-path="url(#p21972f5260)" d="M 467.255313 414.172213 
L 799.739688 414.172213 
" style="fill:none;stroke:#cccccc;stroke-dasharray:2.96,1.28;stroke-dashoffset:0;stroke-opacity:0.2;stroke-width:0.8;"/>
     </g>
     <g id="line2d_47">
      <g>
       <use style="fill:#262626;stroke:#262626;stroke-width:0.8;" x="467.255313" xlink:href="#m21ca36b966" y="414.172213"/>
      </g>
     </g>
     <g id="text_26">
      <!-- 10% -->
      <g style="fill:#262626;" transform="translate(440.24125 417.751119)scale(0.1 -0.1)">
       <use xlink:href="#ArialMT-49"/>
       <use x="55.615234" xlink:href="#ArialMT-48"/>
       <use x="111.230469" xlink:href="#ArialMT-37"/>
      </g>
     </g>
    </g>
    <g id="ytick_7">
     <g id="line2d_48">
      <path clip-path="url(#p21972f5260)" d="M 467.255313 331.923413 
L 799.739688 331.923413 
" style="fill:none;stroke:#cccccc;stroke-dasharray:2.96,1.28;stroke-dashoffset:0;stroke-opacity:0.2;stroke-width:0.8;"/>
     </g>
     <g id="line2d_49">
      <g>
       <use style="fill:#262626;stroke:#262626;stroke-width:0.8;" x="467.255313" xlink:href="#m21ca36b966" y="331.923413"/>
      </g>
     </g>
     <g id="text_27">
      <!-- 20% -->
      <g style="fill:#262626;" transform="translate(440.24125 335.502319)scale(0.1 -0.1)">
       <use xlink:href="#ArialMT-50"/>
       <use x="55.615234" xlink:href="#ArialMT-48"/>
       <use x="111.230469" xlink:href="#ArialMT-37"/>
      </g>
     </g>
    </g>
    <g id="ytick_8">
     <g id="line2d_50">
      <path clip-path="url(#p21972f5260)" d="M 467.255313 249.674613 
L 799.739688 249.674613 
" style="fill:none;stroke:#cccccc;stroke-dasharray:2.96,1.28;stroke-dashoffset:0;stroke-opacity:0.2;stroke-width:0.8;"/>
     </g>
     <g id="line2d_51">
      <g>
       <use style="fill:#262626;stroke:#262626;stroke-width:0.8;" x="467.255313" xlink:href="#m21ca36b966" y="249.674613"/>
      </g>
     </g>
     <g id="text_28">
      <!-- 30% -->
      <g style="fill:#262626;" transform="translate(440.24125 253.253519)scale(0.1 -0.1)">
       <use xlink:href="#ArialMT-51"/>
       <use x="55.615234" xlink:href="#ArialMT-48"/>
       <use x="111.230469" xlink:href="#ArialMT-37"/>
      </g>
     </g>
    </g>
    <g id="ytick_9">
     <g id="line2d_52">
      <path clip-path="url(#p21972f5260)" d="M 467.255313 167.425813 
L 799.739688 167.425813 
" style="fill:none;stroke:#cccccc;stroke-dasharray:2.96,1.28;stroke-dashoffset:0;stroke-opacity:0.2;stroke-width:0.8;"/>
     </g>
     <g id="line2d_53">
      <g>
       <use style="fill:#262626;stroke:#262626;stroke-width:0.8;" x="467.255313" xlink:href="#m21ca36b966" y="167.425813"/>
      </g>
     </g>
     <g id="text_29">
      <!-- 40% -->
      <g style="fill:#262626;" transform="translate(440.24125 171.004719)scale(0.1 -0.1)">
       <use xlink:href="#ArialMT-52"/>
       <use x="55.615234" xlink:href="#ArialMT-48"/>
       <use x="111.230469" xlink:href="#ArialMT-37"/>
      </g>
     </g>
    </g>
    <g id="ytick_10">
     <g id="line2d_54">
      <path clip-path="url(#p21972f5260)" d="M 467.255313 85.177013 
L 799.739688 85.177013 
" style="fill:none;stroke:#cccccc;stroke-dasharray:2.96,1.28;stroke-dashoffset:0;stroke-opacity:0.2;stroke-width:0.8;"/>
     </g>
     <g id="line2d_55">
      <g>
       <use style="fill:#262626;stroke:#262626;stroke-width:0.8;" x="467.255313" xlink:href="#m21ca36b966" y="85.177013"/>
      </g>
     </g>
     <g id="text_30">
      <!-- 50% -->
      <g style="fill:#262626;" transform="translate(440.24125 88.755919)scale(0.1 -0.1)">
       <use xlink:href="#ArialMT-53"/>
       <use x="55.615234" xlink:href="#ArialMT-48"/>
       <use x="111.230469" xlink:href="#ArialMT-37"/>
      </g>
     </g>
    </g>
    <g id="text_31">
     <!-- Female Authorship: Ten Year Rolling Interval -->
     <g style="fill:#262626;" transform="translate(433.505156 367.185544)rotate(-90)scale(0.13 -0.13)">
      <use xlink:href="#ArialMT-70"/>
      <use x="61.083984" xlink:href="#ArialMT-101"/>
      <use x="116.699219" xlink:href="#ArialMT-109"/>
      <use x="200" xlink:href="#ArialMT-97"/>
      <use x="255.615234" xlink:href="#ArialMT-108"/>
      <use x="277.832031" xlink:href="#ArialMT-101"/>
      <use x="333.447266" xlink:href="#ArialMT-32"/>
      <use x="355.730469" xlink:href="#ArialMT-65"/>
      <use x="422.429688" xlink:href="#ArialMT-117"/>
      <use x="478.044922" xlink:href="#ArialMT-116"/>
      <use x="505.828125" xlink:href="#ArialMT-104"/>
      <use x="561.443359" xlink:href="#ArialMT-111"/>
      <use x="617.058594" xlink:href="#ArialMT-114"/>
      <use x="650.359375" xlink:href="#ArialMT-115"/>
      <use x="700.359375" xlink:href="#ArialMT-104"/>
      <use x="755.974609" xlink:href="#ArialMT-105"/>
      <use x="778.191406" xlink:href="#ArialMT-112"/>
      <use x="833.806641" xlink:href="#ArialMT-58"/>
      <use x="861.589844" xlink:href="#ArialMT-32"/>
      <use x="887.623047" xlink:href="#ArialMT-84"/>
      <use x="937.582031" xlink:href="#ArialMT-101"/>
      <use x="993.197266" xlink:href="#ArialMT-110"/>
      <use x="1048.8125" xlink:href="#ArialMT-32"/>
      <use x="1074.845703" xlink:href="#ArialMT-89"/>
      <use x="1132.419922" xlink:href="#ArialMT-101"/>
      <use x="1188.035156" xlink:href="#ArialMT-97"/>
      <use x="1243.650391" xlink:href="#ArialMT-114"/>
      <use x="1276.951172" xlink:href="#ArialMT-32"/>
      <use x="1304.734375" xlink:href="#ArialMT-82"/>
      <use x="1376.951172" xlink:href="#ArialMT-111"/>
      <use x="1432.566406" xlink:href="#ArialMT-108"/>
      <use x="1454.783203" xlink:href="#ArialMT-108"/>
      <use x="1477" xlink:href="#ArialMT-105"/>
      <use x="1499.216797" xlink:href="#ArialMT-110"/>
      <use x="1554.832031" xlink:href="#ArialMT-103"/>
      <use x="1610.447266" xlink:href="#ArialMT-32"/>
      <use x="1638.230469" xlink:href="#ArialMT-73"/>
      <use x="1666.013672" xlink:href="#ArialMT-110"/>
      <use x="1721.628906" xlink:href="#ArialMT-116"/>
      <use x="1749.412109" xlink:href="#ArialMT-101"/>
      <use x="1805.027344" xlink:href="#ArialMT-114"/>
      <use x="1838.328125" xlink:href="#ArialMT-118"/>
      <use x="1888.328125" xlink:href="#ArialMT-97"/>
      <use x="1943.943359" xlink:href="#ArialMT-108"/>
     </g>
    </g>
   </g>
   <g id="PolyCollection_2">
    <defs>
     <path d="M 794.921073 -348.166351 
L 794.921073 -290.358031 
L 790.102459 -291.720211 
L 785.283845 -311.580061 
L 780.465231 -303.381854 
L 775.646617 -303.077953 
L 770.828003 -303.343962 
L 766.009389 -289.362959 
L 761.190774 -281.761352 
L 756.37216 -261.36078 
L 751.553546 -241.372362 
L 746.734932 -223.838443 
L 741.916318 -212.216123 
L 737.097704 -191.916391 
L 732.27909 -185.896426 
L 727.460476 -176.553862 
L 722.641861 -182.382454 
L 717.823247 -193.809147 
L 713.004633 -190.288794 
L 708.186019 -182.368633 
L 703.367405 -187.331375 
L 698.548791 -188.129383 
L 693.730177 -182.626511 
L 688.911562 -169.028948 
L 684.092948 -167.641314 
L 679.274334 -166.614231 
L 674.45572 -185.576597 
L 669.637106 -190.102138 
L 664.818492 -216.369319 
L 659.999878 -232.099238 
L 655.181264 -257.701829 
L 650.362649 -272.254269 
L 645.544035 -259.425129 
L 640.725421 -268.520053 
L 635.906807 -258.810867 
L 631.088193 -256.981256 
L 626.269579 -205.540031 
L 621.450965 -180.46161 
L 616.632351 -153.523433 
L 611.813736 -140.21414 
L 606.995122 -110.505926 
L 602.176508 -89.602681 
L 597.357894 -88.772037 
L 592.53928 -91.95085 
L 587.720666 -94.480981 
L 582.902052 -92.819679 
L 578.083437 -99.198792 
L 573.264823 -101.69907 
L 568.446209 -110.164116 
L 563.627595 -91.957816 
L 558.808981 -109.145353 
L 553.990367 -123.913163 
L 549.171753 -143.018734 
L 544.353139 -148.614976 
L 539.534524 -136.621543 
L 534.71591 -119.694431 
L 529.897296 -116.255994 
L 525.078682 -131.775796 
L 520.260068 -130.587944 
L 515.441454 -175.2889 
L 510.62284 -158.892807 
L 505.804226 -139.191971 
L 500.985611 -135.599693 
L 496.166997 -129.154166 
L 491.348383 -144.816745 
L 491.348383 -176.758027 
L 491.348383 -176.758027 
L 496.166997 -156.057979 
L 500.985611 -166.062212 
L 505.804226 -162.469934 
L 510.62284 -190.183112 
L 515.441454 -204.966302 
L 520.260068 -156.52225 
L 525.078682 -167.536144 
L 529.897296 -157.380394 
L 534.71591 -166.075333 
L 539.534524 -182.000192 
L 544.353139 -195.222629 
L 549.171753 -185.909212 
L 553.990367 -173.262443 
L 558.808981 -158.927521 
L 563.627595 -141.555083 
L 568.446209 -164.32796 
L 573.264823 -150.613555 
L 578.083437 -148.480098 
L 582.902052 -141.299663 
L 587.720666 -144.901701 
L 592.53928 -144.348734 
L 597.357894 -146.882603 
L 602.176508 -143.438259 
L 606.995122 -163.380155 
L 611.813736 -192.58229 
L 616.632351 -212.961042 
L 621.450965 -249.002277 
L 626.269579 -278.564667 
L 631.088193 -330.272266 
L 635.906807 -332.466509 
L 640.725421 -334.24398 
L 645.544035 -318.437721 
L 650.362649 -326.969136 
L 655.181264 -317.398539 
L 659.999878 -292.532944 
L 664.818492 -272.016197 
L 669.637106 -241.970751 
L 674.45572 -239.510237 
L 679.274334 -221.167006 
L 684.092948 -220.873405 
L 688.911562 -227.038178 
L 693.730177 -241.970582 
L 698.548791 -254.654147 
L 703.367405 -255.196764 
L 708.186019 -252.367612 
L 713.004633 -259.008418 
L 717.823247 -264.125478 
L 722.641861 -253.720699 
L 727.460476 -245.094528 
L 732.27909 -258.410465 
L 737.097704 -264.148943 
L 741.916318 -284.279908 
L 746.734932 -292.049587 
L 751.553546 -309.266419 
L 756.37216 -326.765599 
L 761.190774 -352.66549 
L 766.009389 -358.931002 
L 770.828003 -372.326827 
L 775.646617 -375.241277 
L 780.465231 -368.767929 
L 785.283845 -369.535297 
L 790.102459 -347.109163 
L 794.921073 -348.166351 
z
" id="m9bcce70153" style="stroke:#ffb94e;stroke-opacity:0.2;"/>
    </defs>
    <g clip-path="url(#p21972f5260)">
     <use style="fill:#ffb94e;fill-opacity:0.2;stroke:#ffb94e;stroke-opacity:0.2;" x="0" xlink:href="#m9bcce70153" y="458.079725"/>
    </g>
   </g>
   <g id="line2d_56">
    <path clip-path="url(#p21972f5260)" d="M 794.921073 167.721695 
L 790.102459 166.359515 
L 785.283845 146.499664 
L 780.465231 154.697872 
L 775.646617 155.001772 
L 770.828003 154.735763 
L 766.009389 168.716766 
L 761.190774 176.318374 
L 756.37216 196.718946 
L 751.553546 216.707363 
L 746.734932 234.241283 
L 741.916318 245.863602 
L 737.097704 266.163335 
L 732.27909 272.183299 
L 727.460476 281.525864 
L 722.641861 275.697271 
L 717.823247 264.270579 
L 713.004633 267.790932 
L 708.186019 275.711092 
L 703.367405 270.748351 
L 698.548791 269.950343 
L 693.730177 275.453214 
L 688.911562 289.050777 
L 684.092948 290.438411 
L 679.274334 291.465495 
L 674.45572 272.503128 
L 669.637106 267.977587 
L 664.818492 241.710406 
L 659.999878 225.980488 
L 655.181264 200.377896 
L 650.362649 185.825456 
L 645.544035 198.654597 
L 640.725421 189.559672 
L 635.906807 199.268858 
L 631.088193 201.09847 
L 626.269579 252.539694 
L 621.450965 277.618116 
L 616.632351 304.556293 
L 611.813736 317.865586 
L 606.995122 347.573799 
L 602.176508 368.477045 
L 597.357894 369.307688 
L 592.53928 366.128875 
L 587.720666 363.598744 
L 582.902052 365.260046 
L 578.083437 358.880933 
L 573.264823 356.380655 
L 568.446209 347.915609 
L 563.627595 366.121909 
L 558.808981 348.934373 
L 553.990367 334.166562 
L 549.171753 315.060992 
L 544.353139 309.464749 
L 539.534524 321.458182 
L 534.71591 338.385295 
L 529.897296 341.823732 
L 525.078682 326.30393 
L 520.260068 327.491782 
L 515.441454 282.790825 
L 510.62284 299.186918 
L 505.804226 318.887754 
L 500.985611 322.480032 
L 496.166997 328.92556 
L 491.348383 313.26298 
" style="fill:none;stroke:#ffb94e;stroke-dasharray:3.6,1.8;stroke-dashoffset:0;stroke-width:0.3;"/>
   </g>
   <g id="line2d_57">
    <path clip-path="url(#p21972f5260)" d="M 794.921073 109.913375 
L 790.102459 110.970563 
L 785.283845 88.544429 
L 780.465231 89.311796 
L 775.646617 82.838449 
L 770.828003 85.752899 
L 766.009389 99.148724 
L 761.190774 105.414236 
L 756.37216 131.314127 
L 751.553546 148.813307 
L 746.734932 166.030138 
L 741.916318 173.799817 
L 737.097704 193.930782 
L 732.27909 199.669261 
L 727.460476 212.985197 
L 722.641861 204.359026 
L 717.823247 193.954247 
L 713.004633 199.071308 
L 708.186019 205.712113 
L 703.367405 202.882961 
L 698.548791 203.425578 
L 693.730177 216.109143 
L 688.911562 231.041548 
L 684.092948 237.20632 
L 679.274334 236.912719 
L 674.45572 218.569489 
L 669.637106 216.108975 
L 664.818492 186.063528 
L 659.999878 165.546782 
L 655.181264 140.681186 
L 650.362649 131.110589 
L 645.544035 139.642005 
L 640.725421 123.835745 
L 635.906807 125.613216 
L 631.088193 127.80746 
L 626.269579 179.515059 
L 621.450965 209.077449 
L 616.632351 245.118683 
L 611.813736 265.497436 
L 606.995122 294.699571 
L 602.176508 314.641467 
L 597.357894 311.197123 
L 592.53928 313.730991 
L 587.720666 313.178024 
L 582.902052 316.780063 
L 578.083437 309.599628 
L 573.264823 307.466171 
L 568.446209 293.751765 
L 563.627595 316.524643 
L 558.808981 299.152204 
L 553.990367 284.817282 
L 549.171753 272.170513 
L 544.353139 262.857096 
L 539.534524 276.079534 
L 534.71591 292.004392 
L 529.897296 300.699332 
L 525.078682 290.543582 
L 520.260068 301.557475 
L 515.441454 253.113423 
L 510.62284 267.896614 
L 505.804226 295.609792 
L 500.985611 292.017514 
L 496.166997 302.021746 
L 491.348383 281.321699 
" style="fill:none;stroke:#ffb94e;stroke-dasharray:3.6,1.8;stroke-dashoffset:0;stroke-width:0.3;"/>
   </g>
   <g id="line2d_58">
    <path clip-path="url(#p21972f5260)" d="M 794.921073 138.817535 
L 790.102459 138.665039 
L 785.283845 117.522047 
L 780.465231 122.004834 
L 775.646617 118.92011 
L 770.828003 120.244331 
L 766.009389 133.932745 
L 761.190774 140.866305 
L 756.37216 164.016536 
L 751.553546 182.760335 
L 746.734932 200.13571 
L 741.916318 209.83171 
L 737.097704 230.047058 
L 732.27909 235.92628 
L 727.460476 247.255531 
L 722.641861 240.028149 
L 717.823247 229.112413 
L 713.004633 233.43112 
L 708.186019 240.711603 
L 703.367405 236.815656 
L 698.548791 236.68796 
L 693.730177 245.781179 
L 688.911562 260.046163 
L 684.092948 263.822366 
L 679.274334 264.189107 
L 674.45572 245.536309 
L 669.637106 242.043281 
L 664.818492 213.886967 
L 659.999878 195.763635 
L 655.181264 170.529541 
L 650.362649 158.468023 
L 645.544035 169.148301 
L 640.725421 156.697709 
L 635.906807 162.441037 
L 631.088193 164.452965 
L 626.269579 216.027377 
L 621.450965 243.347782 
L 616.632351 274.837488 
L 611.813736 291.681511 
L 606.995122 321.136685 
L 602.176508 341.559256 
L 597.357894 340.252405 
L 592.53928 339.929933 
L 587.720666 338.388384 
L 582.902052 341.020054 
L 578.083437 334.240281 
L 573.264823 331.923413 
L 568.446209 320.833687 
L 563.627595 341.323276 
L 558.808981 324.043288 
L 553.990367 309.491922 
L 549.171753 293.615753 
L 544.353139 286.160923 
L 539.534524 298.768858 
L 534.71591 315.194844 
L 529.897296 321.261532 
L 525.078682 308.423756 
L 520.260068 314.524628 
L 515.441454 267.952124 
L 510.62284 283.541766 
L 505.804226 307.248773 
L 500.985611 307.248773 
L 496.166997 315.473653 
L 491.348383 297.292339 
" style="fill:none;stroke:#377eb8;stroke-linecap:round;stroke-width:1.5;"/>
   </g>
   <g id="line2d_59">
    <path clip-path="url(#p21972f5260)" d="M 467.255313 289.010996 
L 613.548438 289.010996 
" style="fill:none;stroke:#000000;stroke-dasharray:2.775,1.2;stroke-dashoffset:0;stroke-opacity:0.75;stroke-width:0.75;"/>
   </g>
   <g id="line2d_60">
    <path clip-path="url(#p21972f5260)" d="M 613.548438 184.185513 
L 799.739688 184.185513 
" style="fill:none;stroke:#000000;stroke-dasharray:2.775,1.2;stroke-dashoffset:0;stroke-opacity:0.75;stroke-width:0.75;"/>
   </g>
   <g id="patch_9">
    <path d="M 467.255313 414.172213 
L 467.255313 44.052613 
" style="fill:none;stroke:#262626;stroke-linecap:square;stroke-linejoin:miter;stroke-width:0.8;"/>
   </g>
   <g id="patch_10">
    <path d="M 486.529769 434.734413 
L 799.739687 434.734413 
" style="fill:none;stroke:#262626;stroke-linecap:square;stroke-linejoin:miter;stroke-width:0.8;"/>
   </g>
   <g id="patch_11">
    <path d="M 674.892517 360.258433 
Q 636.64392 345.596336 626.771234 291.806435 
" style="fill:none;stroke:#000000;stroke-linecap:round;stroke-width:0.75;"/>
    <path d="M 625.526198 296.101768 
L 626.771234 291.806435 
L 629.460479 295.379664 
" style="fill:none;stroke:#000000;stroke-linecap:round;stroke-width:0.75;"/>
   </g>
   <g id="text_32">
    <!-- 1947-1984 backward -->
    <g style="fill:#262626;" transform="translate(679.274334 360.536671)scale(0.1 -0.1)">
     <use xlink:href="#ArialMT-49"/>
     <use x="55.615234" xlink:href="#ArialMT-57"/>
     <use x="111.230469" xlink:href="#ArialMT-52"/>
     <use x="166.845703" xlink:href="#ArialMT-55"/>
     <use x="222.460938" xlink:href="#ArialMT-45"/>
     <use x="255.761719" xlink:href="#ArialMT-49"/>
     <use x="311.376953" xlink:href="#ArialMT-57"/>
     <use x="366.992188" xlink:href="#ArialMT-56"/>
     <use x="422.607422" xlink:href="#ArialMT-52"/>
     <use x="478.222656" xlink:href="#ArialMT-32"/>
     <use x="506.005859" xlink:href="#ArialMT-98"/>
     <use x="561.621094" xlink:href="#ArialMT-97"/>
     <use x="617.236328" xlink:href="#ArialMT-99"/>
     <use x="667.236328" xlink:href="#ArialMT-107"/>
     <use x="717.236328" xlink:href="#ArialMT-119"/>
     <use x="789.453125" xlink:href="#ArialMT-97"/>
     <use x="845.068359" xlink:href="#ArialMT-114"/>
     <use x="878.369141" xlink:href="#ArialMT-100"/>
    </g>
    <!-- looking average: 25.2% -->
    <g style="fill:#262626;" transform="translate(679.274334 371.259796)scale(0.1 -0.1)">
     <use xlink:href="#ArialMT-108"/>
     <use x="22.216797" xlink:href="#ArialMT-111"/>
     <use x="77.832031" xlink:href="#ArialMT-111"/>
     <use x="133.447266" xlink:href="#ArialMT-107"/>
     <use x="183.447266" xlink:href="#ArialMT-105"/>
     <use x="205.664062" xlink:href="#ArialMT-110"/>
     <use x="261.279297" xlink:href="#ArialMT-103"/>
     <use x="316.894531" xlink:href="#ArialMT-32"/>
     <use x="344.677734" xlink:href="#ArialMT-97"/>
     <use x="400.292969" xlink:href="#ArialMT-118"/>
     <use x="450.292969" xlink:href="#ArialMT-101"/>
     <use x="505.908203" xlink:href="#ArialMT-114"/>
     <use x="539.208984" xlink:href="#ArialMT-97"/>
     <use x="594.824219" xlink:href="#ArialMT-103"/>
     <use x="650.439453" xlink:href="#ArialMT-101"/>
     <use x="706.054688" xlink:href="#ArialMT-58"/>
     <use x="733.837891" xlink:href="#ArialMT-32"/>
     <use x="761.621094" xlink:href="#ArialMT-50"/>
     <use x="817.236328" xlink:href="#ArialMT-53"/>
     <use x="872.851562" xlink:href="#ArialMT-46"/>
     <use x="900.634766" xlink:href="#ArialMT-50"/>
     <use x="956.25" xlink:href="#ArialMT-37"/>
    </g>
   </g>
   <g id="patch_12">
    <path d="M 556.429519 207.222445 
Q 572.803305 173.096124 613.883434 183.471116 
" style="fill:none;stroke:#000000;stroke-linecap:round;stroke-width:0.75;"/>
    <path d="M 610.49494 180.552537 
L 613.883434 183.471116 
L 609.515474 184.430764 
" style="fill:none;stroke:#000000;stroke-linecap:round;stroke-width:0.75;"/>
   </g>
   <g id="text_33">
    <!-- 1984-2020 backward -->
    <g style="fill:#262626;" transform="translate(496.166997 218.699228)scale(0.1 -0.1)">
     <use xlink:href="#ArialMT-49"/>
     <use x="55.615234" xlink:href="#ArialMT-57"/>
     <use x="111.230469" xlink:href="#ArialMT-56"/>
     <use x="166.845703" xlink:href="#ArialMT-52"/>
     <use x="222.460938" xlink:href="#ArialMT-45"/>
     <use x="255.761719" xlink:href="#ArialMT-50"/>
     <use x="311.376953" xlink:href="#ArialMT-48"/>
     <use x="366.992188" xlink:href="#ArialMT-50"/>
     <use x="422.607422" xlink:href="#ArialMT-48"/>
     <use x="478.222656" xlink:href="#ArialMT-32"/>
     <use x="506.005859" xlink:href="#ArialMT-98"/>
     <use x="561.621094" xlink:href="#ArialMT-97"/>
     <use x="617.236328" xlink:href="#ArialMT-99"/>
     <use x="667.236328" xlink:href="#ArialMT-107"/>
     <use x="717.236328" xlink:href="#ArialMT-119"/>
     <use x="789.453125" xlink:href="#ArialMT-97"/>
     <use x="845.068359" xlink:href="#ArialMT-114"/>
     <use x="878.369141" xlink:href="#ArialMT-100"/>
    </g>
    <!-- looking average: 37.96% -->
    <g style="fill:#262626;" transform="translate(496.166997 229.422353)scale(0.1 -0.1)">
     <use xlink:href="#ArialMT-108"/>
     <use x="22.216797" xlink:href="#ArialMT-111"/>
     <use x="77.832031" xlink:href="#ArialMT-111"/>
     <use x="133.447266" xlink:href="#ArialMT-107"/>
     <use x="183.447266" xlink:href="#ArialMT-105"/>
     <use x="205.664062" xlink:href="#ArialMT-110"/>
     <use x="261.279297" xlink:href="#ArialMT-103"/>
     <use x="316.894531" xlink:href="#ArialMT-32"/>
     <use x="344.677734" xlink:href="#ArialMT-97"/>
     <use x="400.292969" xlink:href="#ArialMT-118"/>
     <use x="450.292969" xlink:href="#ArialMT-101"/>
     <use x="505.908203" xlink:href="#ArialMT-114"/>
     <use x="539.208984" xlink:href="#ArialMT-97"/>
     <use x="594.824219" xlink:href="#ArialMT-103"/>
     <use x="650.439453" xlink:href="#ArialMT-101"/>
     <use x="706.054688" xlink:href="#ArialMT-58"/>
     <use x="733.837891" xlink:href="#ArialMT-32"/>
     <use x="761.621094" xlink:href="#ArialMT-51"/>
     <use x="817.236328" xlink:href="#ArialMT-55"/>
     <use x="872.851562" xlink:href="#ArialMT-46"/>
     <use x="900.634766" xlink:href="#ArialMT-57"/>
     <use x="956.25" xlink:href="#ArialMT-54"/>
     <use x="1011.865234" xlink:href="#ArialMT-37"/>
    </g>
   </g>
   <g id="text_34">
    <!-- B. -->
    <g style="fill:#262626;" transform="translate(467.255313 24.37875)scale(0.24 -0.24)">
     <defs>
      <path d="M 7.328125 0 
L 7.328125 71.578125 
L 34.1875 71.578125 
Q 42.390625 71.578125 47.34375 69.40625 
Q 52.296875 67.234375 55.09375 62.71875 
Q 57.90625 58.203125 57.90625 53.265625 
Q 57.90625 48.6875 55.421875 44.625 
Q 52.9375 40.578125 47.90625 38.09375 
Q 54.390625 36.1875 57.875 31.59375 
Q 61.375 27 61.375 20.75 
Q 61.375 15.71875 59.25 11.390625 
Q 57.125 7.078125 54 4.734375 
Q 50.875 2.390625 46.15625 1.1875 
Q 41.453125 0 34.625 0 
z
M 16.796875 41.5 
L 32.28125 41.5 
Q 38.578125 41.5 41.3125 42.328125 
Q 44.921875 43.40625 46.75 45.890625 
Q 48.578125 48.390625 48.578125 52.15625 
Q 48.578125 55.71875 46.875 58.421875 
Q 45.171875 61.140625 41.984375 62.140625 
Q 38.8125 63.140625 31.109375 63.140625 
L 16.796875 63.140625 
z
M 16.796875 8.453125 
L 34.625 8.453125 
Q 39.203125 8.453125 41.0625 8.796875 
Q 44.34375 9.375 46.53125 10.734375 
Q 48.734375 12.109375 50.140625 14.71875 
Q 51.5625 17.328125 51.5625 20.75 
Q 51.5625 24.75 49.515625 27.703125 
Q 47.46875 30.671875 43.828125 31.859375 
Q 40.1875 33.0625 33.34375 33.0625 
L 16.796875 33.0625 
z
" id="ArialMT-66"/>
     </defs>
     <use xlink:href="#ArialMT-66"/>
     <use x="66.699219" xlink:href="#ArialMT-46"/>
    </g>
   </g>
   <g id="legend_2">
    <g id="line2d_61">
     <path d="M 478.055313 59.388238 
L 502.055313 59.388238 
" style="fill:none;stroke:#377eb8;stroke-linecap:round;"/>
    </g>
    <g id="line2d_62"/>
    <g id="text_35">
     <!-- Guesser: F/(M+F) -->
     <g style="fill:#262626;" transform="translate(511.655313 63.588238)scale(0.12 -0.12)">
      <defs>
       <path d="M 41.21875 28.078125 
L 41.21875 36.46875 
L 71.53125 36.53125 
L 71.53125 9.96875 
Q 64.546875 4.390625 57.125 1.578125 
Q 49.703125 -1.21875 41.890625 -1.21875 
Q 31.34375 -1.21875 22.71875 3.296875 
Q 14.109375 7.8125 9.71875 16.359375 
Q 5.328125 24.90625 5.328125 35.453125 
Q 5.328125 45.90625 9.6875 54.953125 
Q 14.0625 64.015625 22.265625 68.40625 
Q 30.46875 72.796875 41.15625 72.796875 
Q 48.921875 72.796875 55.1875 70.28125 
Q 61.46875 67.78125 65.03125 63.28125 
Q 68.609375 58.796875 70.453125 51.5625 
L 61.921875 49.21875 
Q 60.296875 54.6875 57.90625 57.8125 
Q 55.515625 60.9375 51.0625 62.8125 
Q 46.625 64.703125 41.21875 64.703125 
Q 34.71875 64.703125 29.984375 62.71875 
Q 25.25 60.75 22.34375 57.515625 
Q 19.4375 54.296875 17.828125 50.4375 
Q 15.09375 43.796875 15.09375 36.03125 
Q 15.09375 26.46875 18.390625 20.015625 
Q 21.6875 13.578125 27.984375 10.453125 
Q 34.28125 7.328125 41.359375 7.328125 
Q 47.515625 7.328125 53.375 9.6875 
Q 59.234375 12.0625 62.25 14.75 
L 62.25 28.078125 
z
" id="ArialMT-71"/>
      </defs>
      <use xlink:href="#ArialMT-71"/>
      <use x="77.783203" xlink:href="#ArialMT-117"/>
      <use x="133.398438" xlink:href="#ArialMT-101"/>
      <use x="189.013672" xlink:href="#ArialMT-115"/>
      <use x="239.013672" xlink:href="#ArialMT-115"/>
      <use x="289.013672" xlink:href="#ArialMT-101"/>
      <use x="344.628906" xlink:href="#ArialMT-114"/>
      <use x="377.929688" xlink:href="#ArialMT-58"/>
      <use x="405.712891" xlink:href="#ArialMT-32"/>
      <use x="433.496094" xlink:href="#ArialMT-70"/>
      <use x="494.580078" xlink:href="#ArialMT-47"/>
      <use x="522.363281" xlink:href="#ArialMT-40"/>
      <use x="555.664062" xlink:href="#ArialMT-77"/>
      <use x="638.964844" xlink:href="#ArialMT-43"/>
      <use x="697.363281" xlink:href="#ArialMT-70"/>
      <use x="758.447266" xlink:href="#ArialMT-41"/>
     </g>
    </g>
    <g id="patch_13">
     <path d="M 478.055313 80.703238 
L 502.055313 80.703238 
L 502.055313 72.303238 
L 478.055313 72.303238 
z
" style="fill:#ffb94e;fill-opacity:0.3;stroke:#000000;stroke-linejoin:miter;stroke-width:0.5;"/>
    </g>
    <g id="text_36">
     <!-- Guesser: CI's -->
     <g style="fill:#262626;" transform="translate(511.655313 80.703238)scale(0.12 -0.12)">
      <use xlink:href="#ArialMT-71"/>
      <use x="77.783203" xlink:href="#ArialMT-117"/>
      <use x="133.398438" xlink:href="#ArialMT-101"/>
      <use x="189.013672" xlink:href="#ArialMT-115"/>
      <use x="239.013672" xlink:href="#ArialMT-115"/>
      <use x="289.013672" xlink:href="#ArialMT-101"/>
      <use x="344.628906" xlink:href="#ArialMT-114"/>
      <use x="377.929688" xlink:href="#ArialMT-58"/>
      <use x="405.712891" xlink:href="#ArialMT-32"/>
      <use x="433.496094" xlink:href="#ArialMT-67"/>
      <use x="505.712891" xlink:href="#ArialMT-73"/>
      <use x="533.496094" xlink:href="#ArialMT-39"/>
      <use x="552.587891" xlink:href="#ArialMT-115"/>
     </g>
    </g>
   </g>
  </g>
 </g>
 <defs>
  <clipPath id="p159e200fed">
   <rect height="390.6818" width="332.484375" x="50.255313" y="44.052613"/>
  </clipPath>
  <clipPath id="p21972f5260">
   <rect height="390.6818" width="332.484375" x="467.255313" y="44.052613"/>
  </clipPath>
 </defs>
</svg>
