<?xml version="1.0" encoding="utf-8" standalone="no"?>
<!DOCTYPE svg PUBLIC "-//W3C//DTD SVG 1.1//EN"
  "http://www.w3.org/Graphics/SVG/1.1/DTD/svg11.dtd">
<svg height="358.534375pt" version="1.1" viewBox="0 0 744.944687 358.534375" width="744.944687pt" xmlns="http://www.w3.org/2000/svg" xmlns:xlink="http://www.w3.org/1999/xlink">
 <metadata>
  <rdf:RDF xmlns:cc="http://creativecommons.org/ns#" xmlns:dc="http://purl.org/dc/elements/1.1/" xmlns:rdf="http://www.w3.org/1999/02/22-rdf-syntax-ns#">
   <cc:Work>
    <dc:type rdf:resource="http://purl.org/dc/dcmitype/StillImage"/>
    <dc:date>2021-09-03T19:07:38.392602</dc:date>
    <dc:format>image/svg+xml</dc:format>
    <dc:creator>
     <cc:Agent>
      <dc:title>Matplotlib v3.4.3, https://matplotlib.org/</dc:title>
     </cc:Agent>
    </dc:creator>
   </cc:Work>
  </rdf:RDF>
 </metadata>
 <defs>
  <style type="text/css">*{stroke-linecap:butt;stroke-linejoin:round;}</style>
 </defs>
 <g id="figure_1">
  <g id="patch_1">
   <path d="M 0 358.534375 
L 744.944687 358.534375 
L 744.944687 0 
L 0 0 
z
" style="fill:#ffffff;"/>
  </g>
  <g id="axes_1">
   <g id="patch_2">
    <path d="M 54.798438 333.36 
L 724.398438 333.36 
L 724.398438 7.2 
L 54.798438 7.2 
z
" style="fill:#ffffff;"/>
   </g>
   <g id="matplotlib.axis_1">
    <g id="xtick_1">
     <g id="line2d_1">
      <path clip-path="url(#p33e813657a)" d="M 142.137568 333.36 
L 142.137568 7.2 
" style="fill:none;stroke:#cccccc;stroke-dasharray:2.96,1.28;stroke-dashoffset:0;stroke-opacity:0.2;stroke-width:0.8;"/>
     </g>
     <g id="line2d_2">
      <defs>
       <path d="M 0 0 
L 0 3.5 
" id="meb996811a2" style="stroke:#262626;stroke-width:0.8;"/>
      </defs>
      <g>
       <use style="fill:#262626;stroke:#262626;stroke-width:0.8;" x="142.137568" xlink:href="#meb996811a2" y="333.36"/>
      </g>
     </g>
     <g id="text_1">
      <!-- 1960 -->
      <g style="fill:#262626;" transform="translate(128.791318 348.949375)scale(0.12 -0.12)">
       <defs>
        <path d="M 2384 0 
L 1822 0 
L 1822 3584 
Q 1619 3391 1289 3197 
Q 959 3003 697 2906 
L 697 3450 
Q 1169 3672 1522 3987 
Q 1875 4303 2022 4600 
L 2384 4600 
L 2384 0 
z
" id="ArialMT-31" transform="scale(0.015625)"/>
        <path d="M 350 1059 
L 891 1109 
Q 959 728 1153 556 
Q 1347 384 1650 384 
Q 1909 384 2104 503 
Q 2300 622 2425 820 
Q 2550 1019 2634 1356 
Q 2719 1694 2719 2044 
Q 2719 2081 2716 2156 
Q 2547 1888 2255 1720 
Q 1963 1553 1622 1553 
Q 1053 1553 659 1965 
Q 266 2378 266 3053 
Q 266 3750 677 4175 
Q 1088 4600 1706 4600 
Q 2153 4600 2523 4359 
Q 2894 4119 3086 3673 
Q 3278 3228 3278 2384 
Q 3278 1506 3087 986 
Q 2897 466 2520 194 
Q 2144 -78 1638 -78 
Q 1100 -78 759 220 
Q 419 519 350 1059 
z
M 2653 3081 
Q 2653 3566 2395 3850 
Q 2138 4134 1775 4134 
Q 1400 4134 1122 3828 
Q 844 3522 844 3034 
Q 844 2597 1108 2323 
Q 1372 2050 1759 2050 
Q 2150 2050 2401 2323 
Q 2653 2597 2653 3081 
z
" id="ArialMT-39" transform="scale(0.015625)"/>
        <path d="M 3184 3459 
L 2625 3416 
Q 2550 3747 2413 3897 
Q 2184 4138 1850 4138 
Q 1581 4138 1378 3988 
Q 1113 3794 959 3422 
Q 806 3050 800 2363 
Q 1003 2672 1297 2822 
Q 1591 2972 1913 2972 
Q 2475 2972 2870 2558 
Q 3266 2144 3266 1488 
Q 3266 1056 3080 686 
Q 2894 316 2569 119 
Q 2244 -78 1831 -78 
Q 1128 -78 684 439 
Q 241 956 241 2144 
Q 241 3472 731 4075 
Q 1159 4600 1884 4600 
Q 2425 4600 2770 4297 
Q 3116 3994 3184 3459 
z
M 888 1484 
Q 888 1194 1011 928 
Q 1134 663 1356 523 
Q 1578 384 1822 384 
Q 2178 384 2434 671 
Q 2691 959 2691 1453 
Q 2691 1928 2437 2201 
Q 2184 2475 1800 2475 
Q 1419 2475 1153 2201 
Q 888 1928 888 1484 
z
" id="ArialMT-36" transform="scale(0.015625)"/>
        <path d="M 266 2259 
Q 266 3072 433 3567 
Q 600 4063 929 4331 
Q 1259 4600 1759 4600 
Q 2128 4600 2406 4451 
Q 2684 4303 2865 4023 
Q 3047 3744 3150 3342 
Q 3253 2941 3253 2259 
Q 3253 1453 3087 958 
Q 2922 463 2592 192 
Q 2263 -78 1759 -78 
Q 1097 -78 719 397 
Q 266 969 266 2259 
z
M 844 2259 
Q 844 1131 1108 757 
Q 1372 384 1759 384 
Q 2147 384 2411 759 
Q 2675 1134 2675 2259 
Q 2675 3391 2411 3762 
Q 2147 4134 1753 4134 
Q 1366 4134 1134 3806 
Q 844 3388 844 2259 
z
" id="ArialMT-30" transform="scale(0.015625)"/>
       </defs>
       <use xlink:href="#ArialMT-31"/>
       <use x="55.615234" xlink:href="#ArialMT-39"/>
       <use x="111.230469" xlink:href="#ArialMT-36"/>
       <use x="166.845703" xlink:href="#ArialMT-30"/>
      </g>
     </g>
    </g>
    <g id="xtick_2">
     <g id="line2d_3">
      <path clip-path="url(#p33e813657a)" d="M 239.181046 333.36 
L 239.181046 7.2 
" style="fill:none;stroke:#cccccc;stroke-dasharray:2.96,1.28;stroke-dashoffset:0;stroke-opacity:0.2;stroke-width:0.8;"/>
     </g>
     <g id="line2d_4">
      <g>
       <use style="fill:#262626;stroke:#262626;stroke-width:0.8;" x="239.181046" xlink:href="#meb996811a2" y="333.36"/>
      </g>
     </g>
     <g id="text_2">
      <!-- 1970 -->
      <g style="fill:#262626;" transform="translate(225.834796 348.949375)scale(0.12 -0.12)">
       <defs>
        <path d="M 303 3981 
L 303 4522 
L 3269 4522 
L 3269 4084 
Q 2831 3619 2401 2847 
Q 1972 2075 1738 1259 
Q 1569 684 1522 0 
L 944 0 
Q 953 541 1156 1306 
Q 1359 2072 1739 2783 
Q 2119 3494 2547 3981 
L 303 3981 
z
" id="ArialMT-37" transform="scale(0.015625)"/>
       </defs>
       <use xlink:href="#ArialMT-31"/>
       <use x="55.615234" xlink:href="#ArialMT-39"/>
       <use x="111.230469" xlink:href="#ArialMT-37"/>
       <use x="166.845703" xlink:href="#ArialMT-30"/>
      </g>
     </g>
    </g>
    <g id="xtick_3">
     <g id="line2d_5">
      <path clip-path="url(#p33e813657a)" d="M 336.224524 333.36 
L 336.224524 7.2 
" style="fill:none;stroke:#cccccc;stroke-dasharray:2.96,1.28;stroke-dashoffset:0;stroke-opacity:0.2;stroke-width:0.8;"/>
     </g>
     <g id="line2d_6">
      <g>
       <use style="fill:#262626;stroke:#262626;stroke-width:0.8;" x="336.224524" xlink:href="#meb996811a2" y="333.36"/>
      </g>
     </g>
     <g id="text_3">
      <!-- 1980 -->
      <g style="fill:#262626;" transform="translate(322.878274 348.949375)scale(0.12 -0.12)">
       <defs>
        <path d="M 1131 2484 
Q 781 2613 612 2850 
Q 444 3088 444 3419 
Q 444 3919 803 4259 
Q 1163 4600 1759 4600 
Q 2359 4600 2725 4251 
Q 3091 3903 3091 3403 
Q 3091 3084 2923 2848 
Q 2756 2613 2416 2484 
Q 2838 2347 3058 2040 
Q 3278 1734 3278 1309 
Q 3278 722 2862 322 
Q 2447 -78 1769 -78 
Q 1091 -78 675 323 
Q 259 725 259 1325 
Q 259 1772 486 2073 
Q 713 2375 1131 2484 
z
M 1019 3438 
Q 1019 3113 1228 2906 
Q 1438 2700 1772 2700 
Q 2097 2700 2305 2904 
Q 2513 3109 2513 3406 
Q 2513 3716 2298 3927 
Q 2084 4138 1766 4138 
Q 1444 4138 1231 3931 
Q 1019 3725 1019 3438 
z
M 838 1322 
Q 838 1081 952 856 
Q 1066 631 1291 507 
Q 1516 384 1775 384 
Q 2178 384 2440 643 
Q 2703 903 2703 1303 
Q 2703 1709 2433 1975 
Q 2163 2241 1756 2241 
Q 1359 2241 1098 1978 
Q 838 1716 838 1322 
z
" id="ArialMT-38" transform="scale(0.015625)"/>
       </defs>
       <use xlink:href="#ArialMT-31"/>
       <use x="55.615234" xlink:href="#ArialMT-39"/>
       <use x="111.230469" xlink:href="#ArialMT-38"/>
       <use x="166.845703" xlink:href="#ArialMT-30"/>
      </g>
     </g>
    </g>
    <g id="xtick_4">
     <g id="line2d_7">
      <path clip-path="url(#p33e813657a)" d="M 433.268003 333.36 
L 433.268003 7.2 
" style="fill:none;stroke:#cccccc;stroke-dasharray:2.96,1.28;stroke-dashoffset:0;stroke-opacity:0.2;stroke-width:0.8;"/>
     </g>
     <g id="line2d_8">
      <g>
       <use style="fill:#262626;stroke:#262626;stroke-width:0.8;" x="433.268003" xlink:href="#meb996811a2" y="333.36"/>
      </g>
     </g>
     <g id="text_4">
      <!-- 1990 -->
      <g style="fill:#262626;" transform="translate(419.921753 348.949375)scale(0.12 -0.12)">
       <use xlink:href="#ArialMT-31"/>
       <use x="55.615234" xlink:href="#ArialMT-39"/>
       <use x="111.230469" xlink:href="#ArialMT-39"/>
       <use x="166.845703" xlink:href="#ArialMT-30"/>
      </g>
     </g>
    </g>
    <g id="xtick_5">
     <g id="line2d_9">
      <path clip-path="url(#p33e813657a)" d="M 530.311481 333.36 
L 530.311481 7.2 
" style="fill:none;stroke:#cccccc;stroke-dasharray:2.96,1.28;stroke-dashoffset:0;stroke-opacity:0.2;stroke-width:0.8;"/>
     </g>
     <g id="line2d_10">
      <g>
       <use style="fill:#262626;stroke:#262626;stroke-width:0.8;" x="530.311481" xlink:href="#meb996811a2" y="333.36"/>
      </g>
     </g>
     <g id="text_5">
      <!-- 2000 -->
      <g style="fill:#262626;" transform="translate(516.965231 348.949375)scale(0.12 -0.12)">
       <defs>
        <path d="M 3222 541 
L 3222 0 
L 194 0 
Q 188 203 259 391 
Q 375 700 629 1000 
Q 884 1300 1366 1694 
Q 2113 2306 2375 2664 
Q 2638 3022 2638 3341 
Q 2638 3675 2398 3904 
Q 2159 4134 1775 4134 
Q 1369 4134 1125 3890 
Q 881 3647 878 3216 
L 300 3275 
Q 359 3922 746 4261 
Q 1134 4600 1788 4600 
Q 2447 4600 2831 4234 
Q 3216 3869 3216 3328 
Q 3216 3053 3103 2787 
Q 2991 2522 2730 2228 
Q 2469 1934 1863 1422 
Q 1356 997 1212 845 
Q 1069 694 975 541 
L 3222 541 
z
" id="ArialMT-32" transform="scale(0.015625)"/>
       </defs>
       <use xlink:href="#ArialMT-32"/>
       <use x="55.615234" xlink:href="#ArialMT-30"/>
       <use x="111.230469" xlink:href="#ArialMT-30"/>
       <use x="166.845703" xlink:href="#ArialMT-30"/>
      </g>
     </g>
    </g>
    <g id="xtick_6">
     <g id="line2d_11">
      <path clip-path="url(#p33e813657a)" d="M 627.354959 333.36 
L 627.354959 7.2 
" style="fill:none;stroke:#cccccc;stroke-dasharray:2.96,1.28;stroke-dashoffset:0;stroke-opacity:0.2;stroke-width:0.8;"/>
     </g>
     <g id="line2d_12">
      <g>
       <use style="fill:#262626;stroke:#262626;stroke-width:0.8;" x="627.354959" xlink:href="#meb996811a2" y="333.36"/>
      </g>
     </g>
     <g id="text_6">
      <!-- 2010 -->
      <g style="fill:#262626;" transform="translate(614.008709 348.949375)scale(0.12 -0.12)">
       <use xlink:href="#ArialMT-32"/>
       <use x="55.615234" xlink:href="#ArialMT-30"/>
       <use x="111.230469" xlink:href="#ArialMT-31"/>
       <use x="166.845703" xlink:href="#ArialMT-30"/>
      </g>
     </g>
    </g>
    <g id="xtick_7">
     <g id="line2d_13">
      <path clip-path="url(#p33e813657a)" d="M 724.398438 333.36 
L 724.398438 7.2 
" style="fill:none;stroke:#cccccc;stroke-dasharray:2.96,1.28;stroke-dashoffset:0;stroke-opacity:0.2;stroke-width:0.8;"/>
     </g>
     <g id="line2d_14">
      <g>
       <use style="fill:#262626;stroke:#262626;stroke-width:0.8;" x="724.398438" xlink:href="#meb996811a2" y="333.36"/>
      </g>
     </g>
     <g id="text_7">
      <!-- 2020 -->
      <g style="fill:#262626;" transform="translate(711.052187 348.949375)scale(0.12 -0.12)">
       <use xlink:href="#ArialMT-32"/>
       <use x="55.615234" xlink:href="#ArialMT-30"/>
       <use x="111.230469" xlink:href="#ArialMT-32"/>
       <use x="166.845703" xlink:href="#ArialMT-30"/>
      </g>
     </g>
    </g>
   </g>
   <g id="matplotlib.axis_2">
    <g id="ytick_1">
     <g id="line2d_15">
      <path clip-path="url(#p33e813657a)" d="M 54.798438 316.193684 
L 724.398438 316.193684 
" style="fill:none;stroke:#cccccc;stroke-dasharray:2.96,1.28;stroke-dashoffset:0;stroke-opacity:0.2;stroke-width:0.8;"/>
     </g>
     <g id="line2d_16">
      <defs>
       <path d="M 0 0 
L -3.5 0 
" id="m13268255e8" style="stroke:#262626;stroke-width:0.8;"/>
      </defs>
      <g>
       <use style="fill:#262626;stroke:#262626;stroke-width:0.8;" x="54.798438" xlink:href="#m13268255e8" y="316.193684"/>
      </g>
     </g>
     <g id="text_8">
      <!-- 10% -->
      <g style="fill:#262626;" transform="translate(23.781563 320.488372)scale(0.12 -0.12)">
       <defs>
        <path d="M 372 3481 
Q 372 3972 619 4315 
Q 866 4659 1334 4659 
Q 1766 4659 2048 4351 
Q 2331 4044 2331 3447 
Q 2331 2866 2045 2552 
Q 1759 2238 1341 2238 
Q 925 2238 648 2547 
Q 372 2856 372 3481 
z
M 1350 4272 
Q 1141 4272 1002 4090 
Q 863 3909 863 3425 
Q 863 2984 1003 2804 
Q 1144 2625 1350 2625 
Q 1563 2625 1702 2806 
Q 1841 2988 1841 3469 
Q 1841 3913 1700 4092 
Q 1559 4272 1350 4272 
z
M 1353 -169 
L 3859 4659 
L 4316 4659 
L 1819 -169 
L 1353 -169 
z
M 3334 1075 
Q 3334 1569 3581 1911 
Q 3828 2253 4300 2253 
Q 4731 2253 5014 1945 
Q 5297 1638 5297 1041 
Q 5297 459 5011 145 
Q 4725 -169 4303 -169 
Q 3888 -169 3611 142 
Q 3334 453 3334 1075 
z
M 4316 1866 
Q 4103 1866 3964 1684 
Q 3825 1503 3825 1019 
Q 3825 581 3965 400 
Q 4106 219 4313 219 
Q 4528 219 4667 400 
Q 4806 581 4806 1063 
Q 4806 1506 4665 1686 
Q 4525 1866 4316 1866 
z
" id="ArialMT-25" transform="scale(0.015625)"/>
       </defs>
       <use xlink:href="#ArialMT-31"/>
       <use x="55.615234" xlink:href="#ArialMT-30"/>
       <use x="111.230469" xlink:href="#ArialMT-25"/>
      </g>
     </g>
    </g>
    <g id="ytick_2">
     <g id="line2d_17">
      <path clip-path="url(#p33e813657a)" d="M 54.798438 247.528421 
L 724.398438 247.528421 
" style="fill:none;stroke:#cccccc;stroke-dasharray:2.96,1.28;stroke-dashoffset:0;stroke-opacity:0.2;stroke-width:0.8;"/>
     </g>
     <g id="line2d_18">
      <g>
       <use style="fill:#262626;stroke:#262626;stroke-width:0.8;" x="54.798438" xlink:href="#m13268255e8" y="247.528421"/>
      </g>
     </g>
     <g id="text_9">
      <!-- 20% -->
      <g style="fill:#262626;" transform="translate(23.781563 251.823109)scale(0.12 -0.12)">
       <use xlink:href="#ArialMT-32"/>
       <use x="55.615234" xlink:href="#ArialMT-30"/>
       <use x="111.230469" xlink:href="#ArialMT-25"/>
      </g>
     </g>
    </g>
    <g id="ytick_3">
     <g id="line2d_19">
      <path clip-path="url(#p33e813657a)" d="M 54.798438 178.863158 
L 724.398438 178.863158 
" style="fill:none;stroke:#cccccc;stroke-dasharray:2.96,1.28;stroke-dashoffset:0;stroke-opacity:0.2;stroke-width:0.8;"/>
     </g>
     <g id="line2d_20">
      <g>
       <use style="fill:#262626;stroke:#262626;stroke-width:0.8;" x="54.798438" xlink:href="#m13268255e8" y="178.863158"/>
      </g>
     </g>
     <g id="text_10">
      <!-- 30% -->
      <g style="fill:#262626;" transform="translate(23.781563 183.157845)scale(0.12 -0.12)">
       <defs>
        <path d="M 269 1209 
L 831 1284 
Q 928 806 1161 595 
Q 1394 384 1728 384 
Q 2125 384 2398 659 
Q 2672 934 2672 1341 
Q 2672 1728 2419 1979 
Q 2166 2231 1775 2231 
Q 1616 2231 1378 2169 
L 1441 2663 
Q 1497 2656 1531 2656 
Q 1891 2656 2178 2843 
Q 2466 3031 2466 3422 
Q 2466 3731 2256 3934 
Q 2047 4138 1716 4138 
Q 1388 4138 1169 3931 
Q 950 3725 888 3313 
L 325 3413 
Q 428 3978 793 4289 
Q 1159 4600 1703 4600 
Q 2078 4600 2393 4439 
Q 2709 4278 2876 4000 
Q 3044 3722 3044 3409 
Q 3044 3113 2884 2869 
Q 2725 2625 2413 2481 
Q 2819 2388 3044 2092 
Q 3269 1797 3269 1353 
Q 3269 753 2831 336 
Q 2394 -81 1725 -81 
Q 1122 -81 723 278 
Q 325 638 269 1209 
z
" id="ArialMT-33" transform="scale(0.015625)"/>
       </defs>
       <use xlink:href="#ArialMT-33"/>
       <use x="55.615234" xlink:href="#ArialMT-30"/>
       <use x="111.230469" xlink:href="#ArialMT-25"/>
      </g>
     </g>
    </g>
    <g id="ytick_4">
     <g id="line2d_21">
      <path clip-path="url(#p33e813657a)" d="M 54.798438 110.197895 
L 724.398438 110.197895 
" style="fill:none;stroke:#cccccc;stroke-dasharray:2.96,1.28;stroke-dashoffset:0;stroke-opacity:0.2;stroke-width:0.8;"/>
     </g>
     <g id="line2d_22">
      <g>
       <use style="fill:#262626;stroke:#262626;stroke-width:0.8;" x="54.798438" xlink:href="#m13268255e8" y="110.197895"/>
      </g>
     </g>
     <g id="text_11">
      <!-- 40% -->
      <g style="fill:#262626;" transform="translate(23.781563 114.492582)scale(0.12 -0.12)">
       <defs>
        <path d="M 2069 0 
L 2069 1097 
L 81 1097 
L 81 1613 
L 2172 4581 
L 2631 4581 
L 2631 1613 
L 3250 1613 
L 3250 1097 
L 2631 1097 
L 2631 0 
L 2069 0 
z
M 2069 1613 
L 2069 3678 
L 634 1613 
L 2069 1613 
z
" id="ArialMT-34" transform="scale(0.015625)"/>
       </defs>
       <use xlink:href="#ArialMT-34"/>
       <use x="55.615234" xlink:href="#ArialMT-30"/>
       <use x="111.230469" xlink:href="#ArialMT-25"/>
      </g>
     </g>
    </g>
    <g id="ytick_5">
     <g id="line2d_23">
      <path clip-path="url(#p33e813657a)" d="M 54.798438 41.532632 
L 724.398438 41.532632 
" style="fill:none;stroke:#cccccc;stroke-dasharray:2.96,1.28;stroke-dashoffset:0;stroke-opacity:0.2;stroke-width:0.8;"/>
     </g>
     <g id="line2d_24">
      <g>
       <use style="fill:#262626;stroke:#262626;stroke-width:0.8;" x="54.798438" xlink:href="#m13268255e8" y="41.532632"/>
      </g>
     </g>
     <g id="text_12">
      <!-- 50% -->
      <g style="fill:#262626;" transform="translate(23.781563 45.827319)scale(0.12 -0.12)">
       <defs>
        <path d="M 266 1200 
L 856 1250 
Q 922 819 1161 601 
Q 1400 384 1738 384 
Q 2144 384 2425 690 
Q 2706 997 2706 1503 
Q 2706 1984 2436 2262 
Q 2166 2541 1728 2541 
Q 1456 2541 1237 2417 
Q 1019 2294 894 2097 
L 366 2166 
L 809 4519 
L 3088 4519 
L 3088 3981 
L 1259 3981 
L 1013 2750 
Q 1425 3038 1878 3038 
Q 2478 3038 2890 2622 
Q 3303 2206 3303 1553 
Q 3303 931 2941 478 
Q 2500 -78 1738 -78 
Q 1113 -78 717 272 
Q 322 622 266 1200 
z
" id="ArialMT-35" transform="scale(0.015625)"/>
       </defs>
       <use xlink:href="#ArialMT-35"/>
       <use x="55.615234" xlink:href="#ArialMT-30"/>
       <use x="111.230469" xlink:href="#ArialMT-25"/>
      </g>
     </g>
    </g>
    <g id="text_13">
     <!-- Female Authorship: Ten Year Rolling Interval -->
     <g style="fill:#262626;" transform="translate(17.077969 313.124609)rotate(-90)scale(0.13 -0.13)">
      <defs>
       <path d="M 628 4666 
L 3309 4666 
L 3309 4134 
L 1259 4134 
L 1259 2759 
L 3109 2759 
L 3109 2228 
L 1259 2228 
L 1259 0 
L 628 0 
L 628 4666 
z
" id="DejaVuSans-46" transform="scale(0.015625)"/>
       <path d="M 3597 1894 
L 3597 1613 
L 953 1613 
Q 991 1019 1311 708 
Q 1631 397 2203 397 
Q 2534 397 2845 478 
Q 3156 559 3463 722 
L 3463 178 
Q 3153 47 2828 -22 
Q 2503 -91 2169 -91 
Q 1331 -91 842 396 
Q 353 884 353 1716 
Q 353 2575 817 3079 
Q 1281 3584 2069 3584 
Q 2775 3584 3186 3129 
Q 3597 2675 3597 1894 
z
M 3022 2063 
Q 3016 2534 2758 2815 
Q 2500 3097 2075 3097 
Q 1594 3097 1305 2825 
Q 1016 2553 972 2059 
L 3022 2063 
z
" id="DejaVuSans-65" transform="scale(0.015625)"/>
       <path d="M 3328 2828 
Q 3544 3216 3844 3400 
Q 4144 3584 4550 3584 
Q 5097 3584 5394 3201 
Q 5691 2819 5691 2113 
L 5691 0 
L 5113 0 
L 5113 2094 
Q 5113 2597 4934 2840 
Q 4756 3084 4391 3084 
Q 3944 3084 3684 2787 
Q 3425 2491 3425 1978 
L 3425 0 
L 2847 0 
L 2847 2094 
Q 2847 2600 2669 2842 
Q 2491 3084 2119 3084 
Q 1678 3084 1418 2786 
Q 1159 2488 1159 1978 
L 1159 0 
L 581 0 
L 581 3500 
L 1159 3500 
L 1159 2956 
Q 1356 3278 1631 3431 
Q 1906 3584 2284 3584 
Q 2666 3584 2933 3390 
Q 3200 3197 3328 2828 
z
" id="DejaVuSans-6d" transform="scale(0.015625)"/>
       <path d="M 2194 1759 
Q 1497 1759 1228 1600 
Q 959 1441 959 1056 
Q 959 750 1161 570 
Q 1363 391 1709 391 
Q 2188 391 2477 730 
Q 2766 1069 2766 1631 
L 2766 1759 
L 2194 1759 
z
M 3341 1997 
L 3341 0 
L 2766 0 
L 2766 531 
Q 2569 213 2275 61 
Q 1981 -91 1556 -91 
Q 1019 -91 701 211 
Q 384 513 384 1019 
Q 384 1609 779 1909 
Q 1175 2209 1959 2209 
L 2766 2209 
L 2766 2266 
Q 2766 2663 2505 2880 
Q 2244 3097 1772 3097 
Q 1472 3097 1187 3025 
Q 903 2953 641 2809 
L 641 3341 
Q 956 3463 1253 3523 
Q 1550 3584 1831 3584 
Q 2591 3584 2966 3190 
Q 3341 2797 3341 1997 
z
" id="DejaVuSans-61" transform="scale(0.015625)"/>
       <path d="M 603 4863 
L 1178 4863 
L 1178 0 
L 603 0 
L 603 4863 
z
" id="DejaVuSans-6c" transform="scale(0.015625)"/>
       <path id="DejaVuSans-20" transform="scale(0.015625)"/>
       <path d="M 2188 4044 
L 1331 1722 
L 3047 1722 
L 2188 4044 
z
M 1831 4666 
L 2547 4666 
L 4325 0 
L 3669 0 
L 3244 1197 
L 1141 1197 
L 716 0 
L 50 0 
L 1831 4666 
z
" id="DejaVuSans-41" transform="scale(0.015625)"/>
       <path d="M 544 1381 
L 544 3500 
L 1119 3500 
L 1119 1403 
Q 1119 906 1312 657 
Q 1506 409 1894 409 
Q 2359 409 2629 706 
Q 2900 1003 2900 1516 
L 2900 3500 
L 3475 3500 
L 3475 0 
L 2900 0 
L 2900 538 
Q 2691 219 2414 64 
Q 2138 -91 1772 -91 
Q 1169 -91 856 284 
Q 544 659 544 1381 
z
M 1991 3584 
L 1991 3584 
z
" id="DejaVuSans-75" transform="scale(0.015625)"/>
       <path d="M 1172 4494 
L 1172 3500 
L 2356 3500 
L 2356 3053 
L 1172 3053 
L 1172 1153 
Q 1172 725 1289 603 
Q 1406 481 1766 481 
L 2356 481 
L 2356 0 
L 1766 0 
Q 1100 0 847 248 
Q 594 497 594 1153 
L 594 3053 
L 172 3053 
L 172 3500 
L 594 3500 
L 594 4494 
L 1172 4494 
z
" id="DejaVuSans-74" transform="scale(0.015625)"/>
       <path d="M 3513 2113 
L 3513 0 
L 2938 0 
L 2938 2094 
Q 2938 2591 2744 2837 
Q 2550 3084 2163 3084 
Q 1697 3084 1428 2787 
Q 1159 2491 1159 1978 
L 1159 0 
L 581 0 
L 581 4863 
L 1159 4863 
L 1159 2956 
Q 1366 3272 1645 3428 
Q 1925 3584 2291 3584 
Q 2894 3584 3203 3211 
Q 3513 2838 3513 2113 
z
" id="DejaVuSans-68" transform="scale(0.015625)"/>
       <path d="M 1959 3097 
Q 1497 3097 1228 2736 
Q 959 2375 959 1747 
Q 959 1119 1226 758 
Q 1494 397 1959 397 
Q 2419 397 2687 759 
Q 2956 1122 2956 1747 
Q 2956 2369 2687 2733 
Q 2419 3097 1959 3097 
z
M 1959 3584 
Q 2709 3584 3137 3096 
Q 3566 2609 3566 1747 
Q 3566 888 3137 398 
Q 2709 -91 1959 -91 
Q 1206 -91 779 398 
Q 353 888 353 1747 
Q 353 2609 779 3096 
Q 1206 3584 1959 3584 
z
" id="DejaVuSans-6f" transform="scale(0.015625)"/>
       <path d="M 2631 2963 
Q 2534 3019 2420 3045 
Q 2306 3072 2169 3072 
Q 1681 3072 1420 2755 
Q 1159 2438 1159 1844 
L 1159 0 
L 581 0 
L 581 3500 
L 1159 3500 
L 1159 2956 
Q 1341 3275 1631 3429 
Q 1922 3584 2338 3584 
Q 2397 3584 2469 3576 
Q 2541 3569 2628 3553 
L 2631 2963 
z
" id="DejaVuSans-72" transform="scale(0.015625)"/>
       <path d="M 2834 3397 
L 2834 2853 
Q 2591 2978 2328 3040 
Q 2066 3103 1784 3103 
Q 1356 3103 1142 2972 
Q 928 2841 928 2578 
Q 928 2378 1081 2264 
Q 1234 2150 1697 2047 
L 1894 2003 
Q 2506 1872 2764 1633 
Q 3022 1394 3022 966 
Q 3022 478 2636 193 
Q 2250 -91 1575 -91 
Q 1294 -91 989 -36 
Q 684 19 347 128 
L 347 722 
Q 666 556 975 473 
Q 1284 391 1588 391 
Q 1994 391 2212 530 
Q 2431 669 2431 922 
Q 2431 1156 2273 1281 
Q 2116 1406 1581 1522 
L 1381 1569 
Q 847 1681 609 1914 
Q 372 2147 372 2553 
Q 372 3047 722 3315 
Q 1072 3584 1716 3584 
Q 2034 3584 2315 3537 
Q 2597 3491 2834 3397 
z
" id="DejaVuSans-73" transform="scale(0.015625)"/>
       <path d="M 603 3500 
L 1178 3500 
L 1178 0 
L 603 0 
L 603 3500 
z
M 603 4863 
L 1178 4863 
L 1178 4134 
L 603 4134 
L 603 4863 
z
" id="DejaVuSans-69" transform="scale(0.015625)"/>
       <path d="M 1159 525 
L 1159 -1331 
L 581 -1331 
L 581 3500 
L 1159 3500 
L 1159 2969 
Q 1341 3281 1617 3432 
Q 1894 3584 2278 3584 
Q 2916 3584 3314 3078 
Q 3713 2572 3713 1747 
Q 3713 922 3314 415 
Q 2916 -91 2278 -91 
Q 1894 -91 1617 61 
Q 1341 213 1159 525 
z
M 3116 1747 
Q 3116 2381 2855 2742 
Q 2594 3103 2138 3103 
Q 1681 3103 1420 2742 
Q 1159 2381 1159 1747 
Q 1159 1113 1420 752 
Q 1681 391 2138 391 
Q 2594 391 2855 752 
Q 3116 1113 3116 1747 
z
" id="DejaVuSans-70" transform="scale(0.015625)"/>
       <path d="M 750 794 
L 1409 794 
L 1409 0 
L 750 0 
L 750 794 
z
M 750 3309 
L 1409 3309 
L 1409 2516 
L 750 2516 
L 750 3309 
z
" id="DejaVuSans-3a" transform="scale(0.015625)"/>
       <path d="M -19 4666 
L 3928 4666 
L 3928 4134 
L 2272 4134 
L 2272 0 
L 1638 0 
L 1638 4134 
L -19 4134 
L -19 4666 
z
" id="DejaVuSans-54" transform="scale(0.015625)"/>
       <path d="M 3513 2113 
L 3513 0 
L 2938 0 
L 2938 2094 
Q 2938 2591 2744 2837 
Q 2550 3084 2163 3084 
Q 1697 3084 1428 2787 
Q 1159 2491 1159 1978 
L 1159 0 
L 581 0 
L 581 3500 
L 1159 3500 
L 1159 2956 
Q 1366 3272 1645 3428 
Q 1925 3584 2291 3584 
Q 2894 3584 3203 3211 
Q 3513 2838 3513 2113 
z
" id="DejaVuSans-6e" transform="scale(0.015625)"/>
       <path d="M -13 4666 
L 666 4666 
L 1959 2747 
L 3244 4666 
L 3922 4666 
L 2272 2222 
L 2272 0 
L 1638 0 
L 1638 2222 
L -13 4666 
z
" id="DejaVuSans-59" transform="scale(0.015625)"/>
       <path d="M 2841 2188 
Q 3044 2119 3236 1894 
Q 3428 1669 3622 1275 
L 4263 0 
L 3584 0 
L 2988 1197 
Q 2756 1666 2539 1819 
Q 2322 1972 1947 1972 
L 1259 1972 
L 1259 0 
L 628 0 
L 628 4666 
L 2053 4666 
Q 2853 4666 3247 4331 
Q 3641 3997 3641 3322 
Q 3641 2881 3436 2590 
Q 3231 2300 2841 2188 
z
M 1259 4147 
L 1259 2491 
L 2053 2491 
Q 2509 2491 2742 2702 
Q 2975 2913 2975 3322 
Q 2975 3731 2742 3939 
Q 2509 4147 2053 4147 
L 1259 4147 
z
" id="DejaVuSans-52" transform="scale(0.015625)"/>
       <path d="M 2906 1791 
Q 2906 2416 2648 2759 
Q 2391 3103 1925 3103 
Q 1463 3103 1205 2759 
Q 947 2416 947 1791 
Q 947 1169 1205 825 
Q 1463 481 1925 481 
Q 2391 481 2648 825 
Q 2906 1169 2906 1791 
z
M 3481 434 
Q 3481 -459 3084 -895 
Q 2688 -1331 1869 -1331 
Q 1566 -1331 1297 -1286 
Q 1028 -1241 775 -1147 
L 775 -588 
Q 1028 -725 1275 -790 
Q 1522 -856 1778 -856 
Q 2344 -856 2625 -561 
Q 2906 -266 2906 331 
L 2906 616 
Q 2728 306 2450 153 
Q 2172 0 1784 0 
Q 1141 0 747 490 
Q 353 981 353 1791 
Q 353 2603 747 3093 
Q 1141 3584 1784 3584 
Q 2172 3584 2450 3431 
Q 2728 3278 2906 2969 
L 2906 3500 
L 3481 3500 
L 3481 434 
z
" id="DejaVuSans-67" transform="scale(0.015625)"/>
       <path d="M 628 4666 
L 1259 4666 
L 1259 0 
L 628 0 
L 628 4666 
z
" id="DejaVuSans-49" transform="scale(0.015625)"/>
       <path d="M 191 3500 
L 800 3500 
L 1894 563 
L 2988 3500 
L 3597 3500 
L 2284 0 
L 1503 0 
L 191 3500 
z
" id="DejaVuSans-76" transform="scale(0.015625)"/>
      </defs>
      <use xlink:href="#DejaVuSans-46"/>
      <use x="52.019531" xlink:href="#DejaVuSans-65"/>
      <use x="113.542969" xlink:href="#DejaVuSans-6d"/>
      <use x="210.955078" xlink:href="#DejaVuSans-61"/>
      <use x="272.234375" xlink:href="#DejaVuSans-6c"/>
      <use x="300.017578" xlink:href="#DejaVuSans-65"/>
      <use x="361.541016" xlink:href="#DejaVuSans-20"/>
      <use x="393.328125" xlink:href="#DejaVuSans-41"/>
      <use x="461.736328" xlink:href="#DejaVuSans-75"/>
      <use x="525.115234" xlink:href="#DejaVuSans-74"/>
      <use x="564.324219" xlink:href="#DejaVuSans-68"/>
      <use x="627.703125" xlink:href="#DejaVuSans-6f"/>
      <use x="688.884766" xlink:href="#DejaVuSans-72"/>
      <use x="729.998047" xlink:href="#DejaVuSans-73"/>
      <use x="782.097656" xlink:href="#DejaVuSans-68"/>
      <use x="845.476562" xlink:href="#DejaVuSans-69"/>
      <use x="873.259766" xlink:href="#DejaVuSans-70"/>
      <use x="936.736328" xlink:href="#DejaVuSans-3a"/>
      <use x="970.427734" xlink:href="#DejaVuSans-20"/>
      <use x="1002.214844" xlink:href="#DejaVuSans-54"/>
      <use x="1046.298828" xlink:href="#DejaVuSans-65"/>
      <use x="1107.822266" xlink:href="#DejaVuSans-6e"/>
      <use x="1171.201172" xlink:href="#DejaVuSans-20"/>
      <use x="1202.988281" xlink:href="#DejaVuSans-59"/>
      <use x="1250.822266" xlink:href="#DejaVuSans-65"/>
      <use x="1312.345703" xlink:href="#DejaVuSans-61"/>
      <use x="1373.625" xlink:href="#DejaVuSans-72"/>
      <use x="1414.738281" xlink:href="#DejaVuSans-20"/>
      <use x="1446.525391" xlink:href="#DejaVuSans-52"/>
      <use x="1511.507812" xlink:href="#DejaVuSans-6f"/>
      <use x="1572.689453" xlink:href="#DejaVuSans-6c"/>
      <use x="1600.472656" xlink:href="#DejaVuSans-6c"/>
      <use x="1628.255859" xlink:href="#DejaVuSans-69"/>
      <use x="1656.039062" xlink:href="#DejaVuSans-6e"/>
      <use x="1719.417969" xlink:href="#DejaVuSans-67"/>
      <use x="1782.894531" xlink:href="#DejaVuSans-20"/>
      <use x="1814.681641" xlink:href="#DejaVuSans-49"/>
      <use x="1844.173828" xlink:href="#DejaVuSans-6e"/>
      <use x="1907.552734" xlink:href="#DejaVuSans-74"/>
      <use x="1946.761719" xlink:href="#DejaVuSans-65"/>
      <use x="2008.285156" xlink:href="#DejaVuSans-72"/>
      <use x="2049.398438" xlink:href="#DejaVuSans-76"/>
      <use x="2108.578125" xlink:href="#DejaVuSans-61"/>
      <use x="2169.857422" xlink:href="#DejaVuSans-6c"/>
     </g>
    </g>
   </g>
   <g id="PolyCollection_1">
    <defs>
     <path d="M 714.69409 -312.062597 
L 714.69409 -230.201874 
L 704.989742 -229.705575 
L 695.285394 -244.92999 
L 685.581046 -236.178052 
L 675.876698 -234.544645 
L 666.172351 -236.218334 
L 656.468003 -224.820278 
L 646.763655 -219.917407 
L 637.059307 -207.877015 
L 627.354959 -189.873839 
L 617.650611 -174.106313 
L 607.946264 -162.675334 
L 598.241916 -147.616707 
L 588.537568 -143.039932 
L 578.83322 -134.758876 
L 569.128872 -138.622988 
L 559.424524 -147.133849 
L 549.720177 -144.232639 
L 540.015829 -133.386838 
L 530.311481 -140.304359 
L 520.607133 -141.504336 
L 510.902785 -140.229282 
L 501.198438 -128.078896 
L 491.49409 -129.578073 
L 481.789742 -128.197294 
L 472.085394 -143.646589 
L 462.381046 -150.850794 
L 452.676698 -169.571264 
L 442.972351 -184.008942 
L 433.268003 -204.684096 
L 423.563655 -219.337931 
L 413.859307 -208.723417 
L 404.154959 -214.053218 
L 394.450611 -203.824891 
L 384.746264 -206.483999 
L 375.041916 -166.323203 
L 365.337568 -144.500182 
L 355.63322 -124.270834 
L 345.928872 -114.622795 
L 336.224524 -91.941059 
L 326.520177 -74.682466 
L 316.815829 -71.658513 
L 307.111481 -74.489292 
L 297.407133 -76.668241 
L 287.702785 -72.99392 
L 277.998438 -74.119656 
L 268.29409 -71.682235 
L 258.589742 -78.441127 
L 248.885394 -65.464995 
L 239.181046 -74.694248 
L 229.476698 -87.020576 
L 219.772351 -105.569703 
L 210.068003 -113.294796 
L 200.363655 -104.153778 
L 190.659307 -90.243811 
L 180.954959 -91.498777 
L 171.250611 -106.792848 
L 161.546264 -106.973119 
L 151.841916 -143.17559 
L 142.137568 -129.006439 
L 132.43322 -115.410895 
L 122.728872 -109.352901 
L 113.024524 -103.804301 
L 103.320177 -115.020056 
L 103.320177 -168.3523 
L 103.320177 -168.3523 
L 113.024524 -148.725501 
L 122.728872 -153.858164 
L 132.43322 -147.80017 
L 142.137568 -173.788132 
L 151.841916 -185.648949 
L 161.546264 -144.089477 
L 171.250611 -148.589095 
L 180.954959 -142.997724 
L 190.659307 -152.197432 
L 200.363655 -165.715738 
L 210.068003 -177.382375 
L 219.772351 -168.758596 
L 229.476698 -161.571433 
L 239.181046 -150.587434 
L 248.885394 -137.925825 
L 258.589742 -158.829728 
L 268.29409 -150.329673 
L 277.998438 -147.892252 
L 287.702785 -142.775691 
L 297.407133 -147.701272 
L 307.111481 -148.722009 
L 316.815829 -153.758284 
L 326.520177 -149.590026 
L 336.224524 -165.510984 
L 345.928872 -189.203043 
L 355.63322 -210.102413 
L 365.337568 -244.270222 
L 375.041916 -275.417547 
L 384.746264 -318.659924 
L 394.450611 -319.975087 
L 404.154959 -317.521423 
L 413.859307 -301.098211 
L 423.563655 -304.801134 
L 433.268003 -293.284436 
L 442.972351 -272.609282 
L 452.676698 -251.153754 
L 462.381046 -223.021491 
L 472.085394 -218.690592 
L 481.789742 -203.518883 
L 491.49409 -202.774547 
L 501.198438 -209.370266 
L 510.902785 -221.932254 
L 520.607133 -235.750776 
L 530.311481 -236.70633 
L 540.015829 -233.828047 
L 549.720177 -241.045282 
L 559.424524 -246.751847 
L 569.128872 -240.219551 
L 578.83322 -227.322344 
L 588.537568 -237.579063 
L 598.241916 -242.493769 
L 607.946264 -257.33072 
L 617.650611 -259.937891 
L 627.354959 -275.705418 
L 637.059307 -290.155653 
L 646.763655 -308.708696 
L 656.468003 -311.570825 
L 666.172351 -321.865329 
L 675.876698 -331.808337 
L 685.581046 -326.678294 
L 695.285394 -324.465044 
L 704.989742 -308.252555 
L 714.69409 -312.062597 
z
" id="m4b9274423c" style="stroke:#ffb94e;stroke-opacity:0.2;"/>
    </defs>
    <g clip-path="url(#p33e813657a)">
     <use style="fill:#ffb94e;fill-opacity:0.2;stroke:#ffb94e;stroke-opacity:0.2;" x="0" xlink:href="#m4b9274423c" y="358.534375"/>
    </g>
   </g>
   <g id="line2d_25">
    <path clip-path="url(#p33e813657a)" d="M 714.69409 128.332501 
L 704.989742 128.8288 
L 695.285394 113.604385 
L 685.581046 122.356323 
L 675.876698 123.98973 
L 666.172351 122.316041 
L 656.468003 133.714097 
L 646.763655 138.616968 
L 637.059307 150.65736 
L 627.354959 168.660536 
L 617.650611 184.428062 
L 607.946264 195.859041 
L 598.241916 210.917668 
L 588.537568 215.494443 
L 578.83322 223.775499 
L 569.128872 219.911387 
L 559.424524 211.400526 
L 549.720177 214.301736 
L 540.015829 225.147537 
L 530.311481 218.230016 
L 520.607133 217.030039 
L 510.902785 218.305093 
L 501.198438 230.455479 
L 491.49409 228.956302 
L 481.789742 230.337081 
L 472.085394 214.887786 
L 462.381046 207.683581 
L 452.676698 188.963111 
L 442.972351 174.525433 
L 433.268003 153.850279 
L 423.563655 139.196444 
L 413.859307 149.810958 
L 404.154959 144.481157 
L 394.450611 154.709484 
L 384.746264 152.050376 
L 375.041916 192.211172 
L 365.337568 214.034193 
L 355.63322 234.263541 
L 345.928872 243.91158 
L 336.224524 266.593316 
L 326.520177 283.851909 
L 316.815829 286.875862 
L 307.111481 284.045083 
L 297.407133 281.866134 
L 287.702785 285.540455 
L 277.998438 284.414719 
L 268.29409 286.85214 
L 258.589742 280.093248 
L 248.885394 293.06938 
L 239.181046 283.840127 
L 229.476698 271.513799 
L 219.772351 252.964672 
L 210.068003 245.239579 
L 200.363655 254.380597 
L 190.659307 268.290564 
L 180.954959 267.035598 
L 171.250611 251.741527 
L 161.546264 251.561256 
L 151.841916 215.358785 
L 142.137568 229.527936 
L 132.43322 243.12348 
L 122.728872 249.181474 
L 113.024524 254.730074 
L 103.320177 243.514319 
" style="fill:none;stroke:#ffb94e;stroke-dasharray:4.8,2.4;stroke-dashoffset:0;stroke-width:0.4;"/>
   </g>
   <g id="line2d_26">
    <path clip-path="url(#p33e813657a)" d="M 714.69409 46.471778 
L 704.989742 50.28182 
L 695.285394 34.069331 
L 685.581046 31.856081 
L 675.876698 26.726038 
L 666.172351 36.669046 
L 656.468003 46.96355 
L 646.763655 49.825679 
L 637.059307 68.378722 
L 627.354959 82.828957 
L 617.650611 98.596484 
L 607.946264 101.203655 
L 598.241916 116.040606 
L 588.537568 120.955312 
L 578.83322 131.212031 
L 569.128872 118.314824 
L 559.424524 111.782528 
L 549.720177 117.489093 
L 540.015829 124.706328 
L 530.311481 121.828045 
L 520.607133 122.783599 
L 510.902785 136.602121 
L 501.198438 149.164109 
L 491.49409 155.759828 
L 481.789742 155.015492 
L 472.085394 139.843783 
L 462.381046 135.512884 
L 452.676698 107.380621 
L 442.972351 85.925093 
L 433.268003 65.249939 
L 423.563655 53.733241 
L 413.859307 57.436164 
L 404.154959 41.012952 
L 394.450611 38.559288 
L 384.746264 39.874451 
L 375.041916 83.116828 
L 365.337568 114.264153 
L 355.63322 148.431962 
L 345.928872 169.331332 
L 336.224524 193.023391 
L 326.520177 208.944349 
L 316.815829 204.776091 
L 307.111481 209.812366 
L 297.407133 210.833103 
L 287.702785 215.758684 
L 277.998438 210.642123 
L 268.29409 208.204702 
L 258.589742 199.704647 
L 248.885394 220.60855 
L 239.181046 207.946941 
L 229.476698 196.962942 
L 219.772351 189.775779 
L 210.068003 181.152 
L 200.363655 192.818637 
L 190.659307 206.336943 
L 180.954959 215.536651 
L 171.250611 209.94528 
L 161.546264 214.444898 
L 151.841916 172.885426 
L 142.137568 184.746243 
L 132.43322 210.734205 
L 122.728872 204.676211 
L 113.024524 209.808874 
L 103.320177 190.182075 
" style="fill:none;stroke:#ffb94e;stroke-dasharray:4.8,2.4;stroke-dashoffset:0;stroke-width:0.4;"/>
   </g>
   <g id="line2d_27">
    <path clip-path="url(#p33e813657a)" d="M 714.69409 87.402139 
L 704.989742 89.55531 
L 695.285394 73.836858 
L 685.581046 77.106202 
L 675.876698 75.357884 
L 666.172351 79.492544 
L 656.468003 90.338824 
L 646.763655 94.221324 
L 637.059307 109.518041 
L 627.354959 125.744747 
L 617.650611 141.512273 
L 607.946264 148.531348 
L 598.241916 163.479137 
L 588.537568 168.224878 
L 578.83322 177.493765 
L 569.128872 169.113105 
L 559.424524 161.591527 
L 549.720177 165.895415 
L 540.015829 174.926933 
L 530.311481 170.02903 
L 520.607133 169.906819 
L 510.902785 177.453607 
L 501.198438 189.809794 
L 491.49409 192.358065 
L 481.789742 192.676287 
L 472.085394 177.365785 
L 462.381046 171.598232 
L 452.676698 148.171866 
L 442.972351 130.225263 
L 433.268003 109.550109 
L 423.563655 96.464842 
L 413.859307 103.623561 
L 404.154959 92.747054 
L 394.450611 96.634386 
L 384.746264 95.962413 
L 375.041916 137.664 
L 365.337568 164.149173 
L 355.63322 191.347751 
L 345.928872 206.621456 
L 336.224524 229.808353 
L 326.520177 246.398129 
L 316.815829 245.825977 
L 307.111481 246.928724 
L 297.407133 246.349618 
L 287.702785 250.649569 
L 277.998438 247.528421 
L 268.29409 247.528421 
L 258.589742 239.898947 
L 248.885394 256.838965 
L 239.181046 245.893534 
L 229.476698 234.23837 
L 219.772351 221.370226 
L 210.068003 213.195789 
L 200.363655 223.599617 
L 190.659307 237.313754 
L 180.954959 241.286124 
L 171.250611 230.843404 
L 161.546264 233.003077 
L 151.841916 194.122105 
L 142.137568 207.13709 
L 132.43322 226.928842 
L 122.728872 226.928842 
L 113.024524 232.269474 
L 103.320177 216.848197 
" style="fill:none;stroke:#377eb8;stroke-linecap:round;stroke-width:1.6;"/>
   </g>
   <g id="line2d_28">
    <path clip-path="url(#p33e813657a)" d="M 94.974438 207.849878 
L 376.206438 207.849878 
" style="fill:none;stroke:#000000;stroke-dasharray:2.775,1.2;stroke-dashoffset:0;stroke-opacity:0.75;stroke-width:0.75;"/>
   </g>
   <g id="line2d_29">
    <path clip-path="url(#p33e813657a)" d="M 376.206438 125.612546 
L 724.398438 125.612546 
" style="fill:none;stroke:#000000;stroke-dasharray:2.775,1.2;stroke-dashoffset:0;stroke-opacity:0.75;stroke-width:0.75;"/>
   </g>
   <g id="patch_3">
    <path d="M 54.798438 316.193684 
L 54.798438 7.2 
" style="fill:none;stroke:#262626;stroke-linecap:square;stroke-linejoin:miter;stroke-width:0.8;"/>
   </g>
   <g id="patch_4">
    <path d="M 74.207133 333.36 
L 724.398438 333.36 
" style="fill:none;stroke:#262626;stroke-linecap:square;stroke-linejoin:miter;stroke-width:0.8;"/>
   </g>
   <g id="patch_5">
    <path d="M 512.982642 282.028348 
Q 424.968979 305.006654 376.332312 210.377273 
" style="fill:none;stroke:#000000;stroke-linecap:round;stroke-width:0.75;"/>
    <path d="M 376.391952 215.743505 
L 376.332312 210.377273 
L 380.661082 213.5493 
" style="fill:none;stroke:#000000;stroke-linecap:round;stroke-width:0.75;"/>
   </g>
   <g id="text_14">
    <!-- 1947-1984 backward -->
    <g style="fill:#262626;" transform="translate(481.789742 263.077766)scale(0.12 -0.12)">
     <defs>
      <path d="M 794 531 
L 1825 531 
L 1825 4091 
L 703 3866 
L 703 4441 
L 1819 4666 
L 2450 4666 
L 2450 531 
L 3481 531 
L 3481 0 
L 794 0 
L 794 531 
z
" id="DejaVuSans-31" transform="scale(0.015625)"/>
      <path d="M 703 97 
L 703 672 
Q 941 559 1184 500 
Q 1428 441 1663 441 
Q 2288 441 2617 861 
Q 2947 1281 2994 2138 
Q 2813 1869 2534 1725 
Q 2256 1581 1919 1581 
Q 1219 1581 811 2004 
Q 403 2428 403 3163 
Q 403 3881 828 4315 
Q 1253 4750 1959 4750 
Q 2769 4750 3195 4129 
Q 3622 3509 3622 2328 
Q 3622 1225 3098 567 
Q 2575 -91 1691 -91 
Q 1453 -91 1209 -44 
Q 966 3 703 97 
z
M 1959 2075 
Q 2384 2075 2632 2365 
Q 2881 2656 2881 3163 
Q 2881 3666 2632 3958 
Q 2384 4250 1959 4250 
Q 1534 4250 1286 3958 
Q 1038 3666 1038 3163 
Q 1038 2656 1286 2365 
Q 1534 2075 1959 2075 
z
" id="DejaVuSans-39" transform="scale(0.015625)"/>
      <path d="M 2419 4116 
L 825 1625 
L 2419 1625 
L 2419 4116 
z
M 2253 4666 
L 3047 4666 
L 3047 1625 
L 3713 1625 
L 3713 1100 
L 3047 1100 
L 3047 0 
L 2419 0 
L 2419 1100 
L 313 1100 
L 313 1709 
L 2253 4666 
z
" id="DejaVuSans-34" transform="scale(0.015625)"/>
      <path d="M 525 4666 
L 3525 4666 
L 3525 4397 
L 1831 0 
L 1172 0 
L 2766 4134 
L 525 4134 
L 525 4666 
z
" id="DejaVuSans-37" transform="scale(0.015625)"/>
      <path d="M 313 2009 
L 1997 2009 
L 1997 1497 
L 313 1497 
L 313 2009 
z
" id="DejaVuSans-2d" transform="scale(0.015625)"/>
      <path d="M 2034 2216 
Q 1584 2216 1326 1975 
Q 1069 1734 1069 1313 
Q 1069 891 1326 650 
Q 1584 409 2034 409 
Q 2484 409 2743 651 
Q 3003 894 3003 1313 
Q 3003 1734 2745 1975 
Q 2488 2216 2034 2216 
z
M 1403 2484 
Q 997 2584 770 2862 
Q 544 3141 544 3541 
Q 544 4100 942 4425 
Q 1341 4750 2034 4750 
Q 2731 4750 3128 4425 
Q 3525 4100 3525 3541 
Q 3525 3141 3298 2862 
Q 3072 2584 2669 2484 
Q 3125 2378 3379 2068 
Q 3634 1759 3634 1313 
Q 3634 634 3220 271 
Q 2806 -91 2034 -91 
Q 1263 -91 848 271 
Q 434 634 434 1313 
Q 434 1759 690 2068 
Q 947 2378 1403 2484 
z
M 1172 3481 
Q 1172 3119 1398 2916 
Q 1625 2713 2034 2713 
Q 2441 2713 2670 2916 
Q 2900 3119 2900 3481 
Q 2900 3844 2670 4047 
Q 2441 4250 2034 4250 
Q 1625 4250 1398 4047 
Q 1172 3844 1172 3481 
z
" id="DejaVuSans-38" transform="scale(0.015625)"/>
      <path d="M 3116 1747 
Q 3116 2381 2855 2742 
Q 2594 3103 2138 3103 
Q 1681 3103 1420 2742 
Q 1159 2381 1159 1747 
Q 1159 1113 1420 752 
Q 1681 391 2138 391 
Q 2594 391 2855 752 
Q 3116 1113 3116 1747 
z
M 1159 2969 
Q 1341 3281 1617 3432 
Q 1894 3584 2278 3584 
Q 2916 3584 3314 3078 
Q 3713 2572 3713 1747 
Q 3713 922 3314 415 
Q 2916 -91 2278 -91 
Q 1894 -91 1617 61 
Q 1341 213 1159 525 
L 1159 0 
L 581 0 
L 581 4863 
L 1159 4863 
L 1159 2969 
z
" id="DejaVuSans-62" transform="scale(0.015625)"/>
      <path d="M 3122 3366 
L 3122 2828 
Q 2878 2963 2633 3030 
Q 2388 3097 2138 3097 
Q 1578 3097 1268 2742 
Q 959 2388 959 1747 
Q 959 1106 1268 751 
Q 1578 397 2138 397 
Q 2388 397 2633 464 
Q 2878 531 3122 666 
L 3122 134 
Q 2881 22 2623 -34 
Q 2366 -91 2075 -91 
Q 1284 -91 818 406 
Q 353 903 353 1747 
Q 353 2603 823 3093 
Q 1294 3584 2113 3584 
Q 2378 3584 2631 3529 
Q 2884 3475 3122 3366 
z
" id="DejaVuSans-63" transform="scale(0.015625)"/>
      <path d="M 581 4863 
L 1159 4863 
L 1159 1991 
L 2875 3500 
L 3609 3500 
L 1753 1863 
L 3688 0 
L 2938 0 
L 1159 1709 
L 1159 0 
L 581 0 
L 581 4863 
z
" id="DejaVuSans-6b" transform="scale(0.015625)"/>
      <path d="M 269 3500 
L 844 3500 
L 1563 769 
L 2278 3500 
L 2956 3500 
L 3675 769 
L 4391 3500 
L 4966 3500 
L 4050 0 
L 3372 0 
L 2619 2869 
L 1863 0 
L 1184 0 
L 269 3500 
z
" id="DejaVuSans-77" transform="scale(0.015625)"/>
      <path d="M 2906 2969 
L 2906 4863 
L 3481 4863 
L 3481 0 
L 2906 0 
L 2906 525 
Q 2725 213 2448 61 
Q 2172 -91 1784 -91 
Q 1150 -91 751 415 
Q 353 922 353 1747 
Q 353 2572 751 3078 
Q 1150 3584 1784 3584 
Q 2172 3584 2448 3432 
Q 2725 3281 2906 2969 
z
M 947 1747 
Q 947 1113 1208 752 
Q 1469 391 1925 391 
Q 2381 391 2643 752 
Q 2906 1113 2906 1747 
Q 2906 2381 2643 2742 
Q 2381 3103 1925 3103 
Q 1469 3103 1208 2742 
Q 947 2381 947 1747 
z
" id="DejaVuSans-64" transform="scale(0.015625)"/>
     </defs>
     <use xlink:href="#DejaVuSans-31"/>
     <use x="63.623047" xlink:href="#DejaVuSans-39"/>
     <use x="127.246094" xlink:href="#DejaVuSans-34"/>
     <use x="190.869141" xlink:href="#DejaVuSans-37"/>
     <use x="254.492188" xlink:href="#DejaVuSans-2d"/>
     <use x="290.576172" xlink:href="#DejaVuSans-31"/>
     <use x="354.199219" xlink:href="#DejaVuSans-39"/>
     <use x="417.822266" xlink:href="#DejaVuSans-38"/>
     <use x="481.445312" xlink:href="#DejaVuSans-34"/>
     <use x="545.068359" xlink:href="#DejaVuSans-20"/>
     <use x="576.855469" xlink:href="#DejaVuSans-62"/>
     <use x="640.332031" xlink:href="#DejaVuSans-61"/>
     <use x="701.611328" xlink:href="#DejaVuSans-63"/>
     <use x="756.591797" xlink:href="#DejaVuSans-6b"/>
     <use x="814.501953" xlink:href="#DejaVuSans-77"/>
     <use x="896.289062" xlink:href="#DejaVuSans-61"/>
     <use x="957.568359" xlink:href="#DejaVuSans-72"/>
     <use x="996.931641" xlink:href="#DejaVuSans-64"/>
    </g>
    <!-- looking average: 25.8% -->
    <g style="fill:#262626;" transform="translate(481.789742 276.515141)scale(0.12 -0.12)">
     <defs>
      <path d="M 1228 531 
L 3431 531 
L 3431 0 
L 469 0 
L 469 531 
Q 828 903 1448 1529 
Q 2069 2156 2228 2338 
Q 2531 2678 2651 2914 
Q 2772 3150 2772 3378 
Q 2772 3750 2511 3984 
Q 2250 4219 1831 4219 
Q 1534 4219 1204 4116 
Q 875 4013 500 3803 
L 500 4441 
Q 881 4594 1212 4672 
Q 1544 4750 1819 4750 
Q 2544 4750 2975 4387 
Q 3406 4025 3406 3419 
Q 3406 3131 3298 2873 
Q 3191 2616 2906 2266 
Q 2828 2175 2409 1742 
Q 1991 1309 1228 531 
z
" id="DejaVuSans-32" transform="scale(0.015625)"/>
      <path d="M 691 4666 
L 3169 4666 
L 3169 4134 
L 1269 4134 
L 1269 2991 
Q 1406 3038 1543 3061 
Q 1681 3084 1819 3084 
Q 2600 3084 3056 2656 
Q 3513 2228 3513 1497 
Q 3513 744 3044 326 
Q 2575 -91 1722 -91 
Q 1428 -91 1123 -41 
Q 819 9 494 109 
L 494 744 
Q 775 591 1075 516 
Q 1375 441 1709 441 
Q 2250 441 2565 725 
Q 2881 1009 2881 1497 
Q 2881 1984 2565 2268 
Q 2250 2553 1709 2553 
Q 1456 2553 1204 2497 
Q 953 2441 691 2322 
L 691 4666 
z
" id="DejaVuSans-35" transform="scale(0.015625)"/>
      <path d="M 684 794 
L 1344 794 
L 1344 0 
L 684 0 
L 684 794 
z
" id="DejaVuSans-2e" transform="scale(0.015625)"/>
      <path d="M 4653 2053 
Q 4381 2053 4226 1822 
Q 4072 1591 4072 1178 
Q 4072 772 4226 539 
Q 4381 306 4653 306 
Q 4919 306 5073 539 
Q 5228 772 5228 1178 
Q 5228 1588 5073 1820 
Q 4919 2053 4653 2053 
z
M 4653 2450 
Q 5147 2450 5437 2106 
Q 5728 1763 5728 1178 
Q 5728 594 5436 251 
Q 5144 -91 4653 -91 
Q 4153 -91 3862 251 
Q 3572 594 3572 1178 
Q 3572 1766 3864 2108 
Q 4156 2450 4653 2450 
z
M 1428 4353 
Q 1159 4353 1004 4120 
Q 850 3888 850 3481 
Q 850 3069 1003 2837 
Q 1156 2606 1428 2606 
Q 1700 2606 1854 2837 
Q 2009 3069 2009 3481 
Q 2009 3884 1853 4118 
Q 1697 4353 1428 4353 
z
M 4250 4750 
L 4750 4750 
L 1831 -91 
L 1331 -91 
L 4250 4750 
z
M 1428 4750 
Q 1922 4750 2215 4408 
Q 2509 4066 2509 3481 
Q 2509 2891 2217 2550 
Q 1925 2209 1428 2209 
Q 931 2209 642 2551 
Q 353 2894 353 3481 
Q 353 4063 643 4406 
Q 934 4750 1428 4750 
z
" id="DejaVuSans-25" transform="scale(0.015625)"/>
     </defs>
     <use xlink:href="#DejaVuSans-6c"/>
     <use x="27.783203" xlink:href="#DejaVuSans-6f"/>
     <use x="88.964844" xlink:href="#DejaVuSans-6f"/>
     <use x="150.146484" xlink:href="#DejaVuSans-6b"/>
     <use x="208.056641" xlink:href="#DejaVuSans-69"/>
     <use x="235.839844" xlink:href="#DejaVuSans-6e"/>
     <use x="299.21875" xlink:href="#DejaVuSans-67"/>
     <use x="362.695312" xlink:href="#DejaVuSans-20"/>
     <use x="394.482422" xlink:href="#DejaVuSans-61"/>
     <use x="455.761719" xlink:href="#DejaVuSans-76"/>
     <use x="514.941406" xlink:href="#DejaVuSans-65"/>
     <use x="576.464844" xlink:href="#DejaVuSans-72"/>
     <use x="617.578125" xlink:href="#DejaVuSans-61"/>
     <use x="678.857422" xlink:href="#DejaVuSans-67"/>
     <use x="742.333984" xlink:href="#DejaVuSans-65"/>
     <use x="803.857422" xlink:href="#DejaVuSans-3a"/>
     <use x="837.548828" xlink:href="#DejaVuSans-20"/>
     <use x="869.335938" xlink:href="#DejaVuSans-32"/>
     <use x="932.958984" xlink:href="#DejaVuSans-35"/>
     <use x="996.582031" xlink:href="#DejaVuSans-2e"/>
     <use x="1028.369141" xlink:href="#DejaVuSans-38"/>
     <use x="1091.992188" xlink:href="#DejaVuSans-25"/>
    </g>
   </g>
   <g id="patch_6">
    <path d="M 197.703614 136.823809 
Q 274.054091 51.40925 372.759541 123.926495 
" style="fill:none;stroke:#000000;stroke-linecap:round;stroke-width:0.75;"/>
    <path d="M 370.312259 119.150428 
L 372.759541 123.926495 
L 367.470319 123.01868 
" style="fill:none;stroke:#000000;stroke-linecap:round;stroke-width:0.75;"/>
   </g>
   <g id="text_15">
    <!-- 1984-2020 backward -->
    <g style="fill:#262626;" transform="translate(113.024524 149.941065)scale(0.12 -0.12)">
     <defs>
      <path d="M 2034 4250 
Q 1547 4250 1301 3770 
Q 1056 3291 1056 2328 
Q 1056 1369 1301 889 
Q 1547 409 2034 409 
Q 2525 409 2770 889 
Q 3016 1369 3016 2328 
Q 3016 3291 2770 3770 
Q 2525 4250 2034 4250 
z
M 2034 4750 
Q 2819 4750 3233 4129 
Q 3647 3509 3647 2328 
Q 3647 1150 3233 529 
Q 2819 -91 2034 -91 
Q 1250 -91 836 529 
Q 422 1150 422 2328 
Q 422 3509 836 4129 
Q 1250 4750 2034 4750 
z
" id="DejaVuSans-30" transform="scale(0.015625)"/>
     </defs>
     <use xlink:href="#DejaVuSans-31"/>
     <use x="63.623047" xlink:href="#DejaVuSans-39"/>
     <use x="127.246094" xlink:href="#DejaVuSans-38"/>
     <use x="190.869141" xlink:href="#DejaVuSans-34"/>
     <use x="254.492188" xlink:href="#DejaVuSans-2d"/>
     <use x="290.576172" xlink:href="#DejaVuSans-32"/>
     <use x="354.199219" xlink:href="#DejaVuSans-30"/>
     <use x="417.822266" xlink:href="#DejaVuSans-32"/>
     <use x="481.445312" xlink:href="#DejaVuSans-30"/>
     <use x="545.068359" xlink:href="#DejaVuSans-20"/>
     <use x="576.855469" xlink:href="#DejaVuSans-62"/>
     <use x="640.332031" xlink:href="#DejaVuSans-61"/>
     <use x="701.611328" xlink:href="#DejaVuSans-63"/>
     <use x="756.591797" xlink:href="#DejaVuSans-6b"/>
     <use x="814.501953" xlink:href="#DejaVuSans-77"/>
     <use x="896.289062" xlink:href="#DejaVuSans-61"/>
     <use x="957.568359" xlink:href="#DejaVuSans-72"/>
     <use x="996.931641" xlink:href="#DejaVuSans-64"/>
    </g>
    <!-- looking average: 37.8% -->
    <g style="fill:#262626;" transform="translate(113.024524 163.37844)scale(0.12 -0.12)">
     <defs>
      <path d="M 2597 2516 
Q 3050 2419 3304 2112 
Q 3559 1806 3559 1356 
Q 3559 666 3084 287 
Q 2609 -91 1734 -91 
Q 1441 -91 1130 -33 
Q 819 25 488 141 
L 488 750 
Q 750 597 1062 519 
Q 1375 441 1716 441 
Q 2309 441 2620 675 
Q 2931 909 2931 1356 
Q 2931 1769 2642 2001 
Q 2353 2234 1838 2234 
L 1294 2234 
L 1294 2753 
L 1863 2753 
Q 2328 2753 2575 2939 
Q 2822 3125 2822 3475 
Q 2822 3834 2567 4026 
Q 2313 4219 1838 4219 
Q 1578 4219 1281 4162 
Q 984 4106 628 3988 
L 628 4550 
Q 988 4650 1302 4700 
Q 1616 4750 1894 4750 
Q 2613 4750 3031 4423 
Q 3450 4097 3450 3541 
Q 3450 3153 3228 2886 
Q 3006 2619 2597 2516 
z
" id="DejaVuSans-33" transform="scale(0.015625)"/>
     </defs>
     <use xlink:href="#DejaVuSans-6c"/>
     <use x="27.783203" xlink:href="#DejaVuSans-6f"/>
     <use x="88.964844" xlink:href="#DejaVuSans-6f"/>
     <use x="150.146484" xlink:href="#DejaVuSans-6b"/>
     <use x="208.056641" xlink:href="#DejaVuSans-69"/>
     <use x="235.839844" xlink:href="#DejaVuSans-6e"/>
     <use x="299.21875" xlink:href="#DejaVuSans-67"/>
     <use x="362.695312" xlink:href="#DejaVuSans-20"/>
     <use x="394.482422" xlink:href="#DejaVuSans-61"/>
     <use x="455.761719" xlink:href="#DejaVuSans-76"/>
     <use x="514.941406" xlink:href="#DejaVuSans-65"/>
     <use x="576.464844" xlink:href="#DejaVuSans-72"/>
     <use x="617.578125" xlink:href="#DejaVuSans-61"/>
     <use x="678.857422" xlink:href="#DejaVuSans-67"/>
     <use x="742.333984" xlink:href="#DejaVuSans-65"/>
     <use x="803.857422" xlink:href="#DejaVuSans-3a"/>
     <use x="837.548828" xlink:href="#DejaVuSans-20"/>
     <use x="869.335938" xlink:href="#DejaVuSans-33"/>
     <use x="932.958984" xlink:href="#DejaVuSans-37"/>
     <use x="996.582031" xlink:href="#DejaVuSans-2e"/>
     <use x="1028.369141" xlink:href="#DejaVuSans-38"/>
     <use x="1091.992188" xlink:href="#DejaVuSans-25"/>
    </g>
   </g>
   <g id="legend_1">
    <g id="line2d_30">
     <path d="M 66.498438 23.813594 
L 92.498438 23.813594 
" style="fill:none;stroke:#377eb8;stroke-linecap:round;"/>
    </g>
    <g id="line2d_31"/>
    <g id="text_16">
     <!-- Gender Inference: F/(M+F) -->
     <g style="fill:#262626;" transform="translate(102.898438 28.363594)scale(0.13 -0.13)">
      <defs>
       <path d="M 2638 1797 
L 2638 2334 
L 4578 2338 
L 4578 638 
Q 4131 281 3656 101 
Q 3181 -78 2681 -78 
Q 2006 -78 1454 211 
Q 903 500 622 1047 
Q 341 1594 341 2269 
Q 341 2938 620 3517 
Q 900 4097 1425 4378 
Q 1950 4659 2634 4659 
Q 3131 4659 3532 4498 
Q 3934 4338 4162 4050 
Q 4391 3763 4509 3300 
L 3963 3150 
Q 3859 3500 3706 3700 
Q 3553 3900 3268 4020 
Q 2984 4141 2638 4141 
Q 2222 4141 1919 4014 
Q 1616 3888 1430 3681 
Q 1244 3475 1141 3228 
Q 966 2803 966 2306 
Q 966 1694 1177 1281 
Q 1388 869 1791 669 
Q 2194 469 2647 469 
Q 3041 469 3416 620 
Q 3791 772 3984 944 
L 3984 1797 
L 2638 1797 
z
" id="ArialMT-47" transform="scale(0.015625)"/>
       <path d="M 2694 1069 
L 3275 997 
Q 3138 488 2766 206 
Q 2394 -75 1816 -75 
Q 1088 -75 661 373 
Q 234 822 234 1631 
Q 234 2469 665 2931 
Q 1097 3394 1784 3394 
Q 2450 3394 2872 2941 
Q 3294 2488 3294 1666 
Q 3294 1616 3291 1516 
L 816 1516 
Q 847 969 1125 678 
Q 1403 388 1819 388 
Q 2128 388 2347 550 
Q 2566 713 2694 1069 
z
M 847 1978 
L 2700 1978 
Q 2663 2397 2488 2606 
Q 2219 2931 1791 2931 
Q 1403 2931 1139 2672 
Q 875 2413 847 1978 
z
" id="ArialMT-65" transform="scale(0.015625)"/>
       <path d="M 422 0 
L 422 3319 
L 928 3319 
L 928 2847 
Q 1294 3394 1984 3394 
Q 2284 3394 2536 3286 
Q 2788 3178 2913 3003 
Q 3038 2828 3088 2588 
Q 3119 2431 3119 2041 
L 3119 0 
L 2556 0 
L 2556 2019 
Q 2556 2363 2490 2533 
Q 2425 2703 2258 2804 
Q 2091 2906 1866 2906 
Q 1506 2906 1245 2678 
Q 984 2450 984 1813 
L 984 0 
L 422 0 
z
" id="ArialMT-6e" transform="scale(0.015625)"/>
       <path d="M 2575 0 
L 2575 419 
Q 2259 -75 1647 -75 
Q 1250 -75 917 144 
Q 584 363 401 755 
Q 219 1147 219 1656 
Q 219 2153 384 2558 
Q 550 2963 881 3178 
Q 1213 3394 1622 3394 
Q 1922 3394 2156 3267 
Q 2391 3141 2538 2938 
L 2538 4581 
L 3097 4581 
L 3097 0 
L 2575 0 
z
M 797 1656 
Q 797 1019 1065 703 
Q 1334 388 1700 388 
Q 2069 388 2326 689 
Q 2584 991 2584 1609 
Q 2584 2291 2321 2609 
Q 2059 2928 1675 2928 
Q 1300 2928 1048 2622 
Q 797 2316 797 1656 
z
" id="ArialMT-64" transform="scale(0.015625)"/>
       <path d="M 416 0 
L 416 3319 
L 922 3319 
L 922 2816 
Q 1116 3169 1280 3281 
Q 1444 3394 1641 3394 
Q 1925 3394 2219 3213 
L 2025 2691 
Q 1819 2813 1613 2813 
Q 1428 2813 1281 2702 
Q 1134 2591 1072 2394 
Q 978 2094 978 1738 
L 978 0 
L 416 0 
z
" id="ArialMT-72" transform="scale(0.015625)"/>
       <path id="ArialMT-20" transform="scale(0.015625)"/>
       <path d="M 597 0 
L 597 4581 
L 1203 4581 
L 1203 0 
L 597 0 
z
" id="ArialMT-49" transform="scale(0.015625)"/>
       <path d="M 556 0 
L 556 2881 
L 59 2881 
L 59 3319 
L 556 3319 
L 556 3672 
Q 556 4006 616 4169 
Q 697 4388 901 4523 
Q 1106 4659 1475 4659 
Q 1713 4659 2000 4603 
L 1916 4113 
Q 1741 4144 1584 4144 
Q 1328 4144 1222 4034 
Q 1116 3925 1116 3625 
L 1116 3319 
L 1763 3319 
L 1763 2881 
L 1116 2881 
L 1116 0 
L 556 0 
z
" id="ArialMT-66" transform="scale(0.015625)"/>
       <path d="M 2588 1216 
L 3141 1144 
Q 3050 572 2676 248 
Q 2303 -75 1759 -75 
Q 1078 -75 664 370 
Q 250 816 250 1647 
Q 250 2184 428 2587 
Q 606 2991 970 3192 
Q 1334 3394 1763 3394 
Q 2303 3394 2647 3120 
Q 2991 2847 3088 2344 
L 2541 2259 
Q 2463 2594 2264 2762 
Q 2066 2931 1784 2931 
Q 1359 2931 1093 2626 
Q 828 2322 828 1663 
Q 828 994 1084 691 
Q 1341 388 1753 388 
Q 2084 388 2306 591 
Q 2528 794 2588 1216 
z
" id="ArialMT-63" transform="scale(0.015625)"/>
       <path d="M 578 2678 
L 578 3319 
L 1219 3319 
L 1219 2678 
L 578 2678 
z
M 578 0 
L 578 641 
L 1219 641 
L 1219 0 
L 578 0 
z
" id="ArialMT-3a" transform="scale(0.015625)"/>
       <path d="M 525 0 
L 525 4581 
L 3616 4581 
L 3616 4041 
L 1131 4041 
L 1131 2622 
L 3281 2622 
L 3281 2081 
L 1131 2081 
L 1131 0 
L 525 0 
z
" id="ArialMT-46" transform="scale(0.015625)"/>
       <path d="M 0 -78 
L 1328 4659 
L 1778 4659 
L 453 -78 
L 0 -78 
z
" id="ArialMT-2f" transform="scale(0.015625)"/>
       <path d="M 1497 -1347 
Q 1031 -759 709 28 
Q 388 816 388 1659 
Q 388 2403 628 3084 
Q 909 3875 1497 4659 
L 1900 4659 
Q 1522 4009 1400 3731 
Q 1209 3300 1100 2831 
Q 966 2247 966 1656 
Q 966 153 1900 -1347 
L 1497 -1347 
z
" id="ArialMT-28" transform="scale(0.015625)"/>
       <path d="M 475 0 
L 475 4581 
L 1388 4581 
L 2472 1338 
Q 2622 884 2691 659 
Q 2769 909 2934 1394 
L 4031 4581 
L 4847 4581 
L 4847 0 
L 4263 0 
L 4263 3834 
L 2931 0 
L 2384 0 
L 1059 3900 
L 1059 0 
L 475 0 
z
" id="ArialMT-4d" transform="scale(0.015625)"/>
       <path d="M 1603 741 
L 1603 1997 
L 356 1997 
L 356 2522 
L 1603 2522 
L 1603 3769 
L 2134 3769 
L 2134 2522 
L 3381 2522 
L 3381 1997 
L 2134 1997 
L 2134 741 
L 1603 741 
z
" id="ArialMT-2b" transform="scale(0.015625)"/>
       <path d="M 791 -1347 
L 388 -1347 
Q 1322 153 1322 1656 
Q 1322 2244 1188 2822 
Q 1081 3291 891 3722 
Q 769 4003 388 4659 
L 791 4659 
Q 1378 3875 1659 3084 
Q 1900 2403 1900 1659 
Q 1900 816 1576 28 
Q 1253 -759 791 -1347 
z
" id="ArialMT-29" transform="scale(0.015625)"/>
      </defs>
      <use xlink:href="#ArialMT-47"/>
      <use x="77.783203" xlink:href="#ArialMT-65"/>
      <use x="133.398438" xlink:href="#ArialMT-6e"/>
      <use x="189.013672" xlink:href="#ArialMT-64"/>
      <use x="244.628906" xlink:href="#ArialMT-65"/>
      <use x="300.244141" xlink:href="#ArialMT-72"/>
      <use x="333.544922" xlink:href="#ArialMT-20"/>
      <use x="361.328125" xlink:href="#ArialMT-49"/>
      <use x="389.111328" xlink:href="#ArialMT-6e"/>
      <use x="444.726562" xlink:href="#ArialMT-66"/>
      <use x="472.509766" xlink:href="#ArialMT-65"/>
      <use x="528.125" xlink:href="#ArialMT-72"/>
      <use x="561.425781" xlink:href="#ArialMT-65"/>
      <use x="617.041016" xlink:href="#ArialMT-6e"/>
      <use x="672.65625" xlink:href="#ArialMT-63"/>
      <use x="722.65625" xlink:href="#ArialMT-65"/>
      <use x="778.271484" xlink:href="#ArialMT-3a"/>
      <use x="806.054688" xlink:href="#ArialMT-20"/>
      <use x="833.837891" xlink:href="#ArialMT-46"/>
      <use x="894.921875" xlink:href="#ArialMT-2f"/>
      <use x="922.705078" xlink:href="#ArialMT-28"/>
      <use x="956.005859" xlink:href="#ArialMT-4d"/>
      <use x="1039.306641" xlink:href="#ArialMT-2b"/>
      <use x="1097.705078" xlink:href="#ArialMT-46"/>
      <use x="1158.789062" xlink:href="#ArialMT-29"/>
     </g>
    </g>
    <g id="patch_7">
     <path d="M 66.498438 46.904844 
L 92.498438 46.904844 
L 92.498438 37.804844 
L 66.498438 37.804844 
z
" style="fill:#ffb94e;fill-opacity:0.3;stroke:#000000;stroke-linejoin:miter;stroke-width:0.5;"/>
    </g>
    <g id="text_17">
     <!-- Confidence Intervals -->
     <g style="fill:#262626;" transform="translate(102.898438 46.904844)scale(0.13 -0.13)">
      <defs>
       <path d="M 3763 1606 
L 4369 1453 
Q 4178 706 3683 314 
Q 3188 -78 2472 -78 
Q 1731 -78 1267 223 
Q 803 525 561 1097 
Q 319 1669 319 2325 
Q 319 3041 592 3573 
Q 866 4106 1370 4382 
Q 1875 4659 2481 4659 
Q 3169 4659 3637 4309 
Q 4106 3959 4291 3325 
L 3694 3184 
Q 3534 3684 3231 3912 
Q 2928 4141 2469 4141 
Q 1941 4141 1586 3887 
Q 1231 3634 1087 3207 
Q 944 2781 944 2328 
Q 944 1744 1114 1308 
Q 1284 872 1643 656 
Q 2003 441 2422 441 
Q 2931 441 3284 734 
Q 3638 1028 3763 1606 
z
" id="ArialMT-43" transform="scale(0.015625)"/>
       <path d="M 213 1659 
Q 213 2581 725 3025 
Q 1153 3394 1769 3394 
Q 2453 3394 2887 2945 
Q 3322 2497 3322 1706 
Q 3322 1066 3130 698 
Q 2938 331 2570 128 
Q 2203 -75 1769 -75 
Q 1072 -75 642 372 
Q 213 819 213 1659 
z
M 791 1659 
Q 791 1022 1069 705 
Q 1347 388 1769 388 
Q 2188 388 2466 706 
Q 2744 1025 2744 1678 
Q 2744 2294 2464 2611 
Q 2184 2928 1769 2928 
Q 1347 2928 1069 2612 
Q 791 2297 791 1659 
z
" id="ArialMT-6f" transform="scale(0.015625)"/>
       <path d="M 425 3934 
L 425 4581 
L 988 4581 
L 988 3934 
L 425 3934 
z
M 425 0 
L 425 3319 
L 988 3319 
L 988 0 
L 425 0 
z
" id="ArialMT-69" transform="scale(0.015625)"/>
       <path d="M 1650 503 
L 1731 6 
Q 1494 -44 1306 -44 
Q 1000 -44 831 53 
Q 663 150 594 308 
Q 525 466 525 972 
L 525 2881 
L 113 2881 
L 113 3319 
L 525 3319 
L 525 4141 
L 1084 4478 
L 1084 3319 
L 1650 3319 
L 1650 2881 
L 1084 2881 
L 1084 941 
Q 1084 700 1114 631 
Q 1144 563 1211 522 
Q 1278 481 1403 481 
Q 1497 481 1650 503 
z
" id="ArialMT-74" transform="scale(0.015625)"/>
       <path d="M 1344 0 
L 81 3319 
L 675 3319 
L 1388 1331 
Q 1503 1009 1600 663 
Q 1675 925 1809 1294 
L 2547 3319 
L 3125 3319 
L 1869 0 
L 1344 0 
z
" id="ArialMT-76" transform="scale(0.015625)"/>
       <path d="M 2588 409 
Q 2275 144 1986 34 
Q 1697 -75 1366 -75 
Q 819 -75 525 192 
Q 231 459 231 875 
Q 231 1119 342 1320 
Q 453 1522 633 1644 
Q 813 1766 1038 1828 
Q 1203 1872 1538 1913 
Q 2219 1994 2541 2106 
Q 2544 2222 2544 2253 
Q 2544 2597 2384 2738 
Q 2169 2928 1744 2928 
Q 1347 2928 1158 2789 
Q 969 2650 878 2297 
L 328 2372 
Q 403 2725 575 2942 
Q 747 3159 1072 3276 
Q 1397 3394 1825 3394 
Q 2250 3394 2515 3294 
Q 2781 3194 2906 3042 
Q 3031 2891 3081 2659 
Q 3109 2516 3109 2141 
L 3109 1391 
Q 3109 606 3145 398 
Q 3181 191 3288 0 
L 2700 0 
Q 2613 175 2588 409 
z
M 2541 1666 
Q 2234 1541 1622 1453 
Q 1275 1403 1131 1340 
Q 988 1278 909 1158 
Q 831 1038 831 891 
Q 831 666 1001 516 
Q 1172 366 1500 366 
Q 1825 366 2078 508 
Q 2331 650 2450 897 
Q 2541 1088 2541 1459 
L 2541 1666 
z
" id="ArialMT-61" transform="scale(0.015625)"/>
       <path d="M 409 0 
L 409 4581 
L 972 4581 
L 972 0 
L 409 0 
z
" id="ArialMT-6c" transform="scale(0.015625)"/>
       <path d="M 197 991 
L 753 1078 
Q 800 744 1014 566 
Q 1228 388 1613 388 
Q 2000 388 2187 545 
Q 2375 703 2375 916 
Q 2375 1106 2209 1216 
Q 2094 1291 1634 1406 
Q 1016 1563 777 1677 
Q 538 1791 414 1992 
Q 291 2194 291 2438 
Q 291 2659 392 2848 
Q 494 3038 669 3163 
Q 800 3259 1026 3326 
Q 1253 3394 1513 3394 
Q 1903 3394 2198 3281 
Q 2494 3169 2634 2976 
Q 2775 2784 2828 2463 
L 2278 2388 
Q 2241 2644 2061 2787 
Q 1881 2931 1553 2931 
Q 1166 2931 1000 2803 
Q 834 2675 834 2503 
Q 834 2394 903 2306 
Q 972 2216 1119 2156 
Q 1203 2125 1616 2013 
Q 2213 1853 2448 1751 
Q 2684 1650 2818 1456 
Q 2953 1263 2953 975 
Q 2953 694 2789 445 
Q 2625 197 2315 61 
Q 2006 -75 1616 -75 
Q 969 -75 630 194 
Q 291 463 197 991 
z
" id="ArialMT-73" transform="scale(0.015625)"/>
      </defs>
      <use xlink:href="#ArialMT-43"/>
      <use x="72.216797" xlink:href="#ArialMT-6f"/>
      <use x="127.832031" xlink:href="#ArialMT-6e"/>
      <use x="183.447266" xlink:href="#ArialMT-66"/>
      <use x="211.230469" xlink:href="#ArialMT-69"/>
      <use x="233.447266" xlink:href="#ArialMT-64"/>
      <use x="289.0625" xlink:href="#ArialMT-65"/>
      <use x="344.677734" xlink:href="#ArialMT-6e"/>
      <use x="400.292969" xlink:href="#ArialMT-63"/>
      <use x="450.292969" xlink:href="#ArialMT-65"/>
      <use x="505.908203" xlink:href="#ArialMT-20"/>
      <use x="533.691406" xlink:href="#ArialMT-49"/>
      <use x="561.474609" xlink:href="#ArialMT-6e"/>
      <use x="617.089844" xlink:href="#ArialMT-74"/>
      <use x="644.873047" xlink:href="#ArialMT-65"/>
      <use x="700.488281" xlink:href="#ArialMT-72"/>
      <use x="733.789062" xlink:href="#ArialMT-76"/>
      <use x="783.789062" xlink:href="#ArialMT-61"/>
      <use x="839.404297" xlink:href="#ArialMT-6c"/>
      <use x="861.621094" xlink:href="#ArialMT-73"/>
     </g>
    </g>
   </g>
  </g>
 </g>
 <defs>
  <clipPath id="p33e813657a">
   <rect height="326.16" width="669.6" x="54.798438" y="7.2"/>
  </clipPath>
 </defs>
</svg>
