<?xml version="1.0" encoding="utf-8" standalone="no"?>
<!DOCTYPE svg PUBLIC "-//W3C//DTD SVG 1.1//EN"
  "http://www.w3.org/Graphics/SVG/1.1/DTD/svg11.dtd">
<!-- Created with matplotlib (https://matplotlib.org/) -->
<svg height="425.302273pt" version="1.1" viewBox="0 0 711.947472 425.302273" width="711.947472pt" xmlns="http://www.w3.org/2000/svg" xmlns:xlink="http://www.w3.org/1999/xlink">
 <defs>
  <style type="text/css">
*{stroke-linecap:butt;stroke-linejoin:round;}
  </style>
 </defs>
 <g id="figure_1">
  <g id="patch_1">
   <path d="M -0 425.302273 
L 711.947472 425.302273 
L 711.947472 0 
L -0 0 
z
" style="fill:#ffffff;"/>
  </g>
  <g id="axes_1">
   <g id="patch_2">
    <path d="M 43.4925 384.842586 
L 180.718346 384.842586 
L 180.718346 38.365786 
L 43.4925 38.365786 
z
" style="fill:#ffffff;"/>
   </g>
   <g id="matplotlib.axis_1">
    <g id="xtick_1">
     <g id="line2d_1">
      <defs>
       <path d="M 0 0 
L 0 3.5 
" id="m8508fb28aa" style="stroke:#262626;stroke-width:0.8;"/>
      </defs>
      <g>
       <use style="fill:#262626;stroke:#262626;stroke-width:0.8;" x="43.4925" xlink:href="#m8508fb28aa" y="384.842586"/>
      </g>
     </g>
     <g id="text_1">
      <!-- 0% -->
      <defs>
       <path d="M 31.78125 66.40625 
Q 24.171875 66.40625 20.328125 58.90625 
Q 16.5 51.421875 16.5 36.375 
Q 16.5 21.390625 20.328125 13.890625 
Q 24.171875 6.390625 31.78125 6.390625 
Q 39.453125 6.390625 43.28125 13.890625 
Q 47.125 21.390625 47.125 36.375 
Q 47.125 51.421875 43.28125 58.90625 
Q 39.453125 66.40625 31.78125 66.40625 
z
M 31.78125 74.21875 
Q 44.046875 74.21875 50.515625 64.515625 
Q 56.984375 54.828125 56.984375 36.375 
Q 56.984375 17.96875 50.515625 8.265625 
Q 44.046875 -1.421875 31.78125 -1.421875 
Q 19.53125 -1.421875 13.0625 8.265625 
Q 6.59375 17.96875 6.59375 36.375 
Q 6.59375 54.828125 13.0625 64.515625 
Q 19.53125 74.21875 31.78125 74.21875 
z
" id="DejaVuSans-48"/>
       <path d="M 72.703125 32.078125 
Q 68.453125 32.078125 66.03125 28.46875 
Q 63.625 24.859375 63.625 18.40625 
Q 63.625 12.0625 66.03125 8.421875 
Q 68.453125 4.78125 72.703125 4.78125 
Q 76.859375 4.78125 79.265625 8.421875 
Q 81.6875 12.0625 81.6875 18.40625 
Q 81.6875 24.8125 79.265625 28.4375 
Q 76.859375 32.078125 72.703125 32.078125 
z
M 72.703125 38.28125 
Q 80.421875 38.28125 84.953125 32.90625 
Q 89.5 27.546875 89.5 18.40625 
Q 89.5 9.28125 84.9375 3.921875 
Q 80.375 -1.421875 72.703125 -1.421875 
Q 64.890625 -1.421875 60.34375 3.921875 
Q 55.8125 9.28125 55.8125 18.40625 
Q 55.8125 27.59375 60.375 32.9375 
Q 64.9375 38.28125 72.703125 38.28125 
z
M 22.3125 68.015625 
Q 18.109375 68.015625 15.6875 64.375 
Q 13.28125 60.75 13.28125 54.390625 
Q 13.28125 47.953125 15.671875 44.328125 
Q 18.0625 40.71875 22.3125 40.71875 
Q 26.5625 40.71875 28.96875 44.328125 
Q 31.390625 47.953125 31.390625 54.390625 
Q 31.390625 60.6875 28.953125 64.34375 
Q 26.515625 68.015625 22.3125 68.015625 
z
M 66.40625 74.21875 
L 74.21875 74.21875 
L 28.609375 -1.421875 
L 20.796875 -1.421875 
z
M 22.3125 74.21875 
Q 30.03125 74.21875 34.609375 68.875 
Q 39.203125 63.53125 39.203125 54.390625 
Q 39.203125 45.171875 34.640625 39.84375 
Q 30.078125 34.515625 22.3125 34.515625 
Q 14.546875 34.515625 10.03125 39.859375 
Q 5.515625 45.21875 5.515625 54.390625 
Q 5.515625 63.484375 10.046875 68.84375 
Q 14.59375 74.21875 22.3125 74.21875 
z
" id="DejaVuSans-37"/>
      </defs>
      <g style="fill:#262626;" transform="translate(35.560469 399.441023)scale(0.1 -0.1)">
       <use xlink:href="#DejaVuSans-48"/>
       <use x="63.623047" xlink:href="#DejaVuSans-37"/>
      </g>
     </g>
    </g>
    <g id="xtick_2">
     <g id="line2d_2">
      <g>
       <use style="fill:#262626;stroke:#262626;stroke-width:0.8;" x="97.947201" xlink:href="#m8508fb28aa" y="384.842586"/>
      </g>
     </g>
     <g id="text_2">
      <!-- 10% -->
      <defs>
       <path d="M 12.40625 8.296875 
L 28.515625 8.296875 
L 28.515625 63.921875 
L 10.984375 60.40625 
L 10.984375 69.390625 
L 28.421875 72.90625 
L 38.28125 72.90625 
L 38.28125 8.296875 
L 54.390625 8.296875 
L 54.390625 0 
L 12.40625 0 
z
" id="DejaVuSans-49"/>
      </defs>
      <g style="fill:#262626;" transform="translate(86.83392 399.441023)scale(0.1 -0.1)">
       <use xlink:href="#DejaVuSans-49"/>
       <use x="63.623047" xlink:href="#DejaVuSans-48"/>
       <use x="127.246094" xlink:href="#DejaVuSans-37"/>
      </g>
     </g>
    </g>
    <g id="xtick_3">
     <g id="line2d_3">
      <g>
       <use style="fill:#262626;stroke:#262626;stroke-width:0.8;" x="152.401902" xlink:href="#m8508fb28aa" y="384.842586"/>
      </g>
     </g>
     <g id="text_3">
      <!-- 20% -->
      <defs>
       <path d="M 19.1875 8.296875 
L 53.609375 8.296875 
L 53.609375 0 
L 7.328125 0 
L 7.328125 8.296875 
Q 12.9375 14.109375 22.625 23.890625 
Q 32.328125 33.6875 34.8125 36.53125 
Q 39.546875 41.84375 41.421875 45.53125 
Q 43.3125 49.21875 43.3125 52.78125 
Q 43.3125 58.59375 39.234375 62.25 
Q 35.15625 65.921875 28.609375 65.921875 
Q 23.96875 65.921875 18.8125 64.3125 
Q 13.671875 62.703125 7.8125 59.421875 
L 7.8125 69.390625 
Q 13.765625 71.78125 18.9375 73 
Q 24.125 74.21875 28.421875 74.21875 
Q 39.75 74.21875 46.484375 68.546875 
Q 53.21875 62.890625 53.21875 53.421875 
Q 53.21875 48.921875 51.53125 44.890625 
Q 49.859375 40.875 45.40625 35.40625 
Q 44.1875 33.984375 37.640625 27.21875 
Q 31.109375 20.453125 19.1875 8.296875 
z
" id="DejaVuSans-50"/>
      </defs>
      <g style="fill:#262626;" transform="translate(141.288621 399.441023)scale(0.1 -0.1)">
       <use xlink:href="#DejaVuSans-50"/>
       <use x="63.623047" xlink:href="#DejaVuSans-48"/>
       <use x="127.246094" xlink:href="#DejaVuSans-37"/>
      </g>
     </g>
    </g>
    <g id="text_4">
     <!-- Focus on: Men -->
     <defs>
      <path d="M 9.8125 72.90625 
L 51.703125 72.90625 
L 51.703125 64.59375 
L 19.671875 64.59375 
L 19.671875 43.109375 
L 48.578125 43.109375 
L 48.578125 34.8125 
L 19.671875 34.8125 
L 19.671875 0 
L 9.8125 0 
z
" id="DejaVuSans-70"/>
      <path d="M 30.609375 48.390625 
Q 23.390625 48.390625 19.1875 42.75 
Q 14.984375 37.109375 14.984375 27.296875 
Q 14.984375 17.484375 19.15625 11.84375 
Q 23.34375 6.203125 30.609375 6.203125 
Q 37.796875 6.203125 41.984375 11.859375 
Q 46.1875 17.53125 46.1875 27.296875 
Q 46.1875 37.015625 41.984375 42.703125 
Q 37.796875 48.390625 30.609375 48.390625 
z
M 30.609375 56 
Q 42.328125 56 49.015625 48.375 
Q 55.71875 40.765625 55.71875 27.296875 
Q 55.71875 13.875 49.015625 6.21875 
Q 42.328125 -1.421875 30.609375 -1.421875 
Q 18.84375 -1.421875 12.171875 6.21875 
Q 5.515625 13.875 5.515625 27.296875 
Q 5.515625 40.765625 12.171875 48.375 
Q 18.84375 56 30.609375 56 
z
" id="DejaVuSans-111"/>
      <path d="M 48.78125 52.59375 
L 48.78125 44.1875 
Q 44.96875 46.296875 41.140625 47.34375 
Q 37.3125 48.390625 33.40625 48.390625 
Q 24.65625 48.390625 19.8125 42.84375 
Q 14.984375 37.3125 14.984375 27.296875 
Q 14.984375 17.28125 19.8125 11.734375 
Q 24.65625 6.203125 33.40625 6.203125 
Q 37.3125 6.203125 41.140625 7.25 
Q 44.96875 8.296875 48.78125 10.40625 
L 48.78125 2.09375 
Q 45.015625 0.34375 40.984375 -0.53125 
Q 36.96875 -1.421875 32.421875 -1.421875 
Q 20.0625 -1.421875 12.78125 6.34375 
Q 5.515625 14.109375 5.515625 27.296875 
Q 5.515625 40.671875 12.859375 48.328125 
Q 20.21875 56 33.015625 56 
Q 37.15625 56 41.109375 55.140625 
Q 45.0625 54.296875 48.78125 52.59375 
z
" id="DejaVuSans-99"/>
      <path d="M 8.5 21.578125 
L 8.5 54.6875 
L 17.484375 54.6875 
L 17.484375 21.921875 
Q 17.484375 14.15625 20.5 10.265625 
Q 23.53125 6.390625 29.59375 6.390625 
Q 36.859375 6.390625 41.078125 11.03125 
Q 45.3125 15.671875 45.3125 23.6875 
L 45.3125 54.6875 
L 54.296875 54.6875 
L 54.296875 0 
L 45.3125 0 
L 45.3125 8.40625 
Q 42.046875 3.421875 37.71875 1 
Q 33.40625 -1.421875 27.6875 -1.421875 
Q 18.265625 -1.421875 13.375 4.4375 
Q 8.5 10.296875 8.5 21.578125 
z
M 31.109375 56 
z
" id="DejaVuSans-117"/>
      <path d="M 44.28125 53.078125 
L 44.28125 44.578125 
Q 40.484375 46.53125 36.375 47.5 
Q 32.28125 48.484375 27.875 48.484375 
Q 21.1875 48.484375 17.84375 46.4375 
Q 14.5 44.390625 14.5 40.28125 
Q 14.5 37.15625 16.890625 35.375 
Q 19.28125 33.59375 26.515625 31.984375 
L 29.59375 31.296875 
Q 39.15625 29.25 43.1875 25.515625 
Q 47.21875 21.78125 47.21875 15.09375 
Q 47.21875 7.46875 41.1875 3.015625 
Q 35.15625 -1.421875 24.609375 -1.421875 
Q 20.21875 -1.421875 15.453125 -0.5625 
Q 10.6875 0.296875 5.421875 2 
L 5.421875 11.28125 
Q 10.40625 8.6875 15.234375 7.390625 
Q 20.0625 6.109375 24.8125 6.109375 
Q 31.15625 6.109375 34.5625 8.28125 
Q 37.984375 10.453125 37.984375 14.40625 
Q 37.984375 18.0625 35.515625 20.015625 
Q 33.0625 21.96875 24.703125 23.78125 
L 21.578125 24.515625 
Q 13.234375 26.265625 9.515625 29.90625 
Q 5.8125 33.546875 5.8125 39.890625 
Q 5.8125 47.609375 11.28125 51.796875 
Q 16.75 56 26.8125 56 
Q 31.78125 56 36.171875 55.265625 
Q 40.578125 54.546875 44.28125 53.078125 
z
" id="DejaVuSans-115"/>
      <path id="DejaVuSans-32"/>
      <path d="M 54.890625 33.015625 
L 54.890625 0 
L 45.90625 0 
L 45.90625 32.71875 
Q 45.90625 40.484375 42.875 44.328125 
Q 39.84375 48.1875 33.796875 48.1875 
Q 26.515625 48.1875 22.3125 43.546875 
Q 18.109375 38.921875 18.109375 30.90625 
L 18.109375 0 
L 9.078125 0 
L 9.078125 54.6875 
L 18.109375 54.6875 
L 18.109375 46.1875 
Q 21.34375 51.125 25.703125 53.5625 
Q 30.078125 56 35.796875 56 
Q 45.21875 56 50.046875 50.171875 
Q 54.890625 44.34375 54.890625 33.015625 
z
" id="DejaVuSans-110"/>
      <path d="M 11.71875 12.40625 
L 22.015625 12.40625 
L 22.015625 0 
L 11.71875 0 
z
M 11.71875 51.703125 
L 22.015625 51.703125 
L 22.015625 39.3125 
L 11.71875 39.3125 
z
" id="DejaVuSans-58"/>
      <path d="M 9.8125 72.90625 
L 24.515625 72.90625 
L 43.109375 23.296875 
L 61.8125 72.90625 
L 76.515625 72.90625 
L 76.515625 0 
L 66.890625 0 
L 66.890625 64.015625 
L 48.09375 14.015625 
L 38.1875 14.015625 
L 19.390625 64.015625 
L 19.390625 0 
L 9.8125 0 
z
" id="DejaVuSans-77"/>
      <path d="M 56.203125 29.59375 
L 56.203125 25.203125 
L 14.890625 25.203125 
Q 15.484375 15.921875 20.484375 11.0625 
Q 25.484375 6.203125 34.421875 6.203125 
Q 39.59375 6.203125 44.453125 7.46875 
Q 49.3125 8.734375 54.109375 11.28125 
L 54.109375 2.78125 
Q 49.265625 0.734375 44.1875 -0.34375 
Q 39.109375 -1.421875 33.890625 -1.421875 
Q 20.796875 -1.421875 13.15625 6.1875 
Q 5.515625 13.8125 5.515625 26.8125 
Q 5.515625 40.234375 12.765625 48.109375 
Q 20.015625 56 32.328125 56 
Q 43.359375 56 49.78125 48.890625 
Q 56.203125 41.796875 56.203125 29.59375 
z
M 47.21875 32.234375 
Q 47.125 39.59375 43.09375 43.984375 
Q 39.0625 48.390625 32.421875 48.390625 
Q 24.90625 48.390625 20.390625 44.140625 
Q 15.875 39.890625 15.1875 32.171875 
z
" id="DejaVuSans-101"/>
     </defs>
     <g style="fill:#262626;" transform="translate(65.168314 415.39868)scale(0.13 -0.13)">
      <use xlink:href="#DejaVuSans-70"/>
      <use x="57.472656" xlink:href="#DejaVuSans-111"/>
      <use x="118.654297" xlink:href="#DejaVuSans-99"/>
      <use x="173.634766" xlink:href="#DejaVuSans-117"/>
      <use x="237.013672" xlink:href="#DejaVuSans-115"/>
      <use x="289.113281" xlink:href="#DejaVuSans-32"/>
      <use x="320.900391" xlink:href="#DejaVuSans-111"/>
      <use x="382.082031" xlink:href="#DejaVuSans-110"/>
      <use x="445.460938" xlink:href="#DejaVuSans-58"/>
      <use x="479.152344" xlink:href="#DejaVuSans-32"/>
      <use x="510.939453" xlink:href="#DejaVuSans-77"/>
      <use x="597.21875" xlink:href="#DejaVuSans-101"/>
      <use x="658.742188" xlink:href="#DejaVuSans-110"/>
     </g>
    </g>
   </g>
   <g id="matplotlib.axis_2">
    <g id="ytick_1">
     <g id="line2d_4">
      <defs>
       <path d="M 0 0 
L -3.5 0 
" id="mc6a06e784e" style="stroke:#262626;stroke-width:0.8;"/>
      </defs>
      <g>
       <use style="fill:#262626;stroke:#262626;stroke-width:0.8;" x="43.4925" xlink:href="#mc6a06e784e" y="369.093641"/>
      </g>
     </g>
     <g id="text_5">
      <!-- 7a -->
      <defs>
       <path d="M 8.203125 72.90625 
L 55.078125 72.90625 
L 55.078125 68.703125 
L 28.609375 0 
L 18.3125 0 
L 43.21875 64.59375 
L 8.203125 64.59375 
z
" id="DejaVuSans-55"/>
       <path d="M 34.28125 27.484375 
Q 23.390625 27.484375 19.1875 25 
Q 14.984375 22.515625 14.984375 16.5 
Q 14.984375 11.71875 18.140625 8.90625 
Q 21.296875 6.109375 26.703125 6.109375 
Q 34.1875 6.109375 38.703125 11.40625 
Q 43.21875 16.703125 43.21875 25.484375 
L 43.21875 27.484375 
z
M 52.203125 31.203125 
L 52.203125 0 
L 43.21875 0 
L 43.21875 8.296875 
Q 40.140625 3.328125 35.546875 0.953125 
Q 30.953125 -1.421875 24.3125 -1.421875 
Q 15.921875 -1.421875 10.953125 3.296875 
Q 6 8.015625 6 15.921875 
Q 6 25.140625 12.171875 29.828125 
Q 18.359375 34.515625 30.609375 34.515625 
L 43.21875 34.515625 
L 43.21875 35.40625 
Q 43.21875 41.609375 39.140625 45 
Q 35.0625 48.390625 27.6875 48.390625 
Q 23 48.390625 18.546875 47.265625 
Q 14.109375 46.140625 10.015625 43.890625 
L 10.015625 52.203125 
Q 14.9375 54.109375 19.578125 55.046875 
Q 24.21875 56 28.609375 56 
Q 40.484375 56 46.34375 49.84375 
Q 52.203125 43.703125 52.203125 31.203125 
z
" id="DejaVuSans-97"/>
      </defs>
      <g style="fill:#262626;" transform="translate(24.001875 372.892859)scale(0.1 -0.1)">
       <use xlink:href="#DejaVuSans-55"/>
       <use x="63.623047" xlink:href="#DejaVuSans-97"/>
      </g>
     </g>
    </g>
    <g id="ytick_2">
     <g id="line2d_5">
      <g>
       <use style="fill:#262626;stroke:#262626;stroke-width:0.8;" x="43.4925" xlink:href="#mc6a06e784e" y="344.864494"/>
      </g>
     </g>
     <g id="text_6">
      <!-- 6c -->
      <defs>
       <path d="M 33.015625 40.375 
Q 26.375 40.375 22.484375 35.828125 
Q 18.609375 31.296875 18.609375 23.390625 
Q 18.609375 15.53125 22.484375 10.953125 
Q 26.375 6.390625 33.015625 6.390625 
Q 39.65625 6.390625 43.53125 10.953125 
Q 47.40625 15.53125 47.40625 23.390625 
Q 47.40625 31.296875 43.53125 35.828125 
Q 39.65625 40.375 33.015625 40.375 
z
M 52.59375 71.296875 
L 52.59375 62.3125 
Q 48.875 64.0625 45.09375 64.984375 
Q 41.3125 65.921875 37.59375 65.921875 
Q 27.828125 65.921875 22.671875 59.328125 
Q 17.53125 52.734375 16.796875 39.40625 
Q 19.671875 43.65625 24.015625 45.921875 
Q 28.375 48.1875 33.59375 48.1875 
Q 44.578125 48.1875 50.953125 41.515625 
Q 57.328125 34.859375 57.328125 23.390625 
Q 57.328125 12.15625 50.6875 5.359375 
Q 44.046875 -1.421875 33.015625 -1.421875 
Q 20.359375 -1.421875 13.671875 8.265625 
Q 6.984375 17.96875 6.984375 36.375 
Q 6.984375 53.65625 15.1875 63.9375 
Q 23.390625 74.21875 37.203125 74.21875 
Q 40.921875 74.21875 44.703125 73.484375 
Q 48.484375 72.75 52.59375 71.296875 
z
" id="DejaVuSans-54"/>
      </defs>
      <g style="fill:#262626;" transform="translate(24.631563 348.663712)scale(0.1 -0.1)">
       <use xlink:href="#DejaVuSans-54"/>
       <use x="63.623047" xlink:href="#DejaVuSans-99"/>
      </g>
     </g>
    </g>
    <g id="ytick_3">
     <g id="line2d_6">
      <g>
       <use style="fill:#262626;stroke:#262626;stroke-width:0.8;" x="43.4925" xlink:href="#mc6a06e784e" y="320.635347"/>
      </g>
     </g>
     <g id="text_7">
      <!-- 6b -->
      <defs>
       <path d="M 48.6875 27.296875 
Q 48.6875 37.203125 44.609375 42.84375 
Q 40.53125 48.484375 33.40625 48.484375 
Q 26.265625 48.484375 22.1875 42.84375 
Q 18.109375 37.203125 18.109375 27.296875 
Q 18.109375 17.390625 22.1875 11.75 
Q 26.265625 6.109375 33.40625 6.109375 
Q 40.53125 6.109375 44.609375 11.75 
Q 48.6875 17.390625 48.6875 27.296875 
z
M 18.109375 46.390625 
Q 20.953125 51.265625 25.265625 53.625 
Q 29.59375 56 35.59375 56 
Q 45.5625 56 51.78125 48.09375 
Q 58.015625 40.1875 58.015625 27.296875 
Q 58.015625 14.40625 51.78125 6.484375 
Q 45.5625 -1.421875 35.59375 -1.421875 
Q 29.59375 -1.421875 25.265625 0.953125 
Q 20.953125 3.328125 18.109375 8.203125 
L 18.109375 0 
L 9.078125 0 
L 9.078125 75.984375 
L 18.109375 75.984375 
z
" id="DejaVuSans-98"/>
      </defs>
      <g style="fill:#262626;" transform="translate(23.781563 324.434566)scale(0.1 -0.1)">
       <use xlink:href="#DejaVuSans-54"/>
       <use x="63.623047" xlink:href="#DejaVuSans-98"/>
      </g>
     </g>
    </g>
    <g id="ytick_4">
     <g id="line2d_7">
      <g>
       <use style="fill:#262626;stroke:#262626;stroke-width:0.8;" x="43.4925" xlink:href="#mc6a06e784e" y="296.4062"/>
      </g>
     </g>
     <g id="text_8">
      <!-- 6a -->
      <g style="fill:#262626;" transform="translate(24.001875 300.205419)scale(0.1 -0.1)">
       <use xlink:href="#DejaVuSans-54"/>
       <use x="63.623047" xlink:href="#DejaVuSans-97"/>
      </g>
     </g>
    </g>
    <g id="ytick_5">
     <g id="line2d_8">
      <g>
       <use style="fill:#262626;stroke:#262626;stroke-width:0.8;" x="43.4925" xlink:href="#mc6a06e784e" y="272.177053"/>
      </g>
     </g>
     <g id="text_9">
      <!-- 5a -->
      <defs>
       <path d="M 10.796875 72.90625 
L 49.515625 72.90625 
L 49.515625 64.59375 
L 19.828125 64.59375 
L 19.828125 46.734375 
Q 21.96875 47.46875 24.109375 47.828125 
Q 26.265625 48.1875 28.421875 48.1875 
Q 40.625 48.1875 47.75 41.5 
Q 54.890625 34.8125 54.890625 23.390625 
Q 54.890625 11.625 47.5625 5.09375 
Q 40.234375 -1.421875 26.90625 -1.421875 
Q 22.3125 -1.421875 17.546875 -0.640625 
Q 12.796875 0.140625 7.71875 1.703125 
L 7.71875 11.625 
Q 12.109375 9.234375 16.796875 8.0625 
Q 21.484375 6.890625 26.703125 6.890625 
Q 35.15625 6.890625 40.078125 11.328125 
Q 45.015625 15.765625 45.015625 23.390625 
Q 45.015625 31 40.078125 35.4375 
Q 35.15625 39.890625 26.703125 39.890625 
Q 22.75 39.890625 18.8125 39.015625 
Q 14.890625 38.140625 10.796875 36.28125 
z
" id="DejaVuSans-53"/>
      </defs>
      <g style="fill:#262626;" transform="translate(24.001875 275.976272)scale(0.1 -0.1)">
       <use xlink:href="#DejaVuSans-53"/>
       <use x="63.623047" xlink:href="#DejaVuSans-97"/>
      </g>
     </g>
    </g>
    <g id="ytick_6">
     <g id="line2d_9">
      <g>
       <use style="fill:#262626;stroke:#262626;stroke-width:0.8;" x="43.4925" xlink:href="#mc6a06e784e" y="247.947906"/>
      </g>
     </g>
     <g id="text_10">
      <!-- 4c -->
      <defs>
       <path d="M 37.796875 64.3125 
L 12.890625 25.390625 
L 37.796875 25.390625 
z
M 35.203125 72.90625 
L 47.609375 72.90625 
L 47.609375 25.390625 
L 58.015625 25.390625 
L 58.015625 17.1875 
L 47.609375 17.1875 
L 47.609375 0 
L 37.796875 0 
L 37.796875 17.1875 
L 4.890625 17.1875 
L 4.890625 26.703125 
z
" id="DejaVuSans-52"/>
      </defs>
      <g style="fill:#262626;" transform="translate(24.631563 251.747125)scale(0.1 -0.1)">
       <use xlink:href="#DejaVuSans-52"/>
       <use x="63.623047" xlink:href="#DejaVuSans-99"/>
      </g>
     </g>
    </g>
    <g id="ytick_7">
     <g id="line2d_10">
      <g>
       <use style="fill:#262626;stroke:#262626;stroke-width:0.8;" x="43.4925" xlink:href="#mc6a06e784e" y="223.718759"/>
      </g>
     </g>
     <g id="text_11">
      <!-- 4b -->
      <g style="fill:#262626;" transform="translate(23.781563 227.517978)scale(0.1 -0.1)">
       <use xlink:href="#DejaVuSans-52"/>
       <use x="63.623047" xlink:href="#DejaVuSans-98"/>
      </g>
     </g>
    </g>
    <g id="ytick_8">
     <g id="line2d_11">
      <g>
       <use style="fill:#262626;stroke:#262626;stroke-width:0.8;" x="43.4925" xlink:href="#mc6a06e784e" y="199.489613"/>
      </g>
     </g>
     <g id="text_12">
      <!-- 4a -->
      <g style="fill:#262626;" transform="translate(24.001875 203.288831)scale(0.1 -0.1)">
       <use xlink:href="#DejaVuSans-52"/>
       <use x="63.623047" xlink:href="#DejaVuSans-97"/>
      </g>
     </g>
    </g>
    <g id="ytick_9">
     <g id="line2d_12">
      <g>
       <use style="fill:#262626;stroke:#262626;stroke-width:0.8;" x="43.4925" xlink:href="#mc6a06e784e" y="175.260466"/>
      </g>
     </g>
     <g id="text_13">
      <!-- 3a -->
      <defs>
       <path d="M 40.578125 39.3125 
Q 47.65625 37.796875 51.625 33 
Q 55.609375 28.21875 55.609375 21.1875 
Q 55.609375 10.40625 48.1875 4.484375 
Q 40.765625 -1.421875 27.09375 -1.421875 
Q 22.515625 -1.421875 17.65625 -0.515625 
Q 12.796875 0.390625 7.625 2.203125 
L 7.625 11.71875 
Q 11.71875 9.328125 16.59375 8.109375 
Q 21.484375 6.890625 26.8125 6.890625 
Q 36.078125 6.890625 40.9375 10.546875 
Q 45.796875 14.203125 45.796875 21.1875 
Q 45.796875 27.640625 41.28125 31.265625 
Q 36.765625 34.90625 28.71875 34.90625 
L 20.21875 34.90625 
L 20.21875 43.015625 
L 29.109375 43.015625 
Q 36.375 43.015625 40.234375 45.921875 
Q 44.09375 48.828125 44.09375 54.296875 
Q 44.09375 59.90625 40.109375 62.90625 
Q 36.140625 65.921875 28.71875 65.921875 
Q 24.65625 65.921875 20.015625 65.03125 
Q 15.375 64.15625 9.8125 62.3125 
L 9.8125 71.09375 
Q 15.4375 72.65625 20.34375 73.4375 
Q 25.25 74.21875 29.59375 74.21875 
Q 40.828125 74.21875 47.359375 69.109375 
Q 53.90625 64.015625 53.90625 55.328125 
Q 53.90625 49.265625 50.4375 45.09375 
Q 46.96875 40.921875 40.578125 39.3125 
z
" id="DejaVuSans-51"/>
      </defs>
      <g style="fill:#262626;" transform="translate(24.001875 179.059684)scale(0.1 -0.1)">
       <use xlink:href="#DejaVuSans-51"/>
       <use x="63.623047" xlink:href="#DejaVuSans-97"/>
      </g>
     </g>
    </g>
    <g id="ytick_10">
     <g id="line2d_13">
      <g>
       <use style="fill:#262626;stroke:#262626;stroke-width:0.8;" x="43.4925" xlink:href="#mc6a06e784e" y="151.031319"/>
      </g>
     </g>
     <g id="text_14">
      <!-- 2c -->
      <g style="fill:#262626;" transform="translate(24.631563 154.830538)scale(0.1 -0.1)">
       <use xlink:href="#DejaVuSans-50"/>
       <use x="63.623047" xlink:href="#DejaVuSans-99"/>
      </g>
     </g>
    </g>
    <g id="ytick_11">
     <g id="line2d_14">
      <g>
       <use style="fill:#262626;stroke:#262626;stroke-width:0.8;" x="43.4925" xlink:href="#mc6a06e784e" y="126.802172"/>
      </g>
     </g>
     <g id="text_15">
      <!-- 2b -->
      <g style="fill:#262626;" transform="translate(23.781563 130.601391)scale(0.1 -0.1)">
       <use xlink:href="#DejaVuSans-50"/>
       <use x="63.623047" xlink:href="#DejaVuSans-98"/>
      </g>
     </g>
    </g>
    <g id="ytick_12">
     <g id="line2d_15">
      <g>
       <use style="fill:#262626;stroke:#262626;stroke-width:0.8;" x="43.4925" xlink:href="#mc6a06e784e" y="102.573025"/>
      </g>
     </g>
     <g id="text_16">
      <!-- 2a -->
      <g style="fill:#262626;" transform="translate(24.001875 106.372244)scale(0.1 -0.1)">
       <use xlink:href="#DejaVuSans-50"/>
       <use x="63.623047" xlink:href="#DejaVuSans-97"/>
      </g>
     </g>
    </g>
    <g id="ytick_13">
     <g id="line2d_16">
      <g>
       <use style="fill:#262626;stroke:#262626;stroke-width:0.8;" x="43.4925" xlink:href="#mc6a06e784e" y="78.343878"/>
      </g>
     </g>
     <g id="text_17">
      <!-- 1b -->
      <g style="fill:#262626;" transform="translate(23.781563 82.143097)scale(0.1 -0.1)">
       <use xlink:href="#DejaVuSans-49"/>
       <use x="63.623047" xlink:href="#DejaVuSans-98"/>
      </g>
     </g>
    </g>
    <g id="ytick_14">
     <g id="line2d_17">
      <g>
       <use style="fill:#262626;stroke:#262626;stroke-width:0.8;" x="43.4925" xlink:href="#mc6a06e784e" y="54.114731"/>
      </g>
     </g>
     <g id="text_18">
      <!-- 1a -->
      <g style="fill:#262626;" transform="translate(24.001875 57.91395)scale(0.1 -0.1)">
       <use xlink:href="#DejaVuSans-49"/>
       <use x="63.623047" xlink:href="#DejaVuSans-97"/>
      </g>
     </g>
    </g>
    <g id="text_19">
     <!-- Topic Studied -->
     <defs>
      <path d="M -0.296875 72.90625 
L 61.375 72.90625 
L 61.375 64.59375 
L 35.5 64.59375 
L 35.5 0 
L 25.59375 0 
L 25.59375 64.59375 
L -0.296875 64.59375 
z
" id="DejaVuSans-84"/>
      <path d="M 18.109375 8.203125 
L 18.109375 -20.796875 
L 9.078125 -20.796875 
L 9.078125 54.6875 
L 18.109375 54.6875 
L 18.109375 46.390625 
Q 20.953125 51.265625 25.265625 53.625 
Q 29.59375 56 35.59375 56 
Q 45.5625 56 51.78125 48.09375 
Q 58.015625 40.1875 58.015625 27.296875 
Q 58.015625 14.40625 51.78125 6.484375 
Q 45.5625 -1.421875 35.59375 -1.421875 
Q 29.59375 -1.421875 25.265625 0.953125 
Q 20.953125 3.328125 18.109375 8.203125 
z
M 48.6875 27.296875 
Q 48.6875 37.203125 44.609375 42.84375 
Q 40.53125 48.484375 33.40625 48.484375 
Q 26.265625 48.484375 22.1875 42.84375 
Q 18.109375 37.203125 18.109375 27.296875 
Q 18.109375 17.390625 22.1875 11.75 
Q 26.265625 6.109375 33.40625 6.109375 
Q 40.53125 6.109375 44.609375 11.75 
Q 48.6875 17.390625 48.6875 27.296875 
z
" id="DejaVuSans-112"/>
      <path d="M 9.421875 54.6875 
L 18.40625 54.6875 
L 18.40625 0 
L 9.421875 0 
z
M 9.421875 75.984375 
L 18.40625 75.984375 
L 18.40625 64.59375 
L 9.421875 64.59375 
z
" id="DejaVuSans-105"/>
      <path d="M 53.515625 70.515625 
L 53.515625 60.890625 
Q 47.90625 63.578125 42.921875 64.890625 
Q 37.9375 66.21875 33.296875 66.21875 
Q 25.25 66.21875 20.875 63.09375 
Q 16.5 59.96875 16.5 54.203125 
Q 16.5 49.359375 19.40625 46.890625 
Q 22.3125 44.4375 30.421875 42.921875 
L 36.375 41.703125 
Q 47.40625 39.59375 52.65625 34.296875 
Q 57.90625 29 57.90625 20.125 
Q 57.90625 9.515625 50.796875 4.046875 
Q 43.703125 -1.421875 29.984375 -1.421875 
Q 24.8125 -1.421875 18.96875 -0.25 
Q 13.140625 0.921875 6.890625 3.21875 
L 6.890625 13.375 
Q 12.890625 10.015625 18.65625 8.296875 
Q 24.421875 6.59375 29.984375 6.59375 
Q 38.421875 6.59375 43.015625 9.90625 
Q 47.609375 13.234375 47.609375 19.390625 
Q 47.609375 24.75 44.3125 27.78125 
Q 41.015625 30.8125 33.5 32.328125 
L 27.484375 33.5 
Q 16.453125 35.6875 11.515625 40.375 
Q 6.59375 45.0625 6.59375 53.421875 
Q 6.59375 63.09375 13.40625 68.65625 
Q 20.21875 74.21875 32.171875 74.21875 
Q 37.3125 74.21875 42.625 73.28125 
Q 47.953125 72.359375 53.515625 70.515625 
z
" id="DejaVuSans-83"/>
      <path d="M 18.3125 70.21875 
L 18.3125 54.6875 
L 36.8125 54.6875 
L 36.8125 47.703125 
L 18.3125 47.703125 
L 18.3125 18.015625 
Q 18.3125 11.328125 20.140625 9.421875 
Q 21.96875 7.515625 27.59375 7.515625 
L 36.8125 7.515625 
L 36.8125 0 
L 27.59375 0 
Q 17.1875 0 13.234375 3.875 
Q 9.28125 7.765625 9.28125 18.015625 
L 9.28125 47.703125 
L 2.6875 47.703125 
L 2.6875 54.6875 
L 9.28125 54.6875 
L 9.28125 70.21875 
z
" id="DejaVuSans-116"/>
      <path d="M 45.40625 46.390625 
L 45.40625 75.984375 
L 54.390625 75.984375 
L 54.390625 0 
L 45.40625 0 
L 45.40625 8.203125 
Q 42.578125 3.328125 38.25 0.953125 
Q 33.9375 -1.421875 27.875 -1.421875 
Q 17.96875 -1.421875 11.734375 6.484375 
Q 5.515625 14.40625 5.515625 27.296875 
Q 5.515625 40.1875 11.734375 48.09375 
Q 17.96875 56 27.875 56 
Q 33.9375 56 38.25 53.625 
Q 42.578125 51.265625 45.40625 46.390625 
z
M 14.796875 27.296875 
Q 14.796875 17.390625 18.875 11.75 
Q 22.953125 6.109375 30.078125 6.109375 
Q 37.203125 6.109375 41.296875 11.75 
Q 45.40625 17.390625 45.40625 27.296875 
Q 45.40625 37.203125 41.296875 42.84375 
Q 37.203125 48.484375 30.078125 48.484375 
Q 22.953125 48.484375 18.875 42.84375 
Q 14.796875 37.203125 14.796875 27.296875 
z
" id="DejaVuSans-100"/>
     </defs>
     <g style="fill:#262626;" transform="translate(17.077969 255.958561)rotate(-90)scale(0.13 -0.13)">
      <use xlink:href="#DejaVuSans-84"/>
      <use x="60.818359" xlink:href="#DejaVuSans-111"/>
      <use x="122" xlink:href="#DejaVuSans-112"/>
      <use x="185.476562" xlink:href="#DejaVuSans-105"/>
      <use x="213.259766" xlink:href="#DejaVuSans-99"/>
      <use x="268.240234" xlink:href="#DejaVuSans-32"/>
      <use x="300.027344" xlink:href="#DejaVuSans-83"/>
      <use x="363.503906" xlink:href="#DejaVuSans-116"/>
      <use x="402.712891" xlink:href="#DejaVuSans-117"/>
      <use x="466.091797" xlink:href="#DejaVuSans-100"/>
      <use x="529.568359" xlink:href="#DejaVuSans-105"/>
      <use x="557.351562" xlink:href="#DejaVuSans-101"/>
      <use x="618.875" xlink:href="#DejaVuSans-100"/>
     </g>
    </g>
   </g>
   <g id="patch_3">
    <path clip-path="url(#p427bc1bd13)" d="M 43.4925 378.785299 
L 122.795463 378.785299 
L 122.795463 359.401982 
L 43.4925 359.401982 
z
" style="fill:#4575b4;opacity:0.7;stroke:#000000;stroke-linejoin:miter;stroke-width:1.15;"/>
   </g>
   <g id="patch_4">
    <path clip-path="url(#p427bc1bd13)" d="M 43.4925 354.556152 
L 77.526688 354.556152 
L 77.526688 335.172835 
L 43.4925 335.172835 
z
" style="fill:#91bfdb;opacity:0.7;stroke:#000000;stroke-linejoin:miter;stroke-width:1.15;"/>
   </g>
   <g id="patch_5">
    <path clip-path="url(#p427bc1bd13)" d="M 43.4925 330.327006 
L 103.997723 330.327006 
L 103.997723 310.943688 
L 43.4925 310.943688 
z
" style="fill:#91bfdb;opacity:0.7;stroke:#000000;stroke-linejoin:miter;stroke-width:1.15;"/>
   </g>
   <g id="patch_6">
    <path clip-path="url(#p427bc1bd13)" d="M 43.4925 306.097859 
L 78.727895 306.097859 
L 78.727895 286.714541 
L 43.4925 286.714541 
z
" style="fill:#91bfdb;opacity:0.7;stroke:#000000;stroke-linejoin:miter;stroke-width:1.15;"/>
   </g>
   <g id="patch_7">
    <path clip-path="url(#p427bc1bd13)" d="M 43.4925 281.868712 
L 127.268963 281.868712 
L 127.268963 262.485394 
L 43.4925 262.485394 
z
" style="fill:#e0f3f8;opacity:0.7;stroke:#000000;stroke-linejoin:miter;stroke-width:1.15;"/>
   </g>
   <g id="patch_8">
    <path clip-path="url(#p427bc1bd13)" d="M 43.4925 257.639565 
L 141.591042 257.639565 
L 141.591042 238.256248 
L 43.4925 238.256248 
z
" style="fill:#ffffbf;opacity:0.7;stroke:#000000;stroke-linejoin:miter;stroke-width:1.15;"/>
   </g>
   <g id="patch_9">
    <path clip-path="url(#p427bc1bd13)" d="M 43.4925 233.410418 
L 92.996774 233.410418 
L 92.996774 214.027101 
L 43.4925 214.027101 
z
" style="fill:#ffffbf;opacity:0.7;stroke:#000000;stroke-linejoin:miter;stroke-width:1.15;"/>
   </g>
   <g id="patch_10">
    <path clip-path="url(#p427bc1bd13)" d="M 43.4925 209.181271 
L 107.556854 209.181271 
L 107.556854 189.797954 
L 43.4925 189.797954 
z
" style="fill:#ffffbf;opacity:0.7;stroke:#000000;stroke-linejoin:miter;stroke-width:1.15;"/>
   </g>
   <g id="patch_11">
    <path clip-path="url(#p427bc1bd13)" d="M 43.4925 184.952124 
L 174.183782 184.952124 
L 174.183782 165.568807 
L 43.4925 165.568807 
z
" style="fill:#fee090;opacity:0.7;stroke:#000000;stroke-linejoin:miter;stroke-width:1.15;"/>
   </g>
   <g id="patch_12">
    <path clip-path="url(#p427bc1bd13)" d="M 43.4925 160.722978 
L 96.501501 160.722978 
L 96.501501 141.33966 
L 43.4925 141.33966 
z
" style="fill:#fc8d59;opacity:0.7;stroke:#000000;stroke-linejoin:miter;stroke-width:1.15;"/>
   </g>
   <g id="patch_13">
    <path clip-path="url(#p427bc1bd13)" d="M 43.4925 136.493831 
L 86.202069 136.493831 
L 86.202069 117.110513 
L 43.4925 117.110513 
z
" style="fill:#fc8d59;opacity:0.7;stroke:#000000;stroke-linejoin:miter;stroke-width:1.15;"/>
   </g>
   <g id="patch_14">
    <path clip-path="url(#p427bc1bd13)" d="M 43.4925 112.264684 
L 114.768287 112.264684 
L 114.768287 92.881366 
L 43.4925 92.881366 
z
" style="fill:#fc8d59;opacity:0.7;stroke:#000000;stroke-linejoin:miter;stroke-width:1.15;"/>
   </g>
   <g id="patch_15">
    <path clip-path="url(#p427bc1bd13)" d="M 43.4925 88.035537 
L 94.421357 88.035537 
L 94.421357 68.65222 
L 43.4925 68.65222 
z
" style="fill:#d73027;opacity:0.7;stroke:#000000;stroke-linejoin:miter;stroke-width:1.15;"/>
   </g>
   <g id="patch_16">
    <path clip-path="url(#p427bc1bd13)" d="M 43.4925 63.80639 
L 97.578433 63.80639 
L 97.578433 44.423073 
L 43.4925 44.423073 
z
" style="fill:#d73027;opacity:0.7;stroke:#000000;stroke-linejoin:miter;stroke-width:1.15;"/>
   </g>
   <g id="patch_17">
    <path d="M 43.4925 384.842586 
L 43.4925 38.365786 
" style="fill:none;stroke:#262626;stroke-linecap:square;stroke-linejoin:miter;stroke-width:0.8;"/>
   </g>
   <g id="patch_18">
    <path d="M 43.4925 384.842586 
L 180.718346 384.842586 
" style="fill:none;stroke:#262626;stroke-linecap:square;stroke-linejoin:miter;stroke-width:0.8;"/>
   </g>
   <g id="text_20">
    <!-- A. -->
    <defs>
     <path d="M 34.1875 63.1875 
L 20.796875 26.90625 
L 47.609375 26.90625 
z
M 28.609375 72.90625 
L 39.796875 72.90625 
L 67.578125 0 
L 57.328125 0 
L 50.6875 18.703125 
L 17.828125 18.703125 
L 11.1875 0 
L 0.78125 0 
z
" id="DejaVuSans-65"/>
     <path d="M 10.6875 12.40625 
L 21 12.40625 
L 21 0 
L 10.6875 0 
z
" id="DejaVuSans-46"/>
    </defs>
    <g style="fill:#262626;" transform="translate(29.769915 25.43625)scale(0.24 -0.24)">
     <use xlink:href="#DejaVuSans-65"/>
     <use x="68.392578" xlink:href="#DejaVuSans-46"/>
    </g>
   </g>
  </g>
  <g id="axes_2">
   <g id="patch_19">
    <path d="M 215.398365 384.842586 
L 352.624212 384.842586 
L 352.624212 38.365786 
L 215.398365 38.365786 
z
" style="fill:#ffffff;"/>
   </g>
   <g id="matplotlib.axis_3">
    <g id="xtick_4">
     <g id="line2d_18">
      <g>
       <use style="fill:#262626;stroke:#262626;stroke-width:0.8;" x="215.398365" xlink:href="#m8508fb28aa" y="384.842586"/>
      </g>
     </g>
     <g id="text_21">
      <!-- 0% -->
      <g style="fill:#262626;" transform="translate(207.466334 399.441023)scale(0.1 -0.1)">
       <use xlink:href="#DejaVuSans-48"/>
       <use x="63.623047" xlink:href="#DejaVuSans-37"/>
      </g>
     </g>
    </g>
    <g id="xtick_5">
     <g id="line2d_19">
      <g>
       <use style="fill:#262626;stroke:#262626;stroke-width:0.8;" x="254.783561" xlink:href="#m8508fb28aa" y="384.842586"/>
      </g>
     </g>
     <g id="text_22">
      <!-- 10% -->
      <g style="fill:#262626;" transform="translate(243.67028 399.441023)scale(0.1 -0.1)">
       <use xlink:href="#DejaVuSans-49"/>
       <use x="63.623047" xlink:href="#DejaVuSans-48"/>
       <use x="127.246094" xlink:href="#DejaVuSans-37"/>
      </g>
     </g>
    </g>
    <g id="xtick_6">
     <g id="line2d_20">
      <g>
       <use style="fill:#262626;stroke:#262626;stroke-width:0.8;" x="294.168757" xlink:href="#m8508fb28aa" y="384.842586"/>
      </g>
     </g>
     <g id="text_23">
      <!-- 20% -->
      <g style="fill:#262626;" transform="translate(283.055476 399.441023)scale(0.1 -0.1)">
       <use xlink:href="#DejaVuSans-50"/>
       <use x="63.623047" xlink:href="#DejaVuSans-48"/>
       <use x="127.246094" xlink:href="#DejaVuSans-37"/>
      </g>
     </g>
    </g>
    <g id="xtick_7">
     <g id="line2d_21">
      <g>
       <use style="fill:#262626;stroke:#262626;stroke-width:0.8;" x="333.553953" xlink:href="#m8508fb28aa" y="384.842586"/>
      </g>
     </g>
     <g id="text_24">
      <!-- 30% -->
      <g style="fill:#262626;" transform="translate(322.440672 399.441023)scale(0.1 -0.1)">
       <use xlink:href="#DejaVuSans-51"/>
       <use x="63.623047" xlink:href="#DejaVuSans-48"/>
       <use x="127.246094" xlink:href="#DejaVuSans-37"/>
      </g>
     </g>
    </g>
    <g id="text_25">
     <!-- Focus on: Women -->
     <defs>
      <path d="M 3.328125 72.90625 
L 13.28125 72.90625 
L 28.609375 11.28125 
L 43.890625 72.90625 
L 54.984375 72.90625 
L 70.3125 11.28125 
L 85.59375 72.90625 
L 95.609375 72.90625 
L 77.296875 0 
L 64.890625 0 
L 49.515625 63.28125 
L 33.984375 0 
L 21.578125 0 
z
" id="DejaVuSans-87"/>
      <path d="M 52 44.1875 
Q 55.375 50.25 60.0625 53.125 
Q 64.75 56 71.09375 56 
Q 79.640625 56 84.28125 50.015625 
Q 88.921875 44.046875 88.921875 33.015625 
L 88.921875 0 
L 79.890625 0 
L 79.890625 32.71875 
Q 79.890625 40.578125 77.09375 44.375 
Q 74.3125 48.1875 68.609375 48.1875 
Q 61.625 48.1875 57.5625 43.546875 
Q 53.515625 38.921875 53.515625 30.90625 
L 53.515625 0 
L 44.484375 0 
L 44.484375 32.71875 
Q 44.484375 40.625 41.703125 44.40625 
Q 38.921875 48.1875 33.109375 48.1875 
Q 26.21875 48.1875 22.15625 43.53125 
Q 18.109375 38.875 18.109375 30.90625 
L 18.109375 0 
L 9.078125 0 
L 9.078125 54.6875 
L 18.109375 54.6875 
L 18.109375 46.1875 
Q 21.1875 51.21875 25.484375 53.609375 
Q 29.78125 56 35.6875 56 
Q 41.65625 56 45.828125 52.96875 
Q 50 49.953125 52 44.1875 
z
" id="DejaVuSans-109"/>
     </defs>
     <g style="fill:#262626;" transform="translate(225.95207 415.39868)scale(0.13 -0.13)">
      <use xlink:href="#DejaVuSans-70"/>
      <use x="57.472656" xlink:href="#DejaVuSans-111"/>
      <use x="118.654297" xlink:href="#DejaVuSans-99"/>
      <use x="173.634766" xlink:href="#DejaVuSans-117"/>
      <use x="237.013672" xlink:href="#DejaVuSans-115"/>
      <use x="289.113281" xlink:href="#DejaVuSans-32"/>
      <use x="320.900391" xlink:href="#DejaVuSans-111"/>
      <use x="382.082031" xlink:href="#DejaVuSans-110"/>
      <use x="445.460938" xlink:href="#DejaVuSans-58"/>
      <use x="479.152344" xlink:href="#DejaVuSans-32"/>
      <use x="510.939453" xlink:href="#DejaVuSans-87"/>
      <use x="609.738281" xlink:href="#DejaVuSans-111"/>
      <use x="670.919922" xlink:href="#DejaVuSans-109"/>
      <use x="768.332031" xlink:href="#DejaVuSans-101"/>
      <use x="829.855469" xlink:href="#DejaVuSans-110"/>
     </g>
    </g>
   </g>
   <g id="matplotlib.axis_4">
    <g id="ytick_15">
     <g id="line2d_22">
      <g>
       <use style="fill:#262626;stroke:#262626;stroke-width:0.8;" x="215.398365" xlink:href="#mc6a06e784e" y="369.093641"/>
      </g>
     </g>
     <g id="text_26">
      <!-- 7a -->
      <g style="fill:#262626;" transform="translate(195.90774 372.892859)scale(0.1 -0.1)">
       <use xlink:href="#DejaVuSans-55"/>
       <use x="63.623047" xlink:href="#DejaVuSans-97"/>
      </g>
     </g>
    </g>
    <g id="ytick_16">
     <g id="line2d_23">
      <g>
       <use style="fill:#262626;stroke:#262626;stroke-width:0.8;" x="215.398365" xlink:href="#mc6a06e784e" y="344.864494"/>
      </g>
     </g>
     <g id="text_27">
      <!-- 6c -->
      <g style="fill:#262626;" transform="translate(196.537428 348.663712)scale(0.1 -0.1)">
       <use xlink:href="#DejaVuSans-54"/>
       <use x="63.623047" xlink:href="#DejaVuSans-99"/>
      </g>
     </g>
    </g>
    <g id="ytick_17">
     <g id="line2d_24">
      <g>
       <use style="fill:#262626;stroke:#262626;stroke-width:0.8;" x="215.398365" xlink:href="#mc6a06e784e" y="320.635347"/>
      </g>
     </g>
     <g id="text_28">
      <!-- 6b -->
      <g style="fill:#262626;" transform="translate(195.687428 324.434566)scale(0.1 -0.1)">
       <use xlink:href="#DejaVuSans-54"/>
       <use x="63.623047" xlink:href="#DejaVuSans-98"/>
      </g>
     </g>
    </g>
    <g id="ytick_18">
     <g id="line2d_25">
      <g>
       <use style="fill:#262626;stroke:#262626;stroke-width:0.8;" x="215.398365" xlink:href="#mc6a06e784e" y="296.4062"/>
      </g>
     </g>
     <g id="text_29">
      <!-- 6a -->
      <g style="fill:#262626;" transform="translate(195.90774 300.205419)scale(0.1 -0.1)">
       <use xlink:href="#DejaVuSans-54"/>
       <use x="63.623047" xlink:href="#DejaVuSans-97"/>
      </g>
     </g>
    </g>
    <g id="ytick_19">
     <g id="line2d_26">
      <g>
       <use style="fill:#262626;stroke:#262626;stroke-width:0.8;" x="215.398365" xlink:href="#mc6a06e784e" y="272.177053"/>
      </g>
     </g>
     <g id="text_30">
      <!-- 5a -->
      <g style="fill:#262626;" transform="translate(195.90774 275.976272)scale(0.1 -0.1)">
       <use xlink:href="#DejaVuSans-53"/>
       <use x="63.623047" xlink:href="#DejaVuSans-97"/>
      </g>
     </g>
    </g>
    <g id="ytick_20">
     <g id="line2d_27">
      <g>
       <use style="fill:#262626;stroke:#262626;stroke-width:0.8;" x="215.398365" xlink:href="#mc6a06e784e" y="247.947906"/>
      </g>
     </g>
     <g id="text_31">
      <!-- 4c -->
      <g style="fill:#262626;" transform="translate(196.537428 251.747125)scale(0.1 -0.1)">
       <use xlink:href="#DejaVuSans-52"/>
       <use x="63.623047" xlink:href="#DejaVuSans-99"/>
      </g>
     </g>
    </g>
    <g id="ytick_21">
     <g id="line2d_28">
      <g>
       <use style="fill:#262626;stroke:#262626;stroke-width:0.8;" x="215.398365" xlink:href="#mc6a06e784e" y="223.718759"/>
      </g>
     </g>
     <g id="text_32">
      <!-- 4b -->
      <g style="fill:#262626;" transform="translate(195.687428 227.517978)scale(0.1 -0.1)">
       <use xlink:href="#DejaVuSans-52"/>
       <use x="63.623047" xlink:href="#DejaVuSans-98"/>
      </g>
     </g>
    </g>
    <g id="ytick_22">
     <g id="line2d_29">
      <g>
       <use style="fill:#262626;stroke:#262626;stroke-width:0.8;" x="215.398365" xlink:href="#mc6a06e784e" y="199.489613"/>
      </g>
     </g>
     <g id="text_33">
      <!-- 4a -->
      <g style="fill:#262626;" transform="translate(195.90774 203.288831)scale(0.1 -0.1)">
       <use xlink:href="#DejaVuSans-52"/>
       <use x="63.623047" xlink:href="#DejaVuSans-97"/>
      </g>
     </g>
    </g>
    <g id="ytick_23">
     <g id="line2d_30">
      <g>
       <use style="fill:#262626;stroke:#262626;stroke-width:0.8;" x="215.398365" xlink:href="#mc6a06e784e" y="175.260466"/>
      </g>
     </g>
     <g id="text_34">
      <!-- 3a -->
      <g style="fill:#262626;" transform="translate(195.90774 179.059684)scale(0.1 -0.1)">
       <use xlink:href="#DejaVuSans-51"/>
       <use x="63.623047" xlink:href="#DejaVuSans-97"/>
      </g>
     </g>
    </g>
    <g id="ytick_24">
     <g id="line2d_31">
      <g>
       <use style="fill:#262626;stroke:#262626;stroke-width:0.8;" x="215.398365" xlink:href="#mc6a06e784e" y="151.031319"/>
      </g>
     </g>
     <g id="text_35">
      <!-- 2c -->
      <g style="fill:#262626;" transform="translate(196.537428 154.830538)scale(0.1 -0.1)">
       <use xlink:href="#DejaVuSans-50"/>
       <use x="63.623047" xlink:href="#DejaVuSans-99"/>
      </g>
     </g>
    </g>
    <g id="ytick_25">
     <g id="line2d_32">
      <g>
       <use style="fill:#262626;stroke:#262626;stroke-width:0.8;" x="215.398365" xlink:href="#mc6a06e784e" y="126.802172"/>
      </g>
     </g>
     <g id="text_36">
      <!-- 2b -->
      <g style="fill:#262626;" transform="translate(195.687428 130.601391)scale(0.1 -0.1)">
       <use xlink:href="#DejaVuSans-50"/>
       <use x="63.623047" xlink:href="#DejaVuSans-98"/>
      </g>
     </g>
    </g>
    <g id="ytick_26">
     <g id="line2d_33">
      <g>
       <use style="fill:#262626;stroke:#262626;stroke-width:0.8;" x="215.398365" xlink:href="#mc6a06e784e" y="102.573025"/>
      </g>
     </g>
     <g id="text_37">
      <!-- 2a -->
      <g style="fill:#262626;" transform="translate(195.90774 106.372244)scale(0.1 -0.1)">
       <use xlink:href="#DejaVuSans-50"/>
       <use x="63.623047" xlink:href="#DejaVuSans-97"/>
      </g>
     </g>
    </g>
    <g id="ytick_27">
     <g id="line2d_34">
      <g>
       <use style="fill:#262626;stroke:#262626;stroke-width:0.8;" x="215.398365" xlink:href="#mc6a06e784e" y="78.343878"/>
      </g>
     </g>
     <g id="text_38">
      <!-- 1b -->
      <g style="fill:#262626;" transform="translate(195.687428 82.143097)scale(0.1 -0.1)">
       <use xlink:href="#DejaVuSans-49"/>
       <use x="63.623047" xlink:href="#DejaVuSans-98"/>
      </g>
     </g>
    </g>
    <g id="ytick_28">
     <g id="line2d_35">
      <g>
       <use style="fill:#262626;stroke:#262626;stroke-width:0.8;" x="215.398365" xlink:href="#mc6a06e784e" y="54.114731"/>
      </g>
     </g>
     <g id="text_39">
      <!-- 1a -->
      <g style="fill:#262626;" transform="translate(195.90774 57.91395)scale(0.1 -0.1)">
       <use xlink:href="#DejaVuSans-49"/>
       <use x="63.623047" xlink:href="#DejaVuSans-97"/>
      </g>
     </g>
    </g>
   </g>
   <g id="patch_20">
    <path clip-path="url(#pa079250537)" d="M 215.398365 378.785299 
L 245.988809 378.785299 
L 245.988809 359.401982 
L 215.398365 359.401982 
z
" style="fill:#4575b4;opacity:0.7;stroke:#000000;stroke-linejoin:miter;stroke-width:1.15;"/>
   </g>
   <g id="patch_21">
    <path clip-path="url(#pa079250537)" d="M 215.398365 354.556152 
L 289.245608 354.556152 
L 289.245608 335.172835 
L 215.398365 335.172835 
z
" style="fill:#91bfdb;opacity:0.7;stroke:#000000;stroke-linejoin:miter;stroke-width:1.15;"/>
   </g>
   <g id="patch_22">
    <path clip-path="url(#pa079250537)" d="M 215.398365 330.327006 
L 289.455999 330.327006 
L 289.455999 310.943688 
L 215.398365 310.943688 
z
" style="fill:#91bfdb;opacity:0.7;stroke:#000000;stroke-linejoin:miter;stroke-width:1.15;"/>
   </g>
   <g id="patch_23">
    <path clip-path="url(#pa079250537)" d="M 215.398365 306.097859 
L 326.603624 306.097859 
L 326.603624 286.714541 
L 215.398365 286.714541 
z
" style="fill:#91bfdb;opacity:0.7;stroke:#000000;stroke-linejoin:miter;stroke-width:1.15;"/>
   </g>
   <g id="patch_24">
    <path clip-path="url(#pa079250537)" d="M 215.398365 281.868712 
L 260.842822 281.868712 
L 260.842822 262.485394 
L 215.398365 262.485394 
z
" style="fill:#e0f3f8;opacity:0.7;stroke:#000000;stroke-linejoin:miter;stroke-width:1.15;"/>
   </g>
   <g id="patch_25">
    <path clip-path="url(#pa079250537)" d="M 215.398365 257.639565 
L 260.285905 257.639565 
L 260.285905 238.256248 
L 215.398365 238.256248 
z
" style="fill:#ffffbf;opacity:0.7;stroke:#000000;stroke-linejoin:miter;stroke-width:1.15;"/>
   </g>
   <g id="patch_26">
    <path clip-path="url(#pa079250537)" d="M 215.398365 233.410418 
L 311.62356 233.410418 
L 311.62356 214.027101 
L 215.398365 214.027101 
z
" style="fill:#ffffbf;opacity:0.7;stroke:#000000;stroke-linejoin:miter;stroke-width:1.15;"/>
   </g>
   <g id="patch_27">
    <path clip-path="url(#pa079250537)" d="M 215.398365 209.181271 
L 324.617816 209.181271 
L 324.617816 189.797954 
L 215.398365 189.797954 
z
" style="fill:#ffffbf;opacity:0.7;stroke:#000000;stroke-linejoin:miter;stroke-width:1.15;"/>
   </g>
   <g id="patch_28">
    <path clip-path="url(#pa079250537)" d="M 215.398365 184.952124 
L 250.845042 184.952124 
L 250.845042 165.568807 
L 215.398365 165.568807 
z
" style="fill:#fee090;opacity:0.7;stroke:#000000;stroke-linejoin:miter;stroke-width:1.15;"/>
   </g>
   <g id="patch_29">
    <path clip-path="url(#pa079250537)" d="M 215.398365 160.722978 
L 264.194183 160.722978 
L 264.194183 141.33966 
L 215.398365 141.33966 
z
" style="fill:#fc8d59;opacity:0.7;stroke:#000000;stroke-linejoin:miter;stroke-width:1.15;"/>
   </g>
   <g id="patch_30">
    <path clip-path="url(#pa079250537)" d="M 215.398365 136.493831 
L 319.653296 136.493831 
L 319.653296 117.110513 
L 215.398365 117.110513 
z
" style="fill:#fc8d59;opacity:0.7;stroke:#000000;stroke-linejoin:miter;stroke-width:1.15;"/>
   </g>
   <g id="patch_31">
    <path clip-path="url(#pa079250537)" d="M 215.398365 112.264684 
L 246.329147 112.264684 
L 246.329147 92.881366 
L 215.398365 92.881366 
z
" style="fill:#fc8d59;opacity:0.7;stroke:#000000;stroke-linejoin:miter;stroke-width:1.15;"/>
   </g>
   <g id="patch_32">
    <path clip-path="url(#pa079250537)" d="M 215.398365 88.035537 
L 324.486858 88.035537 
L 324.486858 68.65222 
L 215.398365 68.65222 
z
" style="fill:#d73027;opacity:0.7;stroke:#000000;stroke-linejoin:miter;stroke-width:1.15;"/>
   </g>
   <g id="patch_33">
    <path clip-path="url(#pa079250537)" d="M 215.398365 63.80639 
L 346.089648 63.80639 
L 346.089648 44.423073 
L 215.398365 44.423073 
z
" style="fill:#d73027;opacity:0.7;stroke:#000000;stroke-linejoin:miter;stroke-width:1.15;"/>
   </g>
   <g id="patch_34">
    <path d="M 215.398365 384.842586 
L 215.398365 38.365786 
" style="fill:none;stroke:#262626;stroke-linecap:square;stroke-linejoin:miter;stroke-width:0.8;"/>
   </g>
   <g id="patch_35">
    <path d="M 215.398365 384.842586 
L 352.624212 384.842586 
" style="fill:none;stroke:#262626;stroke-linecap:square;stroke-linejoin:miter;stroke-width:0.8;"/>
   </g>
   <g id="text_40">
    <!-- B. -->
    <defs>
     <path d="M 19.671875 34.8125 
L 19.671875 8.109375 
L 35.5 8.109375 
Q 43.453125 8.109375 47.28125 11.40625 
Q 51.125 14.703125 51.125 21.484375 
Q 51.125 28.328125 47.28125 31.5625 
Q 43.453125 34.8125 35.5 34.8125 
z
M 19.671875 64.796875 
L 19.671875 42.828125 
L 34.28125 42.828125 
Q 41.5 42.828125 45.03125 45.53125 
Q 48.578125 48.25 48.578125 53.8125 
Q 48.578125 59.328125 45.03125 62.0625 
Q 41.5 64.796875 34.28125 64.796875 
z
M 9.8125 72.90625 
L 35.015625 72.90625 
Q 46.296875 72.90625 52.390625 68.21875 
Q 58.5 63.53125 58.5 54.890625 
Q 58.5 48.1875 55.375 44.234375 
Q 52.25 40.28125 46.1875 39.3125 
Q 53.46875 37.75 57.5 32.78125 
Q 61.53125 27.828125 61.53125 20.40625 
Q 61.53125 10.640625 54.890625 5.3125 
Q 48.25 0 35.984375 0 
L 9.8125 0 
z
" id="DejaVuSans-66"/>
    </defs>
    <g style="fill:#262626;" transform="translate(201.67578 25.43625)scale(0.24 -0.24)">
     <use xlink:href="#DejaVuSans-66"/>
     <use x="68.603516" xlink:href="#DejaVuSans-46"/>
    </g>
   </g>
  </g>
  <g id="axes_3">
   <g id="patch_36">
    <path d="M 387.30423 384.842586 
L 524.530077 384.842586 
L 524.530077 38.365786 
L 387.30423 38.365786 
z
" style="fill:#ffffff;"/>
   </g>
   <g id="matplotlib.axis_5">
    <g id="xtick_8">
     <g id="line2d_36">
      <g>
       <use style="fill:#262626;stroke:#262626;stroke-width:0.8;" x="387.30423" xlink:href="#m8508fb28aa" y="384.842586"/>
      </g>
     </g>
     <g id="text_41">
      <!-- 0% -->
      <g style="fill:#262626;" transform="translate(379.372199 399.441023)scale(0.1 -0.1)">
       <use xlink:href="#DejaVuSans-48"/>
       <use x="63.623047" xlink:href="#DejaVuSans-37"/>
      </g>
     </g>
    </g>
    <g id="xtick_9">
     <g id="line2d_37">
      <g>
       <use style="fill:#262626;stroke:#262626;stroke-width:0.8;" x="431.010823" xlink:href="#m8508fb28aa" y="384.842586"/>
      </g>
     </g>
     <g id="text_42">
      <!-- 20% -->
      <g style="fill:#262626;" transform="translate(419.897542 399.441023)scale(0.1 -0.1)">
       <use xlink:href="#DejaVuSans-50"/>
       <use x="63.623047" xlink:href="#DejaVuSans-48"/>
       <use x="127.246094" xlink:href="#DejaVuSans-37"/>
      </g>
     </g>
    </g>
    <g id="xtick_10">
     <g id="line2d_38">
      <g>
       <use style="fill:#262626;stroke:#262626;stroke-width:0.8;" x="474.717416" xlink:href="#m8508fb28aa" y="384.842586"/>
      </g>
     </g>
     <g id="text_43">
      <!-- 40% -->
      <g style="fill:#262626;" transform="translate(463.604135 399.441023)scale(0.1 -0.1)">
       <use xlink:href="#DejaVuSans-52"/>
       <use x="63.623047" xlink:href="#DejaVuSans-48"/>
       <use x="127.246094" xlink:href="#DejaVuSans-37"/>
      </g>
     </g>
    </g>
    <g id="xtick_11">
     <g id="line2d_39">
      <g>
       <use style="fill:#262626;stroke:#262626;stroke-width:0.8;" x="518.424009" xlink:href="#m8508fb28aa" y="384.842586"/>
      </g>
     </g>
     <g id="text_44">
      <!-- 60% -->
      <g style="fill:#262626;" transform="translate(507.310727 399.441023)scale(0.1 -0.1)">
       <use xlink:href="#DejaVuSans-54"/>
       <use x="63.623047" xlink:href="#DejaVuSans-48"/>
       <use x="127.246094" xlink:href="#DejaVuSans-37"/>
      </g>
     </g>
    </g>
    <g id="text_45">
     <!-- Focus on: Children -->
     <defs>
      <path d="M 64.40625 67.28125 
L 64.40625 56.890625 
Q 59.421875 61.53125 53.78125 63.8125 
Q 48.140625 66.109375 41.796875 66.109375 
Q 29.296875 66.109375 22.65625 58.46875 
Q 16.015625 50.828125 16.015625 36.375 
Q 16.015625 21.96875 22.65625 14.328125 
Q 29.296875 6.6875 41.796875 6.6875 
Q 48.140625 6.6875 53.78125 8.984375 
Q 59.421875 11.28125 64.40625 15.921875 
L 64.40625 5.609375 
Q 59.234375 2.09375 53.4375 0.328125 
Q 47.65625 -1.421875 41.21875 -1.421875 
Q 24.65625 -1.421875 15.125 8.703125 
Q 5.609375 18.84375 5.609375 36.375 
Q 5.609375 53.953125 15.125 64.078125 
Q 24.65625 74.21875 41.21875 74.21875 
Q 47.75 74.21875 53.53125 72.484375 
Q 59.328125 70.75 64.40625 67.28125 
z
" id="DejaVuSans-67"/>
      <path d="M 54.890625 33.015625 
L 54.890625 0 
L 45.90625 0 
L 45.90625 32.71875 
Q 45.90625 40.484375 42.875 44.328125 
Q 39.84375 48.1875 33.796875 48.1875 
Q 26.515625 48.1875 22.3125 43.546875 
Q 18.109375 38.921875 18.109375 30.90625 
L 18.109375 0 
L 9.078125 0 
L 9.078125 75.984375 
L 18.109375 75.984375 
L 18.109375 46.1875 
Q 21.34375 51.125 25.703125 53.5625 
Q 30.078125 56 35.796875 56 
Q 45.21875 56 50.046875 50.171875 
Q 54.890625 44.34375 54.890625 33.015625 
z
" id="DejaVuSans-104"/>
      <path d="M 9.421875 75.984375 
L 18.40625 75.984375 
L 18.40625 0 
L 9.421875 0 
z
" id="DejaVuSans-108"/>
      <path d="M 41.109375 46.296875 
Q 39.59375 47.171875 37.8125 47.578125 
Q 36.03125 48 33.890625 48 
Q 26.265625 48 22.1875 43.046875 
Q 18.109375 38.09375 18.109375 28.8125 
L 18.109375 0 
L 9.078125 0 
L 9.078125 54.6875 
L 18.109375 54.6875 
L 18.109375 46.1875 
Q 20.953125 51.171875 25.484375 53.578125 
Q 30.03125 56 36.53125 56 
Q 37.453125 56 38.578125 55.875 
Q 39.703125 55.765625 41.0625 55.515625 
z
" id="DejaVuSans-114"/>
     </defs>
     <g style="fill:#262626;" transform="translate(395.521997 415.39868)scale(0.13 -0.13)">
      <use xlink:href="#DejaVuSans-70"/>
      <use x="57.472656" xlink:href="#DejaVuSans-111"/>
      <use x="118.654297" xlink:href="#DejaVuSans-99"/>
      <use x="173.634766" xlink:href="#DejaVuSans-117"/>
      <use x="237.013672" xlink:href="#DejaVuSans-115"/>
      <use x="289.113281" xlink:href="#DejaVuSans-32"/>
      <use x="320.900391" xlink:href="#DejaVuSans-111"/>
      <use x="382.082031" xlink:href="#DejaVuSans-110"/>
      <use x="445.460938" xlink:href="#DejaVuSans-58"/>
      <use x="479.152344" xlink:href="#DejaVuSans-32"/>
      <use x="510.939453" xlink:href="#DejaVuSans-67"/>
      <use x="580.763672" xlink:href="#DejaVuSans-104"/>
      <use x="644.142578" xlink:href="#DejaVuSans-105"/>
      <use x="671.925781" xlink:href="#DejaVuSans-108"/>
      <use x="699.708984" xlink:href="#DejaVuSans-100"/>
      <use x="763.185547" xlink:href="#DejaVuSans-114"/>
      <use x="804.267578" xlink:href="#DejaVuSans-101"/>
      <use x="865.791016" xlink:href="#DejaVuSans-110"/>
     </g>
    </g>
   </g>
   <g id="matplotlib.axis_6">
    <g id="ytick_29">
     <g id="line2d_40">
      <g>
       <use style="fill:#262626;stroke:#262626;stroke-width:0.8;" x="387.30423" xlink:href="#mc6a06e784e" y="369.093641"/>
      </g>
     </g>
     <g id="text_46">
      <!-- 7a -->
      <g style="fill:#262626;" transform="translate(367.813605 372.892859)scale(0.1 -0.1)">
       <use xlink:href="#DejaVuSans-55"/>
       <use x="63.623047" xlink:href="#DejaVuSans-97"/>
      </g>
     </g>
    </g>
    <g id="ytick_30">
     <g id="line2d_41">
      <g>
       <use style="fill:#262626;stroke:#262626;stroke-width:0.8;" x="387.30423" xlink:href="#mc6a06e784e" y="344.864494"/>
      </g>
     </g>
     <g id="text_47">
      <!-- 6c -->
      <g style="fill:#262626;" transform="translate(368.443293 348.663712)scale(0.1 -0.1)">
       <use xlink:href="#DejaVuSans-54"/>
       <use x="63.623047" xlink:href="#DejaVuSans-99"/>
      </g>
     </g>
    </g>
    <g id="ytick_31">
     <g id="line2d_42">
      <g>
       <use style="fill:#262626;stroke:#262626;stroke-width:0.8;" x="387.30423" xlink:href="#mc6a06e784e" y="320.635347"/>
      </g>
     </g>
     <g id="text_48">
      <!-- 6b -->
      <g style="fill:#262626;" transform="translate(367.593293 324.434566)scale(0.1 -0.1)">
       <use xlink:href="#DejaVuSans-54"/>
       <use x="63.623047" xlink:href="#DejaVuSans-98"/>
      </g>
     </g>
    </g>
    <g id="ytick_32">
     <g id="line2d_43">
      <g>
       <use style="fill:#262626;stroke:#262626;stroke-width:0.8;" x="387.30423" xlink:href="#mc6a06e784e" y="296.4062"/>
      </g>
     </g>
     <g id="text_49">
      <!-- 6a -->
      <g style="fill:#262626;" transform="translate(367.813605 300.205419)scale(0.1 -0.1)">
       <use xlink:href="#DejaVuSans-54"/>
       <use x="63.623047" xlink:href="#DejaVuSans-97"/>
      </g>
     </g>
    </g>
    <g id="ytick_33">
     <g id="line2d_44">
      <g>
       <use style="fill:#262626;stroke:#262626;stroke-width:0.8;" x="387.30423" xlink:href="#mc6a06e784e" y="272.177053"/>
      </g>
     </g>
     <g id="text_50">
      <!-- 5a -->
      <g style="fill:#262626;" transform="translate(367.813605 275.976272)scale(0.1 -0.1)">
       <use xlink:href="#DejaVuSans-53"/>
       <use x="63.623047" xlink:href="#DejaVuSans-97"/>
      </g>
     </g>
    </g>
    <g id="ytick_34">
     <g id="line2d_45">
      <g>
       <use style="fill:#262626;stroke:#262626;stroke-width:0.8;" x="387.30423" xlink:href="#mc6a06e784e" y="247.947906"/>
      </g>
     </g>
     <g id="text_51">
      <!-- 4c -->
      <g style="fill:#262626;" transform="translate(368.443293 251.747125)scale(0.1 -0.1)">
       <use xlink:href="#DejaVuSans-52"/>
       <use x="63.623047" xlink:href="#DejaVuSans-99"/>
      </g>
     </g>
    </g>
    <g id="ytick_35">
     <g id="line2d_46">
      <g>
       <use style="fill:#262626;stroke:#262626;stroke-width:0.8;" x="387.30423" xlink:href="#mc6a06e784e" y="223.718759"/>
      </g>
     </g>
     <g id="text_52">
      <!-- 4b -->
      <g style="fill:#262626;" transform="translate(367.593293 227.517978)scale(0.1 -0.1)">
       <use xlink:href="#DejaVuSans-52"/>
       <use x="63.623047" xlink:href="#DejaVuSans-98"/>
      </g>
     </g>
    </g>
    <g id="ytick_36">
     <g id="line2d_47">
      <g>
       <use style="fill:#262626;stroke:#262626;stroke-width:0.8;" x="387.30423" xlink:href="#mc6a06e784e" y="199.489613"/>
      </g>
     </g>
     <g id="text_53">
      <!-- 4a -->
      <g style="fill:#262626;" transform="translate(367.813605 203.288831)scale(0.1 -0.1)">
       <use xlink:href="#DejaVuSans-52"/>
       <use x="63.623047" xlink:href="#DejaVuSans-97"/>
      </g>
     </g>
    </g>
    <g id="ytick_37">
     <g id="line2d_48">
      <g>
       <use style="fill:#262626;stroke:#262626;stroke-width:0.8;" x="387.30423" xlink:href="#mc6a06e784e" y="175.260466"/>
      </g>
     </g>
     <g id="text_54">
      <!-- 3a -->
      <g style="fill:#262626;" transform="translate(367.813605 179.059684)scale(0.1 -0.1)">
       <use xlink:href="#DejaVuSans-51"/>
       <use x="63.623047" xlink:href="#DejaVuSans-97"/>
      </g>
     </g>
    </g>
    <g id="ytick_38">
     <g id="line2d_49">
      <g>
       <use style="fill:#262626;stroke:#262626;stroke-width:0.8;" x="387.30423" xlink:href="#mc6a06e784e" y="151.031319"/>
      </g>
     </g>
     <g id="text_55">
      <!-- 2c -->
      <g style="fill:#262626;" transform="translate(368.443293 154.830538)scale(0.1 -0.1)">
       <use xlink:href="#DejaVuSans-50"/>
       <use x="63.623047" xlink:href="#DejaVuSans-99"/>
      </g>
     </g>
    </g>
    <g id="ytick_39">
     <g id="line2d_50">
      <g>
       <use style="fill:#262626;stroke:#262626;stroke-width:0.8;" x="387.30423" xlink:href="#mc6a06e784e" y="126.802172"/>
      </g>
     </g>
     <g id="text_56">
      <!-- 2b -->
      <g style="fill:#262626;" transform="translate(367.593293 130.601391)scale(0.1 -0.1)">
       <use xlink:href="#DejaVuSans-50"/>
       <use x="63.623047" xlink:href="#DejaVuSans-98"/>
      </g>
     </g>
    </g>
    <g id="ytick_40">
     <g id="line2d_51">
      <g>
       <use style="fill:#262626;stroke:#262626;stroke-width:0.8;" x="387.30423" xlink:href="#mc6a06e784e" y="102.573025"/>
      </g>
     </g>
     <g id="text_57">
      <!-- 2a -->
      <g style="fill:#262626;" transform="translate(367.813605 106.372244)scale(0.1 -0.1)">
       <use xlink:href="#DejaVuSans-50"/>
       <use x="63.623047" xlink:href="#DejaVuSans-97"/>
      </g>
     </g>
    </g>
    <g id="ytick_41">
     <g id="line2d_52">
      <g>
       <use style="fill:#262626;stroke:#262626;stroke-width:0.8;" x="387.30423" xlink:href="#mc6a06e784e" y="78.343878"/>
      </g>
     </g>
     <g id="text_58">
      <!-- 1b -->
      <g style="fill:#262626;" transform="translate(367.593293 82.143097)scale(0.1 -0.1)">
       <use xlink:href="#DejaVuSans-49"/>
       <use x="63.623047" xlink:href="#DejaVuSans-98"/>
      </g>
     </g>
    </g>
    <g id="ytick_42">
     <g id="line2d_53">
      <g>
       <use style="fill:#262626;stroke:#262626;stroke-width:0.8;" x="387.30423" xlink:href="#mc6a06e784e" y="54.114731"/>
      </g>
     </g>
     <g id="text_59">
      <!-- 1a -->
      <g style="fill:#262626;" transform="translate(367.813605 57.91395)scale(0.1 -0.1)">
       <use xlink:href="#DejaVuSans-49"/>
       <use x="63.623047" xlink:href="#DejaVuSans-97"/>
      </g>
     </g>
    </g>
   </g>
   <g id="patch_37">
    <path clip-path="url(#p19f6a08a61)" d="M 387.30423 378.785299 
L 395.790947 378.785299 
L 395.790947 359.401982 
L 387.30423 359.401982 
z
" style="fill:#4575b4;opacity:0.7;stroke:#000000;stroke-linejoin:miter;stroke-width:1.15;"/>
   </g>
   <g id="patch_38">
    <path clip-path="url(#p19f6a08a61)" d="M 387.30423 354.556152 
L 428.279161 354.556152 
L 428.279161 335.172835 
L 387.30423 335.172835 
z
" style="fill:#91bfdb;opacity:0.7;stroke:#000000;stroke-linejoin:miter;stroke-width:1.15;"/>
   </g>
   <g id="patch_39">
    <path clip-path="url(#p19f6a08a61)" d="M 387.30423 330.327006 
L 392.90764 330.327006 
L 392.90764 310.943688 
L 387.30423 310.943688 
z
" style="fill:#91bfdb;opacity:0.7;stroke:#000000;stroke-linejoin:miter;stroke-width:1.15;"/>
   </g>
   <g id="patch_40">
    <path clip-path="url(#p19f6a08a61)" d="M 387.30423 306.097859 
L 391.160694 306.097859 
L 391.160694 286.714541 
L 387.30423 286.714541 
z
" style="fill:#91bfdb;opacity:0.7;stroke:#000000;stroke-linejoin:miter;stroke-width:1.15;"/>
   </g>
   <g id="patch_41">
    <path clip-path="url(#p19f6a08a61)" d="M 387.30423 281.868712 
L 394.181142 281.868712 
L 394.181142 262.485394 
L 387.30423 262.485394 
z
" style="fill:#e0f3f8;opacity:0.7;stroke:#000000;stroke-linejoin:miter;stroke-width:1.15;"/>
   </g>
   <g id="patch_42">
    <path clip-path="url(#p19f6a08a61)" d="M 387.30423 257.639565 
L 406.586551 257.639565 
L 406.586551 238.256248 
L 387.30423 238.256248 
z
" style="fill:#ffffbf;opacity:0.7;stroke:#000000;stroke-linejoin:miter;stroke-width:1.15;"/>
   </g>
   <g id="patch_43">
    <path clip-path="url(#p19f6a08a61)" d="M 387.30423 233.410418 
L 404.687534 233.410418 
L 404.687534 214.027101 
L 387.30423 214.027101 
z
" style="fill:#ffffbf;opacity:0.7;stroke:#000000;stroke-linejoin:miter;stroke-width:1.15;"/>
   </g>
   <g id="patch_44">
    <path clip-path="url(#p19f6a08a61)" d="M 387.30423 209.181271 
L 398.322699 209.181271 
L 398.322699 189.797954 
L 387.30423 189.797954 
z
" style="fill:#ffffbf;opacity:0.7;stroke:#000000;stroke-linejoin:miter;stroke-width:1.15;"/>
   </g>
   <g id="patch_45">
    <path clip-path="url(#p19f6a08a61)" d="M 387.30423 184.952124 
L 389.48956 184.952124 
L 389.48956 165.568807 
L 387.30423 165.568807 
z
" style="fill:#fee090;opacity:0.7;stroke:#000000;stroke-linejoin:miter;stroke-width:1.15;"/>
   </g>
   <g id="patch_46">
    <path clip-path="url(#p19f6a08a61)" d="M 387.30423 160.722978 
L 404.709511 160.722978 
L 404.709511 141.33966 
L 387.30423 141.33966 
z
" style="fill:#fc8d59;opacity:0.7;stroke:#000000;stroke-linejoin:miter;stroke-width:1.15;"/>
   </g>
   <g id="patch_47">
    <path clip-path="url(#p19f6a08a61)" d="M 387.30423 136.493831 
L 517.995513 136.493831 
L 517.995513 117.110513 
L 387.30423 117.110513 
z
" style="fill:#fc8d59;opacity:0.7;stroke:#000000;stroke-linejoin:miter;stroke-width:1.15;"/>
   </g>
   <g id="patch_48">
    <path clip-path="url(#p19f6a08a61)" d="M 387.30423 112.264684 
L 407.89896 112.264684 
L 407.89896 92.881366 
L 387.30423 92.881366 
z
" style="fill:#fc8d59;opacity:0.7;stroke:#000000;stroke-linejoin:miter;stroke-width:1.15;"/>
   </g>
   <g id="patch_49">
    <path clip-path="url(#p19f6a08a61)" d="M 387.30423 88.035537 
L 405.384296 88.035537 
L 405.384296 68.65222 
L 387.30423 68.65222 
z
" style="fill:#d73027;opacity:0.7;stroke:#000000;stroke-linejoin:miter;stroke-width:1.15;"/>
   </g>
   <g id="patch_50">
    <path clip-path="url(#p19f6a08a61)" d="M 387.30423 63.80639 
L 397.663581 63.80639 
L 397.663581 44.423073 
L 387.30423 44.423073 
z
" style="fill:#d73027;opacity:0.7;stroke:#000000;stroke-linejoin:miter;stroke-width:1.15;"/>
   </g>
   <g id="patch_51">
    <path d="M 387.30423 384.842586 
L 387.30423 38.365786 
" style="fill:none;stroke:#262626;stroke-linecap:square;stroke-linejoin:miter;stroke-width:0.8;"/>
   </g>
   <g id="patch_52">
    <path d="M 387.30423 384.842586 
L 524.530077 384.842586 
" style="fill:none;stroke:#262626;stroke-linecap:square;stroke-linejoin:miter;stroke-width:0.8;"/>
   </g>
   <g id="text_60">
    <!-- C. -->
    <g style="fill:#262626;" transform="translate(373.581646 25.43625)scale(0.24 -0.24)">
     <use xlink:href="#DejaVuSans-67"/>
     <use x="69.824219" xlink:href="#DejaVuSans-46"/>
    </g>
   </g>
  </g>
  <g id="axes_4">
   <g id="patch_53">
    <path d="M 559.210095 384.842586 
L 696.435942 384.842586 
L 696.435942 38.365786 
L 559.210095 38.365786 
z
" style="fill:#ffffff;"/>
   </g>
   <g id="matplotlib.axis_7">
    <g id="xtick_12">
     <g id="line2d_54">
      <g>
       <use style="fill:#262626;stroke:#262626;stroke-width:0.8;" x="559.210095" xlink:href="#m8508fb28aa" y="384.842586"/>
      </g>
     </g>
     <g id="text_61">
      <!-- 0 -->
      <g style="fill:#262626;" transform="translate(556.028845 399.441023)scale(0.1 -0.1)">
       <use xlink:href="#DejaVuSans-48"/>
      </g>
     </g>
    </g>
    <g id="xtick_13">
     <g id="line2d_55">
      <g>
       <use style="fill:#262626;stroke:#262626;stroke-width:0.8;" x="618.212932" xlink:href="#m8508fb28aa" y="384.842586"/>
      </g>
     </g>
     <g id="text_62">
      <!-- 200 -->
      <g style="fill:#262626;" transform="translate(608.669182 399.441023)scale(0.1 -0.1)">
       <use xlink:href="#DejaVuSans-50"/>
       <use x="63.623047" xlink:href="#DejaVuSans-48"/>
       <use x="127.246094" xlink:href="#DejaVuSans-48"/>
      </g>
     </g>
    </g>
    <g id="xtick_14">
     <g id="line2d_56">
      <g>
       <use style="fill:#262626;stroke:#262626;stroke-width:0.8;" x="677.215768" xlink:href="#m8508fb28aa" y="384.842586"/>
      </g>
     </g>
     <g id="text_63">
      <!-- 400 -->
      <g style="fill:#262626;" transform="translate(667.672018 399.441023)scale(0.1 -0.1)">
       <use xlink:href="#DejaVuSans-52"/>
       <use x="63.623047" xlink:href="#DejaVuSans-48"/>
       <use x="127.246094" xlink:href="#DejaVuSans-48"/>
      </g>
     </g>
    </g>
    <g id="text_64">
     <!-- Total Number of Papers -->
     <defs>
      <path d="M 9.8125 72.90625 
L 23.09375 72.90625 
L 55.421875 11.921875 
L 55.421875 72.90625 
L 64.984375 72.90625 
L 64.984375 0 
L 51.703125 0 
L 19.390625 60.984375 
L 19.390625 0 
L 9.8125 0 
z
" id="DejaVuSans-78"/>
      <path d="M 37.109375 75.984375 
L 37.109375 68.5 
L 28.515625 68.5 
Q 23.6875 68.5 21.796875 66.546875 
Q 19.921875 64.59375 19.921875 59.515625 
L 19.921875 54.6875 
L 34.71875 54.6875 
L 34.71875 47.703125 
L 19.921875 47.703125 
L 19.921875 0 
L 10.890625 0 
L 10.890625 47.703125 
L 2.296875 47.703125 
L 2.296875 54.6875 
L 10.890625 54.6875 
L 10.890625 58.5 
Q 10.890625 67.625 15.140625 71.796875 
Q 19.390625 75.984375 28.609375 75.984375 
z
" id="DejaVuSans-102"/>
      <path d="M 19.671875 64.796875 
L 19.671875 37.40625 
L 32.078125 37.40625 
Q 38.96875 37.40625 42.71875 40.96875 
Q 46.484375 44.53125 46.484375 51.125 
Q 46.484375 57.671875 42.71875 61.234375 
Q 38.96875 64.796875 32.078125 64.796875 
z
M 9.8125 72.90625 
L 32.078125 72.90625 
Q 44.34375 72.90625 50.609375 67.359375 
Q 56.890625 61.8125 56.890625 51.125 
Q 56.890625 40.328125 50.609375 34.8125 
Q 44.34375 29.296875 32.078125 29.296875 
L 19.671875 29.296875 
L 19.671875 0 
L 9.8125 0 
z
" id="DejaVuSans-80"/>
     </defs>
     <g style="fill:#262626;" transform="translate(550.898566 415.39868)scale(0.13 -0.13)">
      <use xlink:href="#DejaVuSans-84"/>
      <use x="60.818359" xlink:href="#DejaVuSans-111"/>
      <use x="122" xlink:href="#DejaVuSans-116"/>
      <use x="161.208984" xlink:href="#DejaVuSans-97"/>
      <use x="222.488281" xlink:href="#DejaVuSans-108"/>
      <use x="250.271484" xlink:href="#DejaVuSans-32"/>
      <use x="282.058594" xlink:href="#DejaVuSans-78"/>
      <use x="356.863281" xlink:href="#DejaVuSans-117"/>
      <use x="420.242188" xlink:href="#DejaVuSans-109"/>
      <use x="517.654297" xlink:href="#DejaVuSans-98"/>
      <use x="581.130859" xlink:href="#DejaVuSans-101"/>
      <use x="642.654297" xlink:href="#DejaVuSans-114"/>
      <use x="683.767578" xlink:href="#DejaVuSans-32"/>
      <use x="715.554688" xlink:href="#DejaVuSans-111"/>
      <use x="776.736328" xlink:href="#DejaVuSans-102"/>
      <use x="811.941406" xlink:href="#DejaVuSans-32"/>
      <use x="843.728516" xlink:href="#DejaVuSans-80"/>
      <use x="903.96875" xlink:href="#DejaVuSans-97"/>
      <use x="965.248047" xlink:href="#DejaVuSans-112"/>
      <use x="1028.724609" xlink:href="#DejaVuSans-101"/>
      <use x="1090.248047" xlink:href="#DejaVuSans-114"/>
      <use x="1131.361328" xlink:href="#DejaVuSans-115"/>
     </g>
    </g>
   </g>
   <g id="matplotlib.axis_8">
    <g id="ytick_43">
     <g id="line2d_57">
      <g>
       <use style="fill:#262626;stroke:#262626;stroke-width:0.8;" x="559.210095" xlink:href="#mc6a06e784e" y="369.093641"/>
      </g>
     </g>
     <g id="text_65">
      <!-- 7a -->
      <g style="fill:#262626;" transform="translate(539.71947 372.892859)scale(0.1 -0.1)">
       <use xlink:href="#DejaVuSans-55"/>
       <use x="63.623047" xlink:href="#DejaVuSans-97"/>
      </g>
     </g>
    </g>
    <g id="ytick_44">
     <g id="line2d_58">
      <g>
       <use style="fill:#262626;stroke:#262626;stroke-width:0.8;" x="559.210095" xlink:href="#mc6a06e784e" y="344.864494"/>
      </g>
     </g>
     <g id="text_66">
      <!-- 6c -->
      <g style="fill:#262626;" transform="translate(540.349158 348.663712)scale(0.1 -0.1)">
       <use xlink:href="#DejaVuSans-54"/>
       <use x="63.623047" xlink:href="#DejaVuSans-99"/>
      </g>
     </g>
    </g>
    <g id="ytick_45">
     <g id="line2d_59">
      <g>
       <use style="fill:#262626;stroke:#262626;stroke-width:0.8;" x="559.210095" xlink:href="#mc6a06e784e" y="320.635347"/>
      </g>
     </g>
     <g id="text_67">
      <!-- 6b -->
      <g style="fill:#262626;" transform="translate(539.499158 324.434566)scale(0.1 -0.1)">
       <use xlink:href="#DejaVuSans-54"/>
       <use x="63.623047" xlink:href="#DejaVuSans-98"/>
      </g>
     </g>
    </g>
    <g id="ytick_46">
     <g id="line2d_60">
      <g>
       <use style="fill:#262626;stroke:#262626;stroke-width:0.8;" x="559.210095" xlink:href="#mc6a06e784e" y="296.4062"/>
      </g>
     </g>
     <g id="text_68">
      <!-- 6a -->
      <g style="fill:#262626;" transform="translate(539.71947 300.205419)scale(0.1 -0.1)">
       <use xlink:href="#DejaVuSans-54"/>
       <use x="63.623047" xlink:href="#DejaVuSans-97"/>
      </g>
     </g>
    </g>
    <g id="ytick_47">
     <g id="line2d_61">
      <g>
       <use style="fill:#262626;stroke:#262626;stroke-width:0.8;" x="559.210095" xlink:href="#mc6a06e784e" y="272.177053"/>
      </g>
     </g>
     <g id="text_69">
      <!-- 5a -->
      <g style="fill:#262626;" transform="translate(539.71947 275.976272)scale(0.1 -0.1)">
       <use xlink:href="#DejaVuSans-53"/>
       <use x="63.623047" xlink:href="#DejaVuSans-97"/>
      </g>
     </g>
    </g>
    <g id="ytick_48">
     <g id="line2d_62">
      <g>
       <use style="fill:#262626;stroke:#262626;stroke-width:0.8;" x="559.210095" xlink:href="#mc6a06e784e" y="247.947906"/>
      </g>
     </g>
     <g id="text_70">
      <!-- 4c -->
      <g style="fill:#262626;" transform="translate(540.349158 251.747125)scale(0.1 -0.1)">
       <use xlink:href="#DejaVuSans-52"/>
       <use x="63.623047" xlink:href="#DejaVuSans-99"/>
      </g>
     </g>
    </g>
    <g id="ytick_49">
     <g id="line2d_63">
      <g>
       <use style="fill:#262626;stroke:#262626;stroke-width:0.8;" x="559.210095" xlink:href="#mc6a06e784e" y="223.718759"/>
      </g>
     </g>
     <g id="text_71">
      <!-- 4b -->
      <g style="fill:#262626;" transform="translate(539.499158 227.517978)scale(0.1 -0.1)">
       <use xlink:href="#DejaVuSans-52"/>
       <use x="63.623047" xlink:href="#DejaVuSans-98"/>
      </g>
     </g>
    </g>
    <g id="ytick_50">
     <g id="line2d_64">
      <g>
       <use style="fill:#262626;stroke:#262626;stroke-width:0.8;" x="559.210095" xlink:href="#mc6a06e784e" y="199.489613"/>
      </g>
     </g>
     <g id="text_72">
      <!-- 4a -->
      <g style="fill:#262626;" transform="translate(539.71947 203.288831)scale(0.1 -0.1)">
       <use xlink:href="#DejaVuSans-52"/>
       <use x="63.623047" xlink:href="#DejaVuSans-97"/>
      </g>
     </g>
    </g>
    <g id="ytick_51">
     <g id="line2d_65">
      <g>
       <use style="fill:#262626;stroke:#262626;stroke-width:0.8;" x="559.210095" xlink:href="#mc6a06e784e" y="175.260466"/>
      </g>
     </g>
     <g id="text_73">
      <!-- 3a -->
      <g style="fill:#262626;" transform="translate(539.71947 179.059684)scale(0.1 -0.1)">
       <use xlink:href="#DejaVuSans-51"/>
       <use x="63.623047" xlink:href="#DejaVuSans-97"/>
      </g>
     </g>
    </g>
    <g id="ytick_52">
     <g id="line2d_66">
      <g>
       <use style="fill:#262626;stroke:#262626;stroke-width:0.8;" x="559.210095" xlink:href="#mc6a06e784e" y="151.031319"/>
      </g>
     </g>
     <g id="text_74">
      <!-- 2c -->
      <g style="fill:#262626;" transform="translate(540.349158 154.830538)scale(0.1 -0.1)">
       <use xlink:href="#DejaVuSans-50"/>
       <use x="63.623047" xlink:href="#DejaVuSans-99"/>
      </g>
     </g>
    </g>
    <g id="ytick_53">
     <g id="line2d_67">
      <g>
       <use style="fill:#262626;stroke:#262626;stroke-width:0.8;" x="559.210095" xlink:href="#mc6a06e784e" y="126.802172"/>
      </g>
     </g>
     <g id="text_75">
      <!-- 2b -->
      <g style="fill:#262626;" transform="translate(539.499158 130.601391)scale(0.1 -0.1)">
       <use xlink:href="#DejaVuSans-50"/>
       <use x="63.623047" xlink:href="#DejaVuSans-98"/>
      </g>
     </g>
    </g>
    <g id="ytick_54">
     <g id="line2d_68">
      <g>
       <use style="fill:#262626;stroke:#262626;stroke-width:0.8;" x="559.210095" xlink:href="#mc6a06e784e" y="102.573025"/>
      </g>
     </g>
     <g id="text_76">
      <!-- 2a -->
      <g style="fill:#262626;" transform="translate(539.71947 106.372244)scale(0.1 -0.1)">
       <use xlink:href="#DejaVuSans-50"/>
       <use x="63.623047" xlink:href="#DejaVuSans-97"/>
      </g>
     </g>
    </g>
    <g id="ytick_55">
     <g id="line2d_69">
      <g>
       <use style="fill:#262626;stroke:#262626;stroke-width:0.8;" x="559.210095" xlink:href="#mc6a06e784e" y="78.343878"/>
      </g>
     </g>
     <g id="text_77">
      <!-- 1b -->
      <g style="fill:#262626;" transform="translate(539.499158 82.143097)scale(0.1 -0.1)">
       <use xlink:href="#DejaVuSans-49"/>
       <use x="63.623047" xlink:href="#DejaVuSans-98"/>
      </g>
     </g>
    </g>
    <g id="ytick_56">
     <g id="line2d_70">
      <g>
       <use style="fill:#262626;stroke:#262626;stroke-width:0.8;" x="559.210095" xlink:href="#mc6a06e784e" y="54.114731"/>
      </g>
     </g>
     <g id="text_78">
      <!-- 1a -->
      <g style="fill:#262626;" transform="translate(539.71947 57.91395)scale(0.1 -0.1)">
       <use xlink:href="#DejaVuSans-49"/>
       <use x="63.623047" xlink:href="#DejaVuSans-97"/>
      </g>
     </g>
    </g>
   </g>
   <g id="patch_54">
    <path clip-path="url(#p98b9a6d5c8)" d="M 559.210095 378.785299 
L 589.596556 378.785299 
L 589.596556 359.401982 
L 559.210095 359.401982 
z
" style="fill:#4575b4;opacity:0.7;stroke:#000000;stroke-linejoin:miter;stroke-width:1.15;"/>
   </g>
   <g id="patch_55">
    <path clip-path="url(#p98b9a6d5c8)" d="M 559.210095 354.556152 
L 568.650549 354.556152 
L 568.650549 335.172835 
L 559.210095 335.172835 
z
" style="fill:#91bfdb;opacity:0.7;stroke:#000000;stroke-linejoin:miter;stroke-width:1.15;"/>
   </g>
   <g id="patch_56">
    <path clip-path="url(#p98b9a6d5c8)" d="M 559.210095 330.327006 
L 593.726755 330.327006 
L 593.726755 310.943688 
L 559.210095 310.943688 
z
" style="fill:#91bfdb;opacity:0.7;stroke:#000000;stroke-linejoin:miter;stroke-width:1.15;"/>
   </g>
   <g id="patch_57">
    <path clip-path="url(#p98b9a6d5c8)" d="M 559.210095 306.097859 
L 609.362506 306.097859 
L 609.362506 286.714541 
L 559.210095 286.714541 
z
" style="fill:#91bfdb;opacity:0.7;stroke:#000000;stroke-linejoin:miter;stroke-width:1.15;"/>
   </g>
   <g id="patch_58">
    <path clip-path="url(#p98b9a6d5c8)" d="M 559.210095 281.868712 
L 643.584151 281.868712 
L 643.584151 262.485394 
L 559.210095 262.485394 
z
" style="fill:#e0f3f8;opacity:0.7;stroke:#000000;stroke-linejoin:miter;stroke-width:1.15;"/>
   </g>
   <g id="patch_59">
    <path clip-path="url(#p98b9a6d5c8)" d="M 559.210095 257.639565 
L 639.453953 257.639565 
L 639.453953 238.256248 
L 559.210095 238.256248 
z
" style="fill:#ffffbf;opacity:0.7;stroke:#000000;stroke-linejoin:miter;stroke-width:1.15;"/>
   </g>
   <g id="patch_60">
    <path clip-path="url(#p98b9a6d5c8)" d="M 559.210095 233.410418 
L 611.132591 233.410418 
L 611.132591 214.027101 
L 559.210095 214.027101 
z
" style="fill:#ffffbf;opacity:0.7;stroke:#000000;stroke-linejoin:miter;stroke-width:1.15;"/>
   </g>
   <g id="patch_61">
    <path clip-path="url(#p98b9a6d5c8)" d="M 559.210095 209.181271 
L 594.316783 209.181271 
L 594.316783 189.797954 
L 559.210095 189.797954 
z
" style="fill:#ffffbf;opacity:0.7;stroke:#000000;stroke-linejoin:miter;stroke-width:1.15;"/>
   </g>
   <g id="patch_62">
    <path clip-path="url(#p98b9a6d5c8)" d="M 559.210095 184.952124 
L 588.711514 184.952124 
L 588.711514 165.568807 
L 559.210095 165.568807 
z
" style="fill:#fee090;opacity:0.7;stroke:#000000;stroke-linejoin:miter;stroke-width:1.15;"/>
   </g>
   <g id="patch_63">
    <path clip-path="url(#p98b9a6d5c8)" d="M 559.210095 160.722978 
L 592.546698 160.722978 
L 592.546698 141.33966 
L 559.210095 141.33966 
z
" style="fill:#fc8d59;opacity:0.7;stroke:#000000;stroke-linejoin:miter;stroke-width:1.15;"/>
   </g>
   <g id="patch_64">
    <path clip-path="url(#p98b9a6d5c8)" d="M 559.210095 136.493831 
L 589.301542 136.493831 
L 589.301542 117.110513 
L 559.210095 117.110513 
z
" style="fill:#fc8d59;opacity:0.7;stroke:#000000;stroke-linejoin:miter;stroke-width:1.15;"/>
   </g>
   <g id="patch_65">
    <path clip-path="url(#p98b9a6d5c8)" d="M 559.210095 112.264684 
L 615.557804 112.264684 
L 615.557804 92.881366 
L 559.210095 92.881366 
z
" style="fill:#fc8d59;opacity:0.7;stroke:#000000;stroke-linejoin:miter;stroke-width:1.15;"/>
   </g>
   <g id="patch_66">
    <path clip-path="url(#p98b9a6d5c8)" d="M 559.210095 88.035537 
L 641.224038 88.035537 
L 641.224038 68.65222 
L 559.210095 68.65222 
z
" style="fill:#d73027;opacity:0.7;stroke:#000000;stroke-linejoin:miter;stroke-width:1.15;"/>
   </g>
   <g id="patch_67">
    <path clip-path="url(#p98b9a6d5c8)" d="M 559.210095 63.80639 
L 689.901378 63.80639 
L 689.901378 44.423073 
L 559.210095 44.423073 
z
" style="fill:#d73027;opacity:0.7;stroke:#000000;stroke-linejoin:miter;stroke-width:1.15;"/>
   </g>
   <g id="patch_68">
    <path d="M 559.210095 384.842586 
L 559.210095 38.365786 
" style="fill:none;stroke:#262626;stroke-linecap:square;stroke-linejoin:miter;stroke-width:0.8;"/>
   </g>
   <g id="patch_69">
    <path d="M 559.210095 384.842586 
L 696.435942 384.842586 
" style="fill:none;stroke:#262626;stroke-linecap:square;stroke-linejoin:miter;stroke-width:0.8;"/>
   </g>
   <g id="text_79">
    <!-- D. -->
    <defs>
     <path d="M 19.671875 64.796875 
L 19.671875 8.109375 
L 31.59375 8.109375 
Q 46.6875 8.109375 53.6875 14.9375 
Q 60.6875 21.78125 60.6875 36.53125 
Q 60.6875 51.171875 53.6875 57.984375 
Q 46.6875 64.796875 31.59375 64.796875 
z
M 9.8125 72.90625 
L 30.078125 72.90625 
Q 51.265625 72.90625 61.171875 64.09375 
Q 71.09375 55.28125 71.09375 36.53125 
Q 71.09375 17.671875 61.125 8.828125 
Q 51.171875 0 30.078125 0 
L 9.8125 0 
z
" id="DejaVuSans-68"/>
    </defs>
    <g style="fill:#262626;" transform="translate(545.487511 25.43625)scale(0.24 -0.24)">
     <use xlink:href="#DejaVuSans-68"/>
     <use x="77.001953" xlink:href="#DejaVuSans-46"/>
    </g>
   </g>
  </g>
 </g>
 <defs>
  <clipPath id="p427bc1bd13">
   <rect height="346.4768" width="137.225846" x="43.4925" y="38.365786"/>
  </clipPath>
  <clipPath id="pa079250537">
   <rect height="346.4768" width="137.225846" x="215.398365" y="38.365786"/>
  </clipPath>
  <clipPath id="p19f6a08a61">
   <rect height="346.4768" width="137.225846" x="387.30423" y="38.365786"/>
  </clipPath>
  <clipPath id="p98b9a6d5c8">
   <rect height="346.4768" width="137.225846" x="559.210095" y="38.365786"/>
  </clipPath>
 </defs>
</svg>
